<svg width="93" height="93" viewBox="0 0 93 93" fill="none" xmlns="http://www.w3.org/2000/svg">
<g clip-path="url(#clip0)">
<path d="M46.5334 0C20.8299 0 0 20.8299 0 46.5334C0 72.2369 20.8299 93.0667 46.5334 93.0667C72.2369 93.0667 93.0667 72.2369 93.0667 46.5334C93.0667 20.8299 72.2369 0 46.5334 0ZM44.8643 64.7595L41.4594 74.8406C41.3927 75.1744 41.1924 75.4415 40.9921 75.7085C40.5248 76.3762 40.0574 76.9103 39.323 77.3108C38.7222 77.6446 37.9878 77.8449 37.3202 77.8449C36.8528 77.8449 36.3855 77.7782 35.9182 77.5779C33.982 76.9103 32.7803 74.9742 33.0474 73.038C23.4336 68.0976 16.8909 58.0165 16.8909 46.5334C16.8909 30.0431 30.1766 16.6906 46.6669 16.6906C48.603 16.6906 50.4056 16.8909 52.2749 17.2247C53.3431 15.5556 55.4128 14.7545 57.3489 15.4221C58.4171 15.7559 59.1515 16.4903 59.6856 17.3582C60.1529 18.1594 60.3532 19.0273 60.2864 19.962C60.2864 20.2958 60.2197 20.6296 60.0861 20.8966L56.748 30.9777L44.8643 64.7595ZM48.603 76.2426L52.7423 63.8248C59.8191 61.2879 64.893 54.5449 64.893 46.5334C64.893 42.7947 63.7581 39.1895 61.7552 36.3187L65.8945 23.9009C72.3036 29.3087 76.3762 37.4537 76.3762 46.5334C76.2426 62.2225 64.0919 75.1077 48.603 76.2426Z" fill="#288CC0"/>
<path d="M28.1738 46.5334C28.1738 53.0094 31.5787 58.6842 36.6527 62.0223L48.2025 28.3073C47.6684 28.2405 47.0676 28.2405 46.5335 28.2405C36.3856 28.1738 28.1738 36.3855 28.1738 46.5334Z" fill="#288CC0"/>
</g>
<defs>
<clipPath id="clip0">
<rect width="93" height="93" fill="white"/>
</clipPath>
</defs>
</svg>
