<svg width="89" height="89" viewBox="0 0 89 89" fill="none" xmlns="http://www.w3.org/2000/svg">
<path d="M44.4665 88.9329C69.0246 88.9329 88.9329 69.0246 88.9329 44.4665C88.9329 19.9083 69.0246 0 44.4665 0C19.9083 0 0 19.9083 0 44.4665C0 69.0246 19.9083 88.9329 44.4665 88.9329Z" fill="#4353FE"/>
<path d="M47.887 65.1236C46.8139 57.8131 45.8078 50.3685 44.7347 42.9909C44.6677 42.9909 44.6006 42.9909 44.5335 42.9239C44.3994 43.1921 44.2653 43.5275 44.1311 43.7957C42.7227 47.3504 41.3813 50.905 40.0399 54.5267C39.0339 57.1424 37.6255 59.6239 35.6134 61.5689C33.1989 63.9163 30.2479 65.0565 26.8945 65.2577C26.7604 65.2577 26.6262 65.2577 26.5592 65.2577C26.4921 65.2577 26.425 65.1906 26.2238 65.1236C24.2788 53.2524 22.3338 41.3142 20.3218 29.1077C21.1937 29.2419 21.9314 29.3089 22.6692 29.4431C27.5652 30.6503 31.6564 34.8756 31.8576 40.5765C31.9917 44.8688 32.3271 49.0942 32.5283 53.3865C32.5283 53.4536 32.5953 53.5207 32.6624 53.6548C33.1319 52.5147 33.5343 51.5086 33.9367 50.4355C35.3451 46.8138 36.7536 43.1251 38.162 39.5034C39.0339 37.223 40.1741 35.1439 41.7837 33.333C44.2653 30.5832 47.3504 29.1748 51.1733 29.1077C51.7099 33.1989 52.2464 37.2901 52.783 41.3142C53.3195 45.4054 53.789 49.4295 54.4597 53.5207C54.5938 53.2524 54.6609 52.9171 54.795 52.6488C56.0693 48.5576 57.4107 44.3994 58.685 40.3082C59.624 37.3572 61.0995 34.6074 63.4469 32.4612C65.9284 30.1808 68.8794 29.1077 72.2999 29.1077C72.0987 29.6443 71.9646 30.0467 71.8304 30.4491C68.5441 38.4973 65.3248 46.6126 62.0384 54.6609C61.2336 56.6058 60.2276 58.4838 58.8862 60.1605C56.2705 63.3798 52.85 64.9894 48.7589 65.2577C48.6247 65.2577 48.4235 65.2577 48.2894 65.2577C48.1552 65.2577 48.0882 65.1906 47.887 65.1236Z" fill="#FDFDFE"/>
</svg>
