<svg width="87" height="67" viewBox="0 0 87 67" fill="none" xmlns="http://www.w3.org/2000/svg">
<g clip-path="url(#clip0)">
<path d="M16.908 59.7784C16.908 59.7211 16.8507 59.6638 16.8507 59.6065L0.68863 15.0163C-1.43192 9.22754 1.54831 2.80838 7.39416 0.687767C8.65503 0.229256 9.97321 0 11.2341 0C15.8191 0 20.1175 2.80838 21.7795 7.3935L27.3961 22.8683L16.8507 51.9264C15.8764 54.5629 15.991 57.3139 16.908 59.7784Z" fill="#80BCFF"/>
<path d="M34.1582 5.0436C34.3301 4.81435 34.5021 4.58509 34.674 4.35583C34.5021 4.52778 34.3301 4.75703 34.1582 5.0436Z" fill="#8AD782"/>
<path d="M39.66 0.687819C40.1758 0.515877 40.6343 0.343935 41.1501 0.286621L38.8003 1.0317C39.0869 0.917074 39.3734 0.802447 39.66 0.687819Z" fill="#8AD782"/>
<path d="M53.9882 7.27888C53.9308 7.16425 53.9308 7.10694 53.8735 6.99231C53.9308 7.10694 53.9882 7.27888 54.0455 7.39351C54.0455 7.33619 53.9882 7.33619 53.9882 7.27888Z" fill="#8AD782"/>
<path opacity="0.8" d="M59.6621 22.8683L49.1166 51.9265C48.1996 54.4483 48.2569 57.142 49.1166 59.4919L43.5 44.1318L54.0455 15.0163C54.9051 12.6091 54.9051 10.0873 54.2174 7.85205L59.6621 22.8683Z" fill="#FFD80B"/>
<path d="M70.0927 59.7785C70.0354 59.9504 69.9208 60.1223 69.8635 60.2943C69.8062 60.4089 69.7488 60.5235 69.6915 60.6955C69.6342 60.8101 69.5769 60.9247 69.5196 61.0394C69.4623 61.154 69.405 61.2686 69.3477 61.3833C69.2903 61.4979 69.1757 61.6698 69.1184 61.7845C69.0611 61.8991 68.9465 62.0137 68.8892 62.1283C68.8319 62.243 68.7172 62.3576 68.6599 62.4722C68.5453 62.5868 68.4307 62.7588 68.3734 62.8734C68.316 62.9307 68.316 62.988 68.2587 62.988C68.1441 63.1027 68.0295 63.2746 67.9149 63.3892C67.571 63.7904 67.1698 64.1343 66.7686 64.4782C66.654 64.5355 66.5967 64.6502 66.482 64.7075C66.3101 64.8794 66.1382 64.994 65.9089 65.1087C65.7943 65.166 65.737 65.2233 65.6224 65.2806C65.3358 65.4525 64.9919 65.6245 64.7054 65.7964C64.5907 65.8537 64.5334 65.9111 64.4188 65.9684C64.2469 66.083 64.0176 66.1403 63.7884 66.2549C63.7311 66.3123 63.6737 66.3123 63.5591 66.3123C63.5018 66.3696 63.3872 66.3696 63.3299 66.4269C63.2153 66.4842 63.1006 66.4842 62.986 66.5415C62.8141 66.5988 62.6421 66.6561 62.4702 66.7135C62.3556 66.7708 62.2409 66.7708 62.1263 66.8281C62.0117 66.8281 61.8971 66.8854 61.7824 66.8854C61.6678 66.9427 61.4959 66.9427 61.3813 66.9427C61.2666 66.9427 61.2093 67 61.0947 67C60.9228 67 60.7508 67.0573 60.6362 67.0573C60.2923 67.1147 60.0058 67.1146 59.6619 67.1146C59.49 67.1146 59.318 67.1146 59.2034 67.1146C59.0315 67.1146 58.8595 67.1147 58.7449 67.0573C58.6303 67.0573 58.4583 67.0573 58.3437 67C58.2291 67 58.1145 66.9427 57.9998 66.9427C57.8852 66.9427 57.7133 66.8854 57.5987 66.8854C57.484 66.8854 57.3121 66.8281 57.1975 66.7708C57.0828 66.7135 56.9109 66.7135 56.7963 66.6561C56.5097 66.5988 56.2232 66.4842 55.9366 66.3696C55.822 66.3123 55.7073 66.3123 55.5927 66.2549C55.4781 66.1976 55.3062 66.1403 55.1915 66.083C54.905 65.9684 54.6757 65.8537 54.4465 65.7391C54.3319 65.6818 54.2172 65.6245 54.1026 65.5099C53.988 65.4525 53.8734 65.3379 53.7014 65.2806C53.5868 65.2233 53.4722 65.1087 53.3575 65.0513C53.2429 64.994 53.1283 64.8794 53.0137 64.8221C52.899 64.7648 52.7844 64.6502 52.6698 64.5355C52.4405 64.3636 52.2686 64.1916 52.0394 63.9624C51.6955 63.6185 51.3516 63.2746 51.0651 62.9307C51.0077 62.8161 50.8931 62.7015 50.8358 62.6442C50.7785 62.5295 50.6639 62.4149 50.6066 62.3003C50.32 61.8991 50.0907 61.5552 49.8615 61.0967C49.6896 60.8101 49.5749 60.5809 49.4603 60.2943C49.3457 60.065 49.2311 59.7785 49.1738 59.4919C48.3141 57.142 48.2568 54.4483 49.1738 51.9265L59.7192 22.8683L70.2647 51.9265C71.1243 54.5629 71.067 57.314 70.0927 59.7785Z" fill="#8CC40A"/>
<path d="M86.3123 15.0162L70.2076 59.6065C70.2076 59.6638 70.1503 59.7211 70.1503 59.7784C71.0673 57.3712 71.1819 54.5628 70.2076 51.9837L59.6621 22.9255L65.2787 7.45078C67.3993 1.60476 73.8182 -1.37557 79.6641 0.745046C85.4526 2.80835 88.4329 9.22751 86.3123 15.0162Z" fill="#8AD782"/>
<path d="M37.9407 59.4919V59.5492C37.8261 59.9504 37.6542 60.2943 37.4822 60.6382C37.4249 60.7528 37.3676 60.8674 37.3103 60.9821C37.253 61.0967 37.1957 61.2113 37.1384 61.3259C37.0811 61.4406 36.9664 61.6125 36.9091 61.7271C36.8518 61.8418 36.7945 61.9564 36.6799 62.071C36.6226 62.1857 36.5079 62.3003 36.3933 62.4149C36.1641 62.7588 35.8775 63.1027 35.5909 63.3892C35.4763 63.5039 35.419 63.6185 35.3044 63.6758C35.2471 63.7331 35.1324 63.8478 35.0178 63.9051C34.7886 64.1343 34.5593 64.3063 34.3301 64.4782C34.2154 64.5355 34.1008 64.6502 33.9862 64.7075C33.8716 64.8221 33.7569 64.8794 33.585 64.994C33.4704 65.0513 33.3558 65.166 33.2411 65.2233C33.0692 65.3379 32.9546 65.3952 32.7826 65.4525C32.668 65.5099 32.5534 65.5672 32.4388 65.6245C32.3241 65.6818 32.1522 65.7391 32.0376 65.7964C31.923 65.8538 31.8083 65.9111 31.6937 65.9684C31.2352 66.1403 30.7767 66.3123 30.3182 66.4269C30.2036 66.4842 30.0316 66.4842 29.917 66.5415C29.7451 66.5988 29.6305 66.5988 29.4585 66.6561C29.3439 66.7135 29.2293 66.7135 29.1147 66.7135C28.8854 66.7708 28.5988 66.7708 28.3696 66.8281C28.0257 66.8854 27.7392 66.8854 27.3953 66.8854C27.0514 66.8854 26.7648 66.8854 26.421 66.8281C26.1917 66.8281 25.9052 66.7708 25.6759 66.7135C25.5613 66.7135 25.3894 66.6561 25.2747 66.6561C25.1601 66.6561 24.9882 66.5988 24.8735 66.5415C24.7589 66.4842 24.587 66.4842 24.4724 66.4269C24.3577 66.3696 24.1858 66.3696 24.0712 66.3123C23.8992 66.2549 23.7846 66.1976 23.6127 66.1403C23.3261 66.0257 23.0396 65.9111 22.753 65.7964C22.6384 65.7391 22.4664 65.6818 22.3518 65.6245C21.4921 65.2233 20.7471 64.6502 20.002 64.077C19.8874 63.9624 19.7728 63.9051 19.7154 63.7904C19.5435 63.6185 19.3716 63.4466 19.1996 63.2746C19.0277 63.1027 18.8558 62.8734 18.6838 62.6442C18.5692 62.5295 18.5119 62.4149 18.3973 62.3003C18.2253 62.071 18.0534 61.8418 17.9388 61.6125C17.7668 61.3833 17.6522 61.154 17.5376 60.8674C17.4803 60.7528 17.423 60.6382 17.3656 60.5235C17.3083 60.4089 17.251 60.2943 17.1937 60.1224C17.1364 59.9504 17.0218 59.7785 16.9645 59.6065C16.0475 57.1993 15.9328 54.391 16.9071 51.8118L27.4526 22.7537L37.9981 51.8118C38.8004 54.5056 38.7431 57.142 37.9407 59.4919Z" fill="#BF6F90"/>
<path opacity="0.8" d="M37.9407 59.4919C38.8003 57.142 38.8576 54.4483 37.8833 51.9265L27.3379 22.8683L32.7826 7.85205C32.0948 10.1446 32.0948 12.6091 32.9545 15.0163L43.4999 44.1318L37.9407 59.4919Z" fill="#FF9291"/>
<path d="M54.0456 15.0163L43.5001 44.1317L32.9547 15.0163C32.095 12.6091 32.095 10.1446 32.7827 7.85201L32.84 7.73738V7.68007V7.62275L32.9547 7.33618C33.0693 7.04961 33.1839 6.76304 33.2985 6.47647C33.3559 6.36184 33.4132 6.1899 33.4705 6.07527C33.5278 5.96065 33.5851 5.7887 33.6997 5.67408C33.757 5.55945 33.8717 5.38751 33.929 5.27288C33.9863 5.15825 34.1009 5.04362 34.1582 4.929C34.3302 4.69974 34.5021 4.47048 34.674 4.24123C34.7887 4.1266 34.846 4.01197 34.9606 3.89734C35.0752 3.78272 35.1325 3.66809 35.2472 3.55346C35.4191 3.32421 35.6483 3.15226 35.8203 2.92301C36.0495 2.75107 36.2215 2.52181 36.4507 2.34987C36.5653 2.40718 36.68 2.29255 36.7946 2.23524C36.9092 2.17793 37.0238 2.0633 37.1385 2.00598C37.2531 1.94867 37.3677 1.83404 37.4823 1.77673C37.597 1.71941 37.7116 1.60479 37.8262 1.54747C37.9408 1.49016 38.0555 1.43284 38.1701 1.37553L38.4566 1.2609C38.5713 1.20359 38.7432 1.14628 38.8578 1.08896L41.2076 0.34388C41.3223 0.286566 41.4369 0.286566 41.5515 0.286566L42.1246 0.229252C42.2966 0.229252 42.4685 0.171938 42.5831 0.171938C42.7551 0.171938 42.927 0.171938 43.0416 0.114624C43.2136 0.114624 43.3282 0.114624 43.5001 0.114624H43.5574C43.6147 0.114624 43.6721 0.114624 43.7867 0.114624C43.844 0.114624 43.9586 0.114624 44.0159 0.114624C44.1879 0.114624 44.3598 0.114624 44.4744 0.171938C44.6464 0.171938 44.8183 0.229252 44.9329 0.229252C45.1049 0.229252 45.2768 0.286566 45.5061 0.286566C45.6207 0.286566 45.7353 0.34388 45.8499 0.34388C46.0219 0.401194 46.1365 0.401194 46.3084 0.458508C46.4231 0.458508 46.5377 0.515822 46.595 0.515822C46.8242 0.573136 47.1108 0.687763 47.34 0.745077C47.6266 0.859705 47.9132 0.974333 48.1997 1.08896C48.3144 1.14628 48.4863 1.20359 48.6009 1.2609C48.7155 1.31822 48.7729 1.37553 48.8875 1.37553C49.0021 1.43284 49.1167 1.49016 49.2314 1.54747C49.346 1.60479 49.4606 1.71941 49.5752 1.77673C49.6898 1.83404 49.8045 1.94867 49.9191 2.00598C50.0337 2.0633 50.1483 2.17793 50.263 2.23524C50.3203 2.29255 50.4349 2.40718 50.5495 2.4645C50.7788 2.63644 51.008 2.80838 51.18 3.03764C51.4092 3.20958 51.5812 3.43883 51.7531 3.66809C51.8677 3.78272 51.925 3.89734 52.0397 4.01197C52.1543 4.1266 52.2116 4.24123 52.3262 4.35586C52.4982 4.58511 52.6701 4.81437 52.842 5.04362C53.014 5.27288 53.1286 5.55945 53.3005 5.78871C53.4725 6.07527 53.5871 6.30453 53.7017 6.5911C53.759 6.70573 53.8163 6.87767 53.8736 6.9923C53.931 7.10693 53.931 7.16424 53.9883 7.27887C53.9883 7.33618 54.0456 7.33618 54.0456 7.3935L54.1602 7.73738C54.1602 7.79469 54.1602 7.79469 54.2175 7.85201C54.9053 10.1446 54.9053 12.6091 54.0456 15.0163Z" fill="#FF7E18"/>
<path d="M52.8415 5.0436C52.6695 4.81435 52.4976 4.58509 52.3257 4.35583C52.4976 4.52778 52.6695 4.75703 52.8415 5.0436Z" fill="#8AD782"/>
</g>
<defs>
<clipPath id="clip0">
<rect width="87" height="67" fill="white"/>
</clipPath>
</defs>
</svg>
