<svg width="96" height="37" viewBox="0 0 96 37" fill="none" xmlns="http://www.w3.org/2000/svg">
<g clip-path="url(#clip0)">
<path d="M9.85513 36.9011C6.55341 24.6338 3.30172 12.3664 0 0.0989993C0.350182 0.049534 0.700365 0.049534 1.05055 0.049534C2.10109 0.049534 3.15164 0.19793 4.10214 0.544186C6.05315 1.2367 7.35383 2.57226 8.0542 4.50141C8.30433 5.24338 8.4544 5.98536 8.65451 6.72734C9.605 10.3383 10.5555 13.9493 11.506 17.5602C12.1063 19.9346 12.7566 22.3089 13.357 24.6832C13.357 24.7327 13.407 24.7822 13.407 24.8811C13.507 24.7822 13.507 24.6832 13.507 24.5348C14.8577 19.4399 16.2084 14.2955 17.5591 9.2006C17.8593 8.0629 18.1595 6.9252 18.6597 5.83697C18.9599 5.24338 19.26 4.6498 19.6602 4.05622C20.2105 3.21531 21.0109 2.67119 21.9114 2.27547C22.8119 1.92921 23.8124 1.68189 24.8129 1.68189C26.3637 1.68189 27.8145 2.02814 29.0651 2.91852C29.7655 3.41317 30.2157 4.05622 30.6159 4.74873C31.3163 5.9359 31.7665 7.27146 32.1167 8.60702C32.567 10.3383 33.0172 12.0696 33.4674 13.7514C34.4179 17.3624 35.3684 20.9733 36.3189 24.5348C36.3689 24.6338 36.3689 24.7327 36.419 24.8316C36.519 24.6832 36.519 24.5348 36.569 24.3864C37.7196 20.0335 38.8702 15.6311 39.9708 11.2781C40.5211 9.2006 41.0714 7.0736 41.6217 4.99606C42.0219 3.95729 42.5221 2.96798 43.3226 2.12707C43.9729 1.43456 44.7733 0.989374 45.6238 0.643117C46.8244 0.19793 48.075 6.88061e-05 49.3757 0.049534C49.5258 0.049534 49.7259 0.049534 49.926 0.0989993C46.6743 12.3664 43.3726 24.6338 40.1209 36.9011C39.6707 36.9506 39.2204 36.9506 38.7702 36.9506C37.9698 36.9506 37.1694 36.9011 36.3689 36.7033C34.4179 36.2086 32.9171 35.1204 32.0667 33.2902C31.5664 32.2019 31.2163 31.0642 30.9161 29.9265C29.9156 26.1177 28.9651 22.2594 28.0146 18.4506C27.4143 15.9773 26.814 13.5041 26.1136 11.0803C26.0136 10.7835 25.9635 10.4372 25.8134 10.1404C25.7134 9.94258 25.6634 9.79419 25.5133 9.64579C25.2131 9.349 24.7129 9.349 24.4127 9.64579C24.2126 9.84365 24.1126 10.091 24.0125 10.3383C23.8124 10.9814 23.6123 11.6739 23.4622 12.3664C22.6618 15.5322 21.8614 18.7474 21.061 21.9132C20.3606 24.5348 19.7103 27.2059 19.0099 29.9265C18.7097 31.0148 18.4096 32.0535 17.9594 33.0428C17.359 34.4279 16.4085 35.4666 15.0578 36.1592C14.3075 36.5549 13.507 36.7527 12.6566 36.8517C11.7061 36.9506 10.7556 36.9011 9.85513 36.9011Z" fill="black"/>
<path d="M62.0322 0.247237C62.5325 0.148306 63.0327 0.0988408 63.533 0.0988408C64.5335 0.0493756 65.484 0.0988408 66.4845 0.247237C67.5851 0.445097 68.6357 0.741889 69.5361 1.38494C70.1364 1.83012 70.5867 2.32478 71.0869 2.86889C72.2876 4.20446 73.3381 5.68841 74.3386 7.17237C75.5893 8.95312 76.8399 10.7833 78.1406 12.5641C78.2407 12.7125 78.3907 12.8609 78.5408 12.9598C78.891 13.2071 79.2912 13.1577 79.5914 12.9103C79.7414 12.7619 79.8915 12.6135 79.9916 12.4157C81.6424 10.0908 83.2433 7.76595 84.8941 5.44109C85.6945 4.30339 86.595 3.21515 87.5955 2.17638C88.546 1.13761 89.6966 0.593493 91.0473 0.296702C92.348 -8.96454e-05 93.6487 -8.96603e-05 94.9994 0.0988408C95.3496 0.148306 95.6998 0.148306 96.0499 0.197771C91.8978 6.33146 87.7456 12.4157 83.5935 18.5494C87.7456 24.6336 91.8978 30.7178 96.0499 36.8515C95.8498 36.8515 95.6998 36.901 95.5497 36.901C94.199 36.9999 92.8983 36.9504 91.5476 36.7031C90.497 36.5053 89.4465 36.2085 88.546 35.5654C87.9957 35.2192 87.5455 34.7245 87.0953 34.2793C85.8446 32.9438 84.7941 31.4598 83.7435 29.9758C82.4929 28.1951 81.2422 26.3649 79.9416 24.5841C79.8415 24.4852 79.7915 24.3368 79.6414 24.2379C79.2412 23.8916 78.7909 23.8916 78.3907 24.2379C78.2907 24.3368 78.1906 24.4852 78.0906 24.5841C76.5898 26.7111 75.089 28.8876 73.5882 31.0146C72.8379 32.1028 72.0374 33.1911 71.137 34.1804C70.6367 34.7245 70.1364 35.2192 69.5361 35.6149C68.7357 36.1095 67.8352 36.4063 66.8848 36.6042C65.3339 36.901 63.6831 36.9504 62.0823 36.802C64.1833 33.7352 66.2344 30.7178 68.2855 27.651C70.3365 24.5841 72.4376 21.5668 74.4887 18.4999C70.3365 12.4652 66.1844 6.38093 62.0322 0.247237Z" fill="black"/>
<path d="M52.3271 36.901C52.3271 36.8021 52.3271 36.7032 52.3271 36.6043C52.3271 28.393 52.3271 20.1818 52.3271 11.9706C52.3271 11.6738 52.3272 11.377 52.4272 11.1297C52.5773 10.4866 52.9275 9.99196 53.4778 9.59623C54.028 9.20051 54.6284 8.95319 55.1786 8.70586C55.879 8.40907 56.5293 8.11228 57.1797 7.71656C57.83 7.32083 58.4303 6.82618 58.9306 6.2326C58.9806 6.18313 58.9806 6.13367 59.0306 6.13367C59.0306 6.2326 59.0306 6.28206 59.0306 6.38099C59.0306 14.3944 59.0306 22.3583 59.0306 30.3716C59.0306 31.4104 58.9806 32.4986 58.7805 33.5374C58.5304 34.6751 57.9801 35.516 56.9796 36.0601C56.1792 36.5053 55.3287 36.7527 54.4282 36.8516C53.6779 36.9505 53.0275 36.9505 52.3271 36.901Z" fill="black"/>
<path d="M52.3271 8.01337C52.2271 7.91444 52.2771 7.86497 52.2771 7.76604C52.2771 7.27139 52.2271 6.77674 52.2771 6.28209C52.3271 5.73797 52.3772 5.19385 52.4272 4.64973C52.5272 4.15508 52.5773 3.70989 52.7274 3.26471C52.9275 2.62166 53.2276 2.02807 53.6778 1.58289C54.028 1.23663 54.3782 0.93984 54.7784 0.741979C55.2287 0.494652 55.7289 0.346257 56.2792 0.247326C56.8795 0.148396 57.5299 0.0494652 58.1302 0.0494652C58.3303 0.0494652 58.5304 0 58.7305 0C58.9306 0 58.9806 0.0494652 58.9806 0.247326C58.9806 0.791444 58.9806 1.33556 58.9306 1.87968C58.8305 2.62166 58.6805 3.36364 58.2803 4.05615C58.1302 4.30348 57.9301 4.5508 57.73 4.74866C57.3298 5.14439 56.8795 5.49064 56.3793 5.78743C55.879 6.08422 55.3287 6.38102 54.7284 6.57888C53.928 6.87567 53.1776 7.27139 52.5272 7.86497L52.4772 7.91444C52.4272 7.9639 52.3772 8.01337 52.3271 8.01337Z" fill="#F8BB70"/>
</g>
<defs>
<clipPath id="clip0">
<rect width="96" height="37" fill="white"/>
</clipPath>
</defs>
</svg>
