<svg width="96" height="56" viewBox="0 0 96 56" fill="none" xmlns="http://www.w3.org/2000/svg">
<path d="M59.0374 46.8629C60.2923 49.9459 61.5472 52.9169 62.8021 55.8879C62.7451 55.9439 62.7451 55.9439 62.6881 56C61.6613 55.4394 60.5775 54.8789 59.5508 54.3183C55.2727 51.964 50.9376 49.6096 46.6595 47.2553C46.1462 46.975 45.6898 46.8629 45.1194 46.8629C32.9697 46.8629 20.7629 46.8629 8.61319 46.8629C4.50624 46.8629 0.741533 43.5556 0.171123 39.5195C0.057041 38.7908 0 38.1742 0 37.5015C0 27.972 0 18.4985 0 8.96897C0 3.86787 3.93583 0 9.06952 0C35.0232 0 60.9768 0 86.9305 0C92.0642 0 96 3.86787 96 8.91291C96 18.6106 96 28.3083 96 37.9499C96 42.4905 92.7487 46.1902 88.1854 46.8068C87.615 46.8629 86.9875 46.8629 86.3601 46.8629C77.5758 46.8629 68.7914 46.8629 60.0071 46.8629C59.779 46.8629 59.4938 46.8629 59.0374 46.8629ZM14.7166 29.8779C14.5455 29.6537 14.4884 29.4294 14.4314 29.2613C13.918 27.019 13.4046 24.8328 12.9483 22.5906C12.0357 18.3303 11.3512 14.014 10.6667 9.6977C10.3815 7.95996 9.52585 6.67067 7.24421 6.83884C5.24777 6.95095 3.87879 8.46446 4.16399 10.4264C4.39216 11.996 4.62032 13.5656 4.90553 15.1351C5.64706 19.5075 6.44563 23.8799 7.41533 28.2523C8.27094 32.0641 9.12656 35.8759 10.5526 39.5195C10.8948 40.4164 11.2941 41.3133 12.0357 41.986C12.6061 42.4905 13.1765 42.6587 13.918 42.3784C14.7736 42.0981 15.4011 41.5375 15.9715 40.8649C16.9982 39.7437 17.7968 38.5105 18.5383 37.1652C20.1355 34.3624 21.4474 31.4474 22.9305 28.6446C23.615 27.3554 24.2424 26.0661 24.9269 24.7768C24.984 24.8889 25.041 24.8889 25.041 24.9449C25.2692 25.7297 25.5544 26.5145 25.7825 27.2993C27.2656 31.7277 29.205 35.9319 32.2282 39.5756C33.0838 40.5846 33.9394 41.7057 35.2513 42.2663C36.7914 42.9389 38.2175 42.4344 38.902 40.9209C39.3583 39.968 39.3583 38.9029 39.2442 37.8939C39.1301 36.997 39.1872 36.1001 39.1872 35.2032C39.3583 31.7277 39.7005 28.3083 40.2139 24.8328C40.6702 21.7497 41.2406 18.6667 42.0392 15.6396C42.5526 13.6216 43.2941 11.7157 44.2068 9.86587C45.0053 8.24024 44.3779 6.44645 42.7237 5.60561C41.1266 4.76476 39.3012 5.21321 38.3315 6.78278C37.9323 7.3994 37.6471 8.07207 37.3619 8.68869C35.0802 13.8458 34.1676 19.3393 33.426 24.8889C33.3119 25.8418 33.1979 26.7948 33.0267 27.9159C32.9127 27.6356 32.7986 27.5235 32.7986 27.4114C31.4296 23.8238 30.4029 20.1802 29.6613 16.4805C29.4332 15.4715 29.3191 14.4064 28.8627 13.4535C27.9501 11.4915 25.7825 11.0991 24.2424 12.6126C23.7291 13.1171 23.3868 13.6777 23.0446 14.2943C20.82 18.4985 18.5383 22.6466 16.3137 26.8508C15.8574 27.8038 15.287 28.8128 14.7166 29.8779ZM66.4528 20.965C66.5098 19.4515 66.1105 17.2653 65.1979 15.1912C62.8592 9.86587 57.1551 8.40841 52.877 9.92192C50.5383 10.7628 48.8271 12.3884 47.4581 14.4064C45.3476 17.3774 44.2068 20.7407 43.9216 24.3844C43.7504 26.8508 43.9216 29.3173 44.8342 31.6717C46.4884 35.988 49.6827 38.2863 54.303 38.2863C57.4973 38.2863 60.0642 36.8849 62.0036 34.4184C65.0267 30.7187 66.4528 26.4585 66.4528 20.965ZM91.0374 21.3013C91.0945 19.1712 90.5811 16.7047 89.4403 14.4064C87.2727 10.2022 82.5954 8.74474 78.7166 9.52953C76.2068 10.034 74.2674 11.4915 72.7843 13.3974C70.3886 16.4805 69.0196 19.956 68.6203 23.8238C68.3351 26.4585 68.5062 29.0931 69.4189 31.5596C71.016 35.9319 74.1533 38.1181 78.6595 38.2863C82.082 38.3984 84.7059 36.8288 86.7594 34.2502C89.6684 30.5505 91.0374 26.3463 91.0374 21.3013Z" fill="#995C8E"/>
<path d="M50.4814 25.3933C50.4814 22.1981 51.5652 19.5635 53.5617 17.2652C54.075 16.6486 54.7595 16.1441 55.6151 15.8638C56.6419 15.5835 57.6116 15.8638 58.2961 16.6486C59.1517 17.7137 59.608 19.0029 59.7791 20.3483C60.1784 23.5995 59.551 26.6826 57.5545 29.4294C57.0412 30.1581 56.3567 30.7187 55.5581 31.1671C53.9609 32.064 52.5349 31.7277 51.6223 30.1581C50.8237 28.6446 50.4244 27.019 50.4814 25.3933Z" fill="#995C8E"/>
<path d="M75.0661 25.9539C75.1232 22.1421 76.264 19.2833 78.5456 16.8729C78.8308 16.5926 79.116 16.3683 79.4583 16.1441C80.8843 15.3593 82.2533 15.6957 83.1089 17.041C84.1356 18.6106 84.5349 20.4044 84.4779 22.2542C84.3638 24.3283 83.9645 26.3463 82.9378 28.1962C82.2533 29.3734 81.3977 30.3824 80.1998 31.1111C78.5456 32.1201 77.1196 31.7277 76.2069 30.046C75.6365 28.981 75.0091 27.2432 75.0661 25.9539Z" fill="#995C8E"/>
</svg>
