<svg width="29" height="29" viewBox="0 0 29 29" fill="none" xmlns="http://www.w3.org/2000/svg">
<path d="M1.69922 14.5C1.69922 7.44162 7.44162 1.69922 14.5 1.69922C17.1546 1.69922 19.6862 2.50414 21.8177 3.99809H20.171C19.7018 3.99809 19.3214 4.37849 19.3214 4.8477C19.3214 5.31691 19.7018 5.69731 20.171 5.69731H24.1524C24.6216 5.69731 25.002 5.31691 25.002 4.8477V0.866318C25.002 0.397107 24.6216 0.016709 24.1524 0.016709C23.6831 0.016709 23.3027 0.397107 23.3027 0.866318V2.98122C20.7864 1.04779 17.7234 0 14.5 0C10.6269 0 6.98566 1.50828 4.24691 4.24691C1.50828 6.98566 0 10.6269 0 14.5C0 17.0444 0.672381 19.5513 1.94447 21.7499C2.10193 22.0221 2.38729 22.1741 2.68063 22.1741C2.82506 22.1741 2.97142 22.1373 3.10538 22.0598C3.51149 21.8248 3.65021 21.305 3.41526 20.8989C2.29264 18.9586 1.69922 16.7459 1.69922 14.5Z" fill="black"/>
<path d="M27.0557 7.2499C26.8207 6.84373 26.3008 6.70507 25.8948 6.94008C25.4887 7.17508 25.35 7.69481 25.5849 8.10098C26.7076 10.0411 27.301 12.2538 27.301 14.4998C27.301 21.5582 21.5586 27.3006 14.5002 27.3006C11.8458 27.3006 9.31469 26.4954 7.18336 25.0017H8.82923C9.29844 25.0017 9.67884 24.6213 9.67884 24.1521C9.67884 23.6829 9.29844 23.3025 8.82923 23.3025H4.8479C4.37869 23.3025 3.99829 23.6829 3.99829 24.1521V28.1335C3.99829 28.6027 4.37869 28.9831 4.8479 28.9831C5.31711 28.9831 5.69751 28.6027 5.69751 28.1335V26.0165C8.21383 27.9505 11.2764 28.9998 14.5002 28.9998C18.3733 28.9998 22.0145 27.4915 24.7533 24.7529C27.4919 22.0141 29.0002 18.3729 29.0002 14.4998C29.0002 11.9553 28.3278 9.44835 27.0557 7.2499Z" fill="black"/>
<path d="M22.0567 12.793C22.115 12.5754 22.0844 12.3435 21.9718 12.1483L20.2725 9.20518C20.1599 9.01005 19.9743 8.86766 19.7567 8.80932C19.539 8.75103 19.3071 8.78151 19.112 8.89422L18.1448 9.45264C17.8008 9.20308 17.4346 8.99091 17.0489 8.81776V7.70312C17.0489 7.23391 16.6685 6.85352 16.1993 6.85352H12.8009C12.3316 6.85352 11.9512 7.23391 11.9512 7.70312V8.8177C11.5655 8.99091 11.1994 9.20303 10.8554 9.45258L9.88817 8.89416C9.69304 8.78145 9.46093 8.75092 9.24348 8.80926C9.02581 8.86754 8.84026 9.00994 8.7276 9.20512L7.02838 12.1483C6.91572 12.3434 6.88519 12.5754 6.94348 12.793C7.00182 13.0106 7.14421 13.1962 7.33934 13.3088L8.30183 13.8645C8.28037 14.0755 8.2696 14.2878 8.2696 14.5C8.2696 14.7122 8.28037 14.9245 8.30183 15.1354L7.33934 15.691C7.14421 15.8037 7.00182 15.9893 6.94348 16.2069C6.88519 16.4246 6.91572 16.6565 7.02838 16.8516L8.7276 19.7948C8.84026 19.9899 9.02587 20.1323 9.24348 20.1906C9.46121 20.249 9.6931 20.2184 9.88817 20.1057L10.8554 19.5473C11.1993 19.7969 11.5655 20.009 11.9512 20.1822V21.2969C11.9512 21.7661 12.3316 22.1465 12.8009 22.1465H16.1993C16.6685 22.1465 17.0489 21.7661 17.0489 21.2969V20.1823C17.4346 20.0091 17.8007 19.797 18.1448 19.5474L19.112 20.1058C19.3071 20.2185 19.5391 20.249 19.7567 20.1907C19.9743 20.1325 20.1599 19.9901 20.2725 19.7949L21.9718 16.8517C22.0844 16.6566 22.115 16.4246 22.0567 16.207C21.9983 15.9894 21.8559 15.8038 21.6608 15.6912L20.6983 15.1355C20.7198 14.9245 20.7305 14.7122 20.7305 14.5C20.7305 14.2878 20.7198 14.0755 20.6983 13.8646L21.6608 13.309C21.8559 13.1962 21.9983 13.0107 22.0567 12.793ZM18.9396 13.5883C19.0005 13.8864 19.0313 14.1932 19.0313 14.5C19.0313 14.8068 19.0005 15.1136 18.9396 15.4117C18.8664 15.7699 19.0306 16.1347 19.3472 16.3175L20.0754 16.7379L19.2258 18.2094L18.4915 17.7855C18.1748 17.6026 17.7764 17.643 17.5027 17.8859C17.0394 18.2971 16.5105 18.6035 15.9309 18.7965C15.5838 18.9121 15.3496 19.2368 15.3496 19.6026V20.4473H13.6504V19.6026C13.6504 19.2369 13.4163 18.9121 13.0692 18.7965C12.4895 18.6035 11.9606 18.2971 11.4973 17.8859C11.2237 17.6429 10.8253 17.6026 10.5085 17.7855L9.77426 18.2094L8.92465 16.7379L9.65283 16.3175C9.96939 16.1347 10.1336 15.7699 10.0604 15.4117C9.99969 15.1136 9.96882 14.8068 9.96882 14.5C9.96882 14.1932 9.99969 13.8864 10.0605 13.5883C10.1337 13.2301 9.9695 12.8653 9.65294 12.6825L8.92477 12.2621L9.77438 10.7906L10.5086 11.2145C10.8254 11.3975 11.2238 11.3571 11.4974 11.1141C11.9608 10.7029 12.4896 10.3965 13.0693 10.2035C13.4164 10.0879 13.6505 9.76314 13.6505 9.39736V8.55273H15.3497V9.39736C15.3497 9.76314 15.5839 10.0879 15.9309 10.2035C16.5106 10.3965 17.0395 10.7029 17.5028 11.1141C17.7765 11.3571 18.1749 11.3974 18.4917 11.2145L19.2259 10.7906L20.0755 12.2621L19.3473 12.6825C19.0306 12.8653 18.8664 13.2301 18.9396 13.5883Z" fill="black"/>
<path d="M14.5 11.3848C12.7823 11.3848 11.3848 12.7823 11.3848 14.5C11.3848 16.2177 12.7823 17.6152 14.5 17.6152C16.2177 17.6152 17.6152 16.2177 17.6152 14.5C17.6152 12.7823 16.2177 11.3848 14.5 11.3848ZM14.5 15.916C13.7192 15.916 13.084 15.2808 13.084 14.5C13.084 13.7192 13.7192 13.084 14.5 13.084C15.2808 13.084 15.916 13.7192 15.916 14.5C15.916 15.2808 15.2808 15.916 14.5 15.916Z" fill="black"/>
</svg>
