<svg width="80" height="80" viewBox="0 0 80 80" fill="none" xmlns="http://www.w3.org/2000/svg">
<path d="M40 0C17.9345 0 0 17.9119 0 39.9497C0 62.088 17.9345 79.8994 40 79.8994C62.0655 79.8994 80 61.9874 80 39.9497C80 17.9119 62.1662 0 40 0ZM35.466 58.9685C35.466 61.0818 33.7531 62.7924 31.6373 62.7924H21.0579C18.9421 62.7924 17.2292 61.0818 17.2292 58.9685V48.4025C17.2292 46.2893 18.9421 44.5786 21.0579 44.5786H31.6373C33.7531 44.5786 35.466 46.2893 35.466 48.4025V58.9685ZM35.466 35.1195C35.466 37.2327 33.7531 38.9434 31.6373 38.9434H21.0579C18.9421 38.9434 17.2292 37.2327 17.2292 35.1195V24.5535C17.2292 22.4402 18.9421 20.7296 21.0579 20.7296H31.6373C33.7531 20.7296 35.466 22.4402 35.466 24.5535V35.1195ZM59.3451 58.9685C59.3451 61.0818 57.6322 62.7924 55.5164 62.7924H44.937C42.8212 62.7924 41.1083 61.0818 41.1083 58.9685V48.4025C41.1083 46.2893 42.8212 44.5786 44.937 44.5786H55.5164C57.6322 44.5786 59.3451 46.2893 59.3451 48.4025V58.9685ZM61.7632 31.195L54.3073 38.6415C52.796 40.1509 50.3778 40.1509 48.8665 38.6415L41.4106 31.195C39.8992 29.6855 39.8992 27.2704 41.4106 25.761L48.8665 18.3145C50.3778 16.805 52.796 16.805 54.3073 18.3145L61.7632 25.761C63.2746 27.2704 63.2746 29.6855 61.7632 31.195Z" fill="black"/>
</svg>
