<svg width="70" height="69" viewBox="0 0 70 69" fill="none" xmlns="http://www.w3.org/2000/svg">
<path d="M34.978 0C36.9151 0.0871212 38.8522 0.0871212 40.7893 0.261364C44.8396 0.609848 48.978 1.13258 52.8522 2.43939C56.8145 3.74621 60.2484 5.92424 62.978 9.06061C64.9151 11.3258 66.3239 13.8523 67.3805 16.6402C68.261 19.1667 68.7893 21.6932 69.1415 24.3068C69.8459 28.8371 70.022 33.3674 69.8459 37.9848C69.7579 40.4242 69.4057 42.8636 69.0535 45.2159C68.7893 47.5682 68.261 49.8333 67.4686 52.0114C66.5 54.625 65.1792 57.0644 63.4182 59.2424C62.0975 60.8977 60.5126 62.2917 58.8396 63.5114C56.5503 65.0795 53.9969 66.2121 51.2673 67.0833C49.1541 67.7803 47.0409 68.0417 44.8396 68.303C42.5503 68.5644 40.173 68.7386 37.8836 68.9129C36.4748 69 35.1541 68.9129 33.7453 69C31.7201 69.0871 29.783 68.8258 27.8459 68.6515C25.1164 68.4773 22.4748 68.0417 19.8333 67.4318C18.0723 67.0833 16.4874 66.3864 14.8145 65.6894C13.0535 64.9053 11.4686 63.947 9.9717 62.8144C8.29874 61.5076 6.80189 60.0265 5.56918 58.197C4.07233 56.0189 2.92767 53.6667 2.13522 51.2273C1.43082 49.1364 1.07862 47.0455 0.726415 44.9545C0.286164 42.3409 0.0220126 39.7273 0.0220126 37.0265C0.0220126 34.7614 -0.0660377 32.5833 0.110063 30.3182C0.286164 27.3561 0.726415 24.3939 1.25472 21.4318C1.87107 18.3826 2.75157 15.4205 4.24843 12.7197C5.04088 11.2386 6.09748 9.8447 7.24214 8.53788C9.00314 6.70833 10.9403 5.14015 13.2296 3.92045C14.9025 3.04924 16.7516 2.35227 18.6006 1.82955C21.2421 1.13258 23.9717 0.69697 26.7013 0.348485C29.4308 0.174242 32.1604 0 34.978 0ZM26.261 23.4356C25.9088 23.4356 25.6447 23.4356 25.3805 23.4356C23.1792 23.4356 20.978 23.5227 18.8648 23.4356C17.6321 23.4356 16.3994 24.3939 16.3994 25.875C16.3994 33.6288 16.3994 41.2955 16.3994 49.0492C16.3994 50.3561 16.8396 51.5758 17.6321 52.6212C19.0409 54.625 21.066 55.4962 23.5314 55.4962C31.1918 55.4962 38.8522 55.4962 46.5126 55.4962C47.1289 55.4962 47.8333 55.4091 48.4497 55.322C51.4434 54.625 53.6447 52.0114 53.6447 48.875C53.6447 41.2955 53.6447 33.6288 53.6447 26.0492C53.6447 25.875 53.6447 25.7008 53.6447 25.5265C53.5566 24.4811 52.6761 23.5227 51.7956 23.4356C50.5629 23.3485 49.3302 23.4356 48.0975 23.4356C47.9214 23.4356 47.6572 23.6098 47.6572 23.697C47.5692 24.5682 47.5692 25.4394 47.6572 26.4848C48.6258 26.4848 49.5063 26.4848 50.3868 26.4848C50.3868 26.8333 50.3868 27.0947 50.3868 27.3561C50.3868 34.3258 50.3868 41.2083 50.3868 48.178C50.3868 50.0947 48.978 52.2727 46.2484 52.2727C38.7641 52.2727 31.1918 52.2727 23.7075 52.2727C20.978 52.2727 19.5692 50.0947 19.6572 48.178C19.7453 41.2083 19.6572 34.2386 19.6572 27.2689C19.6572 27.0076 19.6572 26.7462 19.7453 26.4848C21.9465 26.4848 24.1478 26.4848 26.3491 26.4848C26.3491 27.9659 26.3491 29.447 26.3491 31.0151C26.6132 31.0151 26.8774 31.1023 27.1415 31.1023C27.6698 31.1023 28.1101 31.1023 28.6384 31.1023C29.5189 31.1023 29.6069 31.0151 29.6069 30.1439C29.6069 27.5303 29.6069 24.8295 29.6069 22.2159C29.6069 21.7803 29.6069 21.3447 29.695 20.9091C30.1352 18.7311 31.456 17.25 33.6572 16.6402C35.8585 16.0303 37.8836 16.553 39.3805 18.2955C40.7013 19.7765 40.9654 21.4318 40.7013 23.4356C40.3491 23.4356 40.173 23.4356 39.9088 23.4356C37.8836 23.4356 35.8585 23.4356 33.8333 23.4356C33.6572 23.4356 33.3931 23.4356 33.305 23.4356C33.1289 23.5227 32.9528 23.697 32.9528 23.7841C32.9528 24.6553 32.9528 25.5265 32.9528 26.4848C35.6824 26.4848 38.2358 26.4848 40.7893 26.4848C40.7893 26.7462 40.8774 26.9205 40.8774 27.0947C40.8774 28.2273 40.8774 29.2727 40.8774 30.4053C40.8774 31.0152 40.9654 31.1023 41.6698 31.1894C42.1981 31.1894 42.7264 31.1894 43.2547 31.1894C44.0472 31.1894 44.1352 31.1023 44.1352 30.3182C44.1352 27.5303 44.1352 24.8295 44.1352 22.0417C44.1352 21.4318 44.0472 20.7348 43.9591 20.125C43.0786 16.0303 39.0283 12.8068 34.3616 13.3295C29.8711 13.8523 26.7013 17.5114 26.6132 21.6932C26.261 22.303 26.261 22.8258 26.261 23.4356Z" fill="#0678EE"/>
</svg>
