<svg width="239" height="187" viewBox="0 0 239 187" fill="none" xmlns="http://www.w3.org/2000/svg">
<path d="M89.0783 98.1396C93.4276 85.1227 101.892 80.2999 115.127 83.4371C123.311 85.3568 130.326 81.4705 132.945 73.6042C137.762 59.2294 145.151 55.0621 160.069 58.2461C167.926 59.9317 175.455 55.1089 177.186 47.3362C178.916 39.6104 174.052 31.9313 166.336 30.1052C158.433 28.2323 151.464 32.9146 148.845 41.8111C145.572 53.0019 135.938 58.808 124.808 56.3731C113.537 53.8447 108.112 57.0287 104.651 68.1258C101.892 77.1159 94.9241 82.2665 85.5241 82.0792C82.0634 81.9855 78.6495 81.1895 75.1888 81.0959C67.2385 80.9086 60.8783 87.0425 60.7848 94.7215C60.6912 103.337 66.6305 109.237 75.2355 109.19C82.2972 109.096 86.5529 105.678 89.0783 98.1396Z" fill="black"/>
<path d="M182.33 50.7075C179.571 58.808 171.995 64.3331 163.296 64.3331C161.987 64.3331 160.677 64.2395 159.368 63.9585C159.602 65.7378 159.742 67.5639 159.742 69.3901C159.742 83.3902 152.634 95.7516 141.784 103.056C140.895 103.665 139.913 104.273 138.931 104.789C133.085 108.066 126.398 109.892 119.243 109.892C109.796 109.892 101.097 106.661 94.1758 101.136C90.7619 110.22 84.4485 114.856 75.3758 114.949H75.1888C73.9261 114.949 72.7569 114.856 71.541 114.668C83.5599 127.311 100.489 135.224 119.243 135.224C131.074 135.224 142.205 132.087 151.839 126.561C152.68 126.093 153.522 125.578 154.364 125.063C172.79 113.357 184.996 92.8018 184.996 69.4369C185.043 62.8816 184.107 56.6541 182.33 50.7075Z" fill="black"/>
<path d="M75.1889 74.3064C76.4983 74.3064 77.8078 74.4469 79.1172 74.681C78.8834 72.9017 78.7431 71.0756 78.7899 69.2495C78.8366 55.2493 86.0386 42.8879 96.8884 35.6771C97.8237 35.0684 98.759 34.5066 99.7411 33.9447C105.587 30.7139 112.274 28.8878 119.43 28.9346C128.876 28.9814 137.575 32.259 144.45 37.7842C147.91 28.7473 154.224 24.1118 163.296 24.0649H163.483C164.746 24.0649 165.915 24.1586 167.131 24.3927C155.159 11.7036 138.276 3.74359 119.523 3.64994C107.691 3.60312 96.5142 6.69346 86.8804 12.1718C86.0386 12.64 85.1968 13.1551 84.355 13.6701C65.8824 25.2823 53.5361 45.791 53.4426 69.1559C53.3958 75.6175 54.3311 81.8918 56.0615 87.8384C58.8675 79.738 66.4436 74.2596 75.1889 74.3064Z" fill="black"/>
<path d="M3.58984 152.595C3.58984 151.144 4.10427 149.926 5.13313 148.896C6.16198 147.866 7.3779 147.398 8.82765 147.398H13.2237C15.4685 147.398 17.3859 148.194 18.9759 149.786C20.566 151.378 21.361 153.298 21.361 155.545C21.361 158.074 20.566 159.993 18.9759 161.351C20.8466 162.803 21.7819 164.91 21.7819 167.719C21.7819 170.06 20.9401 172.074 19.2565 173.76C17.5729 175.445 15.562 176.288 13.2237 176.288H8.82765C7.3779 176.288 6.16198 175.773 5.13313 174.743C4.10427 173.713 3.58984 172.495 3.58984 171.044V152.595H3.58984ZM8.12616 159.151H13.2237C14.2525 159.151 15.0943 158.823 15.7958 158.121C16.4973 157.418 16.8247 156.575 16.8247 155.545C16.8247 154.562 16.4505 153.719 15.7958 153.017C15.0943 152.314 14.2058 151.94 13.2237 151.94H8.82765C8.64059 151.94 8.45353 151.987 8.31323 152.127C8.17293 152.268 8.12616 152.408 8.12616 152.642V159.151V159.151ZM13.1769 171.746C14.2993 171.746 15.2346 171.372 16.0296 170.576C16.8247 169.78 17.1988 168.843 17.1988 167.719C17.1988 166.596 16.8247 165.659 16.0296 164.863C15.2346 164.067 14.2993 163.692 13.1769 163.692H8.12616V171.091C8.12616 171.278 8.17293 171.465 8.31323 171.606C8.45353 171.746 8.59382 171.793 8.82765 171.793H13.1769V171.746Z" fill="black"/>
<path d="M27.8148 152.595C27.1133 152.595 26.5054 152.361 25.9909 151.846C25.4765 151.331 25.2427 150.722 25.2427 150.02C25.2427 149.318 25.4765 148.709 25.9909 148.194C26.5054 147.679 27.1133 147.445 27.8148 147.445C28.5163 147.445 29.1243 147.679 29.6387 148.194C30.1531 148.709 30.4337 149.271 30.4337 150.02C30.4337 150.769 30.1531 151.378 29.6387 151.846C29.1243 152.314 28.5163 152.595 27.8148 152.595ZM27.8616 154.983C28.4695 154.983 29.0307 155.218 29.4516 155.639C29.8725 156.06 30.1064 156.622 30.1064 157.231V174.04C30.1064 174.649 29.8725 175.211 29.4516 175.632C29.0307 176.054 28.5163 176.288 27.8616 176.288H27.8148C27.2069 176.288 26.6924 176.054 26.2248 175.632C25.8039 175.211 25.57 174.696 25.57 174.04V157.231C25.57 156.622 25.8039 156.107 26.2248 155.639C26.6924 155.218 27.2069 154.983 27.8616 154.983Z" fill="black"/>
<path d="M36.7472 147.398C37.3552 147.398 37.8696 147.632 38.3373 148.053C38.7582 148.475 38.992 149.037 38.992 149.645V154.983H41.7512C42.3592 154.983 42.8736 155.217 43.3412 155.639C43.7621 156.06 43.996 156.622 43.996 157.231V157.278C43.996 157.886 43.7621 158.448 43.3412 158.87C42.9203 159.291 42.3592 159.525 41.7512 159.525H38.992V170.482C38.992 170.856 39.1323 171.137 39.3661 171.372C39.6 171.606 39.9273 171.746 40.3014 171.746H41.798C42.4059 171.746 42.9203 171.98 43.388 172.402C43.8089 172.823 44.0427 173.385 44.0427 173.994V174.04C44.0427 174.649 43.8089 175.211 43.388 175.632C42.9671 176.054 42.4059 176.288 41.798 176.288H40.3014C38.7114 176.288 37.3552 175.726 36.186 174.602C35.0636 173.479 34.5024 172.074 34.5024 170.482V149.645C34.5024 149.037 34.7363 148.522 35.1572 148.053C35.5781 147.632 36.1393 147.398 36.7472 147.398V147.398V147.398Z" fill="black"/>
<path d="M60.8785 147.398C61.4864 147.398 62.0009 147.632 62.4685 148.053C62.8894 148.475 63.1232 149.037 63.1232 149.645V174.04C63.1232 174.649 62.8894 175.211 62.4685 175.632C62.0476 176.054 61.4864 176.288 60.8785 176.288H60.8317C60.2237 176.288 59.7093 176.054 59.2416 175.632C58.8207 175.211 58.5869 174.696 58.5869 174.04V149.645C58.5869 149.037 58.8207 148.522 59.2416 148.053C59.6625 147.632 60.2237 147.398 60.8317 147.398H60.8785Z" fill="black"/>
<path d="M72.0554 174.04C72.0554 174.649 71.8215 175.211 71.4006 175.632C70.9797 176.054 70.4185 176.288 69.8106 176.288H69.7638C69.1559 176.288 68.6414 176.054 68.1738 175.632C67.7529 175.211 67.519 174.696 67.519 174.04V163.926C67.519 161.445 68.4076 159.338 70.138 157.605C71.8683 155.873 73.9728 154.983 76.4514 154.983C78.8832 154.983 80.9877 155.873 82.7648 157.605C84.4952 159.338 85.3837 161.445 85.3837 163.926V174.04C85.3837 174.649 85.1499 175.211 84.729 175.632C84.3081 176.054 83.7937 176.288 83.1389 176.288H83.0922C82.4842 176.288 81.9698 176.054 81.5021 175.632C81.0812 175.211 80.8474 174.696 80.8474 174.04V163.926C80.8474 162.709 80.4265 161.679 79.5847 160.789C78.7429 159.946 77.6673 159.478 76.4514 159.478C75.2355 159.478 74.1598 159.9 73.3181 160.789C72.4763 161.632 72.0554 162.709 72.0554 163.926V174.04Z" fill="black"/>
<path d="M91.3698 147.398C91.9777 147.398 92.4922 147.632 92.9598 148.053C93.3807 148.475 93.6146 149.037 93.6146 149.645V154.983H96.3738C96.9817 154.983 97.4961 155.217 97.9638 155.639C98.3847 156.06 98.6185 156.622 98.6185 157.231V157.278C98.6185 157.886 98.3847 158.448 97.9638 158.87C97.5429 159.291 96.9817 159.525 96.3738 159.525H93.6146V170.482C93.6146 170.856 93.7549 171.137 93.9887 171.372C94.2225 171.606 94.5499 171.746 94.924 171.746H96.4205C97.0285 171.746 97.5429 171.98 98.0106 172.402C98.4315 172.823 98.6653 173.385 98.6653 173.994V174.04C98.6653 174.649 98.4315 175.211 98.0106 175.632C97.5897 176.054 97.0285 176.288 96.4205 176.288H94.924C93.334 176.288 91.931 175.726 90.8086 174.602C89.6862 173.479 89.125 172.074 89.125 170.482V149.645C89.125 149.037 89.3588 148.522 89.7797 148.053C90.2006 147.632 90.7618 147.398 91.3698 147.398V147.398V147.398Z" fill="black"/>
<path d="M120.926 161.211C121.066 161.538 121.16 161.819 121.16 162.147C121.16 162.428 121.113 162.662 121.019 162.943C120.832 163.505 120.411 163.926 119.85 164.207C118.12 165.003 115.875 165.987 113.069 167.251C109.609 168.843 107.551 169.779 106.943 170.06C107.878 171.231 109.328 171.84 111.292 171.84C112.602 171.84 113.817 171.465 114.893 170.669C115.922 169.92 116.67 168.937 117.091 167.719C117.465 166.689 118.167 166.221 119.242 166.221C119.991 166.221 120.599 166.549 121.066 167.204C121.347 167.579 121.487 168 121.487 168.421C121.487 168.702 121.44 168.937 121.347 169.217C120.599 171.325 119.336 173.01 117.512 174.321C115.688 175.679 113.584 176.335 111.292 176.335C108.346 176.335 105.867 175.305 103.763 173.197C101.705 171.137 100.629 168.609 100.629 165.659C100.629 162.709 101.658 160.227 103.763 158.12C105.82 156.06 108.346 154.983 111.292 154.983C113.397 154.983 115.361 155.545 117.091 156.716C118.775 157.839 120.084 159.338 120.926 161.211ZM111.245 159.525C109.562 159.525 108.112 160.134 106.896 161.304C105.727 162.522 105.119 163.926 105.119 165.659V165.799L115.454 161.164C114.566 160.087 113.163 159.525 111.245 159.525Z" fill="black"/>
<path d="M134.816 179.331C136.359 179.331 137.762 178.723 138.978 177.505C140.288 176.288 140.895 174.836 140.895 173.198C139.493 175.211 137.435 176.241 134.769 176.241C131.823 176.241 129.344 175.211 127.24 173.104C125.182 171.044 124.106 168.515 124.106 165.565C124.106 162.616 125.135 160.134 127.24 158.027C129.297 155.967 131.823 154.89 134.769 154.89C137.669 154.89 140.194 155.92 142.252 157.98C144.309 160.04 145.385 162.522 145.385 165.472V173.104C145.385 176.007 144.263 178.489 142.065 180.643C139.913 182.703 137.482 183.733 134.769 183.733C130.607 183.733 127.52 182.141 125.463 178.91C125.229 178.535 125.089 178.114 125.089 177.739C125.089 177.505 125.135 177.224 125.229 176.99C125.463 176.288 125.884 175.82 126.585 175.586H126.632C126.959 175.492 127.24 175.398 127.52 175.398C128.222 175.398 128.783 175.726 129.251 176.428C130.513 178.395 132.337 179.331 134.816 179.331ZM140.942 165.519C140.896 163.833 140.288 162.428 139.118 161.258C137.949 160.087 136.499 159.525 134.816 159.525C133.132 159.525 131.683 160.134 130.467 161.304C129.297 162.522 128.69 163.927 128.69 165.612C128.69 167.298 129.297 168.749 130.467 169.967C131.683 171.137 133.086 171.746 134.816 171.746C136.499 171.746 137.949 171.137 139.118 169.967C140.288 168.749 140.895 167.345 140.895 165.612V165.519H140.942Z" fill="black"/>
<path d="M158.339 154.983C158.947 154.983 159.461 155.217 159.929 155.639C160.35 156.06 160.584 156.622 160.584 157.231V157.277C160.584 157.886 160.35 158.401 159.929 158.869C159.508 159.291 158.947 159.525 158.339 159.525H157.31C156.281 159.525 155.439 159.853 154.738 160.555C154.036 161.257 153.709 162.1 153.709 163.13V174.04C153.709 174.649 153.475 175.211 153.054 175.632C152.633 176.054 152.072 176.288 151.464 176.288H151.371C150.763 176.288 150.248 176.054 149.781 175.632C149.36 175.211 149.126 174.696 149.126 174.04V163.13C149.173 160.883 149.921 158.963 151.511 157.371C153.101 155.779 155.018 154.983 157.263 154.983H158.339V154.983Z" fill="black"/>
<path d="M180.74 158.12C182.798 160.181 183.873 162.709 183.873 165.659V174.087C183.873 174.696 183.639 175.258 183.218 175.679C182.798 176.101 182.236 176.335 181.628 176.335H181.582C180.974 176.335 180.459 176.101 179.992 175.679C179.571 175.258 179.337 174.743 179.337 174.087C177.934 175.585 175.876 176.335 173.211 176.335C170.264 176.335 167.786 175.305 165.681 173.197C163.623 171.137 162.548 168.609 162.548 165.659C162.548 162.709 163.577 160.227 165.681 158.12C167.739 156.06 170.264 154.983 173.211 154.983C176.157 154.983 178.635 156.013 180.74 158.12ZM168.861 161.304C167.692 162.522 167.084 163.926 167.084 165.612C167.084 167.298 167.692 168.749 168.861 169.967C170.03 171.137 171.48 171.746 173.211 171.746C174.941 171.746 176.344 171.137 177.513 169.967C178.682 168.749 179.29 167.345 179.29 165.612C179.29 163.926 178.682 162.475 177.513 161.304C176.297 160.087 174.894 159.525 173.211 159.525C171.527 159.525 170.077 160.087 168.861 161.304Z" fill="black"/>
<path d="M189.813 147.398C190.421 147.398 190.935 147.632 191.403 148.053C191.824 148.475 192.057 149.037 192.057 149.645V154.983H194.817C195.425 154.983 195.939 155.217 196.407 155.639C196.828 156.06 197.061 156.622 197.061 157.231V157.278C197.061 157.886 196.828 158.448 196.407 158.87C195.986 159.291 195.425 159.525 194.817 159.525H192.057V170.482C192.057 170.856 192.198 171.137 192.432 171.372C192.665 171.606 192.993 171.746 193.367 171.746H194.863C195.471 171.746 195.986 171.98 196.453 172.402C196.874 172.823 197.108 173.385 197.108 173.994V174.04C197.108 174.649 196.874 175.211 196.453 175.632C196.033 176.054 195.471 176.288 194.863 176.288H193.367C191.777 176.288 190.421 175.726 189.251 174.602C188.129 173.479 187.568 172.074 187.568 170.482V149.645C187.568 149.037 187.802 148.522 188.223 148.053C188.643 147.632 189.205 147.398 189.813 147.398V147.398V147.398Z" fill="black"/>
<path d="M209.735 154.983C212.681 154.983 215.16 156.013 217.264 158.12C219.322 160.181 220.398 162.709 220.398 165.659C220.398 168.609 219.369 171.09 217.264 173.197C215.207 175.258 212.681 176.335 209.735 176.335C206.789 176.335 204.31 175.305 202.206 173.197C200.148 171.137 199.072 168.609 199.072 165.659C199.072 162.709 200.101 160.227 202.206 158.12C204.263 156.013 206.789 154.983 209.735 154.983ZM209.735 159.525C208.051 159.525 206.602 160.134 205.386 161.304C204.217 162.522 203.609 163.926 203.609 165.659C203.609 167.345 204.217 168.796 205.386 169.967C206.602 171.184 208.005 171.746 209.735 171.746C211.419 171.746 212.868 171.137 214.037 169.967C215.253 168.749 215.815 167.345 215.815 165.659C215.815 163.973 215.207 162.522 214.037 161.304C212.822 160.134 211.419 159.525 209.735 159.525Z" fill="black"/>
<path d="M232.651 154.983C233.258 154.983 233.773 155.217 234.241 155.639C234.661 156.06 234.895 156.622 234.895 157.231V157.277C234.895 157.886 234.661 158.401 234.241 158.869C233.82 159.291 233.258 159.525 232.651 159.525H231.622C230.593 159.525 229.751 159.853 229.05 160.555C228.348 161.257 228.021 162.1 228.021 163.13V174.04C228.021 174.649 227.787 175.211 227.366 175.632C226.945 176.054 226.384 176.288 225.776 176.288H225.729C225.121 176.288 224.607 176.054 224.139 175.632C223.718 175.211 223.484 174.696 223.484 174.04V163.13C223.531 160.883 224.279 158.963 225.869 157.371C227.459 155.779 229.377 154.983 231.622 154.983H232.651V154.983Z" fill="black"/>
</svg>
