<svg width="106" height="103" viewBox="0 0 106 103" fill="none" xmlns="http://www.w3.org/2000/svg">
<path d="M17.6694 82.3778C10.7553 82.3778 5.99219 77.904 5.99219 71.0442C5.99219 65.0791 11.2162 60.307 17.5158 60.4562C20.2815 60.4562 23.0471 61.2018 25.8128 61.2018C33.3415 61.3509 38.8729 57.3245 41.1776 50.3155C43.9433 41.6662 48.2454 39.131 57.3106 41.2188C66.2222 43.1575 73.9046 38.5345 76.6703 29.8852C78.8214 23.0253 84.3527 19.2972 90.8059 20.7884C96.9518 22.1306 100.947 28.2448 99.5639 34.2099C98.181 40.3241 92.0351 44.0522 85.7355 42.7101C73.751 40.1749 67.7587 43.4557 63.9175 54.6402C61.7664 60.7544 56.0815 63.737 49.6282 62.2457C39.0265 59.8597 32.1124 63.5878 28.7321 73.7285C26.581 79.6935 23.2008 82.3778 17.6694 82.3778Z" fill="black"/>
<path d="M105.71 51.3594C105.71 69.5529 95.8767 85.6586 81.1264 94.7554C76.517 96.2466 71.293 94.4571 68.8346 90.4307C66.2226 86.2551 67.1445 80.7374 70.9857 77.6058C79.7436 71.9389 85.4286 62.2457 85.4286 51.3594C85.4286 49.8681 85.2749 48.526 85.1213 47.1838C86.1968 47.3329 87.2724 47.4821 88.3479 47.4821C95.4157 47.4821 101.408 43.1574 103.713 36.894C105.096 41.517 105.71 46.4382 105.71 51.3594Z" fill="black"/>
<path d="M68.8344 90.4307C66.2224 86.2551 67.1443 80.7373 70.9855 77.6057C70.2173 78.053 69.449 78.5004 68.6808 78.9478C64.0714 81.483 58.54 82.9743 52.855 82.9743C45.3263 82.9743 38.2585 80.4391 32.7271 76.1144C29.9615 83.1234 24.8911 86.8516 17.6696 86.8516H17.516C16.4405 86.8516 15.5186 86.7025 14.5967 86.5533C24.2765 96.3958 37.7975 102.51 53.0087 102.51C62.5349 102.51 71.4465 100.124 79.1289 95.7993C79.7435 95.3519 80.5117 95.0536 81.1263 94.6062C76.5168 96.2466 71.2928 94.6062 68.8344 90.4307Z" fill="#DD0000"/>
<path d="M0 51.2102C0.153648 33.0167 9.98712 17.0601 24.891 7.96338C29.5004 6.4721 34.7244 8.26163 37.1828 12.2881C39.7948 16.4636 38.7193 21.9813 34.8781 25.113C26.1202 30.7798 20.4352 40.4731 20.2815 51.3594C20.2815 52.8506 20.4352 54.1928 20.5888 55.5349C19.5133 55.3858 18.4378 55.2367 17.3622 55.2367C10.2944 55.2367 4.30214 59.4122 1.99743 65.8247C0.768241 61.2018 0 56.2806 0 51.2102Z" fill="#DD0000"/>
<path d="M37.1827 12.4373C39.7947 16.6128 38.7192 22.1305 34.878 25.2622C35.6462 24.8148 36.4145 24.3674 37.1827 23.92C41.9458 21.3849 47.3235 20.0427 53.0085 20.0427C60.5372 20.0427 67.6051 22.5779 73.1364 26.9026C75.9021 19.8936 80.9725 16.3146 88.3476 16.1654H88.5012C89.5768 16.1654 90.4986 16.3146 91.4205 16.4637C81.7407 6.47219 68.2197 0.208862 53.1621 0.208862C43.6359 0.208862 34.7244 2.59489 26.8883 6.91958C26.2737 7.21783 25.5055 7.66521 24.8909 7.96346C29.5003 6.47219 34.7244 8.26172 37.1827 12.4373Z" fill="black"/>
</svg>
