<svg width="350" height="59" viewBox="0 0 350 59" fill="none" xmlns="http://www.w3.org/2000/svg">
<g clip-path="url(#clip0)">
<path d="M13.4662 45.5436C9.94908 45.5888 7.5282 43.1939 7.57388 39.7145C7.61955 36.5966 10.1775 34.1565 13.4662 34.2016C14.8822 34.2468 16.2982 34.5631 17.6685 34.6083C21.5053 34.6987 24.3373 32.6201 25.4792 29.0051C26.8952 24.5316 29.0877 23.2663 33.7011 24.2604C38.2231 25.2546 42.1513 22.9048 43.5216 18.3861C44.5722 14.8163 47.4498 12.9184 50.6472 13.6866C53.7989 14.4096 55.763 17.5275 55.0779 20.6455C54.3471 23.8086 51.2867 25.7064 48.0893 25.0286C41.9686 23.7182 38.9539 25.3901 36.9898 31.1741C35.8936 34.3372 33.0616 35.9188 29.7272 35.1506C24.3373 33.8853 20.8659 35.8284 19.0845 41.0701C18.0339 44.1428 16.2982 45.5436 13.4662 45.5436Z" fill="black"/>
<path d="M58.2302 29.5022C58.2302 38.9463 53.2514 47.2156 45.7147 51.9603C43.3852 52.7284 40.7359 51.8247 39.457 49.7461C38.1323 47.5771 38.6348 44.7303 40.5532 43.1036C44.9839 40.1664 47.9072 35.1958 47.9072 29.5474C47.9072 28.8244 47.8615 28.1014 47.7702 27.3784C48.3183 27.4688 48.8207 27.5139 49.3689 27.5139C52.9317 27.5139 55.992 25.2998 57.1339 22.0011C57.8648 24.3508 58.2302 26.8813 58.2302 29.5022Z" fill="black"/>
<path d="M39.4568 49.7009C38.1321 47.5319 38.6346 44.6851 40.553 43.0584C40.1876 43.3295 39.7765 43.5554 39.4111 43.7814C37.0359 45.0918 34.2953 45.86 31.3719 45.86C27.5351 45.86 23.9723 44.5495 21.1403 42.3354C19.77 45.9955 17.1664 47.8934 13.4666 47.8934H13.3752C12.8728 47.8934 12.3703 47.8482 11.9136 47.7578C16.801 52.864 23.7439 56.0271 31.3719 56.0271C36.2137 56.0271 40.7357 54.7619 44.6639 52.5477C45.0294 52.3669 45.3491 52.141 45.6688 51.9151C43.385 52.7284 40.7357 51.8247 39.4568 49.7009Z" fill="#DD0000"/>
<path d="M4.51367 29.4119C4.55935 19.9677 9.58381 11.6985 17.1205 6.99898C19.45 6.23079 22.0993 7.13454 23.3782 9.25834C24.7029 11.4725 24.2004 14.2741 22.2363 15.9009C17.8057 18.7929 14.8823 23.8086 14.8367 29.457C14.8367 30.18 14.8823 30.9482 14.9737 31.626C14.4256 31.5357 13.9231 31.4905 13.375 31.4905C9.8122 31.4905 6.70616 33.6595 5.56424 36.9581C4.87909 34.5632 4.51367 32.0327 4.51367 29.4119Z" fill="#DD0000"/>
<path d="M23.3781 9.30351C24.7027 11.5177 24.2003 14.3193 22.2362 15.946C22.6016 15.6749 23.0127 15.449 23.3781 15.2682C25.7533 13.9578 28.4939 13.2348 31.4172 13.2348C35.2541 13.2348 38.8169 14.5904 41.6488 16.8046C43.0648 13.1444 45.6227 11.2918 49.3682 11.2918H49.4596C49.962 11.2918 50.4645 11.3369 50.9213 11.4273C46.0338 6.23078 39.1366 3.02248 31.4629 2.97729C26.6211 2.97729 22.0991 4.19735 18.1709 6.41153C17.8055 6.59228 17.4858 6.81821 17.166 6.99896C19.4499 6.23078 22.0991 7.17971 23.3781 9.30351Z" fill="black"/>
<path d="M67.7764 14.5452C67.7764 12.8281 68.3702 11.3821 69.6034 10.162C70.8367 8.98718 72.2984 8.35455 73.9884 8.35455H79.2413C81.9362 8.35455 84.2201 9.30349 86.1385 11.1562C88.0569 13.054 88.9705 15.3134 88.9705 17.9794C88.9705 21.007 88.0112 23.2664 86.1385 24.8479C88.3767 26.5198 89.5186 29.0503 89.5186 32.3942C89.5186 35.1958 88.5137 37.5455 86.5039 39.5338C84.4941 41.522 82.0732 42.5161 79.2413 42.5161H73.9884C72.2984 42.5161 70.791 41.9287 69.6034 40.7086C68.3702 39.4886 67.7764 38.0426 67.7764 36.3707V14.5452ZM73.2119 22.3174H79.2869C80.4745 22.3174 81.5251 21.9107 82.3473 21.0974C83.1695 20.284 83.6263 19.2447 83.6263 18.0698C83.6263 16.8949 83.2152 15.9008 82.3473 15.0423C81.4794 14.1837 80.4745 13.777 79.2869 13.777H74.0341C73.8057 13.777 73.5773 13.8674 73.4403 14.003C73.3033 14.1837 73.2119 14.3645 73.2119 14.5904V22.3174ZM79.2869 37.184C80.6116 37.184 81.7535 36.7322 82.7127 35.7832C83.6263 34.8343 84.083 33.7046 84.083 32.3942C84.083 31.0837 83.6263 29.9541 82.7127 29.0051C81.7535 28.0562 80.6116 27.6043 79.2869 27.6043H73.2119V36.3707C73.2119 36.5966 73.3033 36.8225 73.4403 36.9581C73.623 37.0937 73.8057 37.184 74.0341 37.184H79.2869Z" fill="#DD0000"/>
<path d="M96.8267 14.5C95.9589 14.5 95.228 14.1837 94.6342 13.5963C94.0404 13.0088 93.7207 12.2858 93.7207 11.4273C93.7207 10.6139 94.0404 9.8909 94.6342 9.30346C95.228 8.71603 95.9589 8.39972 96.8267 8.39972C97.6489 8.39972 98.3798 8.71603 98.9736 9.30346C99.613 9.8909 99.8871 10.6139 99.8871 11.4273C99.8871 12.2858 99.5674 13.0088 98.9736 13.5963C98.4254 14.2289 97.6946 14.5 96.8267 14.5ZM96.8724 17.3468C97.6032 17.3468 98.2427 17.6179 98.7452 18.115C99.2933 18.6572 99.5217 19.2899 99.5217 20.0128V39.8952C99.5217 40.6182 99.2476 41.2509 98.7452 41.7479C98.2427 42.2902 97.6032 42.5161 96.8724 42.5161H96.8267C96.0959 42.5161 95.4564 42.245 94.9083 41.7479C94.3602 41.2509 94.1318 40.6182 94.1318 39.8952V20.0128C94.1318 19.2899 94.4059 18.6572 94.9083 18.115C95.4564 17.5727 96.0959 17.3468 96.8267 17.3468H96.8724Z" fill="#DD0000"/>
<path d="M107.561 8.39974C108.292 8.39974 108.932 8.67086 109.434 9.16792C109.982 9.71017 110.21 10.3428 110.21 11.0658V17.392H113.545C114.276 17.392 114.915 17.6631 115.418 18.1602C115.966 18.7024 116.194 19.3351 116.194 20.0581V20.1032C116.194 20.8262 115.92 21.4589 115.418 21.9559C114.87 22.4982 114.276 22.7241 113.545 22.7241H110.21V35.6929C110.21 36.0995 110.347 36.461 110.667 36.7774C110.941 37.0485 111.352 37.2292 111.763 37.2292H113.545C114.276 37.2292 114.915 37.5003 115.418 37.9974C115.966 38.5397 116.194 39.1723 116.194 39.8953V39.9405C116.194 40.6635 115.92 41.2961 115.418 41.7931C114.87 42.3354 114.276 42.5613 113.545 42.5613H111.763C109.845 42.5613 108.201 41.8835 106.83 40.5279C105.46 39.1723 104.775 37.5455 104.775 35.6929V11.0206C104.775 10.2976 105.049 9.66498 105.551 9.12274C106.1 8.62568 106.693 8.35455 107.424 8.35455H107.561V8.39974Z" fill="#DD0000"/>
<path d="M136.474 8.39974C137.205 8.39974 137.845 8.67086 138.347 9.16792C138.895 9.71017 139.124 10.3428 139.124 11.0658V39.9405C139.124 40.6635 138.849 41.2961 138.347 41.7931C137.799 42.3354 137.205 42.5613 136.474 42.5613H136.429C135.698 42.5613 135.058 42.2902 134.556 41.7931C134.008 41.2961 133.779 40.6635 133.779 39.9405V11.0206C133.779 10.2976 134.053 9.66498 134.556 9.12274C135.104 8.62568 135.698 8.35455 136.429 8.35455H136.474V8.39974Z" fill="black"/>
<path d="M149.858 39.8952C149.858 40.6182 149.584 41.2508 149.081 41.7479C148.533 42.2901 147.939 42.5161 147.209 42.5161H147.163C146.432 42.5161 145.793 42.245 145.29 41.7479C144.742 41.2508 144.514 40.6182 144.514 39.8952V27.9658C144.514 25.0286 145.564 22.5433 147.665 20.4647C149.767 18.3861 152.279 17.3468 155.248 17.3468C158.171 17.3468 160.683 18.3861 162.784 20.4647C164.886 22.5433 165.936 25.0286 165.936 27.9658V39.9404C165.936 40.6634 165.662 41.296 165.16 41.7931C164.657 42.3353 164.018 42.5613 163.287 42.5613H163.241C162.51 42.5613 161.871 42.2901 161.323 41.7931C160.775 41.296 160.546 40.6634 160.546 39.9404V27.9658C160.546 26.5198 160.044 25.2997 159.039 24.2604C157.988 23.2211 156.755 22.7241 155.293 22.7241C153.832 22.7241 152.553 23.2211 151.548 24.2604C150.543 25.2997 150.041 26.5198 150.041 27.9658V39.8952H149.858Z" fill="black"/>
<path d="M173.016 8.39974C173.747 8.39974 174.387 8.67086 174.889 9.16792C175.437 9.71017 175.666 10.3428 175.666 11.0658V17.392H179C179.731 17.392 180.37 17.6631 180.873 18.1602C181.421 18.7024 181.649 19.3351 181.649 20.0581V20.1032C181.649 20.8262 181.375 21.4589 180.873 21.9559C180.325 22.4982 179.731 22.7241 179 22.7241H175.666V35.6929C175.666 36.0995 175.803 36.461 176.122 36.7774C176.396 37.0485 176.807 37.2292 177.219 37.2292H179C179.731 37.2292 180.37 37.5003 180.873 37.9974C181.421 38.5397 181.649 39.1723 181.649 39.8953V39.9405C181.649 40.6635 181.375 41.2961 180.873 41.7931C180.325 42.3354 179.731 42.5613 179 42.5613H177.219C175.3 42.5613 173.656 41.8835 172.285 40.5279C170.915 39.1723 170.23 37.5455 170.23 35.6929V11.0206C170.23 10.2976 170.504 9.66498 171.006 9.12274C171.555 8.62568 172.148 8.35455 172.879 8.35455H173.016V8.39974Z" fill="black"/>
<path d="M208.416 24.7124C208.599 25.0739 208.69 25.4354 208.69 25.8421C208.69 26.1584 208.644 26.4747 208.507 26.7458C208.233 27.4236 207.776 27.9207 207.091 28.237C205.036 29.1408 202.295 30.3608 198.961 31.852C194.804 33.7047 192.338 34.8344 191.607 35.1507C192.749 36.5515 194.484 37.2293 196.86 37.2293C198.458 37.2293 199.874 36.7774 201.153 35.8285C202.386 34.9247 203.3 33.7499 203.802 32.3491C204.214 31.1742 205.081 30.5416 206.36 30.5416C207.274 30.5416 208.005 30.9031 208.553 31.6712C208.873 32.1231 209.055 32.6202 209.055 33.1172C209.055 33.4335 209.01 33.7499 208.873 34.0662C208.005 36.5515 206.497 38.5849 204.305 40.1213C202.112 41.7028 199.6 42.5162 196.86 42.5162C193.342 42.5162 190.328 41.2961 187.861 38.8108C185.349 36.3255 184.116 33.3884 184.116 29.9089C184.116 26.4295 185.349 23.4472 187.861 21.0071C190.373 18.5669 193.342 17.3017 196.86 17.3017C199.417 17.3017 201.701 17.9795 203.802 19.3803C205.858 20.7359 207.411 22.4982 208.416 24.7124ZM196.86 22.7694C194.804 22.7694 193.114 23.4924 191.652 24.8932C190.236 26.294 189.551 28.0111 189.551 30.0445V30.1801L201.884 24.6672C200.788 23.402 199.098 22.7694 196.86 22.7694Z" fill="black"/>
<path d="M225.088 46.1763C226.915 46.1763 228.605 45.4533 230.066 44.0525C231.619 42.6065 232.396 40.8893 232.396 38.9463C230.706 41.3412 228.285 42.5613 225.088 42.5613C221.57 42.5613 218.556 41.3412 216.089 38.8559C213.577 36.3706 212.344 33.4334 212.344 29.954C212.344 26.4746 213.577 23.4922 216.089 21.0521C218.601 18.5668 221.57 17.3468 225.088 17.3468C228.559 17.3468 231.574 18.5668 234.086 21.0069C236.598 23.4471 237.831 26.3842 237.831 29.9088V38.9463C237.831 42.3805 236.507 45.3177 233.812 47.8934C231.254 50.3335 228.331 51.5535 225.088 51.5535C220.109 51.5535 216.409 49.6557 213.897 45.8148C213.623 45.3629 213.44 44.911 213.44 44.4139C213.44 44.1428 213.486 43.8265 213.577 43.5554C213.851 42.742 214.399 42.1998 215.221 41.8835H215.267C215.632 41.7479 215.998 41.7027 216.318 41.7027C217.14 41.7027 217.825 42.1094 218.419 42.9228C219.926 45.0918 222.119 46.1763 225.088 46.1763ZM232.396 29.8185C232.35 27.8302 231.619 26.1583 230.203 24.8027C228.787 23.4019 227.097 22.7241 225.088 22.7241C223.032 22.7241 221.296 23.4471 219.88 24.8479C218.464 26.2487 217.779 27.9658 217.779 29.954C217.779 31.9874 218.51 33.6594 219.88 35.1054C221.296 36.5062 223.032 37.184 225.088 37.184C227.143 37.184 228.833 36.5062 230.249 35.1054C231.665 33.7046 232.396 31.9874 232.396 29.954V29.8185Z" fill="black"/>
<path d="M253.271 17.3468C254.001 17.3468 254.641 17.6179 255.189 18.115C255.691 18.6572 255.966 19.2898 255.966 20.0128V20.058C255.966 20.781 255.691 21.4136 255.189 21.9107C254.641 22.4529 254.001 22.6789 253.271 22.6789H251.992C250.804 22.6789 249.753 23.0856 248.931 23.9441C248.109 24.7575 247.698 25.7968 247.652 26.9717V39.8952C247.652 40.6182 247.378 41.2508 246.876 41.7479C246.328 42.2901 245.734 42.5161 245.003 42.5161H244.957C244.227 42.5161 243.587 42.245 243.085 41.7479C242.536 41.2508 242.308 40.6182 242.308 39.8952V27.0168C242.354 24.3508 243.267 22.0914 245.14 20.1936C247.059 18.2957 249.342 17.392 252.037 17.392H253.271V17.3468Z" fill="black"/>
<path d="M280.128 21.0521C282.641 23.5374 283.874 26.4746 283.874 29.954V39.8952C283.874 40.6182 283.6 41.2508 283.097 41.7479C282.549 42.2901 281.956 42.5161 281.225 42.5161H281.179C280.448 42.5161 279.809 42.245 279.306 41.7479C278.758 41.2508 278.53 40.6182 278.53 39.8952C276.84 41.6575 274.419 42.5613 271.221 42.5613C267.704 42.5613 264.69 41.3412 262.223 38.8559C259.711 36.3706 258.478 33.4334 258.478 29.954C258.478 26.4746 259.711 23.4922 262.223 21.0521C264.735 18.5668 267.704 17.3468 271.221 17.3468C274.602 17.3468 277.616 18.5668 280.128 21.0521ZM265.923 24.8479C264.507 26.2487 263.776 27.9658 263.776 29.954C263.776 31.9874 264.507 33.6594 265.923 35.1054C267.339 36.5062 269.075 37.184 271.13 37.184C273.186 37.184 274.876 36.5062 276.292 35.1054C277.708 33.7046 278.438 31.9874 278.438 29.954C278.438 27.9658 277.708 26.2487 276.292 24.8479C274.876 23.4471 273.14 22.7241 271.13 22.7241C269.075 22.7241 267.339 23.4019 265.923 24.8479Z" fill="black"/>
<path d="M291 8.39974C291.731 8.39974 292.37 8.67086 292.872 9.16792C293.421 9.71017 293.649 10.3428 293.649 11.0658V17.392H296.983C297.714 17.392 298.354 17.6631 298.856 18.1602C299.404 18.7024 299.633 19.3351 299.633 20.0581V20.1032C299.633 20.8262 299.359 21.4589 298.856 21.9559C298.308 22.4982 297.714 22.7241 296.983 22.7241H293.649V35.6929C293.649 36.0995 293.786 36.461 294.106 36.7774C294.38 37.0485 294.791 37.2292 295.202 37.2292H296.983C297.714 37.2292 298.354 37.5003 298.856 37.9974C299.404 38.5397 299.633 39.1723 299.633 39.8953V39.9405C299.633 40.6635 299.359 41.2961 298.856 41.7931C298.308 42.3354 297.714 42.5613 296.983 42.5613H295.202C293.284 42.5613 291.639 41.8835 290.269 40.5279C288.899 39.1723 288.213 37.5455 288.213 35.6929V11.0206C288.213 10.2976 288.487 9.66498 288.99 9.12274C289.538 8.62568 290.132 8.35455 290.863 8.35455H291V8.39974Z" fill="black"/>
<path d="M314.843 17.3468C318.36 17.3468 321.375 18.5668 323.841 21.0521C326.354 23.5374 327.587 26.4746 327.587 29.954C327.587 33.4334 326.354 36.4158 323.841 38.8559C321.329 41.3412 318.36 42.5613 314.843 42.5613C311.326 42.5613 308.311 41.3412 305.845 38.8559C303.332 36.3706 302.099 33.4334 302.099 29.954C302.099 26.4746 303.332 23.4922 305.845 21.0521C308.357 18.5668 311.326 17.3468 314.843 17.3468ZM314.843 22.7692C312.788 22.7692 311.097 23.4922 309.636 24.893C308.22 26.2939 307.535 28.011 307.535 30.0444C307.535 32.0326 308.22 33.7498 309.636 35.1506C311.052 36.5514 312.788 37.2744 314.843 37.2744C316.853 37.2744 318.589 36.5514 320.005 35.1506C321.42 33.7498 322.151 32.0326 322.151 30.0444C322.151 28.011 321.42 26.339 320.005 24.893C318.589 23.4471 316.853 22.7692 314.843 22.7692Z" fill="black"/>
<path d="M342.386 17.3468C343.117 17.3468 343.757 17.6179 344.305 18.115C344.807 18.6572 345.081 19.2898 345.081 20.0128V20.058C345.081 20.781 344.807 21.4136 344.305 21.9107C343.757 22.4529 343.117 22.6789 342.386 22.6789H341.107C339.92 22.6789 338.869 23.0856 338.047 23.9441C337.225 24.7575 336.814 25.7968 336.768 26.9717V39.8952C336.768 40.6182 336.494 41.2508 335.992 41.7479C335.443 42.2901 334.85 42.5161 334.119 42.5161H334.073C333.342 42.5161 332.703 42.245 332.2 41.7479C331.652 41.2508 331.424 40.6182 331.424 39.8952V27.0168C331.47 24.3508 332.383 22.0914 334.256 20.1936C336.174 18.2957 338.458 17.392 341.153 17.392H342.386V17.3468Z" fill="black"/>
</g>
<defs>
<clipPath id="clip0">
<rect width="340.522" height="53.095" fill="white" transform="translate(4.51367 2.97729)"/>
</clipPath>
</defs>
</svg>
