<svg width="86" height="86" viewBox="0 0 86 86" fill="none" xmlns="http://www.w3.org/2000/svg">
<path d="M65.9495 85.5059H20.3152C9.34971 85.5059 0.37793 76.5345 0.37793 65.5693V19.9366C0.37793 8.97147 9.34971 0 20.3152 0H65.9495C76.915 0 85.8868 8.97147 85.8868 19.9366V65.5693C85.8868 76.5345 76.915 85.5059 65.9495 85.5059Z" fill="#0F1923"/>
<path d="M57.863 40.9208C58.8598 41.253 59.7459 41.4746 60.5213 41.8068C65.2841 43.9113 68.2747 47.4555 69.2715 52.4397C70.4899 58.1992 68.3854 63.6264 63.4011 67.2814C60.632 69.2751 57.5307 70.1611 54.097 70.1611C49.2234 70.1611 44.3499 70.2719 39.3656 70.2719C38.701 70.2719 38.0364 70.0504 37.4826 69.7181C36.4857 69.0536 36.2642 68.1675 36.5965 67.0599C36.9288 66.0631 37.7041 65.3985 38.9225 65.2877C41.6916 65.2877 44.3499 65.2877 47.119 65.2877C49.7773 65.2877 52.4356 65.2877 55.0939 65.2877C59.9674 65.2877 64.1764 60.9681 64.398 56.0947C64.6195 51.1106 60.9643 46.9018 56.2015 45.9049C55.98 45.9049 55.7585 45.9049 55.5369 45.9049C50.9957 45.9049 46.4544 45.9049 41.9131 45.9049C41.8023 45.9049 41.6916 45.9049 41.4701 45.9049C41.4701 46.9018 41.4701 47.8986 41.4701 49.0062C41.4701 50.1138 41.4701 51.2214 41.4701 52.3289C41.4701 52.8827 41.5808 53.1043 42.2454 53.1043C45.0145 53.1043 47.7835 53.1043 50.4419 53.1043C50.8849 53.1043 51.3279 52.8827 51.6602 52.5505C53.654 50.8891 55.4262 51.2214 56.8661 52.1074C58.749 53.4365 59.1921 55.541 58.306 57.5346C57.1984 59.7498 53.8755 60.5251 51.9925 58.753C51.4387 58.1992 50.8849 57.9776 50.1096 57.9776C46.4544 57.9776 42.7992 57.9776 39.144 57.9776C37.4826 57.9776 36.5965 57.0916 36.5965 55.4302C36.5965 51.3321 36.5965 47.3448 36.5965 43.2467C36.5965 41.5853 37.1503 40.81 38.9225 40.6992C41.5808 40.5885 44.2391 40.5885 46.8974 40.5885C52.8786 40.5885 57.4199 35.3828 56.5338 29.4018C55.8692 25.3038 52.6571 22.3133 49.0019 21.4272C48.1158 21.2057 47.2297 21.2057 46.3436 21.2057C40.0301 21.2057 33.6059 21.0949 27.2924 21.2057C25.8525 21.2057 24.4126 19.9873 24.4126 18.5475C24.4126 17.1076 25.7417 16 27.2924 16C31.1691 16 35.0458 16 38.9225 16C41.5808 16 44.2391 16 46.8974 16C53.5432 16.1108 59.4136 20.3196 61.2966 26.9651C62.6257 31.617 61.6289 35.9366 58.7491 39.9239C58.306 40.2562 58.0845 40.4777 57.863 40.9208Z" fill="#F54756"/>
<path d="M29.2866 33.4998C29.2866 34.0536 29.2866 34.3859 29.2866 34.8289C29.2866 43.8004 29.2866 52.7719 29.2866 61.7434C29.2866 63.6263 29.2866 65.5092 29.2866 67.5028C29.2866 69.718 27.6251 70.8256 25.5206 70.0503C24.413 69.6072 24.3022 68.4997 24.3022 67.5028C24.3022 64.2908 24.3022 61.1896 24.3022 57.9775C24.3022 49.4491 24.3022 40.9207 24.3022 32.3922C24.3022 31.8384 24.3023 31.3954 24.413 30.8416C24.5238 29.5125 25.5206 28.7372 26.739 28.7372C31.8341 28.7372 36.9292 28.7372 42.1351 28.7372C42.7996 28.7372 43.2427 28.7372 43.7965 28.1834C45.0149 26.7435 47.4517 26.965 48.4485 27.4081C50.11 28.2941 50.9961 29.8448 50.8853 31.6169C50.6638 33.389 49.4454 34.8289 47.6732 35.2719C46.1225 35.715 44.7934 35.0504 43.575 34.0536C43.3534 33.8321 43.1319 33.7213 42.7996 33.6106C38.2584 33.389 33.9386 33.4998 29.2866 33.4998Z" fill="#F54756"/>
</svg>
