<svg width="214" height="55" viewBox="0 0 214 55" fill="none" xmlns="http://www.w3.org/2000/svg">
<g clip-path="url(#clip0)">
<path d="M37.6536 53.6691H14.8363C6.69338 53.6691 0.119629 47.025 0.119629 38.7949V15.7764C0.119629 7.50346 6.69338 0.859375 14.8363 0.859375H37.6112C45.7542 0.859375 52.3279 7.50346 52.3279 15.7335V38.7521C52.3703 47.025 45.7966 53.6691 37.6536 53.6691Z" fill="#111E2D"/>
<path d="M80.2345 22.6777C80.2345 24.0494 79.8952 25.2925 79.2591 26.4498C78.6229 27.6072 77.5626 28.5073 76.0358 29.1074C77.8171 29.7076 79.1318 30.6506 80.0225 31.9365C80.9131 33.2225 81.3372 34.6799 81.3372 36.2659C81.3372 39.1379 80.3193 41.2811 78.2836 42.6528C76.2478 44.0245 73.3215 44.7532 69.5469 44.7532C68.2321 44.7532 66.9598 44.7103 65.7298 44.5817C64.4999 44.4531 63.3124 44.2388 62.2097 43.9388C60.895 43.553 60.2588 42.8243 60.2588 41.7526V17.491C60.2588 16.5909 60.7677 15.9907 61.7856 15.6907C62.8459 15.3906 63.991 15.1763 65.1785 15.0477C66.366 14.9191 67.6808 14.8763 69.0803 14.8763C72.6005 14.8763 75.3572 15.5192 77.3081 16.7623C79.2591 18.0483 80.2345 20.0201 80.2345 22.6777ZM63.991 27.6929H70.3527C72.3036 27.6929 73.8304 27.2642 74.8483 26.3641C75.8661 25.4639 76.3751 24.2637 76.3751 22.7634C76.3751 19.6343 73.9576 18.0911 69.0803 18.0911C67.9776 18.0911 67.0446 18.134 66.2388 18.2197C65.433 18.3055 64.712 18.3912 64.0334 18.5198V27.6929H63.991ZM63.991 30.822V41.0668C64.7544 41.2383 65.6026 41.3668 66.5781 41.4526C67.5535 41.5383 68.5714 41.5812 69.5469 41.5812C72.134 41.5812 74.1273 41.1525 75.442 40.2952C76.7992 39.4379 77.4778 38.0662 77.4778 36.1802C77.4778 34.5513 76.884 33.2225 75.6541 32.2795C74.4666 31.3364 72.6853 30.822 70.3527 30.822H63.991V30.822Z" fill="#FF4655"/>
<path d="M87.3171 15.4335C87.3171 14.7905 87.5292 14.1904 87.9957 13.7617C88.4622 13.2902 89.0136 13.0759 89.7346 13.0759C90.4556 13.0759 91.0493 13.2902 91.4734 13.7617C91.8975 14.2333 92.1096 14.7905 92.1096 15.4335C92.1096 16.0765 91.8975 16.6766 91.4734 17.1052C91.0493 17.5767 90.4556 17.7911 89.7346 17.7911C89.0136 17.7911 88.4198 17.5767 87.9957 17.1052C87.5292 16.6337 87.3171 16.0765 87.3171 15.4335ZM91.6431 44.1102C91.4734 44.1531 91.2614 44.2388 90.9221 44.3245C90.6252 44.4102 90.2859 44.4531 89.9042 44.4531C88.5471 44.4531 87.8685 43.8959 87.8685 42.7385V22.4205C88.0381 22.3776 88.2502 22.2919 88.5895 22.2062C88.9288 22.1204 89.2681 22.0776 89.6498 22.0776C90.9645 22.0776 91.6007 22.6777 91.6007 23.835V44.1102H91.6431Z" fill="#FF4655"/>
<path d="M106.36 44.8389C104.154 44.8389 102.416 44.3674 101.058 43.3815C99.7013 42.3956 99.0227 40.7667 99.0227 38.4949V15.9907C99.1924 15.9479 99.4044 15.8622 99.7437 15.7764C100.083 15.6907 100.422 15.6478 100.804 15.6478C102.119 15.6478 102.755 16.2051 102.755 17.3624V22.8063H110.431C110.516 22.9778 110.601 23.1921 110.728 23.4493C110.813 23.7065 110.855 24.0065 110.855 24.3066C110.855 25.3782 110.389 25.9354 109.456 25.9354H102.755V38.2377C102.755 39.4808 103.094 40.381 103.815 40.8953C104.536 41.4097 105.512 41.6669 106.784 41.6669C107.335 41.6669 107.929 41.5812 108.565 41.3669C109.201 41.1954 109.753 40.9382 110.219 40.7239C110.389 40.8953 110.559 41.1525 110.728 41.4526C110.898 41.7526 110.983 42.0527 110.983 42.4385C110.983 43.1243 110.559 43.6816 109.753 44.1531C108.905 44.6246 107.802 44.8389 106.36 44.8389Z" fill="#FF4655"/>
<path d="M132.612 37.0375H121.161L118.871 44.2817C118.574 44.4103 118.277 44.496 117.98 44.5817C117.683 44.6246 117.302 44.6674 116.835 44.6674C116.072 44.6674 115.393 44.496 114.927 44.1531C114.418 43.8101 114.163 43.2958 114.163 42.6099C114.163 42.267 114.206 41.9241 114.291 41.5812C114.375 41.2382 114.503 40.8953 114.672 40.4667C115.096 39.1379 115.648 37.4233 116.369 35.3229C117.09 33.2225 117.896 30.9935 118.701 28.6788C119.55 26.3212 120.355 24.0494 121.204 21.7775C122.052 19.5057 122.773 17.5767 123.409 15.9907C123.706 15.8193 124.215 15.6049 124.851 15.4335C125.487 15.262 126.166 15.1763 126.887 15.1763C127.777 15.1763 128.626 15.3049 129.304 15.5621C130.025 15.8193 130.492 16.2479 130.746 16.8909C131.425 18.6912 132.188 20.7488 132.994 23.0206C133.8 25.2925 134.606 27.65 135.411 30.0933C136.217 32.5366 137.023 34.8942 137.744 37.2518C138.507 39.6094 139.186 41.7098 139.78 43.5958C139.483 43.8959 139.144 44.1531 138.677 44.3674C138.211 44.5817 137.702 44.6674 137.065 44.6674C136.217 44.6674 135.623 44.496 135.242 44.1531C134.86 43.8101 134.563 43.2529 134.309 42.4813L132.612 37.0375ZM126.887 19.5485C126.59 20.4058 126.251 21.3489 125.869 22.4205C125.487 23.4921 125.105 24.6066 124.681 25.8068C124.257 27.0071 123.876 28.2073 123.451 29.4075C123.027 30.6077 122.646 31.8079 122.264 32.9224H131.51C131.085 31.6793 130.704 30.3934 130.28 29.1074C129.856 27.8215 129.431 26.6213 129.05 25.421C128.668 24.2637 128.286 23.1492 127.947 22.1204C127.608 21.0917 127.311 20.2344 127.099 19.5057H126.887V19.5485Z" fill="#17283F"/>
<path d="M137.15 45.7391C136.048 45.7391 135.199 45.4819 134.606 44.9675C134.097 44.496 133.673 43.8101 133.376 42.8243L131.849 38.1091H121.967L119.762 45.0532L119.338 45.2676C118.998 45.439 118.617 45.5248 118.235 45.6105C117.853 45.6962 117.429 45.7391 116.92 45.7391C115.945 45.7391 115.054 45.4819 114.418 45.0104C113.867 44.6246 113.188 43.8959 113.188 42.5671C113.188 42.1384 113.23 41.6669 113.358 41.2382C113.442 40.8953 113.57 40.5095 113.739 40.0809C114.163 38.7521 114.715 37.0375 115.436 34.9371C116.157 32.8367 116.963 30.6077 117.768 28.293C118.574 25.9783 119.422 23.6636 120.271 21.3917C121.161 19.077 121.882 17.1481 122.476 15.5621L122.603 15.2192L122.9 15.0477C123.282 14.7905 123.876 14.5762 124.639 14.4047C125.402 14.1904 126.166 14.1047 126.929 14.1047C127.947 14.1047 128.88 14.2333 129.728 14.5333C130.746 14.8762 131.467 15.5621 131.807 16.4623C132.485 18.2626 133.249 20.3201 134.054 22.6348C134.86 24.9067 135.666 27.3071 136.514 29.7504C137.32 32.1937 138.126 34.637 138.847 36.9089C139.61 39.2665 140.289 41.3668 140.883 43.2529L141.052 43.853L140.628 44.3245C140.246 44.7532 139.78 45.0961 139.186 45.3533C138.592 45.5676 137.914 45.7391 137.15 45.7391ZM120.398 35.9658H133.376L135.412 42.1384C135.666 42.91 135.92 43.2529 136.048 43.3386C136.09 43.3815 136.387 43.553 137.193 43.553C137.659 43.553 138.041 43.4672 138.38 43.3386C138.508 43.2958 138.592 43.2529 138.677 43.1672C138.126 41.4526 137.532 39.5665 136.896 37.509C136.175 35.2371 135.369 32.8367 134.563 30.3505C133.757 27.9072 132.952 25.5496 132.146 23.2778C131.34 21.0059 130.577 18.9484 129.898 17.1481C129.813 16.9338 129.644 16.6337 129.092 16.4623C128.498 16.2479 127.777 16.1622 127.014 16.1622C126.42 16.1622 125.827 16.2479 125.275 16.3765C124.851 16.5051 124.597 16.5908 124.385 16.6766C123.791 18.1769 123.155 19.9343 122.349 22.0776C121.501 24.3494 120.652 26.6641 119.847 28.936C118.998 31.2507 118.235 33.4797 117.514 35.5801C116.793 37.6804 116.199 39.395 115.817 40.681L115.775 40.7667C115.648 41.1525 115.521 41.4954 115.436 41.7955C115.351 42.0098 115.351 42.267 115.351 42.5242C115.351 42.9528 115.478 43.0814 115.648 43.21C115.987 43.4244 116.411 43.553 116.963 43.553C117.344 43.553 117.641 43.5101 117.896 43.4672C117.98 43.4672 118.065 43.4244 118.15 43.4244L120.398 35.9658ZM132.994 34.0369H120.822L121.289 32.6224C121.67 31.465 122.052 30.3077 122.476 29.1074C122.9 27.9072 123.282 26.707 123.706 25.5068C124.13 24.3066 124.512 23.1921 124.894 22.1204C125.275 21.0488 125.614 20.0629 125.911 19.2056L126.166 18.5198H127.905L128.117 19.2913C128.329 20.0201 128.626 20.8774 128.965 21.9061L130.068 25.2067C130.449 26.3641 130.873 27.6072 131.298 28.8931C131.722 30.1791 132.146 31.465 132.528 32.7081L132.994 34.0369ZM123.748 31.8937H130.068C129.813 31.0792 129.559 30.3077 129.262 29.4932C128.838 28.2073 128.414 27.0071 128.032 25.8068L126.929 22.5062C126.887 22.592 126.844 22.6777 126.844 22.8063C126.463 23.8779 126.081 24.9924 125.657 26.1926C125.233 27.3928 124.851 28.5931 124.427 29.7933C124.215 30.4791 124.003 31.2078 123.748 31.8937Z" fill="#17283F"/>
<path d="M154.242 44.8818C153.224 44.8818 152.291 44.796 151.443 44.5817C150.552 44.3674 149.831 44.1102 149.195 43.8101V52.7261C148.983 52.8118 148.686 52.8975 148.262 52.9833C147.88 53.069 147.456 53.1119 146.99 53.1119C146.099 53.1119 145.421 52.9404 144.954 52.5975C144.53 52.2546 144.318 51.6545 144.318 50.7971V26.2783C144.318 25.5925 144.445 25.0353 144.7 24.6066C144.954 24.178 145.421 23.7493 146.099 23.3635C146.99 22.8491 148.05 22.4205 149.322 22.0347C150.595 21.6489 152.037 21.4346 153.606 21.4346C155.218 21.4346 156.744 21.6489 158.144 22.1204C159.544 22.592 160.773 23.2778 161.791 24.2208C162.809 25.1639 163.615 26.3641 164.209 27.8644C164.803 29.3218 165.099 31.0792 165.099 33.0939C165.099 35.0657 164.845 36.8231 164.294 38.2806C163.742 39.738 162.979 40.9811 162.046 41.967C161.113 42.9528 159.968 43.7244 158.61 44.1959C157.296 44.6246 155.854 44.8818 154.242 44.8818ZM153.479 40.8525C155.514 40.8525 157.126 40.2095 158.314 38.9664C159.501 37.7233 160.095 35.7515 160.095 33.0082C160.095 31.6365 159.925 30.4363 159.586 29.4504C159.247 28.4645 158.78 27.6929 158.186 27.0499C157.593 26.4498 156.914 25.9783 156.108 25.7211C155.302 25.4639 154.454 25.3353 153.564 25.3353C152.546 25.3353 151.697 25.4639 151.019 25.6782C150.298 25.9354 149.704 26.1926 149.153 26.4927V39.5236C149.704 39.9094 150.298 40.2095 151.019 40.4667C151.782 40.7239 152.588 40.8525 153.479 40.8525Z" fill="#17283F"/>
<path d="M146.99 54.1406C145.845 54.1406 144.954 53.8834 144.318 53.369C143.597 52.8118 143.258 51.9116 143.258 50.7114V26.2783C143.258 25.3782 143.427 24.6495 143.767 24.0494C144.106 23.4492 144.7 22.9349 145.548 22.4205C146.481 21.8632 147.668 21.3917 148.983 20.9631C150.34 20.5344 151.909 20.3201 153.564 20.3201C155.302 20.3201 156.914 20.5773 158.441 21.0488C159.968 21.5632 161.367 22.3348 162.47 23.3635C163.615 24.4351 164.506 25.764 165.184 27.3928C165.82 28.9788 166.16 30.8649 166.16 33.051C166.16 35.1514 165.863 37.0375 165.269 38.6235C164.675 40.2095 163.827 41.5812 162.809 42.6956C161.749 43.8101 160.477 44.6246 158.992 45.1818C157.55 45.6962 155.939 45.9963 154.242 45.9963C153.182 45.9963 152.122 45.8677 151.188 45.6533C150.849 45.5676 150.552 45.4819 150.255 45.3961V53.4548L149.619 53.712C149.322 53.8406 148.983 53.9263 148.517 54.0549C148.008 54.0977 147.499 54.1406 146.99 54.1406ZM153.606 22.4634C152.122 22.4634 150.807 22.6348 149.619 23.0206C148.432 23.4064 147.414 23.835 146.608 24.2637C145.929 24.6495 145.675 24.9924 145.59 25.121C145.421 25.3782 145.378 25.764 145.378 26.2355V50.7114C145.378 51.1829 145.463 51.5258 145.633 51.6544C145.76 51.783 146.142 51.9545 146.99 51.9545C147.371 51.9545 147.753 51.9116 148.092 51.8688H148.135V42.0527L149.662 42.8242C150.213 43.0814 150.892 43.3386 151.697 43.5101C152.503 43.6815 153.351 43.8101 154.285 43.8101C155.726 43.8101 157.084 43.5958 158.314 43.1243C159.501 42.6956 160.519 42.0527 161.325 41.1525C162.173 40.2523 162.852 39.1378 163.361 37.809C163.869 36.4802 164.124 34.8513 164.124 33.0082C164.124 31.1221 163.869 29.4932 163.318 28.1644C162.767 26.8356 162.046 25.764 161.155 24.9495C160.222 24.0922 159.162 23.4921 157.889 23.0635C156.532 22.6777 155.09 22.4634 153.606 22.4634ZM153.479 41.9241C152.461 41.9241 151.528 41.7955 150.722 41.4954C149.916 41.2382 149.195 40.8525 148.559 40.4238L148.092 40.1237V25.9354L148.601 25.6354C149.195 25.2924 149.874 24.9924 150.637 24.7352C151.443 24.478 152.418 24.3065 153.521 24.3065C154.539 24.3065 155.514 24.478 156.405 24.7781C157.381 25.121 158.186 25.6354 158.907 26.3641C159.586 27.0928 160.137 28.0358 160.519 29.1503C160.901 30.2219 161.113 31.5507 161.113 33.051C161.113 36.0516 160.434 38.2805 159.035 39.738C157.72 41.1954 155.811 41.9241 153.479 41.9241ZM150.255 39.0093C150.595 39.1807 150.976 39.3522 151.401 39.5236C151.994 39.738 152.715 39.8237 153.521 39.8237C155.26 39.8237 156.617 39.3093 157.593 38.2806C158.568 37.2518 159.077 35.4943 159.077 33.0939C159.077 31.8508 158.907 30.7792 158.61 29.879C158.314 29.0646 157.932 28.3787 157.465 27.8643C156.999 27.3928 156.49 27.0499 155.854 26.8356C155.175 26.6213 154.412 26.4927 153.648 26.4927C152.758 26.4927 152.037 26.5784 151.443 26.7927C151.019 26.9213 150.68 27.0928 150.298 27.2642V39.0093H150.255Z" fill="#17283F"/>
<path d="M180.368 44.8818C179.35 44.8818 178.417 44.796 177.568 44.5817C176.678 44.3674 175.957 44.1102 175.321 43.8101V52.7261C175.109 52.8118 174.812 52.8975 174.388 52.9833C174.006 53.069 173.582 53.1119 173.115 53.1119C172.225 53.1119 171.546 52.9404 171.08 52.5975C170.655 52.2546 170.443 51.6545 170.443 50.7971V26.2783C170.443 25.5925 170.571 25.0353 170.825 24.6066C171.08 24.178 171.546 23.7493 172.225 23.3635C173.115 22.8491 174.176 22.4205 175.448 22.0347C176.72 21.6489 178.162 21.4346 179.731 21.4346C181.343 21.4346 182.87 21.6489 184.269 22.1204C185.669 22.592 186.899 23.2778 187.917 24.2208C188.935 25.1639 189.741 26.3641 190.334 27.8644C190.928 29.3218 191.225 31.0792 191.225 33.0939C191.225 35.0657 190.97 36.8231 190.419 38.2806C189.868 39.738 189.104 40.9811 188.171 41.967C187.238 42.9528 186.093 43.7244 184.736 44.1959C183.421 44.6246 181.937 44.8818 180.368 44.8818ZM179.604 40.8525C181.64 40.8525 183.252 40.2095 184.439 38.9664C185.627 37.7233 186.22 35.7515 186.22 33.0082C186.22 31.6365 186.051 30.4363 185.711 29.4504C185.372 28.4645 184.906 27.6929 184.312 27.0499C183.718 26.4498 183.04 25.9783 182.234 25.7211C181.428 25.4639 180.58 25.3353 179.689 25.3353C178.671 25.3353 177.823 25.4639 177.144 25.6782C176.423 25.9354 175.83 26.1926 175.278 26.4927V39.5236C175.83 39.9094 176.423 40.2095 177.144 40.4667C177.865 40.7239 178.714 40.8525 179.604 40.8525Z" fill="#17283F"/>
<path d="M173.073 54.1406C171.928 54.1406 171.037 53.8834 170.401 53.369C169.68 52.8118 169.341 51.9116 169.341 50.7114V26.2783C169.341 25.3782 169.51 24.6495 169.85 24.0494C170.189 23.4492 170.783 22.9349 171.631 22.4205C172.564 21.8632 173.751 21.3917 175.066 20.9631C176.423 20.5344 177.992 20.3201 179.647 20.3201C181.385 20.3201 182.997 20.5773 184.524 21.0488C186.051 21.5632 187.45 22.3348 188.553 23.3635C189.698 24.4351 190.589 25.764 191.267 27.3928C191.903 28.9788 192.243 30.8649 192.243 33.051C192.243 35.1514 191.946 37.0375 191.352 38.6235C190.758 40.2095 189.91 41.5812 188.892 42.6956C187.832 43.8101 186.56 44.6246 185.075 45.1818C183.633 45.6962 182.022 45.9963 180.325 45.9963C179.265 45.9963 178.205 45.8677 177.271 45.6533C176.932 45.5676 176.635 45.4819 176.338 45.3961V53.4548L175.702 53.712C175.405 53.8406 175.066 53.9263 174.6 54.0549C174.133 54.0977 173.624 54.1406 173.073 54.1406ZM179.689 22.4634C178.205 22.4634 176.89 22.6348 175.702 23.0206C174.515 23.4064 173.497 23.835 172.691 24.2637C172.012 24.6495 171.758 24.9924 171.673 25.121C171.504 25.3782 171.461 25.764 171.461 26.2355V50.7114C171.461 51.1829 171.546 51.5258 171.716 51.6544C171.843 51.783 172.225 51.9545 173.073 51.9545C173.454 51.9545 173.836 51.9116 174.175 51.8688H174.218V42.0527L175.745 42.8242C176.296 43.0814 176.975 43.3386 177.78 43.5101C178.586 43.6815 179.434 43.8101 180.368 43.8101C181.81 43.8101 183.167 43.5958 184.397 43.1243C185.584 42.6956 186.602 42.0527 187.408 41.1525C188.256 40.2523 188.935 39.1378 189.444 37.809C189.952 36.4802 190.207 34.8513 190.207 33.0082C190.207 31.1221 189.952 29.4932 189.401 28.1644C188.85 26.8356 188.129 25.764 187.238 24.9495C186.305 24.0922 185.245 23.4921 183.972 23.0635C182.615 22.6777 181.216 22.4634 179.689 22.4634ZM179.604 41.9241C178.586 41.9241 177.653 41.7955 176.847 41.4954C176.042 41.2382 175.321 40.8525 174.684 40.4238L174.218 40.1237V25.9354L174.727 25.6354C175.321 25.2924 175.999 24.9924 176.763 24.7352C177.568 24.478 178.544 24.3065 179.647 24.3065C180.664 24.3065 181.64 24.478 182.53 24.7781C183.506 25.121 184.312 25.6354 185.033 26.3641C185.711 27.0928 186.263 28.0358 186.644 29.1503C187.026 30.2219 187.238 31.5507 187.238 33.051C187.238 36.0516 186.56 38.2805 185.16 39.738C183.803 41.1954 181.937 41.9241 179.604 41.9241ZM176.338 39.0093C176.678 39.1807 177.059 39.3522 177.484 39.5236C178.077 39.738 178.798 39.8237 179.604 39.8237C181.343 39.8237 182.7 39.3093 183.676 38.2806C184.651 37.2518 185.16 35.4943 185.16 33.0939C185.16 31.8508 184.99 30.7792 184.693 29.879C184.397 29.0646 184.015 28.3787 183.548 27.8643C183.082 27.3928 182.573 27.0499 181.937 26.8356C181.258 26.6213 180.495 26.4927 179.731 26.4927C178.841 26.4927 178.12 26.5784 177.526 26.7927C177.102 26.9213 176.763 27.0928 176.381 27.2642V39.0093H176.338Z" fill="#17283F"/>
<path d="M212.897 38.1091C212.897 40.2094 212.134 41.8812 210.564 43.0814C208.995 44.2816 206.747 44.8817 203.779 44.8817C202.549 44.8817 201.446 44.796 200.386 44.5817C199.368 44.4102 198.477 44.1102 197.756 43.7672C197.035 43.4243 196.442 42.9957 196.06 42.5242C195.636 42.0526 195.466 41.5383 195.466 40.981C195.466 40.5095 195.593 40.0809 195.805 39.6522C196.06 39.2236 196.357 38.9235 196.781 38.6663C197.671 39.2235 198.647 39.7379 199.792 40.2094C200.937 40.681 202.209 40.9382 203.736 40.9382C205.136 40.9382 206.239 40.681 206.96 40.2094C207.723 39.7379 208.105 39.0092 208.105 38.1091C208.105 37.3375 207.85 36.6945 207.341 36.223C206.832 35.7515 206.069 35.3657 205.051 35.1514L201.87 34.2941C199.75 33.7368 198.18 32.9653 197.163 31.9794C196.145 30.9935 195.678 29.6646 195.678 27.95C195.678 27.0499 195.848 26.1926 196.229 25.3781C196.611 24.5637 197.163 23.8779 197.884 23.2778C198.604 22.6776 199.538 22.249 200.64 21.9061C201.743 21.5632 202.973 21.3917 204.372 21.3917C205.518 21.3917 206.535 21.4774 207.426 21.6489C208.359 21.8203 209.165 22.0775 209.801 22.3776C210.48 22.6776 210.989 23.0634 211.37 23.4921C211.752 23.9207 211.922 24.3922 211.922 24.9066C211.922 25.421 211.794 25.8497 211.582 26.1926C211.37 26.5355 211.073 26.8356 210.734 27.0499C210.183 26.707 209.335 26.3212 208.232 25.8925C207.129 25.4639 205.942 25.2924 204.627 25.2924C203.312 25.2924 202.294 25.5067 201.531 25.9783C200.767 26.4498 200.386 27.0927 200.386 27.9072C200.386 28.5502 200.598 29.0645 201.022 29.4503C201.446 29.879 202.167 30.179 203.185 30.4362L205.899 31.1649C208.274 31.8079 210.013 32.6652 211.158 33.7368C212.303 34.8084 212.897 36.2659 212.897 38.1091Z" fill="#17283F"/>
<path d="M203.736 45.9534C202.464 45.9534 201.277 45.8677 200.174 45.6533C199.071 45.439 198.096 45.139 197.247 44.7532C196.399 44.3245 195.678 43.853 195.169 43.2529C194.576 42.5671 194.321 41.8384 194.321 40.9811C194.321 40.3381 194.491 39.6951 194.83 39.1379C195.169 38.5806 195.593 38.1091 196.145 37.7662L196.696 37.4233L197.247 37.809C198.053 38.3234 199.029 38.8378 200.089 39.2664C201.064 39.6951 202.252 39.9094 203.609 39.9094C204.797 39.9094 205.687 39.738 206.281 39.3522C206.748 39.0521 206.917 38.7092 206.917 38.152C206.917 37.509 206.663 37.2089 206.493 37.0375C206.111 36.6945 205.518 36.3945 204.669 36.1802L201.489 35.3229C199.156 34.6799 197.459 33.8655 196.314 32.751C195.084 31.5507 194.491 29.9647 194.491 27.9501C194.491 26.8785 194.703 25.8497 195.169 24.9067C195.593 23.9636 196.272 23.1063 197.12 22.4205C197.968 21.7346 198.986 21.2203 200.216 20.8773C201.404 20.5344 202.761 20.3201 204.288 20.3201C205.475 20.3201 206.578 20.4058 207.553 20.5773C208.571 20.7487 209.419 21.0488 210.183 21.3489C210.989 21.7346 211.667 22.1633 212.134 22.7634C212.685 23.4064 212.94 24.1351 212.94 24.8638C212.94 25.5496 212.77 26.1926 212.473 26.707C212.176 27.2214 211.752 27.6072 211.286 27.9501L210.734 28.293L210.183 27.9501C209.674 27.65 208.911 27.3071 207.85 26.9213C206.875 26.5355 205.772 26.3641 204.627 26.3641C203.524 26.3641 202.676 26.5355 202.082 26.8785C201.531 27.2214 201.489 27.5643 201.489 27.8643C201.489 28.2073 201.573 28.4645 201.785 28.6359C201.955 28.8074 202.379 29.1074 203.482 29.3646L206.196 30.0933C208.783 30.7792 210.649 31.6793 211.922 32.9224C213.279 34.2084 213.957 35.923 213.957 38.0662C213.957 40.5095 213.024 42.4813 211.201 43.8959C209.419 45.2676 206.917 45.9534 203.736 45.9534ZM196.823 39.9952C196.781 40.0809 196.738 40.1238 196.696 40.2095C196.569 40.4667 196.484 40.7239 196.484 40.9811C196.484 41.2811 196.611 41.5812 196.823 41.8384C197.12 42.1813 197.587 42.5242 198.18 42.7814C198.817 43.0814 199.622 43.3386 200.556 43.5101C201.531 43.6816 202.591 43.7673 203.736 43.7673C206.451 43.7673 208.529 43.2529 209.886 42.1813C211.201 41.1954 211.795 39.8237 211.795 38.0662C211.795 36.5231 211.37 35.3657 210.437 34.5084C209.462 33.5654 207.85 32.7938 205.645 32.1937L202.931 31.465C201.701 31.165 200.852 30.7363 200.301 30.2219C199.665 29.6218 199.326 28.8074 199.326 27.9072C199.326 26.707 199.877 25.7211 200.98 25.0781C201.913 24.5209 203.1 24.2208 204.627 24.2208C206.027 24.2208 207.341 24.4351 208.571 24.9067C209.377 25.2067 210.013 25.4639 210.565 25.764C210.607 25.7211 210.607 25.6782 210.649 25.6354C210.777 25.421 210.819 25.2067 210.819 24.9067C210.819 24.7352 210.777 24.5209 210.522 24.178C210.268 23.8779 209.844 23.5778 209.335 23.3635C208.741 23.1063 208.02 22.892 207.172 22.7205C206.323 22.5491 205.348 22.4634 204.288 22.4634C202.973 22.4634 201.828 22.6348 200.852 22.9349C199.877 23.2349 199.071 23.6207 198.477 24.1351C197.884 24.6066 197.417 25.1638 197.12 25.8497C196.823 26.5355 196.654 27.2214 196.654 27.9929C196.654 29.4075 197.035 30.4791 197.841 31.2507C198.689 32.108 200.131 32.7938 202.082 33.3082L205.263 34.1655C206.451 34.4656 207.341 34.8942 207.977 35.4943C208.698 36.1802 209.08 37.0803 209.08 38.1948C209.08 39.4808 208.529 40.5095 207.469 41.1954C206.535 41.7955 205.306 42.0955 203.652 42.0955C201.997 42.0955 200.556 41.8384 199.326 41.324C198.393 40.8525 197.587 40.4238 196.823 39.9952Z" fill="#17283F"/>
<path d="M32.0553 25.7211H15.3452V12.2615C15.3452 11.1898 16.1934 10.2897 17.2961 10.2897H32.0553C36.254 10.2897 39.6893 13.7189 39.6893 18.0054C39.6893 22.249 36.254 25.7211 32.0553 25.7211Z" fill="#FF4655"/>
<path d="M32.0553 44.2388H15.3452V28.8074H32.0129C36.2116 28.8074 39.6469 32.2366 39.6469 36.5231C39.6893 40.7667 36.254 44.2388 32.0553 44.2388Z" fill="#FF4655"/>
</g>
<defs>
<clipPath id="clip0">
<rect width="213.838" height="53.2812" fill="white" transform="translate(0.119629 0.859375)"/>
</clipPath>
</defs>
</svg>
