<svg width="221" height="46" viewBox="0 0 221 46" fill="none" xmlns="http://www.w3.org/2000/svg">
<path d="M71.6 21.68C73.1733 21.9733 74.4667 22.76 75.48 24.04C76.4933 25.32 77 26.7867 77 28.44C77 29.9333 76.6267 31.2533 75.88 32.4C75.16 33.52 74.1067 34.4 72.72 35.04C71.3333 35.68 69.6933 36 67.8 36H55.76V8.08H67.28C69.1733 8.08 70.8 8.38667 72.16 9C73.5467 9.61333 74.5867 10.4667 75.28 11.56C76 12.6533 76.36 13.8933 76.36 15.28C76.36 16.9067 75.92 18.2667 75.04 19.36C74.1867 20.4533 73.04 21.2267 71.6 21.68ZM61.36 19.6H66.48C67.8133 19.6 68.84 19.3067 69.56 18.72C70.28 18.1067 70.64 17.24 70.64 16.12C70.64 15 70.28 14.1333 69.56 13.52C68.84 12.9067 67.8133 12.6 66.48 12.6H61.36V19.6ZM67 31.44C68.36 31.44 69.4133 31.12 70.16 30.48C70.9333 29.84 71.32 28.9333 71.32 27.76C71.32 26.56 70.92 25.6267 70.12 24.96C69.32 24.2667 68.24 23.92 66.88 23.92H61.36V31.44H67ZM84.4431 11.2C83.4565 11.2 82.6298 10.8933 81.9631 10.28C81.3231 9.64 81.0031 8.85333 81.0031 7.92C81.0031 6.98667 81.3231 6.21333 81.9631 5.6C82.6298 4.96 83.4565 4.64 84.4431 4.64C85.4298 4.64 86.2431 4.96 86.8831 5.6C87.5498 6.21333 87.8831 6.98667 87.8831 7.92C87.8831 8.85333 87.5498 9.64 86.8831 10.28C86.2431 10.8933 85.4298 11.2 84.4431 11.2ZM87.2031 13.84V36H81.6031V13.84H87.2031ZM99.3959 18.44V29.16C99.3959 29.9067 99.5693 30.4533 99.9159 30.8C100.289 31.12 100.903 31.28 101.756 31.28H104.356V36H100.836C96.1159 36 93.7559 33.7067 93.7559 29.12V18.44H91.1159V13.84H93.7559V8.36H99.3959V13.84H104.356V18.44H99.3959ZM135.435 8.08V12.6H123.795V19.76H132.715V24.2H123.795V36H118.195V8.08H135.435ZM149.386 36.36C147.253 36.36 145.333 35.8933 143.626 34.96C141.919 34 140.573 32.6533 139.586 30.92C138.626 29.1867 138.146 27.1867 138.146 24.92C138.146 22.6533 138.639 20.6533 139.626 18.92C140.639 17.1867 142.013 15.8533 143.746 14.92C145.479 13.96 147.413 13.48 149.546 13.48C151.679 13.48 153.613 13.96 155.346 14.92C157.079 15.8533 158.439 17.1867 159.426 18.92C160.439 20.6533 160.946 22.6533 160.946 24.92C160.946 27.1867 160.426 29.1867 159.386 30.92C158.373 32.6533 156.986 34 155.226 34.96C153.493 35.8933 151.546 36.36 149.386 36.36ZM149.386 31.48C150.399 31.48 151.346 31.24 152.226 30.76C153.133 30.2533 153.853 29.5067 154.386 28.52C154.919 27.5333 155.186 26.3333 155.186 24.92C155.186 22.8133 154.626 21.2 153.506 20.08C152.413 18.9333 151.066 18.36 149.466 18.36C147.866 18.36 146.519 18.9333 145.426 20.08C144.359 21.2 143.826 22.8133 143.826 24.92C143.826 27.0267 144.346 28.6533 145.386 29.8C146.453 30.92 147.786 31.48 149.386 31.48ZM170.794 17.28C171.514 16.1067 172.447 15.1867 173.594 14.52C174.767 13.8533 176.1 13.52 177.594 13.52V19.4H176.114C174.354 19.4 173.02 19.8133 172.114 20.64C171.234 21.4667 170.794 22.9067 170.794 24.96V36H165.194V13.84H170.794V17.28ZM209.026 13.52C211.746 13.52 213.932 14.36 215.586 16.04C217.266 17.6933 218.106 20.0133 218.106 23V36H212.506V23.76C212.506 22.0267 212.066 20.7067 211.186 19.8C210.306 18.8667 209.106 18.4 207.586 18.4C206.066 18.4 204.852 18.8667 203.946 19.8C203.066 20.7067 202.626 22.0267 202.626 23.76V36H197.026V23.76C197.026 22.0267 196.586 20.7067 195.706 19.8C194.826 18.8667 193.626 18.4 192.106 18.4C190.559 18.4 189.332 18.8667 188.426 19.8C187.546 20.7067 187.106 22.0267 187.106 23.76V36H181.506V13.84H187.106V16.52C187.826 15.5867 188.746 14.8533 189.866 14.32C191.012 13.7867 192.266 13.52 193.626 13.52C195.359 13.52 196.906 13.8933 198.266 14.64C199.626 15.36 200.679 16.4 201.426 17.76C202.146 16.48 203.186 15.4533 204.546 14.68C205.932 13.9067 207.426 13.52 209.026 13.52Z" fill="#17283F"/>
<path d="M35.2746 45.9984H10.7254C4.82642 45.9984 0 41.1722 0 35.2734V10.725C0 4.82626 4.82642 0 10.7254 0H35.2746C41.1736 0 46 4.82626 46 10.725V35.2734C46 41.1722 41.1736 45.9984 35.2746 45.9984Z" fill="#0F1923"/>
<path d="M30.925 22.0134C31.4613 22.1921 31.9379 22.3113 32.355 22.49C34.9172 23.6221 36.526 25.5288 37.0623 28.21C37.7177 31.3084 36.5856 34.228 33.9043 36.1942C32.4146 37.2667 30.7462 37.7434 28.8991 37.7434C26.2773 37.7434 23.6556 37.803 20.9742 37.803C20.6167 37.803 20.2592 37.6838 19.9613 37.5051C19.425 37.1476 19.3058 36.6709 19.4846 36.0751C19.6633 35.5388 20.0804 35.1813 20.7359 35.1217C22.2255 35.1217 23.6556 35.1217 25.1452 35.1217C26.5753 35.1217 28.0053 35.1217 29.4354 35.1217C32.0571 35.1217 34.3214 32.798 34.4405 30.1763C34.5597 27.495 32.5934 25.2309 30.0312 24.6946C29.912 24.6946 29.7929 24.6946 29.6737 24.6946C27.2307 24.6946 24.7877 24.6946 22.3447 24.6946C22.2851 24.6946 22.2255 24.6946 22.1063 24.6946C22.1063 25.2309 22.1063 25.7671 22.1063 26.363C22.1063 26.9588 22.1063 27.5546 22.1063 28.1505C22.1063 28.4484 22.1659 28.5675 22.5234 28.5675C24.0131 28.5675 25.5027 28.5675 26.9328 28.5675C27.1711 28.5675 27.4094 28.4484 27.5882 28.2696C28.6607 27.3759 29.6141 27.5546 30.3887 28.0313C31.4017 28.7463 31.64 29.8784 31.1633 30.9509C30.5675 32.1426 28.7799 32.5596 27.767 31.6063C27.469 31.3084 27.1711 31.1892 26.754 31.1892C24.7877 31.1892 22.8214 31.1892 20.855 31.1892C19.9613 31.1892 19.4846 30.7125 19.4846 29.8188C19.4846 27.6142 19.4846 25.4692 19.4846 23.2646C19.4846 22.3709 19.7825 21.9538 20.7359 21.8942C22.1659 21.8346 23.596 21.8346 25.026 21.8346C28.2436 21.8346 30.6867 19.0342 30.21 15.8167C29.8525 13.6121 28.1245 12.0033 26.1582 11.5267C25.6815 11.4075 25.2048 11.4075 24.7281 11.4075C21.3317 11.4075 17.8758 11.3479 14.4794 11.4075C13.7048 11.4075 12.9302 10.7521 12.9302 9.9775C12.9302 9.20292 13.6452 8.60709 14.4794 8.60709C16.5649 8.60709 18.6504 8.60709 20.7359 8.60709C22.1659 8.60709 23.596 8.60709 25.026 8.60709C28.6012 8.66667 31.7592 10.9308 32.7721 14.5058C33.4872 17.0083 32.9509 19.3321 31.4017 21.4771C31.1633 21.6559 31.0442 21.775 30.925 22.0134Z" fill="#F54756"/>
<path d="M15.5515 18.0212C15.5515 18.3191 15.5515 18.4979 15.5515 18.7362C15.5515 23.5625 15.5515 28.3887 15.5515 33.215C15.5515 34.2279 15.5515 35.2408 15.5515 36.3133C15.5515 37.505 14.6577 38.1008 13.5256 37.6838C12.9297 37.4454 12.8701 36.8496 12.8701 36.3133C12.8701 34.5854 12.8701 32.9171 12.8701 31.1892C12.8701 26.6012 12.8701 22.0133 12.8701 17.4254C12.8701 17.1275 12.8701 16.8891 12.9297 16.5912C12.9893 15.8762 13.5256 15.4591 14.181 15.4591C16.9219 15.4591 19.6629 15.4591 22.4634 15.4591C22.8209 15.4591 23.0592 15.4591 23.3572 15.1612C24.0126 14.3866 25.3235 14.5058 25.8598 14.7441C26.7535 15.2208 27.2302 16.055 27.1706 17.0083C27.0515 17.9616 26.396 18.7362 25.4427 18.9745C24.6085 19.2129 23.8934 18.8554 23.238 18.3191C23.1188 18.2 22.9996 18.1404 22.8209 18.0808C20.3779 17.9616 18.0541 18.0212 15.5515 18.0212Z" fill="#F54756"/>
</svg>
