<svg width="35" height="28" viewBox="0 0 35 28" fill="none" xmlns="http://www.w3.org/2000/svg">
<path d="M33.9062 5.42H28.683V3.86C28.683 3.10148 28.3804 2.37403 27.8416 1.83767C27.3029 1.30132 26.5722 1 25.8103 1C25.0484 1 24.3177 1.30132 23.7789 1.83767C23.2402 2.37403 22.9375 3.10148 22.9375 3.86V5.42H11.9687C11.8302 5.42 11.6974 5.47479 11.5994 5.5723C11.5015 5.66982 11.4464 5.80209 11.4464 5.94V7.76C11.4464 8.24269 11.2538 8.70562 10.911 9.04693C10.5681 9.38825 10.1032 9.58 9.6183 9.58C9.13345 9.58 8.66846 9.38825 8.32562 9.04693C7.98278 8.70562 7.79018 8.24269 7.79018 7.76V5.94C7.79018 5.80209 7.73515 5.66982 7.63719 5.5723C7.53924 5.47479 7.40638 5.42 7.26786 5.42H1.52232C1.38379 5.42 1.25094 5.47479 1.15298 5.5723C1.05503 5.66982 1 5.80209 1 5.94V22.06C1 22.1979 1.05503 22.3302 1.15298 22.4277C1.25094 22.5252 1.38379 22.58 1.52232 22.58H6.74554V24.14C6.74554 24.8985 7.0482 25.626 7.58695 26.1623C8.1257 26.6987 8.8564 27 9.6183 27C10.3802 27 11.1109 26.6987 11.6497 26.1623C12.1884 25.626 12.4911 24.8985 12.4911 24.14V22.58H23.4598C23.5983 22.58 23.7312 22.5252 23.8292 22.4277C23.9271 22.3302 23.9821 22.1979 23.9821 22.06V20.24C23.9821 19.7573 24.1747 19.2944 24.5176 18.9531C24.8604 18.6117 25.3254 18.42 25.8103 18.42C26.2951 18.42 26.7601 18.6117 27.1029 18.9531C27.4458 19.2944 27.6384 19.7573 27.6384 20.24V22.06C27.6384 22.1979 27.6934 22.3302 27.7914 22.4277C27.8893 22.5252 28.0222 22.58 28.1607 22.58H33.9062C34.0448 22.58 34.1776 22.5252 34.2756 22.4277C34.3735 22.3302 34.4286 22.1979 34.4286 22.06V5.94C34.4286 5.80209 34.3735 5.66982 34.2756 5.5723C34.1776 5.47479 34.0448 5.42 33.9062 5.42ZM11.9687 21.54C11.8302 21.54 11.6974 21.5948 11.5994 21.6923C11.5015 21.7898 11.4464 21.9221 11.4464 22.06V24.14C11.4464 24.6227 11.2538 25.0856 10.911 25.4269C10.5681 25.7682 10.1032 25.96 9.6183 25.96C9.13345 25.96 8.66846 25.7682 8.32562 25.4269C7.98278 25.0856 7.79018 24.6227 7.79018 24.14V22.06C7.79018 21.9221 7.73515 21.7898 7.63719 21.6923C7.53924 21.5948 7.40638 21.54 7.26786 21.54H2.04464V6.46H6.74554V7.76C6.74554 8.51852 7.0482 9.24597 7.58695 9.78233C8.1257 10.3187 8.8564 10.62 9.6183 10.62C10.3802 10.62 11.1109 10.3187 11.6497 9.78233C12.1884 9.24597 12.4911 8.51852 12.4911 7.76V6.46H17.192V11.14H15.8862C15.1243 11.14 14.3936 11.4413 13.8548 11.9777C13.3161 12.514 13.0134 13.2415 13.0134 14C13.0134 14.7585 13.3161 15.486 13.8548 16.0223C14.3936 16.5587 15.1243 16.86 15.8862 16.86H17.192V21.54H11.9687ZM33.3839 21.54H28.683V20.24C28.683 19.4815 28.3804 18.754 27.8416 18.2177C27.3029 17.6813 26.5722 17.38 25.8103 17.38C25.0484 17.38 24.3177 17.6813 23.7789 18.2177C23.2402 18.754 22.9375 19.4815 22.9375 20.24V21.54H18.2366V16.34C18.2366 16.2021 18.1816 16.0698 18.0836 15.9723C17.9857 15.8748 17.8528 15.82 17.7143 15.82H15.8862C15.4013 15.82 14.9363 15.6282 14.5935 15.2869C14.2506 14.9456 14.058 14.4827 14.058 14C14.058 13.5173 14.2506 13.0544 14.5935 12.7131C14.9363 12.3717 15.4013 12.18 15.8862 12.18H17.7143C17.8528 12.18 17.9857 12.1252 18.0836 12.0277C18.1816 11.9302 18.2366 11.7979 18.2366 11.66V6.46H23.4598C23.5983 6.46 23.7312 6.40521 23.8292 6.3077C23.9271 6.21018 23.9821 6.07791 23.9821 5.94V3.86C23.9821 3.37731 24.1747 2.91438 24.5176 2.57307C24.8604 2.23175 25.3254 2.04 25.8103 2.04C26.2951 2.04 26.7601 2.23175 27.1029 2.57307C27.4458 2.91438 27.6384 3.37731 27.6384 3.86V5.94C27.6384 6.07791 27.6934 6.21018 27.7914 6.3077C27.8893 6.40521 28.0222 6.46 28.1607 6.46H33.3839V21.54Z" fill="black" stroke="black"/>
</svg>
