<svg width="73" height="62" viewBox="0 0 73 62" fill="none" xmlns="http://www.w3.org/2000/svg">
<rect x="1.6001" y="0.95472" width="69.7547" height="59.7897" rx="4.15206" stroke="#32475B" stroke-width="1.66083"/>
<circle cx="8.65855" cy="8.84359" r="2.07603" fill="#E1564F"/>
<circle cx="16.1323" cy="8.84359" r="2.07603" fill="#F4B23A"/>
<circle cx="23.6061" cy="8.84359" r="2.07603" fill="#5AC63F"/>
<line x1="1.6001" y1="15.0717" x2="71.3548" y2="15.0717" stroke="#32475B" stroke-width="1.66083"/>
<g clip-path="url(#clip0)">
<path d="M46.8891 27.5059L49.1171 25.2779C49.3709 25.024 49.296 24.5952 48.9723 24.4418L39.1112 19.7708C38.9129 19.6769 38.6771 19.7177 38.5219 19.8728L36.2939 22.1009L34.0659 19.8728C33.9108 19.7178 33.675 19.6769 33.4767 19.7708L23.6155 24.4419C23.2912 24.5955 23.2173 25.0245 23.4707 25.2779L25.6987 27.506L23.4707 29.734C23.2168 29.9878 23.2917 30.4167 23.6155 30.5701L25.9137 31.6587V39.9621C25.9137 40.1549 26.0205 40.3317 26.191 40.4215C26.236 40.4451 36.0268 45.5985 36.059 45.6146C36.2023 45.6877 36.3763 45.6931 36.5356 45.6115C36.1492 45.8149 46.0157 40.622 46.3967 40.4215C46.5673 40.3317 46.674 40.1549 46.674 39.9621V31.6587L48.9723 30.5701C49.2967 30.4164 49.3703 29.9874 49.1171 29.734L46.8891 27.5059ZM36.2939 31.6027L27.6451 27.5059L36.2939 23.4092L44.9426 27.5059L36.2939 31.6027ZM38.9973 20.8655L47.8624 25.0647L46.0467 26.8804L37.1816 22.6811L38.9973 20.8655ZM33.5905 20.8655L35.4061 22.6811L26.5411 26.8803L24.7254 25.0647L33.5905 20.8655ZM26.5411 28.1316L35.4061 32.3309L33.5905 34.1465L24.7254 29.9473L26.5411 28.1316ZM26.9518 32.1504L33.4767 35.2411C33.6756 35.3353 33.9115 35.2935 34.0659 35.1391L35.7749 33.4301V44.2926L26.9517 39.6488V32.1504H26.9518ZM45.636 39.6488L36.8129 44.2926V33.4301L38.5219 35.1391C38.6764 35.2936 38.9123 35.3353 39.1112 35.2411L45.636 32.1504V39.6488ZM38.9973 34.1464L37.1816 32.3308L46.0467 28.1316L47.8624 29.9472L38.9973 34.1464Z" fill="#32475B"/>
</g>
<path d="M19.8907 55.7197V49.2964H22.1406C22.92 49.2964 23.5111 49.4464 23.914 49.7464C24.3169 50.0434 24.5184 50.4802 24.5184 51.0566C24.5184 51.3713 24.4375 51.6493 24.2758 51.8904C24.114 52.1286 23.889 52.3036 23.6008 52.4154C23.9302 52.4977 24.189 52.6639 24.3772 52.9139C24.5684 53.1639 24.664 53.4698 24.664 53.8315C24.664 54.4491 24.4669 54.9168 24.0728 55.2344C23.6787 55.552 23.117 55.7138 22.3876 55.7197H19.8907ZM21.2141 52.9227V54.6565H22.3479C22.6597 54.6565 22.9023 54.583 23.0758 54.4359C23.2523 54.2859 23.3405 54.08 23.3405 53.8183C23.3405 53.2301 23.0361 52.9316 22.4273 52.9227H21.2141ZM21.2141 51.9875H22.1935C22.8611 51.9757 23.1949 51.7095 23.1949 51.189C23.1949 50.8978 23.1096 50.689 22.9391 50.5625C22.7714 50.4331 22.5053 50.3684 22.1406 50.3684H21.2141V51.9875ZM30.5226 49.2964V53.5271C30.5226 54.23 30.302 54.7859 29.8608 55.1947C29.4226 55.6035 28.8226 55.8079 28.0609 55.8079C27.3109 55.8079 26.7154 55.6094 26.2742 55.2123C25.8331 54.8153 25.6081 54.2697 25.5992 53.5756V49.2964H26.9227V53.5359C26.9227 53.9565 27.0227 54.2638 27.2227 54.458C27.4256 54.6491 27.705 54.7447 28.0609 54.7447C28.805 54.7447 29.1829 54.3535 29.1947 53.5712V49.2964H30.5226ZM36.8311 55.7197H35.5076L32.9313 51.4934V55.7197H31.6078V49.2964H32.9313L35.512 53.5315V49.2964H36.8311V55.7197ZM37.9869 55.7197V49.2964H39.9633C40.528 49.2964 41.0324 49.4244 41.4765 49.6802C41.9235 49.9332 42.272 50.2949 42.522 50.7655C42.772 51.2331 42.897 51.7654 42.897 52.3625V52.658C42.897 53.2551 42.7735 53.7859 42.5264 54.2506C42.2823 54.7153 41.9368 55.0756 41.4897 55.3314C41.0427 55.5873 40.5383 55.7167 39.9766 55.7197H37.9869ZM39.3104 50.3684V54.6565H39.9501C40.4677 54.6565 40.8633 54.4874 41.1368 54.1491C41.4103 53.8109 41.55 53.3271 41.5559 52.6977V52.358C41.5559 51.7051 41.4206 51.211 41.15 50.8758C40.8795 50.5375 40.4839 50.3684 39.9633 50.3684H39.3104ZM45.1866 54.6565H47.9968V55.7197H43.8631V49.2964H45.1866V54.6565ZM52.6245 52.936H50.0835V54.6565H53.0657V55.7197H48.76V49.2964H53.0569V50.3684H50.0835V51.8992H52.6245V52.936Z" fill="#0073AA"/>
<defs>
<clipPath id="clip0">
<rect width="26.5732" height="26.5732" fill="white" transform="translate(23.0063 19.4083)"/>
</clipPath>
</defs>
</svg>
