<svg width="47" height="47" viewBox="0 0 47 47" fill="none" xmlns="http://www.w3.org/2000/svg">
<g clip-path="url(#clip0)">
<path d="M30.6101 14.7606C39.0177 14.6322 45.8799 21.2495 46.0427 29.6565C46.0666 30.8908 45.9432 32.0922 45.6891 33.2446C45.2587 35.1959 45.0028 37.1815 45.0028 39.1797V43.0422C45.0028 43.6339 44.5231 44.1136 43.9313 44.1136H40.0689C38.0707 44.1136 36.0851 44.3695 34.1338 44.7999C32.9815 45.0541 31.7801 45.1774 30.5458 45.1535C22.1389 44.9908 15.5215 38.1288 15.6498 29.7214C15.7749 21.515 22.4038 14.886 30.6101 14.7606Z" fill="url(#paint0_linear)"/>
<path d="M30.6101 14.7606C39.0177 14.6322 45.8799 21.2495 46.0427 29.6565C46.0666 30.8908 45.9432 32.0922 45.6891 33.2446C45.2587 35.1959 45.0028 37.1815 45.0028 39.1797V43.0422C45.0028 43.6339 44.5231 44.1136 43.9313 44.1136H40.0689C38.0707 44.1136 36.0851 44.3695 34.1338 44.7999C32.9815 45.0541 31.7801 45.1774 30.5458 45.1535C22.1389 44.9908 15.5215 38.1288 15.6498 29.7214C15.7749 21.515 22.4038 14.886 30.6101 14.7606Z" fill="url(#paint1_linear)"/>
<path d="M18.8048 0.891156C8.56197 0.734673 0.201931 8.79632 0.00353968 19.0384C-0.0255085 20.542 0.124769 22.0058 0.434497 23.4096C0.958803 25.7867 1.27051 28.2058 1.27051 30.6402V35.3457C1.27051 36.0666 1.85489 36.651 2.57588 36.651H7.28133C9.71563 36.651 12.1347 36.9627 14.5119 37.4871C15.9158 37.7967 17.3795 37.9471 18.8831 37.9179C29.125 37.7196 37.1866 29.3598 37.0305 19.1172C36.878 9.11972 28.8022 1.04377 18.8048 0.891156Z" fill="url(#paint2_linear)"/>
<path d="M11.8886 18.4129C11.3656 17.8571 10.6252 17.5081 9.80163 17.5081C8.21765 17.5081 6.93359 18.7921 6.93359 20.3761C6.93359 21.1996 7.28253 21.9399 7.83841 22.4631L14.0252 28.6499C14.5484 29.2057 15.2887 29.5547 16.1122 29.5547C17.6962 29.5547 18.9802 28.2706 18.9802 26.6867C18.9802 25.8631 18.6312 25.1228 18.0754 24.5997L11.8886 18.4129Z" fill="url(#paint3_linear)"/>
<path d="M9.80139 23.2437C11.3854 23.2437 12.6694 21.9596 12.6694 20.3756C12.6694 18.7916 11.3854 17.5076 9.80139 17.5076C8.21741 17.5076 6.93335 18.7916 6.93335 20.3756C6.93335 21.9596 8.21741 23.2437 9.80139 23.2437Z" fill="white"/>
<path d="M19.9994 18.4129C19.4764 17.8571 18.7361 17.5081 17.9125 17.5081C16.3285 17.5081 15.0444 18.7921 15.0444 20.3761C15.0444 21.1996 15.3934 21.9399 15.9492 22.4631L22.1361 28.6499C22.6592 29.2057 23.3995 29.5547 24.223 29.5547C25.807 29.5547 27.0911 28.2706 27.0911 26.6867C27.0911 25.8631 26.742 25.1228 26.1863 24.5997L19.9994 18.4129Z" fill="url(#paint4_linear)"/>
<path d="M17.9127 23.2437C19.4967 23.2437 20.7808 21.9596 20.7808 20.3756C20.7808 18.7916 19.4967 17.5076 17.9127 17.5076C16.3287 17.5076 15.0447 18.7916 15.0447 20.3756C15.0447 21.9596 16.3287 23.2437 17.9127 23.2437Z" fill="white"/>
<path d="M28.1105 18.4129C27.5875 17.8571 26.8472 17.5081 26.0236 17.5081C24.4396 17.5081 23.1555 18.7921 23.1555 20.3761C23.1555 21.1996 23.5045 21.9399 24.0603 22.4631L30.2471 28.6499C30.7703 29.2057 31.5106 29.5547 32.3341 29.5547C33.9181 29.5547 35.2022 28.2706 35.2022 26.6867C35.2022 25.8631 34.8531 25.1228 34.2974 24.5997L28.1105 18.4129Z" fill="url(#paint5_linear)"/>
<path d="M26.0238 23.2437C27.6078 23.2437 28.8918 21.9596 28.8918 20.3756C28.8918 18.7916 27.6078 17.5076 26.0238 17.5076C24.4398 17.5076 23.1558 18.7916 23.1558 20.3756C23.1558 21.9596 24.4398 23.2437 26.0238 23.2437Z" fill="white"/>
</g>
<defs>
<linearGradient id="paint0_linear" x1="27.7787" y1="26.8905" x2="50.0931" y2="49.2049" gradientUnits="userSpaceOnUse">
<stop stop-color="#A7F3CE"/>
<stop offset="1" stop-color="#61DB99"/>
</linearGradient>
<linearGradient id="paint1_linear" x1="35.0833" y1="34.1947" x2="25.6053" y2="24.7176" gradientUnits="userSpaceOnUse">
<stop stop-color="#61DB99" stop-opacity="0"/>
<stop offset="1" stop-color="#009E74"/>
</linearGradient>
<linearGradient id="paint2_linear" x1="11.7514" y1="16.4117" x2="35.3109" y2="39.9711" gradientUnits="userSpaceOnUse">
<stop stop-color="#94C8FF"/>
<stop offset="1" stop-color="#0678EE"/>
</linearGradient>
<linearGradient id="paint3_linear" x1="16.1816" y1="26.7567" x2="3.77724" y2="14.3526" gradientUnits="userSpaceOnUse">
<stop stop-color="#00A2F3" stop-opacity="0"/>
<stop offset="1" stop-color="#0075CD"/>
</linearGradient>
<linearGradient id="paint4_linear" x1="24.2919" y1="26.7564" x2="11.8879" y2="14.3523" gradientUnits="userSpaceOnUse">
<stop stop-color="#00A2F3" stop-opacity="0"/>
<stop offset="1" stop-color="#0075CD"/>
</linearGradient>
<linearGradient id="paint5_linear" x1="32.403" y1="26.7565" x2="19.999" y2="14.3525" gradientUnits="userSpaceOnUse">
<stop stop-color="#00A2F3" stop-opacity="0"/>
<stop offset="1" stop-color="#0075CD"/>
</linearGradient>
<clipPath id="clip0">
<rect width="46.0456" height="46.0456" fill="white"/>
</clipPath>
</defs>
</svg>
