<svg width="8" height="14" viewBox="0 0 8 14" fill="none" xmlns="http://www.w3.org/2000/svg">
<path d="M2.46986 7.60657C2.41962 7.60657 1.3657 7.60689 0.879618 7.60641C0.629378 7.60625 0.540098 7.51633 0.540098 7.26449C0.539778 6.61761 0.539618 5.97073 0.540098 5.32385C0.540258 5.07521 0.634658 4.98033 0.881698 4.98017C1.36778 4.97985 2.41594 4.98001 2.46986 4.98001C2.46986 4.93569 2.4697 4.00177 2.46986 3.57169C2.47018 2.93585 2.58362 2.32721 2.90666 1.76993C3.23738 1.19953 3.71866 0.808812 4.33546 0.582892C4.7305 0.438092 5.14058 0.380332 5.55978 0.380012C6.08426 0.379692 6.60874 0.380172 7.13338 0.381132C7.35882 0.381452 7.45882 0.481132 7.4593 0.708172C7.46026 1.31665 7.46026 1.92513 7.4593 2.53345C7.45898 2.76289 7.36314 2.85505 7.13258 2.85761C6.70266 2.86225 6.27242 2.85937 5.84298 2.87665C5.40922 2.87665 5.18106 3.08849 5.18106 3.53745C5.17066 4.01233 5.17674 4.48769 5.17674 4.97985C5.21738 4.97985 6.45178 4.97969 7.02874 4.97985C7.29082 4.97985 7.38042 5.06993 7.38042 5.33345C7.38042 5.97681 7.38026 6.62033 7.37978 7.26369C7.37962 7.52337 7.29546 7.60625 7.03178 7.60641C6.45482 7.60673 5.22522 7.60657 5.17146 7.60657V12.8138C5.17146 13.0914 5.0841 13.1799 4.81018 13.1799C4.14234 13.1799 3.47434 13.18 2.8065 13.1799C2.56442 13.1799 2.47002 13.0858 2.47002 12.8437C2.46986 11.1479 2.46986 7.66609 2.46986 7.60657Z" fill="#0073AA"/>
</svg>
