<svg width="63" height="85" viewBox="0 0 63 85" fill="none" xmlns="http://www.w3.org/2000/svg">
<path d="M62.2129 23.9436V81.5794C62.2129 83.4693 60.6857 85 58.8003 85H4.19973C2.31429 85 0.787109 83.4693 0.787109 81.5794V3.42059C0.787109 1.53066 2.31429 0 4.19973 0H38.3252L62.2129 23.9436Z" fill="#4CAF50"/>
<path d="M57.0943 18.8129V81.5794C57.0943 83.4692 55.5671 85 53.6816 85H58.8004C60.6858 85 62.213 83.4693 62.213 81.5794V23.9436L57.0943 18.8129Z" fill="#43A047"/>
<path d="M62.213 23.9436H41.7378C39.853 23.9436 38.3252 22.4121 38.3252 20.523V0L62.213 23.9436Z" fill="#A5D6A7"/>
<path d="M48.4316 35.488H14.5684C13.1516 35.488 12.0029 36.6367 12.0029 38.0535V70.5484C12.0029 71.9651 13.1516 73.1138 14.5684 73.1138H48.4316C49.8483 73.1138 50.997 71.9653 50.997 70.5484V38.0533C50.997 36.6365 49.8483 35.488 48.4316 35.488ZM17.1338 51.4504H28.9347V57.1512H17.1338V51.4504ZM34.0654 51.4504H45.8661V57.1512H34.0654V51.4504ZM45.8661 46.3197H34.0654V40.6187H45.8661V46.3197ZM28.9345 40.6187V46.3197H17.1336V40.6187H28.9345ZM17.1338 62.282H28.9347V67.9829H17.1338V62.282ZM34.0654 67.9829V62.282H45.8661V67.9829H34.0654Z" fill="#FAFAFA"/>
<path d="M48.4315 35.488H43.3008C44.7176 35.488 45.8662 36.6367 45.8662 38.0535V70.5484C45.8662 71.9651 44.7176 73.1138 43.3008 73.1138H48.4315C49.8483 73.1138 50.9969 71.9653 50.9969 70.5484V38.0533C50.9969 36.6365 49.8483 35.488 48.4315 35.488Z" fill="#F5F5F5"/>
</svg>
