<svg width="75" height="85" viewBox="0 0 75 85" fill="none" xmlns="http://www.w3.org/2000/svg">
<g clip-path="url(#clip0)">
<path d="M71.9858 76.8834C71.7181 77.1518 71.3834 77.2859 70.9818 77.2859C70.5802 77.2859 70.2455 77.1518 69.9778 76.8834C69.7101 76.6151 69.5762 76.2796 69.5762 75.8771C69.5762 75.4746 69.7101 75.1056 70.0113 74.8373C70.279 74.5689 70.6137 74.4683 70.9818 74.4683C71.3834 74.4683 71.7181 74.6024 71.9858 74.8708C72.2535 75.1391 72.3874 75.4746 72.3874 75.8771C72.4208 76.2796 72.287 76.6151 71.9858 76.8834ZM70.1786 75.0385C69.9443 75.2733 69.8439 75.5417 69.8439 75.8436C69.8439 76.179 69.9443 76.4474 70.1786 76.6822C70.4129 76.917 70.6806 77.0176 71.0153 77.0176C71.3499 77.0176 71.6177 76.917 71.8519 76.6822C72.0862 76.4474 72.1866 76.179 72.1866 75.8436C72.1866 75.5417 72.0862 75.2398 71.8519 75.0385C71.6177 74.8037 71.3499 74.6695 71.0153 74.6695C70.6806 74.7031 70.4129 74.8037 70.1786 75.0385ZM71.4503 76.5815C71.3165 76.6822 71.1826 76.7157 71.0487 76.7157C70.8479 76.7157 70.6471 76.6486 70.4798 76.4809C70.3125 76.3132 70.2455 76.1119 70.2455 75.8771C70.2455 75.6423 70.3125 75.441 70.4463 75.2733C70.5802 75.1056 70.781 75.0385 71.0153 75.0385C71.1491 75.0385 71.283 75.0721 71.4169 75.1392C71.5842 75.2398 71.718 75.4075 71.7515 75.6758H71.3834C71.3499 75.5752 71.3165 75.4746 71.2495 75.441C71.1826 75.4075 71.1157 75.374 71.0487 75.374C70.9483 75.374 70.8479 75.4075 70.781 75.5081C70.7141 75.6088 70.6806 75.7429 70.6806 75.9107C70.6806 76.0784 70.7141 76.2125 70.781 76.2796C70.8479 76.3467 70.9483 76.4138 71.0487 76.4138C71.1491 76.4138 71.2161 76.3803 71.283 76.3467L71.3834 76.1455H71.7181C71.6846 76.3467 71.5842 76.4809 71.4503 76.5815ZM74.9977 61.6881C74.9977 61.5539 74.9643 61.4197 74.9643 61.2856C74.9643 61.1849 74.9308 61.1178 74.9308 61.0508C74.8973 60.8495 74.8639 60.6818 74.7969 60.4805C74.6631 60.1115 74.4623 59.7425 74.1945 59.4406C73.9268 59.1388 73.6256 58.9039 73.3244 58.7362C72.9898 58.5685 72.6551 58.4679 72.3874 58.4008C72.287 58.4008 72.22 58.3672 72.1531 58.3672C72.5212 56.7571 72.0527 55.516 71.7515 54.9458L71.8185 54.8787C72.22 54.4762 72.5547 54.1072 72.8559 53.7382L72.9228 53.6711C73.1571 53.3357 73.291 53.0002 73.3914 52.6983C73.4583 52.43 73.5252 52.1952 73.5252 51.9604V51.7591V51.6249V51.323C73.4918 50.8199 73.4248 50.1826 73.0902 49.4781C72.9228 49.1427 72.6886 48.7737 72.3874 48.4383C72.0862 48.1028 71.7181 47.8009 71.283 47.5661C71.2495 47.5326 71.2161 47.5326 71.1826 47.4991C70.279 46.1908 69.275 45.151 68.3714 44.3795C67.9029 43.977 67.4678 43.6415 67.0997 43.3732C66.7316 43.1048 66.4304 42.9036 66.2631 42.7694C65.8615 42.4675 65.5603 42.2998 65.4264 42.2327C65.0918 42.0314 64.8575 41.8637 64.7236 41.7631C64.6232 41.6624 64.5563 41.6289 64.5228 41.5953C64.5228 41.5953 64.5228 41.5618 64.4894 41.4947C64.4559 41.3941 64.4559 41.2599 64.4559 41.0251C64.4559 40.6897 64.4559 40.1865 64.4894 39.5156C64.5563 38.4422 64.6567 36.9998 64.7906 35.0208C64.824 34.3834 64.824 33.7796 64.824 33.2429C64.7906 32.3373 64.6567 31.5322 64.4894 30.7942C64.4559 30.6265 64.389 30.4588 64.3555 30.2911C64.322 30.1569 64.2886 30.0898 64.2551 30.0227C64.2216 29.9221 64.1882 29.8215 64.1212 29.6873C64.0878 29.6202 64.0878 29.5531 64.0208 29.486C63.9539 29.3183 63.887 29.1506 63.7866 28.9829L63.7531 28.9493L63.7196 28.8487L63.6862 28.7816C63.5188 28.4797 63.3181 28.2114 63.1173 27.9766C63.0169 27.507 62.8495 26.8361 62.5483 26.0646C62.2806 25.3937 61.9459 24.6557 61.4439 23.9178C61.2766 23.6494 61.0758 23.4146 60.875 23.1798L60.942 23.1127C61.0424 23.0121 63.385 20.5298 65.2591 17.3096C68.7061 11.3053 67.5682 7.64902 65.9953 5.63639L65.9619 5.5693L65.9284 5.50221C64.4224 3.82502 62.3475 2.81871 59.8376 2.48327C54.5834 1.81239 48.6264 4.42881 47.0535 5.16678L44.1754 2.01366C43.9077 1.74531 43.6399 1.47696 43.3388 1.27569C43.0376 1.07443 42.7029 0.873168 42.3682 0.705449C41.6989 0.403555 40.9627 0.202292 40.1595 0.101661C38.5866 -0.0996021 36.7794 0.101661 34.8383 0.604818C31.9268 1.34278 28.6806 2.81871 25.267 4.86488C21.8535 6.91105 18.3061 9.56101 14.8591 12.7141C10.6423 16.5381 7.16184 20.5969 4.61841 24.488C3.34669 26.4 2.30924 28.2785 1.53952 30.0898C0.7698 31.8676 0.267808 33.5784 0.0670109 35.1214C-0.0668537 36.2619 -0.0668537 37.3353 0.167409 38.3081C0.267808 38.7441 0.401672 39.1466 0.602469 39.5492C0.836733 40.0523 1.13793 40.5219 1.50606 40.9245L4.48454 44.044L4.81921 44.3795L4.78574 44.413L4.68534 44.6143C4.61841 44.7149 4.58494 44.8156 4.51801 44.8826L4.41761 45.0839C4.38415 45.1845 4.31721 45.2852 4.28375 45.3858L4.18335 45.5871C4.14988 45.6877 4.08295 45.7883 4.04948 45.889C4.01602 45.956 3.98255 46.0231 3.98255 46.0902L3.88215 46.3921C3.84869 46.4592 3.84869 46.5263 3.81522 46.5934C3.78175 46.694 3.74829 46.7946 3.71482 46.9288C3.71482 46.9624 3.68136 46.9959 3.68136 47.0294C3.68136 47.063 3.64789 47.0965 3.64789 47.1301C3.61442 47.2307 3.58096 47.3649 3.54749 47.4655C3.54749 47.5326 3.51403 47.5997 3.51403 47.6668C3.51403 47.7003 3.48056 47.7674 3.48056 47.8009C3.48056 47.868 3.44709 47.9351 3.44709 48.0022C3.44709 48.0693 3.41363 48.1364 3.41363 48.2035C3.38016 48.3376 3.38016 48.4718 3.34669 48.6395C3.34669 48.6731 3.34669 48.7066 3.31323 48.7737V48.8073C3.31323 48.9079 3.27976 49.0085 3.27976 49.0756C3.27976 49.2098 3.2463 49.3775 3.2463 49.5117V51.1889C3.2463 51.256 3.2463 51.323 3.27976 51.3901C3.27976 51.4572 3.27976 51.5579 3.31323 51.6585V51.7591C3.31323 51.8262 3.34669 51.9268 3.34669 51.9939C3.34669 52.061 3.38016 52.1281 3.38016 52.2287C3.38016 52.2623 3.38016 52.2958 3.41363 52.3294C3.41363 52.3629 3.44709 52.43 3.44709 52.4635V52.5306C3.44709 52.5977 3.48056 52.6648 3.51403 52.799C3.51403 52.8325 3.51403 52.8325 3.54749 52.8661C3.58096 52.9332 3.58096 53.0002 3.58096 53.0338L3.61442 53.1009C3.61442 53.1344 3.61442 53.1344 3.64789 53.168L3.68136 53.235V53.3357C3.68136 53.3692 3.68136 53.3692 3.71482 53.4028L3.74829 53.4698C3.74829 53.5369 3.78175 53.5705 3.78175 53.6376C3.81522 53.7047 3.81522 53.7717 3.84869 53.9059V53.8724V53.9059C3.84869 53.9395 3.84869 53.9395 3.88215 53.973C3.91562 54.0736 3.94909 54.1407 3.94909 54.1743C3.98255 54.2414 4.01602 54.3084 4.04948 54.4426L4.08295 54.4762C4.11642 54.5433 4.11642 54.6103 4.14988 54.6439L4.18335 54.711C4.18335 54.7445 4.21681 54.7781 4.21681 54.8116C4.21681 54.8451 4.25028 54.9122 4.28375 54.9458L4.31721 55.0129C4.35068 55.0464 4.35068 55.1135 4.38415 55.147C4.41761 55.1806 4.41761 55.2141 4.41761 55.2477C4.45108 55.3148 4.48454 55.3818 4.51801 55.4825L4.55148 55.516C4.58494 55.5496 4.58494 55.5831 4.61841 55.6167C4.65187 55.6502 4.65187 55.7173 4.68534 55.7508C4.71881 55.7844 4.75227 55.8515 4.78574 55.9521L4.81921 55.9856C4.85267 56.0192 4.85267 56.0527 4.88614 56.0863C4.9196 56.1534 4.95307 56.1869 4.95307 56.2204C4.98654 56.254 5.02 56.3211 5.05347 56.3882V56.4217C5.08693 56.4552 5.08693 56.4888 5.1204 56.5223C5.15387 56.5894 5.18733 56.623 5.2208 56.6565C5.25427 56.6901 5.28773 56.7571 5.35466 56.8578C5.38813 56.8913 5.4216 56.9249 5.4216 56.9584C5.45506 57.0255 5.48853 57.059 5.52199 57.0926C5.55546 57.1261 5.58893 57.1932 5.62239 57.2603C5.65586 57.2938 5.68933 57.3609 5.72279 57.3945C5.75626 57.4616 5.78972 57.4951 5.85666 57.5287L5.95705 57.6293L5.99052 57.6628C6.05745 57.7299 6.09092 57.797 6.15785 57.8641L6.22478 57.9312L6.32518 58.0318L6.52598 58.2331L6.59291 58.3002L6.69331 58.4008L6.72678 58.4343C6.79371 58.5014 6.89411 58.5685 6.96104 58.6691L6.99451 58.7027C7.02797 58.7362 7.06144 58.7362 7.0949 58.8033C7.1953 58.9039 7.2957 58.971 7.3961 59.0717L7.46303 59.1052L7.4965 59.1388L7.56343 59.1723C7.66383 59.2394 7.73076 59.3065 7.83116 59.3736L7.86463 59.4071C7.89809 59.4407 7.93156 59.4406 7.93156 59.4406L7.99849 59.5077C8.06542 59.5748 8.13235 59.6084 8.19929 59.6755L8.26622 59.709L8.33315 59.7761L8.36662 59.8096C8.43355 59.8432 8.53395 59.9103 8.60088 59.9438C8.63435 59.9773 8.66781 60.0109 8.73475 60.0109L8.80168 60.0444L8.83514 60.078H8.86861C9.00247 60.1451 9.10287 60.2122 9.20327 60.2792L9.2702 60.3128L9.6718 60.514H9.70526L9.7722 60.5476L9.97299 60.6482C10.0065 60.6482 10.0399 60.6818 10.0734 60.6818C10.1069 60.7153 10.1403 60.7153 10.2073 60.7489H10.2407C10.3077 60.7824 10.3746 60.8159 10.4415 60.8159H10.475C10.5419 60.8495 10.6088 60.883 10.7092 60.9166H10.7427L10.8096 60.9501C10.8431 60.9501 10.8766 60.9837 10.91 60.9837H10.9435C11.0439 61.0172 11.1443 61.0508 11.2782 61.0843H11.3116C11.479 61.1514 11.6463 61.1849 11.8136 61.2185H11.8471C11.981 61.252 12.1483 61.2856 12.2822 61.3191H12.416C12.5499 61.3526 12.6838 61.3862 12.8176 61.3862H12.9515C13.0519 61.3862 13.1188 61.4197 13.2192 61.4197C13.2192 61.4533 13.2527 61.4868 13.2527 61.5204C13.4869 62.1577 13.7212 62.795 13.9889 63.3988C17.9379 74.3676 28.8814 82.8878 41.3642 84.4643C53.8471 86.0073 67.2001 77.6885 72.6216 66.4513C72.8559 66.0152 73.0567 65.6127 73.2575 65.1766C73.793 64.6064 74.228 64.0361 74.4957 63.4324C74.9308 63.0634 75.0312 62.3254 74.9977 61.6881ZM5.68933 57.3274H5.72279H5.68933Z" fill="#664F44"/>
<path d="M64.3232 6.80944C63.7208 6.13856 63.0181 5.63541 62.2483 5.26642C62.1145 5.19934 61.9806 5.16579 61.8133 5.13225C61.7463 5.0987 61.6794 5.03162 61.6125 4.99807C60.9432 4.72972 60.2404 4.562 59.5041 4.46137C55.8898 3.99176 51.74 5.33351 49.3973 6.27274C49.2635 6.33983 49.1296 6.37337 48.9957 6.44046C48.7949 6.54109 48.5941 6.60818 48.3933 6.70881C48.0587 6.84298 47.724 7.0107 47.3559 7.17842C47.289 7.21196 47.2555 7.21196 47.1886 7.24551L46.5527 6.50754L46.2515 6.17211L45.9838 5.87021L45.8834 5.73604L43.4404 2.91836L43.2396 2.68355L42.9718 2.38166H42.9384L42.2356 2.54938L41.4324 2.71709C40.9973 2.51583 40.4619 2.38166 39.8595 2.28103C38.6547 2.11331 37.1152 2.28103 35.375 2.71709C33.6348 3.15316 31.6603 3.92467 29.5854 4.96453C25.4021 7.04424 20.7838 10.2309 16.2993 14.3232C14.7264 15.7321 13.2873 17.208 11.9487 18.6504C10.6435 20.0592 9.4722 21.5016 8.40128 22.8769C6.22598 25.7281 4.58614 28.4787 3.51522 30.961C2.81243 32.6046 2.37737 34.1141 2.21004 35.4223C2.07618 36.3615 2.10964 37.2001 2.27697 37.871C2.34391 38.1058 2.41084 38.2735 2.47777 38.4748C2.6451 38.8773 2.8459 39.2127 3.11363 39.5146L5.82439 42.3659L6.12558 42.6678L6.15905 42.6342C6.22598 42.5336 6.32638 42.433 6.42678 42.3659L6.46024 42.3323L6.56064 42.2317C6.62758 42.1311 6.72797 42.064 6.79491 41.9633C6.86184 41.8963 6.8953 41.8627 6.96224 41.8292C7.02917 41.7956 7.06263 41.7285 7.12957 41.695L7.1965 41.6279C7.26343 41.5944 7.2969 41.5273 7.36383 41.4937C7.43076 41.4266 7.53116 41.3596 7.59809 41.2925C7.63156 41.2589 7.69849 41.2254 7.73196 41.1918H7.76542C7.86582 41.1247 7.93276 41.0577 8.03315 40.9906C8.10009 40.957 8.13355 40.9235 8.20048 40.8564C8.30088 40.7893 8.36782 40.7222 8.46821 40.6551C8.53515 40.6216 8.56861 40.588 8.63554 40.5545C8.73594 40.4874 8.83634 40.4203 8.93674 40.3868C9.00367 40.3532 9.03714 40.3197 9.10407 40.2862C9.20447 40.2191 9.30487 40.1855 9.40527 40.1184C9.4722 40.0849 9.50566 40.0513 9.5726 40.0178L9.63953 39.9843C9.73993 39.9507 9.80686 39.8836 9.90726 39.8501C9.94073 39.8165 10.0077 39.8165 10.0411 39.783C10.1081 39.7495 10.175 39.7159 10.2754 39.6824L10.4762 39.5817L10.5431 39.5482L11.0451 39.3469C11.112 39.3134 11.1455 39.3134 11.2124 39.2798C11.2794 39.2463 11.3128 39.2463 11.3798 39.2127L11.4467 39.1792C11.4802 39.1792 11.5136 39.1457 11.5471 39.1457C11.614 39.1121 11.681 39.1121 11.7814 39.0786H11.8483C11.9487 39.045 12.0156 39.045 12.116 39.0115C12.183 38.9779 12.2834 38.9779 12.3503 38.9444C12.4507 38.9109 12.5511 38.9109 12.6515 38.8773C12.6849 38.8773 12.7184 38.8438 12.7853 38.8438C12.8188 38.8438 12.8857 38.8438 12.9192 38.8102C13.0196 38.7767 13.12 38.7767 13.2204 38.7767C13.3208 38.7767 13.3877 38.7431 13.4881 38.7431C13.5551 38.7431 13.622 38.7096 13.6889 38.7096H13.9567C14.2913 38.7096 14.6929 38.7096 15.0945 38.7431H15.1614C15.563 38.7767 16.0316 38.8438 16.5001 38.9444C16.6005 38.9779 16.7344 38.9779 16.8348 39.0115C16.8682 38.9779 16.8682 38.9109 16.9017 38.8773C17.1694 38.4412 17.4037 37.9716 17.6714 37.5356C19.1774 35.0198 20.7838 32.8059 22.4236 30.8603C22.9925 30.1895 23.5615 29.5857 24.1304 28.9819C26.5065 26.4996 28.8826 24.5877 31.0244 23.1117C31.4929 22.7763 31.9949 22.4744 32.43 22.1725C33.0658 21.77 33.6682 21.4345 34.2372 21.0991C34.7057 20.8307 35.1407 20.5959 35.5758 20.3947C36.2786 20.0257 36.9145 19.7238 37.4834 19.489L37.9854 19.2877C38.2196 19.1871 38.4539 19.0865 38.6547 19.0194C38.4874 18.9858 38.2866 18.9858 38.1192 18.9858H37.4499C37.2826 18.9858 37.0818 18.9858 36.9145 19.0194C36.5798 19.0529 36.2117 19.0865 35.8435 19.12C35.7097 19.1536 35.6093 19.1536 35.4754 19.1871C36.379 18.7175 37.2826 18.382 38.1192 18.1137C38.6882 17.946 39.2571 17.8118 39.7925 17.7112C40.5288 17.577 41.2316 17.4764 41.8674 17.4428C42.3025 17.4093 42.7041 17.4093 43.0722 17.4093C43.4403 17.4093 43.8085 17.4428 44.1097 17.4428C45.2141 17.5099 45.8834 17.6776 45.8834 17.6776C45.7161 17.4428 45.5153 17.2751 45.3145 17.1074C44.9129 16.8055 44.4778 16.6042 44.0762 16.4365C43.9089 16.3694 43.775 16.3359 43.6411 16.2688C43.5407 16.2352 43.4404 16.2017 43.3734 16.2017C43.5742 16.1682 43.7415 16.1346 43.9089 16.1346C44.1097 16.1011 44.277 16.1011 44.4778 16.0675C46.0507 15.9334 47.4563 16.0675 48.4937 16.2352C49.732 16.4701 50.5017 16.7719 50.5017 16.7719C50.3344 16.4365 50.0667 16.1346 49.7655 15.8663C49.5647 15.6985 49.3304 15.5308 49.1296 15.3967C49.5647 15.4973 49.9328 15.5979 50.3344 15.7321C51.3384 16.034 52.175 16.403 52.8443 16.7049L53.4467 17.0068C53.5137 17.0403 53.5471 17.0738 53.5806 17.0738C54.183 17.4093 54.5177 17.6441 54.5177 17.6441C54.4173 17.2751 54.2165 16.9397 53.9487 16.6378C53.8818 16.5707 53.8149 16.4701 53.7479 16.403H53.7814C53.8149 16.403 53.8483 16.4365 53.9153 16.4365C53.9487 16.4365 54.0157 16.4701 54.0826 16.5036C54.3503 16.6042 54.7519 16.7719 55.2204 17.0068C55.2539 17.0068 55.2539 17.0403 55.2874 17.0403L55.4882 17.1409C55.6555 17.2416 55.8228 17.3086 55.9902 17.4428L56.4922 17.7447C56.5926 17.8118 56.6595 17.8453 56.7599 17.9124C56.9272 18.0466 57.128 18.1808 57.2953 18.3485C57.4961 18.5162 57.6635 18.6839 57.8308 18.8517L57.9312 18.9523C58.0651 19.0865 58.1989 19.2206 58.2993 19.3548C58.5336 19.6232 58.7344 19.9251 58.9352 20.227C59.1694 20.5959 59.3368 21.032 59.5041 21.4681C59.5041 21.5016 59.5041 21.5352 59.5376 21.5352C59.638 21.4345 59.8388 21.2333 60.073 20.9649C62.0141 18.6839 67.8372 11.3043 64.3232 6.80944Z" fill="#132134"/>
<path d="M72.9909 61.9219C72.9909 61.9219 73.0578 61.4187 72.7901 60.9491C72.7901 60.9156 72.7566 60.882 72.7566 60.882L72.7232 60.8485L72.6228 60.7479C72.5558 60.6808 72.4889 60.6137 72.3885 60.5466C72.355 60.5131 72.2881 60.4795 72.2212 60.446C72.0539 60.3789 71.8865 60.3118 71.6523 60.2783C71.4849 60.2447 71.3176 60.2447 71.1168 60.2447H70.8491V60.3118C70.8491 60.3453 70.8825 60.3789 70.8825 60.446C70.8825 60.4795 70.8825 60.5131 70.916 60.5131C70.9495 60.6137 70.9829 60.7814 71.0164 60.9156C71.0164 60.9156 71.0164 60.9491 70.9829 61.0162V61.0498C70.8825 61.2846 70.6148 61.8213 70.0124 62.4921C69.912 62.6263 69.8116 62.7269 69.6778 62.8611C68.0044 64.6054 64.3901 67.0541 56.7598 68.4294C54.1829 68.7984 51.7734 68.8319 49.7654 68.5636C46.7534 68.1946 44.5112 67.2218 43.4403 65.9136C43.3399 65.813 43.273 65.6788 43.1726 65.5782C43.1056 65.4775 43.0722 65.4105 43.0052 65.3098C42.9718 65.2763 42.9718 65.2427 42.9383 65.2092C42.5032 64.4041 42.3024 63.532 42.3024 62.6934C42.3024 61.6535 42.6371 60.6808 43.1726 59.9428C43.6076 59.339 44.1765 58.8694 44.8793 58.6681C45.214 58.5675 45.5821 58.5004 45.9502 58.534C46.0172 58.534 46.1176 58.534 46.2514 58.5675C46.4857 58.6011 46.8538 58.6346 47.2889 58.7017C47.3224 58.7017 47.3893 58.7017 47.4228 58.7352C48.8618 58.903 51.1375 59.1378 53.8817 58.97C58.9017 58.6682 65.4945 57.0916 71.4849 51.6575V51.624C71.5184 51.1543 71.4515 50.3493 70.8825 49.712C70.7821 49.6113 70.6817 49.5107 70.5479 49.4101C70.4809 49.343 70.3805 49.3094 70.3136 49.2423C70.2132 49.2088 70.1463 49.1417 70.0794 49.1082L69.7782 48.9069V48.8734C69.7447 48.8063 69.7112 48.7392 69.6443 48.6721C68.1049 46.324 65.963 44.9487 65.0929 44.3114C64.6913 44.0095 64.4236 43.8753 64.4236 43.8753C62.5829 42.7348 62.3152 42.3659 62.4825 39.3134C62.5495 38.2064 62.6499 36.7641 62.7837 34.785C62.7837 34.5166 62.8172 34.2818 62.8172 34.047V33.8793V33.0742C62.8172 32.9065 62.7837 32.7388 62.7837 32.6046C62.7837 32.5375 62.7837 32.4704 62.7503 32.4034C62.7168 32.2356 62.7168 32.0679 62.6833 31.9002C62.6833 31.8331 62.6499 31.7325 62.6499 31.6654C62.6499 31.5648 62.6164 31.4977 62.5829 31.397C62.5495 31.33 62.5495 31.2293 62.516 31.1622C62.4825 31.0616 62.4491 30.961 62.4491 30.8603C62.4491 30.8268 62.4156 30.7933 62.4156 30.7597C62.4156 30.7262 62.3821 30.6926 62.3821 30.6591V30.6255L62.3487 30.5249C62.3152 30.4578 62.2817 30.3907 62.2817 30.3236V30.2901L62.2483 30.223L62.2148 30.1559C62.1479 30.0218 62.1144 29.8876 62.0475 29.7869L62.014 29.6863C61.9471 29.5857 61.8801 29.4515 61.8132 29.3509L61.7797 29.3173L61.7463 29.2838C61.6793 29.2167 61.6459 29.1496 61.5789 29.0825L61.512 28.9819C61.4451 28.8813 61.3781 28.8142 61.3112 28.7471V28.4787C61.2777 28.3446 61.2443 28.1768 61.2108 28.0091C61.2108 27.9756 61.1774 27.9085 61.1774 27.8749V27.8414C61.1774 27.7743 61.1439 27.7408 61.1439 27.6737C61.1104 27.5395 61.077 27.4053 61.01 27.2712C61.01 27.2376 60.9766 27.1705 60.9766 27.137L60.8762 26.8351C60.8427 26.768 60.8427 26.7009 60.8092 26.6674C60.7758 26.5667 60.7423 26.4661 60.6754 26.3655L60.575 26.1642C60.5415 26.0636 60.4746 25.963 60.4411 25.8623L60.3407 25.6611C60.2738 25.5604 60.2403 25.4598 60.1734 25.3592L60.073 25.1579C60.006 25.0573 59.9391 24.9566 59.8722 24.8225C59.8387 24.7554 59.8052 24.7218 59.7718 24.6547C59.7383 24.6212 59.7048 24.5541 59.6714 24.5206C59.571 24.4199 59.504 24.3193 59.4036 24.2187L59.3367 24.1851C59.2029 24.051 59.1024 23.9168 58.9686 23.8161L58.9351 23.7826C58.8682 23.7491 58.8013 23.682 58.7678 23.6484H58.7343C58.6674 23.6149 58.6339 23.5813 58.567 23.5478L58.5335 23.5143C58.4666 23.4807 58.3662 23.4136 58.2323 23.3465C58.1989 23.313 58.1319 23.313 58.065 23.2794C57.7638 23.1788 57.3957 23.0446 56.9272 22.9105C56.8937 22.9105 56.8602 22.9105 56.8268 22.8769C56.4586 22.7763 56.0236 22.6757 55.555 22.6086C55.3877 22.575 55.2538 22.575 55.0865 22.5415C55.0196 22.5415 54.9526 22.5415 54.8522 22.5079H54.7519C54.3837 22.4744 54.0491 22.4409 53.6809 22.4409H53.6475C53.1789 22.4409 52.7104 22.4744 52.2753 22.575C52.3757 22.4073 52.6769 22.206 52.9447 22.0383C53.3128 21.8371 53.6475 21.7029 53.6475 21.7029C53.4467 21.7029 53.2459 21.7364 53.0451 21.77C52.9781 21.77 52.9112 21.8035 52.8443 21.8035C52.8108 21.8035 52.7439 21.8035 52.7104 21.8371H52.6769C52.6435 21.8371 52.61 21.8371 52.5765 21.8706C51.5391 22.1054 50.5351 22.4744 49.9662 22.7092L49.7654 22.8098H49.7319C49.665 22.8098 49.6315 22.8098 49.5646 22.8434C49.9662 22.0719 50.5686 21.6693 51.0371 21.4681C51.104 21.4345 51.2044 21.401 51.2714 21.3675C51.3048 21.3675 51.3048 21.3675 51.3383 21.3339C51.4052 21.3004 51.4722 21.3004 51.5056 21.2668C51.606 21.2333 51.673 21.2333 51.673 21.2333H51.1375C49.9997 21.3675 48.9622 21.7364 48.0921 22.2396C47.4897 22.575 46.9542 22.944 46.4857 23.313C46.3518 23.3465 46.2514 23.3801 46.1176 23.3801C44.8459 23.6484 43.4068 23.9839 41.9008 24.4535C41.3319 24.6212 40.763 24.8225 40.1941 25.0237C39.759 25.1914 39.2905 25.3592 38.8554 25.5269C38.5208 25.6611 38.2196 25.7952 37.8849 25.9294C35.5757 26.9693 33.2666 28.3446 31.359 30.1895L31.1582 30.3907L30.6562 30.8939L30.4554 31.0952C30.3885 31.1958 30.2881 31.2964 30.2212 31.3635C29.853 31.766 29.5184 32.2021 29.1837 32.6717C28.9494 33.0071 28.7152 33.3761 28.5144 33.7451L28.4809 33.7787C28.0458 34.5502 27.6443 35.3552 27.3431 36.2609C27.1757 36.697 27.0419 37.1666 26.908 37.6362C26.8745 37.7704 26.8411 37.871 26.8076 38.0052L26.7741 38.0723C26.6403 38.5754 26.5399 39.1121 26.4729 39.6488C26.4729 39.7495 26.4395 39.8501 26.4395 39.9843C26.406 40.2526 26.3725 40.521 26.3725 40.8229C26.3391 41.0912 26.3391 41.326 26.3391 41.5944V42.6342C26.3391 42.9361 26.3391 43.238 26.3725 43.5399V43.5734C26.3725 43.8753 26.406 44.1772 26.4395 44.5127C26.4395 44.6468 26.4729 44.781 26.4729 44.9152V45.0158C26.4729 45.0829 26.4729 45.15 26.5064 45.2506C26.5399 45.5861 26.6068 45.9551 26.6403 46.324C26.6403 46.4247 26.6737 46.5253 26.6737 46.6259C26.7407 46.9278 26.7741 47.2633 26.8411 47.5652C26.8411 47.5652 26.7741 47.1626 26.8076 46.5588C26.8076 46.4247 26.8411 46.2569 26.8411 46.1228C26.8745 45.7873 26.9415 45.3848 27.0753 45.0158L27.1757 44.7139C27.1757 44.6804 27.2092 44.6468 27.2427 44.5798C27.3096 44.412 27.41 44.2108 27.5104 44.0431C27.5439 44.1772 27.5439 44.3114 27.5773 44.412V46.1899C27.6108 47.3303 27.7112 48.7056 27.9455 49.8797C27.9455 49.8797 27.9789 47.7664 28.347 47.4981C28.347 47.4981 28.9829 51.4562 29.5518 52.9322C29.6188 53.1334 29.7192 53.2676 29.7861 53.3682V52.9657L29.7192 50.7854V50.5506C30.1542 51.4562 30.6562 52.3619 31.2251 53.3347C31.3925 53.603 31.5263 53.8714 31.6937 54.1397C30.6227 55.079 29.6188 56.4543 28.8825 58.0644C28.7821 58.3327 28.6482 58.6011 28.5478 58.8694C28.4809 59.0371 28.4474 59.1713 28.3805 59.339C28.3805 59.3726 28.347 59.4397 28.347 59.4732C28.3136 59.5738 28.2801 59.708 28.2466 59.8086C28.2466 59.8757 28.2132 59.9093 28.2132 59.9764C28.1797 60.077 28.1462 60.2112 28.1128 60.3118C28.1128 60.3789 28.0793 60.4124 28.0793 60.4795L27.9789 60.9827C27.9454 61.1504 27.912 61.3181 27.912 61.4858C27.912 61.5529 27.912 61.5865 27.8785 61.6535C27.8785 61.7877 27.8451 61.8884 27.8451 62.0225C27.8451 62.0896 27.8451 62.1567 27.8116 62.2238C27.8116 62.358 27.7781 62.4586 27.7781 62.5928V63.7668C27.7781 63.901 27.7781 64.0352 27.8116 64.2029V64.3035C27.8116 64.4712 27.8451 64.6389 27.8785 64.8402C27.8785 64.9073 27.8785 64.9408 27.912 65.0079C27.912 65.1421 27.9454 65.2427 27.9789 65.3769C27.9789 65.444 28.0124 65.5111 28.0124 65.5782C28.0458 65.6788 28.0459 65.813 28.0793 65.9136C28.0793 65.9807 28.1128 66.0478 28.1128 66.1149C28.1462 66.2155 28.1797 66.3161 28.1797 66.4503C28.2132 66.5174 28.2132 66.5845 28.2466 66.6851C28.2801 66.7858 28.3136 66.9199 28.347 67.0206C28.3805 67.0876 28.3805 67.1547 28.414 67.2218C28.4474 67.3224 28.4809 67.4566 28.5144 67.5573C28.5478 67.6243 28.5478 67.6914 28.5813 67.7585C28.6148 67.8927 28.6817 68.0269 28.7152 68.1275C28.7486 68.1946 28.7486 68.2281 28.7821 68.2952L29.2841 69.4022C29.3176 69.4692 29.351 69.5028 29.3845 69.5699L29.5853 69.9724C29.6188 70.0395 29.6522 70.1066 29.7192 70.1737C29.7861 70.2743 29.853 70.4085 29.92 70.5091C29.9534 70.5762 30.0204 70.6433 30.0538 70.7104C30.1208 70.811 30.1877 70.9452 30.2881 71.0458C30.355 71.1129 30.3885 71.18 30.4554 71.2806C30.5223 71.3812 30.6227 71.5154 30.6897 71.6161C30.7566 71.6831 30.7901 71.7502 30.857 71.8509C30.9574 71.9515 31.0243 72.0857 31.1247 72.1863C31.1917 72.2534 31.2251 72.3205 31.2921 72.3876C31.3925 72.5217 31.4929 72.6224 31.6267 72.7565L31.7941 72.9243C31.9614 73.092 32.1287 73.2932 32.2961 73.461C32.2961 73.461 32.1957 73.3268 32.0618 73.0584C32.0283 73.0249 31.9949 72.9578 31.9949 72.8907L31.8945 72.6895C31.861 72.6224 31.8275 72.5553 31.7941 72.4547C31.5263 71.8509 31.2921 70.9787 31.3255 70.0395L31.6267 70.442C31.7271 70.6768 31.8945 70.9787 32.0618 71.3142C32.1287 71.4148 32.1957 71.549 32.2291 71.6496C32.4969 72.1192 32.7646 72.6559 33.0992 73.1591C33.5008 73.7964 33.9024 74.4002 34.3375 74.9704C34.3375 74.9704 33.8355 73.897 33.6682 73.1926C33.6347 72.9914 33.6012 72.8236 33.6347 72.723C33.6682 72.7565 33.7016 72.8236 33.7686 72.8572C33.802 72.8907 33.8355 72.9578 33.9024 72.9914C33.9694 73.092 34.0698 73.2262 34.2036 73.3939L34.2706 73.461C34.3375 73.5281 34.371 73.6287 34.4379 73.6958C34.5048 73.7964 34.5718 73.897 34.6721 73.9977C35.3749 74.9034 36.3455 76.1109 37.0148 76.7483C37.249 76.9495 37.4498 77.1172 37.5837 77.1843L36.6132 75.44C38.822 77.2514 47.9917 79.5659 56.9941 76.9831C58.0985 76.6812 59.1694 76.2786 60.2403 75.809C60.8762 75.5407 61.512 75.2052 62.1479 74.8698L62.2483 74.8027C62.6833 74.5679 63.1184 74.2996 63.5534 74.0312C63.8881 73.8299 64.2228 73.5951 64.524 73.3939C65.0594 73.0249 65.5949 72.6224 66.1303 72.1863C66.1638 72.1528 66.1973 72.1192 66.2307 72.1192C66.7327 71.6831 67.2347 71.2135 67.6698 70.7439C68.2722 70.1066 68.8076 69.4693 69.2762 68.8319L69.3096 68.7984C69.4435 68.6307 69.5439 68.4965 69.6443 68.3288L69.6778 68.2952C69.7112 68.2281 69.7447 68.1946 69.7782 68.1275C69.9455 67.8927 70.0794 67.6914 70.2467 67.4566C70.2801 67.3895 70.3136 67.356 70.3471 67.2889C70.414 67.1547 70.4809 67.0541 70.5813 66.9199C70.6483 66.8193 70.6817 66.7522 70.7487 66.6516C70.8156 66.5509 70.8825 66.4503 70.916 66.3497C71.0164 66.182 71.1168 65.9807 71.2172 65.813L71.3176 65.6117L71.5184 65.2092L71.6188 65.0079L71.6523 64.9408C71.7192 64.7731 71.8196 64.6054 71.8865 64.4377V64.4041C72.1877 64.1358 72.3885 63.8674 72.5893 63.6326C72.6228 63.5991 72.6562 63.5655 72.6562 63.532C72.857 62.8947 72.9909 62.3915 72.9909 61.9219ZM19.1438 55.4144C19.1438 55.3809 19.1438 55.3473 19.1104 55.2802C19.01 54.71 18.9096 54.1062 18.8761 53.5024V53.3682C18.7757 53.4018 18.6753 53.536 18.5415 53.7037C18.508 53.7708 18.4411 53.8378 18.4076 53.9385C18.1064 54.5087 17.8387 55.3138 17.8387 55.3138C17.8721 55.0454 17.9056 54.7771 17.9056 54.5087V54.4081C17.9391 54.1397 17.9725 53.8378 18.006 53.5695V53.4689C18.0395 53.1334 18.1064 52.8315 18.1733 52.5296C18.1733 52.4961 18.1733 52.4625 18.2068 52.3955V52.3619C18.2068 52.3284 18.2068 52.2948 18.2403 52.2613C18.2403 52.1942 18.2737 52.1607 18.2737 52.0936C18.3072 51.8588 18.3741 51.624 18.4076 51.3891C18.4411 51.1879 18.4745 50.9866 18.508 50.8189V50.7518C18.508 50.7183 18.508 50.6847 18.5415 50.6847V50.6176C18.5415 50.5841 18.5749 50.517 18.5749 50.4835C18.5749 50.4499 18.5749 50.4164 18.6084 50.3828C18.6084 50.3157 18.6419 50.2487 18.6419 50.2151C18.6419 50.1816 18.6753 50.1145 18.6753 50.0809C18.6753 50.0139 18.7088 49.9468 18.7088 49.9132C18.7088 49.8797 18.7088 49.8461 18.7423 49.8126C18.7423 49.779 18.7423 49.7455 18.7757 49.7455C18.7757 49.6784 18.8092 49.6449 18.8092 49.6113V49.5107L18.7423 49.5778C18.6753 49.6113 18.6419 49.6784 18.5749 49.712L18.508 49.779C18.4411 49.8461 18.3741 49.9132 18.3407 49.9803L18.3072 50.0139L18.1064 50.3157L18.0729 50.3493C18.0729 50.3828 18.0395 50.3828 18.0395 50.4164L17.9391 50.6176V50.6847C17.9056 50.7854 17.8387 50.886 17.8052 50.9866C17.7048 51.255 17.6044 51.5233 17.5375 51.7581C17.504 51.8252 17.504 51.9258 17.4705 51.9594C17.4371 52.0936 17.4036 52.2277 17.4036 52.2613V52.2948V52.2613C17.4036 52.1607 17.4036 52.0936 17.4371 51.9929C17.4371 51.8252 17.4705 51.624 17.4705 51.4562C17.4705 51.3221 17.504 51.1543 17.5375 51.0202C17.5375 50.9866 17.5375 50.9195 17.5709 50.886C17.5709 50.8189 17.6044 50.7518 17.6044 50.6847C17.6044 50.6176 17.6379 50.5506 17.6379 50.4835V50.3828C17.6379 50.3157 17.6713 50.2151 17.6713 50.148V49.9803V49.9132C17.6713 49.8797 17.6713 49.8461 17.7048 49.8126C17.7383 49.712 17.7717 49.5778 17.7717 49.4772V49.4436C17.8052 49.3765 17.8052 49.2759 17.8387 49.2088V49.1753C17.8721 49.0075 17.9391 48.8398 17.9725 48.6721V48.605C17.9725 48.5715 17.9725 48.5379 18.006 48.5044C18.0729 48.236 18.1733 47.9677 18.2403 47.7329V47.6993C18.3072 47.4981 18.4076 47.2633 18.4745 47.062V47.0285C18.508 46.9278 18.5415 46.8607 18.5749 46.7601C18.6419 46.6259 18.6753 46.4918 18.7423 46.3576C18.7423 46.324 18.7757 46.2569 18.8427 46.1228C18.8761 46.0892 18.8761 46.0221 18.9096 45.9886C18.9431 45.9215 18.9765 45.8544 19.01 45.7538L19.0435 45.6867L19.6124 44.6468C19.6458 44.6133 19.6458 44.5462 19.6793 44.5127V44.4791L19.7128 44.412C19.7797 44.3114 19.8466 44.1772 19.9136 44.0766C20.014 43.9089 20.0809 43.7412 20.1813 43.607C20.3486 43.3051 20.4825 43.0367 20.5829 42.9026C20.6164 42.8019 20.6498 42.7684 20.6833 42.7349C20.6498 42.7349 20.4825 42.6007 20.2148 42.433C19.8801 42.2317 19.4116 41.9633 18.8427 41.695C18.6419 41.5944 18.4745 41.5273 18.2737 41.4266C18.0395 41.326 17.7717 41.2254 17.504 41.1247C17.4371 41.0912 17.3701 41.0912 17.3032 41.0577C17.0689 40.9906 16.8681 40.9235 16.6339 40.8564C16.4666 40.8229 16.2992 40.7893 16.1654 40.7558C16.0315 40.7222 15.8976 40.7222 15.7638 40.6887C15.6968 40.6887 15.6299 40.6887 15.563 40.6551C15.496 40.6551 15.4291 40.6551 15.3622 40.6216C15.1948 40.6216 14.994 40.588 14.8267 40.588H14.559C14.1574 40.588 13.7893 40.6216 13.4211 40.6887H13.3542C12.6849 40.7893 12.049 40.957 11.4132 41.1918C11.2124 41.2589 11.0116 41.3596 10.7773 41.4602C10.7104 41.4937 10.6769 41.5273 10.61 41.5273L10.4092 41.6279C9.80679 41.9298 9.23786 42.3323 8.7024 42.7684H8.66894C8.20041 43.1374 7.79882 43.5734 7.43069 44.0095L7.12949 44.412C6.99563 44.5798 6.89523 44.7475 6.79483 44.9152C6.59404 45.2171 6.39324 45.5525 6.22591 45.888C6.15898 46.0221 6.09204 46.1228 6.05858 46.2569C6.05858 46.2905 6.02511 46.2905 6.02511 46.324C5.69045 47.1291 5.42272 47.9677 5.32232 48.8734C5.28886 49.0411 5.28886 49.2088 5.25539 49.4101V49.4772C5.25539 49.6113 5.22192 49.7455 5.22192 49.9132V50.517C5.22192 50.6512 5.22192 50.7854 5.25539 50.9195V51.0873C5.25539 51.1879 5.28886 51.2885 5.28886 51.3891V51.4227C5.28886 51.4898 5.28886 51.5233 5.32232 51.5904C5.32232 51.691 5.35579 51.7917 5.35579 51.8588C5.35579 51.9258 5.38925 51.9929 5.38925 52.06C5.42272 52.1607 5.42272 52.2277 5.45619 52.3284C5.45619 52.3955 5.48965 52.4626 5.52312 52.5296V52.5632L5.55659 52.6303V52.6974L5.59005 52.7644C5.62352 52.8315 5.62352 52.8986 5.65698 52.9657C5.69045 53.0328 5.69045 53.1334 5.72392 53.2005C5.75738 53.2676 5.79085 53.3347 5.79085 53.4353L5.82431 53.5024C5.85778 53.5695 5.85778 53.603 5.89125 53.6701C5.92471 53.7372 5.95818 53.8043 5.99165 53.9049L6.09204 54.1062C6.12551 54.1397 6.12551 54.1733 6.15898 54.2068C6.19244 54.2404 6.19244 54.2739 6.22591 54.3075L6.32631 54.5087C6.35977 54.5758 6.39324 54.6764 6.46017 54.7435C6.49364 54.8106 6.5271 54.8777 6.56057 54.9112C6.59404 54.9783 6.66097 55.079 6.69444 55.146C6.7279 55.2131 6.76137 55.2467 6.79483 55.3138C6.8283 55.3809 6.89523 55.4815 6.96216 55.5486C6.99563 55.6157 7.0291 55.6492 7.06256 55.6828C7.1295 55.7498 7.16296 55.8505 7.22989 55.9176C7.26336 55.9511 7.29683 56.0182 7.33029 56.0517C7.39722 56.1188 7.46416 56.2195 7.53109 56.2865C7.56456 56.3201 7.59802 56.3536 7.63149 56.4207C7.69842 56.4878 7.76535 56.5884 7.83228 56.6555L7.93268 56.7562C7.99962 56.8232 8.06655 56.9239 8.16695 56.991L8.26735 57.0916L8.50161 57.3264C8.53507 57.3599 8.56854 57.3935 8.60201 57.3935C8.66894 57.4606 8.76934 57.5277 8.86974 57.6283C8.9032 57.6618 8.93667 57.6618 8.97013 57.6954C9.07053 57.7625 9.13747 57.8296 9.23786 57.8966C9.27133 57.9302 9.3048 57.9302 9.3048 57.9637L9.60599 58.165L9.67292 58.1985L9.97412 58.3998L10.0411 58.4333C10.1414 58.5004 10.2753 58.5675 10.3757 58.6346L10.4426 58.6681C10.543 58.7352 10.6769 58.8023 10.7773 58.8359L10.8442 58.8694C10.9781 58.9365 11.0785 58.97 11.2124 59.0371L11.2458 59.0707C11.3797 59.1378 11.5136 59.1713 11.614 59.2384H11.6474C11.7813 59.2719 11.9152 59.339 12.049 59.3726H12.0825C12.1494 59.4061 12.2164 59.4061 12.2833 59.4397C12.3502 59.4732 12.4172 59.4732 12.5175 59.5067H12.551C12.6849 59.5403 12.8522 59.5738 12.9861 59.6074C13.1199 59.6409 13.2873 59.6745 13.4211 59.6745C13.8897 59.7416 14.3582 59.7751 14.8267 59.8086H15.1614C15.3287 59.8086 15.4626 59.8086 15.6299 59.7751C15.8307 59.7416 16.065 59.7416 16.2992 59.708C16.5 59.6745 16.7008 59.6409 16.8682 59.6074C17.1693 59.5403 17.4705 59.4732 17.7383 59.3726C18.6084 59.1378 19.3446 58.8023 19.8132 58.4333C19.8132 58.4333 19.512 57.0916 19.2777 55.7498C19.2108 55.6828 19.1773 55.5486 19.1438 55.4144Z" fill="#90694C"/>
<path d="M40.6292 5.56829L40.5288 4.22654L41.1981 2.75061L41.4658 2.68353C41.0308 2.48226 40.4953 2.34809 39.8929 2.24746C38.6881 2.07974 37.1487 2.24746 35.4085 2.68353C33.6682 3.11959 31.6937 3.8911 29.6188 4.93096C25.4355 7.01067 20.8172 10.1973 16.3327 14.2897C14.7598 15.6985 13.3208 17.1744 11.9821 18.6168C10.677 20.0257 9.50565 21.468 8.43473 22.8433C6.25943 25.6946 4.61959 28.4451 3.54867 30.9274C2.84588 32.571 2.41082 34.0805 2.24349 35.3887C2.10962 36.3279 2.14309 37.1665 2.31042 37.8374C2.37735 38.0722 2.44429 38.2399 2.51122 38.4412C2.67855 38.8437 2.87935 39.1792 3.14708 39.4811L5.85783 42.3323L6.15903 42.6342L6.1925 42.6006C6.25943 42.5 6.35983 42.3994 6.46023 42.3323L6.49369 42.2987L6.59409 42.1981C6.66102 42.0975 6.76142 42.0304 6.82835 41.9298C6.89529 41.8627 6.92875 41.8291 6.99568 41.7956C7.06262 41.762 7.09608 41.6949 7.16301 41.6614L7.22995 41.5943C7.29688 41.5608 7.33035 41.4937 7.39728 41.4601C7.46421 41.3931 7.56461 41.326 7.63154 41.2589C7.66501 41.2253 7.73194 41.1918 7.76541 41.1582H7.79887C7.89927 41.0912 7.9662 41.0241 8.0666 40.957C8.13353 40.9234 8.167 40.8899 8.23393 40.8228C8.33433 40.7557 8.40126 40.6886 8.50166 40.6215C8.56859 40.588 8.60206 40.5545 8.66899 40.5209C8.76939 40.4538 8.86979 40.3867 8.97019 40.3532C9.03712 40.3196 9.07059 40.2861 9.13752 40.2526C9.23792 40.1855 9.33832 40.1519 9.43871 40.0848C9.50565 40.0513 9.53911 40.0178 9.60605 39.9842L9.67298 39.9507C10.3088 38.1728 11.2794 36.1938 12.5511 34.1811C14.0905 31.6989 16.065 29.0825 18.4076 26.4661C19.8802 24.8224 21.4865 23.1788 23.2268 21.6022C25.469 19.556 27.7782 17.7111 30.0539 16.101C31.5933 15.0276 33.0993 14.0549 34.5718 13.2163C34.7057 13.1492 34.8395 13.0486 35.0069 12.9815C35.4085 12.7467 35.7766 12.5454 36.1782 12.3441C37.0148 11.9081 37.8515 11.5055 38.6547 11.1701L38.2531 10.7005L38.1861 10.6334L37.6842 10.0632L34.9065 6.70878L34.9399 4.29363L34.9065 4.26008L36.881 3.65629L40.6292 5.56829Z" fill="#2F83C1"/>
<path d="M72.9908 61.9218C72.9908 61.9218 73.0577 61.4187 72.79 60.949C72.79 60.9155 72.7565 60.882 72.7565 60.882L72.723 60.8484L72.6227 60.7478C72.5557 60.6807 72.4888 60.6136 72.3884 60.5465C72.3549 60.513 72.288 60.4794 72.2211 60.4459C72.0537 60.3788 71.8864 60.3117 71.6521 60.2782C71.4848 60.2446 71.3175 60.2446 71.1167 60.2446H70.8489V60.3117C70.8489 60.3453 70.8824 60.3788 70.8824 60.4459C70.8824 60.4794 70.8824 60.513 70.9159 60.513C70.9493 60.6136 70.9828 60.7813 71.0163 60.9155C71.0163 60.9155 71.0163 60.949 70.9828 61.0161V61.0497C70.8824 61.2845 70.6147 61.8212 70.0123 62.4921C69.9119 62.6262 69.8115 62.7269 69.6776 62.861C68.0043 64.6053 64.39 67.054 56.7597 68.4293C54.1828 68.7983 51.7732 68.8318 49.7653 68.5635C46.7533 68.1945 44.5111 67.2217 43.4402 65.9135C43.3398 65.8129 43.2728 65.6787 43.1724 65.5781C43.1055 65.4775 43.072 65.4104 43.0051 65.3097C42.9716 65.2762 42.9716 65.2427 42.9382 65.2091C42.5031 64.4041 42.3023 63.5319 42.3023 62.6933C42.3023 61.6535 42.637 60.6807 43.1724 59.9427C43.6075 59.3389 44.1764 58.8693 44.8792 58.6681C45.2139 58.5674 45.582 58.5004 45.9501 58.5339C46.017 58.5339 46.1174 58.5339 46.2513 58.5674C46.4856 58.601 46.8537 58.6345 47.2888 58.7016C47.3222 58.7016 47.3892 58.7016 47.4226 58.7352C48.8617 58.9029 51.1374 59.1377 53.8816 58.97C58.9015 58.6681 65.4944 57.0915 71.4848 51.6574V51.6239C71.5183 51.1543 71.4513 50.3492 70.8824 49.7119C70.782 49.6112 70.6816 49.5106 70.5477 49.41C70.4808 49.3429 70.3804 49.3093 70.3135 49.2423C70.2131 49.2087 70.1462 49.1416 70.0792 49.1081L69.778 48.9068V48.8733C69.7446 48.8062 69.7111 48.7391 69.6442 48.672C68.1047 46.324 65.9629 44.9487 65.0928 44.3113C64.6912 44.0094 64.4234 43.8753 64.4234 43.8753C62.5828 42.7348 62.3151 42.3658 62.4824 39.3133C62.5493 38.2063 62.6497 36.764 62.7836 34.7849C62.7836 34.5165 62.8171 34.2817 62.8171 34.0469V33.8792V33.0741C62.8171 32.9064 62.7836 32.7387 62.7836 32.6045C62.7836 32.5374 62.7836 32.4704 62.7501 32.4033C62.7167 32.2356 62.7167 32.0678 62.6832 31.9001C62.6832 31.833 62.6497 31.7324 62.6497 31.6653C62.6497 31.5647 62.6163 31.4976 62.5828 31.397C62.5493 31.3299 62.5493 31.2292 62.5159 31.1622C62.4824 31.0615 62.4489 30.9609 62.4489 30.8603C62.4489 30.8267 62.4155 30.7932 62.4155 30.7596C62.4155 30.7261 62.382 30.6925 62.382 30.659V30.6255L62.3485 30.5248C62.3151 30.4577 62.2816 30.3906 62.2816 30.3236V30.29L62.2481 30.2229L62.2147 30.1558C62.1477 30.0217 62.1143 29.8875 62.0473 29.7869L62.0139 29.6862C61.9469 29.5856 61.88 29.4514 61.8131 29.3508L61.7796 29.3172L61.7461 29.2837C61.6792 29.2166 61.6457 29.1495 61.5788 29.0824L61.5119 28.9818C61.445 28.8812 61.378 28.8141 61.3111 28.747L61.0434 28.4786C60.943 28.4116 60.8426 28.3445 60.7422 28.3109C60.7087 28.2774 60.6752 28.2774 60.6418 28.2774L60.441 28.1768C60.4075 28.1768 60.374 28.1432 60.3406 28.1432C60.2736 28.1097 60.2067 28.1097 60.1732 28.0761C60.1398 28.0761 60.1063 28.0426 60.0394 28.0426C59.9724 28.0426 59.939 28.009 59.872 28.009H59.1358C59.1023 28.009 59.0689 28.009 59.0354 28.0426C59.0019 28.0426 58.9685 28.0426 58.935 28.0761C58.8681 28.0761 58.8011 28.1097 58.7007 28.1432H58.6338C58.433 28.2103 58.2657 28.2774 58.0649 28.3445L57.9979 28.378C57.931 28.4116 57.8641 28.4451 57.7637 28.4786L57.6633 28.5122L57.4625 28.6128L57.3621 28.6799L57.1613 28.7805L57.0609 28.8476C56.9939 28.8812 56.927 28.9483 56.8601 28.9818L56.7932 29.0153C56.7262 29.0824 56.6258 29.116 56.5589 29.1831L56.5254 29.2166C56.425 29.2837 56.3581 29.3508 56.2577 29.3843C56.0904 29.485 55.923 29.6191 55.7557 29.7198C55.6218 29.8204 55.488 29.921 55.3206 30.0217L55.2537 30.0552C55.1198 30.1558 54.9525 30.2565 54.8186 30.3236L54.7517 30.3571C54.6179 30.4577 54.4505 30.5248 54.3167 30.6255L54.2497 30.659C54.1159 30.7596 53.9485 30.8267 53.7812 30.8938L53.7143 30.9273C53.5469 30.9944 53.4131 31.0615 53.2457 31.1286L53.1788 31.1622C53.0115 31.2292 52.8441 31.2628 52.6768 31.3299H52.6433C52.476 31.3634 52.2752 31.397 52.1079 31.4305C51.8067 31.464 51.472 31.4976 51.1708 31.4976C50.6688 31.4976 50.1669 31.464 49.6314 31.397L49.1294 31.2963C49.0625 31.2963 48.9955 31.2628 48.9621 31.2628C48.527 31.1621 48.0585 31.0615 47.6234 30.9609C47.4226 30.9273 47.2553 30.8603 47.0545 30.8267C46.7533 30.7596 46.4521 30.6925 46.1174 30.6255C46.0505 30.6255 45.9836 30.5919 45.9501 30.5919C45.9166 30.5919 45.8497 30.5584 45.8162 30.5584C45.7493 30.5584 45.6824 30.5248 45.6155 30.5248C45.5485 30.5248 45.4816 30.4913 45.4147 30.4913H45.3477C45.2808 30.4913 45.2139 30.4577 45.1804 30.4577C45.0465 30.4242 44.9127 30.3906 44.7453 30.3906C44.7119 30.3906 44.6449 30.3906 44.6115 30.3571C44.5111 30.3571 44.4107 30.3236 44.3103 30.3236C44.2433 30.3236 44.2099 30.3236 44.1429 30.29C44.0425 30.29 43.9756 30.2565 43.8752 30.2565H42.3358C42.1684 30.2565 42.0346 30.29 41.8672 30.29H41.7334C41.633 30.29 41.5326 30.3236 41.4322 30.3236H41.3987C41.3318 30.3236 41.2983 30.3571 41.2314 30.3571C41.131 30.3906 41.0306 30.3906 40.9302 30.4242C40.8633 30.4242 40.7963 30.4577 40.7629 30.4577C40.6625 30.4913 40.5621 30.5248 40.4617 30.5248C40.3947 30.5248 40.3613 30.5584 40.2943 30.5919C40.1939 30.6254 40.0601 30.659 39.9597 30.6925C39.8927 30.7261 39.8593 30.7261 39.8258 30.7596C39.6585 30.8267 39.4911 30.8938 39.3573 30.9609C38.0856 31.6989 36.9812 32.7052 36.1445 33.8457C35.8433 34.2482 35.5756 34.6507 35.3413 35.0532C35.0736 35.4893 34.8728 35.9589 34.672 36.4285C34.6051 36.5627 34.5716 36.6969 34.5047 36.8311C34.4378 37.0659 34.3374 37.3007 34.2704 37.5355C34.2704 37.569 34.2704 37.6026 34.237 37.6026C34.17 37.8709 34.1031 38.1393 34.0362 38.4412C33.9692 38.743 33.9358 39.0114 33.9023 39.3133C33.8688 39.481 33.8688 39.6152 33.8688 39.7829C33.8354 40.219 33.8354 40.6215 33.8688 41.0576V41.1582C33.8688 41.2588 33.8688 41.3595 33.9023 41.4936C33.9358 41.7955 33.9692 42.0974 34.0362 42.3993C34.0696 42.5 34.1031 42.6006 34.1031 42.7348C34.1366 42.8354 34.1366 42.936 34.17 43.0367C34.3708 43.8082 34.672 44.5126 35.0401 45.1164C36.4123 47.498 38.688 48.9404 40.3613 49.7119C40.9971 49.9802 41.6664 50.2486 42.3692 50.4834L42.3023 50.5505C42.1684 50.584 42.0346 50.6176 41.8672 50.6511C41.633 50.7182 41.3318 50.8188 41.0306 50.9195C40.6959 51.0201 40.2943 51.1878 39.8927 51.3555C38.8218 51.7916 37.617 52.4289 36.5461 53.3011C36.4123 53.4017 36.2784 53.5359 36.1445 53.6365C35.9103 53.8378 35.7095 54.039 35.5087 54.2738L35.4417 54.3409L35.3413 54.4416C35.2744 54.5422 35.174 54.6093 35.1071 54.7099L35.0067 54.8105C34.9063 54.9447 34.8059 55.0789 34.7389 55.2131C34.6385 55.3472 34.5716 55.4814 34.4712 55.6156C33.8354 56.7225 33.4672 58.0643 33.5676 59.6744V59.6073C33.5676 59.5738 33.5676 59.5402 33.6011 59.5067V59.4731C33.6011 59.4396 33.6346 59.406 33.6346 59.3389V59.3054C33.6346 59.2719 33.668 59.2048 33.668 59.1377C33.668 59.0706 33.7015 59.0371 33.735 58.97V58.9364C33.7684 58.8693 33.7684 58.8022 33.8019 58.7352V58.7016C33.8354 58.6345 33.8354 58.5674 33.8688 58.5003V58.4668C33.9023 58.3997 33.9358 58.3326 33.9692 58.232L34.0027 58.1985C34.0362 58.1314 34.0696 58.0307 34.1366 57.9637C34.2035 57.8295 34.2704 57.7288 34.3374 57.5947C34.3708 57.5611 34.4043 57.494 34.4378 57.4605L34.4712 57.4269L34.672 57.1251C34.7389 57.058 34.8059 56.9573 34.8728 56.8903L34.9397 56.8232C35.0067 56.7561 35.0401 56.689 35.1071 56.6554L35.174 56.5884C35.2409 56.5213 35.3413 56.4542 35.4083 56.3535C35.4083 56.3535 33.9692 59.6408 34.6051 62.2237V62.1902V62.1231V62.0224V61.8883V61.7206C34.6051 61.6535 34.6051 61.5864 34.6385 61.5193C34.6385 61.4522 34.6385 61.3851 34.672 61.318V61.2845C34.672 61.2174 34.7055 61.1168 34.7055 61.0497V60.9826C34.7389 60.882 34.7389 60.8149 34.7724 60.7142V60.6807C34.8059 60.5801 34.8393 60.4794 34.8393 60.4123C34.8393 60.3788 34.8728 60.3453 34.8728 60.3117L34.9063 60.2446C34.9397 60.1775 34.9732 60.0769 35.0067 60.0098C35.0401 59.9092 35.1071 59.8086 35.174 59.7079C35.174 59.6744 35.2075 59.6408 35.2075 59.6408L35.4083 59.3389C35.4083 59.3389 35.3413 60.144 35.3413 61.1168C35.3413 61.2845 35.3413 61.4187 35.3748 61.5864C35.3748 61.687 35.3748 61.7876 35.4083 61.8883C35.4752 60.8484 35.676 59.8756 35.9437 58.97C35.676 59.8756 35.4752 60.8484 35.4083 61.8883C35.3748 62.5592 35.3748 63.23 35.4417 63.9344C35.5421 65.1085 35.8433 66.3831 36.3453 67.6914C36.3453 67.6914 35.8768 66.1819 36.5461 64.6724L36.7469 65.0749C36.8139 65.511 36.8808 66.1483 37.0146 66.8528C37.1485 68.0268 37.684 71.5489 40.0935 73.9976C40.0935 73.9976 39.1899 72.8236 39.3238 71.3141C39.4242 71.5154 39.5246 71.6831 39.5915 71.8508C39.9931 72.6223 40.7963 74.0311 41.6999 75.0374C41.6999 75.0374 40.9971 73.6622 41.1645 73.3603C41.1645 73.3603 43.5071 76.2786 44.2433 76.5469L43.2728 74.9368L43.2394 74.9033C46.6194 77.3855 51.3047 78.2912 57.0609 76.6811C58.0649 76.4127 59.0689 76.0438 60.1398 75.6077C60.7756 75.3393 61.4115 75.0039 62.0473 74.6685L62.1477 74.6014C62.5828 74.3666 63.0179 74.0982 63.4529 73.8299C63.7876 73.6286 64.1222 73.3938 64.4234 73.1925C64.9589 72.8236 65.4944 72.421 66.0298 71.985C66.0633 71.9514 66.0967 71.9179 66.1302 71.9179C66.6322 71.4818 67.1342 71.0122 67.5693 70.5426C68.1716 69.9052 68.7071 69.2679 69.1756 68.6306L69.2091 68.597C69.343 68.4293 69.4434 68.2951 69.5438 68.1274L69.5772 68.0939C69.6107 68.0268 69.6442 67.9932 69.6776 67.9262C69.845 67.6914 69.9788 67.4901 70.1462 67.2553C70.1796 67.1882 70.2131 67.1547 70.2466 67.0876C70.3135 66.9534 70.3804 66.8528 70.4808 66.7186C70.5477 66.618 70.5812 66.5509 70.6481 66.4502C70.7151 66.3496 70.782 66.249 70.8155 66.1483C70.9159 65.9806 71.0163 65.7794 71.1167 65.6116L71.2171 65.4104L71.4179 65.0079L71.5183 64.8066L71.5517 64.7395C71.6187 64.5718 71.7191 64.4041 71.786 64.2363V64.2028C72.0872 63.9344 72.288 63.6661 72.4888 63.4313C72.5223 63.3977 72.5557 63.3642 72.5557 63.3307C72.8569 62.8946 72.9908 62.3914 72.9908 61.9218ZM18.876 53.3682C18.7756 53.4017 18.6752 53.5359 18.5413 53.7036C18.5079 53.7707 18.4409 53.8378 18.4075 53.9384C18.1063 54.5086 17.8385 55.3137 17.8385 55.3137C17.872 55.0453 17.9055 54.777 17.9055 54.5086V54.408C17.9389 54.1397 17.9724 53.8378 18.0059 53.5694V53.4688C18.0393 53.1333 18.1063 52.8314 18.1732 52.5296C18.1732 52.496 18.1732 52.4625 18.2067 52.3954V52.3618C18.2067 52.3283 18.2067 52.2947 18.2401 52.2612C18.2401 52.1941 18.2736 52.1606 18.2736 52.0935C18.3071 51.8587 18.374 51.6239 18.4075 51.3891C18.4409 51.1878 18.4744 50.9865 18.5079 50.8188V50.7517C18.5079 50.7182 18.5079 50.6846 18.5413 50.6846V50.6176C18.5413 50.584 18.5748 50.5169 18.5748 50.4834C18.5748 50.4498 18.5748 50.4163 18.6083 50.3827C18.6083 50.3157 18.6417 50.2486 18.6417 50.215C18.6417 50.1815 18.6752 50.1144 18.6752 50.0809C18.6752 50.0138 18.7087 49.9467 18.7087 49.9131C18.7087 49.8796 18.7087 49.8461 18.7421 49.8125C18.7421 49.779 18.7421 49.7454 18.7756 49.7454C18.7756 49.6783 18.8091 49.6448 18.8091 49.6112V49.5106L18.7421 49.5777C18.6752 49.6112 18.6417 49.6783 18.5748 49.7119L18.5079 49.779C18.4409 49.846 18.374 49.9131 18.3405 49.9802L18.3071 50.0138L18.1063 50.3157L18.0728 50.3492C18.0728 50.3828 18.0393 50.3828 18.0393 50.4163L17.9389 50.6176V50.6846C17.9055 50.7853 17.8385 50.8859 17.8051 50.9865C17.7047 51.2549 17.6043 51.5232 17.5373 51.758C17.5039 51.8251 17.5039 51.9258 17.4704 51.9593C17.4369 52.0935 17.4035 52.2277 17.4035 52.2612V52.2947V52.2612C17.4035 52.1606 17.4035 52.0935 17.4369 51.9929C17.4369 51.8251 17.4704 51.6239 17.4704 51.4562C17.4704 51.322 17.5039 51.1543 17.5373 51.0201C17.5373 50.9865 17.5373 50.9195 17.5708 50.8859C17.5708 50.8188 17.6043 50.7517 17.6043 50.6846C17.6043 50.6176 17.6377 50.5505 17.6377 50.4834V50.3827C17.6377 50.3157 17.6712 50.215 17.6712 50.1479V49.9802V49.9131C17.6712 49.8796 17.6712 49.8461 17.7047 49.8125C17.7381 49.7119 17.7716 49.5777 17.7716 49.4771V49.4435C17.8051 49.3764 17.8051 49.2758 17.8385 49.2087V49.1752C17.872 49.0075 17.9389 48.8397 17.9724 48.672V48.6049C17.9724 48.5714 17.9724 48.5378 18.0059 48.5043C18.0728 48.2359 18.1732 47.9676 18.2401 47.7328V47.6992C18.3071 47.498 18.4075 47.2632 18.4744 47.0619V47.0284C18.5079 46.9277 18.5413 46.8606 18.5748 46.76C18.6417 46.6258 18.6752 46.4917 18.7421 46.3575C18.7421 46.3239 18.7756 46.2569 18.8425 46.1227C18.876 46.0891 18.876 46.0221 18.9095 45.9885C18.9429 45.9214 18.9764 45.8543 19.0099 45.7537L19.0433 45.6866C19.0099 45.6531 18.9429 45.6531 18.9095 45.6195H18.876L18.8091 45.586C18.5079 45.4518 18.1732 45.3176 17.8385 45.217H17.7716C17.5373 45.1499 17.3365 45.1164 17.1023 45.0828C16.9684 45.0828 16.8346 45.0493 16.7007 45.0493H16.366C16.1987 45.0493 16.0314 45.0828 15.864 45.0828C15.7971 45.0828 15.7636 45.0828 15.6967 45.1164C15.6298 45.1164 15.5294 45.1499 15.4624 45.1499C15.429 45.1499 15.3955 45.1499 15.362 45.1835C15.2951 45.1835 15.2616 45.217 15.1947 45.217C15.0943 45.2505 14.9604 45.2841 14.86 45.3176C14.8266 45.3176 14.7596 45.3512 14.7262 45.3512C14.5923 45.4183 14.425 45.4518 14.2911 45.5189C14.2242 45.5524 14.1907 45.586 14.1238 45.586L13.923 45.6866L13.8561 45.7202C13.7891 45.7537 13.7222 45.7872 13.6553 45.8543C13.5883 45.8879 13.5214 45.9214 13.4545 45.9885C13.3875 46.0221 13.3206 46.0891 13.2537 46.1227C13.2202 46.1562 13.1533 46.1898 13.1198 46.2233C13.0194 46.324 12.8855 46.4246 12.7851 46.5252L12.6178 46.6929C12.5174 46.7936 12.4505 46.8942 12.3501 46.9948L12.3166 47.0284C12.2832 47.0955 12.2162 47.129 12.1828 47.1961L12.0824 47.2967C11.915 47.5315 11.7477 47.7999 11.6138 48.0682C11.5804 48.1018 11.5804 48.1353 11.5469 48.1689C11.48 48.303 11.4465 48.4372 11.3796 48.5714C11.3461 48.6385 11.3461 48.672 11.3126 48.7391C11.2792 48.8733 11.2122 49.0075 11.1788 49.1752V49.3093C11.1453 49.41 11.1453 49.5106 11.1118 49.6112C11.1118 49.6783 11.1118 49.7119 11.0784 49.779C11.0784 49.846 11.0784 49.8796 11.0449 49.9467V50.0809C11.0449 50.2486 11.0114 50.4163 11.0449 50.584C11.0449 50.7182 11.0449 50.8524 11.0784 50.9865V51.0536C11.0784 51.1207 11.1118 51.1878 11.1118 51.2549C11.1453 51.5232 11.2122 51.758 11.2792 52.0264C11.3461 52.2277 11.413 52.3954 11.48 52.5631C11.6138 52.8985 11.7812 53.2004 11.982 53.5023C12.3835 54.1061 12.919 54.6428 13.5549 55.0453C13.8895 55.2801 14.2911 55.4479 14.6927 55.582C15.0608 55.7162 15.4624 55.8168 15.8975 55.8504C15.9979 55.8504 16.0983 55.8839 16.1652 55.8839H16.6003C16.7342 55.8839 16.868 55.8504 17.0019 55.8504C17.0688 55.8504 17.1692 55.8504 17.2361 55.8168C17.4369 55.7833 17.6043 55.7498 17.8051 55.7162H17.8385C17.9055 55.6827 17.9724 55.6827 18.0728 55.6491C18.3071 55.582 18.5413 55.4814 18.7421 55.3808L18.7756 55.3472C18.8425 55.3137 18.9095 55.2801 18.9429 55.2801C18.8425 54.7099 18.7421 54.1061 18.7087 53.5023C18.876 53.4352 18.876 53.4017 18.876 53.3682Z" fill="#FCE9CD"/>
<path d="M41.4658 5.97083L41.5662 6.03791L41.4658 5.97083Z" fill="#4D9ED7"/>
<path d="M70.9494 60.5466C70.9494 60.513 70.9494 60.4795 70.9159 60.4795C70.8824 60.4124 70.8824 60.3789 70.8824 60.3453C70.7151 59.8086 70.5143 59.4061 70.3135 59.1042C70.0792 58.7352 69.8784 58.534 69.8784 58.534L69.9788 58.1314C70.0123 57.9637 70.0458 57.796 70.0458 57.6283C70.1796 56.4207 69.8784 55.4815 69.6107 54.9448C69.5773 54.8441 69.5438 54.777 69.5103 54.71C69.3095 54.8441 69.1422 54.9783 68.9414 55.1125C65.327 57.5612 61.2776 59.1377 56.8936 59.8086C53.8816 60.2782 50.7023 60.3118 47.3892 59.9092L47.4561 59.9428C47.4561 59.9428 45.4481 60.2111 44.9127 62.1231L44.9461 62.1567L44.7788 63.4313C44.8457 65.1756 45.6155 66.249 46.519 66.8193C47.4561 67.1882 48.594 67.4566 49.8657 67.6243C52.041 67.8927 54.5844 67.8256 57.1278 67.4231C60.5414 66.9534 65.3605 65.1421 68.8075 62.794C69.5773 62.2573 70.3135 61.6871 70.9159 61.1168L70.9494 61.0833L70.9828 61.0497C70.9828 60.8149 70.9494 60.6808 70.9494 60.5466Z" fill="white"/>
<path d="M64.4235 43.976C62.5829 42.8355 62.3152 42.4665 62.4825 39.414C62.5494 38.307 62.6498 36.8647 62.7837 34.8856C62.7837 34.6172 62.8172 34.3824 62.8172 34.1476V33.9799V33.1748C62.8172 33.0071 62.7837 32.8394 62.7837 32.7052C62.7837 32.6381 62.7837 32.5711 62.7502 32.504C62.7168 32.3363 62.7168 32.1685 62.6833 32.0008C62.6833 31.9337 62.6498 31.8331 62.6498 31.766C62.6498 31.6654 62.6164 31.5983 62.5829 31.4977C62.5494 31.4306 62.5494 31.3299 62.516 31.2628C62.2482 30.8603 61.947 30.5249 61.5789 30.223L61.512 30.1559L61.445 30.1224H61.4116C61.3446 30.0888 61.3112 30.0553 61.2442 30.0217C61.1773 29.9882 61.1104 29.9546 61.0769 29.9211C60.5415 29.5857 59.9056 29.3844 59.2697 29.2838C58.9016 29.2167 58.5335 29.2167 58.1654 29.2167C57.998 29.2167 57.7972 29.2502 57.6299 29.2502C57.1614 29.3173 56.6929 29.4179 56.1909 29.5521C56.0235 29.6527 55.8562 29.7869 55.6889 29.8876C55.555 29.9882 55.4211 30.0888 55.2538 30.1894L55.1869 30.223C55.053 30.3236 54.8857 30.4243 54.7518 30.4913L54.6849 30.5249C54.551 30.6255 54.3837 30.6926 54.2498 30.7932L54.1829 30.8268C54.049 30.9274 53.8817 30.9945 53.7144 31.0616L53.6474 31.0951C53.4801 31.1622 53.3462 31.2293 53.1789 31.2964L53.112 31.3299C52.9446 31.397 52.7773 31.4306 52.61 31.4977H52.5765C52.4092 31.5312 52.2084 31.5647 52.0411 31.5983C51.7399 31.6318 51.4052 31.6654 51.104 31.6654C50.602 31.6654 50.1 31.6318 49.5646 31.5647L49.0626 31.4641C48.9956 31.4641 48.9287 31.4306 48.8952 31.4306C48.4602 31.3299 47.9917 31.2293 47.5566 31.1287C47.3558 31.0951 47.1885 31.028 46.9877 30.9945C46.6865 30.9274 46.3853 30.8603 46.0506 30.7932C45.9837 30.7932 45.9168 30.7597 45.8833 30.7597C45.6156 30.7597 45.3478 30.7932 45.1136 30.8268H45.0466C44.2769 30.9274 43.5407 31.0951 42.7709 31.3635C42.7375 31.3635 42.704 31.397 42.6371 31.397C42.5032 31.4306 42.4028 31.4977 42.2689 31.5312C42.1016 31.5983 41.9677 31.6654 41.8004 31.7325C40.696 32.2021 39.6586 32.873 38.6546 33.7115C38.253 34.047 37.8849 34.416 37.5167 34.7849C36.9813 35.3552 36.5128 35.959 36.0777 36.5963C36.0442 36.6299 36.0442 36.6634 36.0108 36.6969C35.7765 37.0324 35.5757 37.4014 35.4084 37.7368C35.3414 37.871 35.2745 38.0052 35.2076 38.1058V38.1393C35.0068 38.5754 34.8394 38.9779 34.7056 39.414C34.7056 39.4475 34.7056 39.4811 34.6721 39.4811C34.6387 39.5482 34.6387 39.6153 34.6052 39.6823C34.5383 39.8836 34.4713 40.0849 34.4379 40.2861C34.3709 40.4874 34.3375 40.6887 34.304 40.9235C34.304 40.957 34.2705 41.0241 34.2705 41.0576C34.2371 41.1918 34.2371 41.326 34.2036 41.4266C34.1367 41.8962 34.1032 42.3658 34.0697 42.8355V43.1709C34.2705 43.9424 34.5717 44.6468 34.9398 45.2506C36.312 47.6322 38.5877 49.0746 40.261 49.8461C40.8968 50.1145 41.5661 50.3828 42.2689 50.6176L42.3024 50.6512L42.3359 50.6176C42.4363 50.5505 42.5032 50.4835 42.6036 50.4164C42.6371 50.3828 42.6705 50.3828 42.704 50.3493L43.0052 50.148C43.0387 50.1145 43.0721 50.1145 43.1056 50.0809L43.4068 49.8797C43.4403 49.8461 43.4737 49.8461 43.5072 49.8126C43.6076 49.7455 43.708 49.6784 43.8418 49.6113C43.8753 49.5778 43.9088 49.5778 43.9422 49.5442C44.0426 49.4771 44.1765 49.4101 44.2769 49.343C44.3104 49.3094 44.3438 49.3094 44.3773 49.2759C44.4777 49.2088 44.6116 49.1417 44.712 49.0746C44.7454 49.0411 44.8124 49.0411 44.8458 49.0075C44.9462 48.9404 45.0801 48.8733 45.1805 48.8063C45.214 48.7727 45.2809 48.7392 45.3144 48.7392C45.4148 48.6721 45.5486 48.605 45.6825 48.5379C45.7494 48.5044 45.7829 48.4708 45.8498 48.4708C45.9837 48.4037 46.0841 48.3366 46.2179 48.3031C46.2849 48.2696 46.3183 48.236 46.3853 48.236C46.5191 48.1689 46.6195 48.1354 46.7534 48.0683L46.9542 47.9677C47.0881 47.9006 47.1885 47.867 47.3223 47.7999C47.3893 47.7664 47.4562 47.7329 47.5566 47.6993C47.6905 47.6658 47.7909 47.5987 47.9247 47.5651C47.9916 47.5316 48.092 47.4981 48.159 47.4645C48.2928 47.431 48.3932 47.3639 48.5271 47.3303C48.6275 47.2968 48.6944 47.2632 48.7948 47.2297C48.9287 47.1962 49.0291 47.1291 49.163 47.0955L49.4642 46.9949C49.5646 46.9614 49.6984 46.9278 49.7988 46.8607C49.8992 46.8272 50.0331 46.7936 50.1335 46.7601C50.2339 46.7265 50.3677 46.693 50.4681 46.6595C50.602 46.6259 50.7359 46.5924 50.8363 46.5588C50.9367 46.5253 51.0371 46.4917 51.1709 46.4582C51.3048 46.4247 51.4387 46.3911 51.606 46.324C51.6729 46.2905 51.7399 46.2905 51.8068 46.2569C52.3423 44.8816 53.9821 41.4602 56.7598 41.0912C57.061 41.0576 57.3287 41.0241 57.5964 41.0241H57.7972C57.7638 40.8228 57.7303 40.6216 57.7303 40.3868C57.6299 38.9108 58.0984 37.6697 58.7343 37.6362C59.2363 37.6026 59.6379 38.3406 59.7048 38.5754C59.9056 39.0115 60.0395 39.5817 60.0729 40.219C60.1064 40.7893 60.0395 41.326 59.9391 41.7956C60.006 41.8627 60.0395 41.9298 60.1064 41.9633C60.7423 42.7684 60.8427 43.8418 60.8092 44.6468C61.0435 44.6133 61.3112 44.6133 61.5789 44.5797C61.6458 44.5797 61.7128 44.5797 61.7797 44.5462H61.9136C62.2148 44.5127 62.5494 44.4791 62.8841 44.4791C63.6203 44.412 64.3566 44.3785 65.1263 44.3449C64.6913 44.1101 64.4235 43.976 64.4235 43.976ZM71.418 64.6389C70.2132 65.7123 68.9415 66.5845 67.6698 67.2889C67.0339 67.6243 66.398 67.9262 65.7956 68.1946C64.4235 68.7984 63.1184 69.2009 61.947 69.5028C59.3701 70.1401 57.5964 70.1401 57.5964 70.1401C59.002 70.9116 60.7757 70.9116 61.9805 70.811C62.8172 70.7439 63.3861 70.5762 63.3861 70.5762C63.3526 71.0793 63.2857 71.549 63.2188 72.0186C63.1184 72.5217 62.9845 72.9578 62.8172 73.3603V73.3939C62.6164 73.897 62.3486 74.3331 62.0809 74.7356C62.0474 74.7692 62.014 74.8363 61.9805 74.8698L62.0809 74.8027C62.516 74.5679 62.951 74.2996 63.3861 74.0312C63.7207 73.8299 64.0554 73.5951 64.3566 73.3939C64.8921 73.0249 65.4275 72.6224 65.963 72.1863C65.9964 72.1528 66.0299 72.1192 66.0634 72.1192C66.5654 71.6831 67.0674 71.2135 67.5024 70.7439C68.1048 70.1066 68.6403 69.4692 69.1088 68.8319L69.1423 68.7984C69.2761 68.6307 69.3765 68.4965 69.4769 68.3288L69.5104 68.2952C69.5439 68.2281 69.5773 68.1946 69.6108 68.1275C69.7781 67.8927 69.912 67.6914 70.0793 67.4566C70.1128 67.3895 70.1462 67.356 70.1797 67.2889C70.2466 67.1547 70.3136 67.0541 70.414 66.9199C70.4809 66.8193 70.5144 66.7522 70.5813 66.6516C70.6482 66.5509 70.7152 66.4503 70.7486 66.3497C70.849 66.182 70.9494 65.9807 71.0498 65.813L71.1502 65.6117L71.351 65.2092L71.4514 65.0079L71.4849 64.9408C71.5518 64.7731 71.6522 64.6054 71.7192 64.4377C71.5853 64.4712 71.5184 64.5383 71.418 64.6389ZM40.8968 51.1208C40.5622 51.2214 40.1606 51.3891 39.759 51.5569C38.6881 51.9929 37.4833 52.6303 36.4124 53.5024C36.2785 53.603 36.1446 53.7372 36.0108 53.8378C35.7765 54.0391 35.5757 54.2404 35.3749 54.4752L35.308 54.5423L35.2076 54.6429C35.1406 54.7435 35.0402 54.8106 34.9733 54.9112L34.8729 55.0119C34.7725 55.146 34.6721 55.2802 34.6052 55.4144C34.5048 55.5486 34.4379 55.6827 34.3375 55.8169C33.7016 56.9239 33.3335 58.2656 33.4339 59.8757V59.8086C33.4339 59.7751 33.4339 59.7415 33.4673 59.708V59.6745C33.4673 59.6409 33.5008 59.6074 33.5008 59.5403V59.5067C33.5008 59.4732 33.5343 59.4061 33.5343 59.339C33.5343 59.2719 33.5677 59.2384 33.6012 59.1713V59.1378C33.6347 59.0707 33.6347 59.0036 33.6681 58.9365V58.903C33.7016 58.8359 33.7016 58.7688 33.7351 58.7017V58.6681C33.7685 58.6011 33.802 58.534 33.8355 58.4333L33.8689 58.3998C33.9024 58.3327 33.9359 58.2321 34.0028 58.165C34.0697 58.0308 34.1367 57.9302 34.2036 57.796C34.2371 57.7625 34.2705 57.6954 34.304 57.6618L34.3375 57.6283L34.5383 57.3264C34.6052 57.2593 34.6721 57.1587 34.7391 57.0916L34.806 57.0245C34.8729 56.9574 34.9064 56.8903 34.9733 56.8568L35.0402 56.7897C35.1072 56.7226 35.2076 56.6555 35.2745 56.5549C35.2745 56.5549 33.8355 59.8422 34.4713 62.425V62.3915V62.3244V62.2238V62.0896V61.9219C34.4713 61.8548 34.4713 61.7877 34.5048 61.7206C34.5048 61.6535 34.5048 61.5864 34.5383 61.5194V61.4858C34.5383 61.4187 34.5717 61.3181 34.5717 61.251V61.1839C34.6052 61.0833 34.6052 61.0162 34.6387 60.9156V60.882C34.6721 60.7814 34.7056 60.6808 34.7056 60.6137C34.7056 60.5801 34.7391 60.5466 34.7391 60.513L34.7725 60.446C34.806 60.3789 34.8394 60.2782 34.8729 60.2112C34.9064 60.1105 34.9733 60.0099 35.0402 59.9093C35.0402 59.8757 35.0737 59.8422 35.0737 59.8422L35.2745 59.5403C35.2745 59.5403 35.2076 60.3453 35.2076 61.3181C35.2076 61.4858 35.2076 61.62 35.241 61.7877C35.241 61.8883 35.241 61.989 35.2745 62.0896C35.3414 61.0498 35.5422 60.077 35.81 59.1713C35.8769 58.9365 35.9773 58.6681 36.0442 58.4333C36.0442 58.3998 36.0777 58.3662 36.0777 58.3327C36.1781 58.0979 36.245 57.8966 36.3454 57.6618C36.3789 57.6283 36.3789 57.5947 36.4124 57.5277C36.5128 57.3264 36.6132 57.0916 36.7136 56.8903C36.747 56.8568 36.747 56.8232 36.747 56.7897C36.9813 56.3536 37.2155 55.9511 37.4498 55.5821C37.4833 55.5486 37.4833 55.515 37.5167 55.4815C37.6171 55.3473 37.7175 55.2131 37.8179 55.0454C37.8514 55.0119 37.8514 54.9783 37.8849 54.9448C37.9183 54.9112 37.9183 54.8777 37.9518 54.8441C38.0857 54.6764 38.1861 54.5087 38.3199 54.341C38.3534 54.3074 38.3534 54.2739 38.3869 54.2739C38.5207 54.1062 38.6546 53.9385 38.7885 53.8043C38.9558 53.603 39.1231 53.4353 39.2904 53.234C39.4243 53.0999 39.5247 52.9657 39.6586 52.8651L39.7924 52.7309C40.0602 52.4625 40.3279 52.1942 40.5956 51.9594C41.3319 51.2885 41.9343 50.8524 42.1351 50.7183C42.0012 50.7518 41.8673 50.7853 41.7 50.8189C41.4992 50.9195 41.2315 51.0201 40.8968 51.1208Z" fill="#F2D2AC"/>
<path d="M60.1733 43.8417C60.1733 43.8417 60.1733 43.7746 60.1399 43.6405C60.006 43.1709 59.5375 42.0304 57.6968 42.1981C55.7558 42.3993 55.0865 43.9759 54.9192 44.5126C54.8857 44.6132 54.8857 44.6803 54.8857 44.6803L54.9526 44.7139C55.1869 44.5126 55.6554 44.5126 56.0905 44.8145C56.2913 44.9487 56.4251 45.0829 56.559 45.2506C56.7263 45.5189 56.7598 45.7873 56.6594 45.9885L56.559 46.0892C56.559 46.0892 56.6259 46.1227 56.7598 46.1563C57.2953 46.324 58.8012 46.6259 59.6044 45.586C59.6379 45.5189 59.6713 45.4854 59.7048 45.4183C59.5375 45.3512 59.4705 45.1164 59.4705 44.8145C59.4705 44.6803 59.504 44.5462 59.5375 44.3784C59.6379 43.9759 59.9391 43.7411 60.1733 43.8417ZM50.5016 58.1985C49.2299 58.4668 48.1255 58.6681 47.2889 58.8023C47.3223 58.8023 47.3893 58.8023 47.4227 58.8358C48.8618 59.0035 51.1375 59.2383 53.8817 59.0706C58.9016 58.7687 65.4945 57.1922 71.4849 51.7581V51.7245C71.5184 51.2549 71.4514 50.4499 70.8825 49.8125C70.7821 49.7119 70.6817 49.6113 70.5479 49.5106C70.5144 49.5106 70.5144 49.4771 70.4809 49.4771C70.3136 49.3765 70.1797 49.3094 70.0459 49.2087L69.7447 49.0075V48.9739C69.3765 49.5106 68.9415 50.0138 68.473 50.4834C68.3056 50.6511 68.1383 50.8188 67.9375 50.9866C66.2977 52.4625 64.1558 53.7372 61.8466 54.7435C58.0315 56.4207 53.7478 57.5276 50.5016 58.1985ZM18.7757 49.4435C18.7087 49.4771 18.6753 49.5442 18.6084 49.5777L18.5414 49.6448C18.4745 49.7119 18.4076 49.779 18.3741 49.8461L18.3406 49.8796L18.1398 50.1815L18.1064 50.2151C18.1064 50.2486 18.0729 50.2486 18.0729 50.2821L17.9725 50.4834V50.5505C17.939 50.6511 17.8721 50.7518 17.8386 50.8524C17.7382 51.1207 17.6378 51.3891 17.5709 51.6239C17.5374 51.691 17.5374 51.7916 17.504 51.8252C17.4705 51.9593 17.437 52.0935 17.437 52.1271V52.1606V52.1271C17.437 52.0264 17.437 51.9593 17.4705 51.8587C17.4705 51.691 17.504 51.4897 17.504 51.322C17.504 51.1878 17.5374 51.0201 17.5709 50.8859C17.5709 50.8524 17.5709 50.7853 17.6044 50.7518C17.6044 50.6847 17.6378 50.6176 17.6378 50.5505C17.6378 50.4834 17.6713 50.4163 17.6713 50.3492V50.2486C17.6713 50.1815 17.7048 50.0809 17.7048 50.0138V49.8461V49.779C17.7048 49.7454 17.7048 49.7119 17.7382 49.6784C17.7717 49.5777 17.8052 49.4436 17.8052 49.3429V49.3094C17.8386 49.2423 17.8386 49.1417 17.8721 49.0746V49.041C17.9056 48.8733 17.9725 48.7056 18.006 48.5379V48.4708C18.006 48.4372 18.006 48.4037 18.0394 48.3701C18.1064 48.1018 18.2068 47.8334 18.2737 47.5986V47.5651C18.3406 47.3638 18.441 47.129 18.508 46.9278V46.8942C18.5414 46.7936 18.5749 46.7265 18.6084 46.6259C18.6753 46.4917 18.7087 46.3575 18.7757 46.2233C18.7757 46.1898 18.8091 46.1227 18.8761 45.9885C18.9095 45.955 18.9095 45.8879 18.943 45.8544C18.9765 45.7873 19.0099 45.7202 19.0434 45.6196L19.0769 45.5525C19.0434 45.5189 18.9765 45.5189 18.943 45.4854H18.9095L18.8426 45.4518C18.5414 45.3177 18.2068 45.1835 17.8721 45.0829H17.8052C17.5709 45.0158 17.3701 44.9822 17.1358 44.9487C17.002 44.9487 16.8681 44.9151 16.7342 44.9151H16.3996C16.2323 44.9151 16.0649 44.9487 15.8976 44.9487C15.8307 44.9487 15.7972 44.9487 15.7303 44.9822C15.6633 44.9822 15.5629 45.0158 15.496 45.0158C15.4625 45.0158 15.4291 45.0158 15.3956 45.0493C15.3287 45.0493 15.2952 45.0829 15.2283 45.0829C15.1279 45.1164 14.994 45.1499 14.8936 45.1835C14.8601 45.1835 14.7932 45.217 14.7597 45.217C14.6259 45.2841 14.4585 45.3177 14.3247 45.3847C14.2577 45.4183 14.2243 45.4518 14.1573 45.4518L13.9566 45.5525L13.8896 45.586C13.8227 45.6196 13.7558 45.6531 13.6888 45.7202C13.6219 45.7537 13.555 45.7873 13.488 45.8544C13.4211 45.8879 13.3542 45.955 13.2872 45.9885C13.2538 46.0221 13.1868 46.0556 13.1534 46.0892C13.053 46.1898 12.9191 46.2904 12.8187 46.3911L12.6514 46.5588C12.551 46.6594 12.484 46.76 12.3836 46.8607L12.3502 46.8942C12.3167 46.9613 12.2498 46.9949 12.2163 47.0619L12.1159 47.1626C11.9486 47.3974 11.7813 47.6657 11.6474 47.9341C11.6139 47.9676 11.6139 48.0012 11.5805 48.0347C11.5135 48.1689 11.4801 48.3031 11.4131 48.4372C11.3797 48.5043 11.3797 48.5379 11.3462 48.605C11.3462 48.6385 11.3797 48.672 11.3797 48.7056C11.4131 48.8398 11.4466 48.9404 11.4801 49.0746V49.1417C11.5135 49.2423 11.5805 49.3765 11.6139 49.4771C11.7478 49.8125 11.8816 50.1144 12.049 50.3828C12.0824 50.4163 12.0824 50.4499 12.1159 50.4834V50.517L12.1494 50.5505C12.2498 50.7518 12.3502 50.9195 12.4506 51.0537C12.6179 51.2885 12.7518 51.4562 12.8522 51.5904L12.9191 51.6574C12.9191 51.691 12.9526 51.691 12.9526 51.691L13.0195 51.7581C13.0195 51.691 12.986 51.6239 12.986 51.5904C12.8856 51.1543 12.8522 50.7518 12.8522 50.3157V50.2486C12.8522 49.9803 12.8522 49.7119 12.8856 49.4771L12.986 49.779C13.0195 49.9132 13.0864 50.0473 13.1199 50.1815V50.2486C13.3207 50.8188 13.555 51.2885 13.7892 51.6574C14.057 52.1271 14.2912 52.4289 14.4585 52.6302C14.492 52.6638 14.5255 52.6973 14.5255 52.7308L14.5924 52.7979C14.492 52.3283 14.4251 51.8922 14.4251 51.4562V51.0201C14.4251 50.8188 14.4251 50.6511 14.4585 50.4834C14.5255 50.7853 14.6259 51.0872 14.7263 51.3556V51.3891C15.0944 52.3619 15.5295 53.0663 15.8307 53.5024L15.8641 53.5359C15.9311 53.603 15.9645 53.6701 15.998 53.7372C16.0315 53.7707 16.0649 53.8042 16.0649 53.8378L16.1319 53.9049L16.1653 53.9384V53.8713C16.1653 53.8042 16.1319 53.7372 16.1319 53.6701C16.0984 53.4353 16.0649 53.2005 16.0315 52.9992C16.0315 52.865 15.998 52.6973 15.998 52.5631V52.1606V52.0935V51.8252C15.998 51.6574 16.0315 51.4562 16.0315 51.2885C16.0649 51.3891 16.0984 51.5233 16.1319 51.6239C16.1653 51.691 16.1988 51.7916 16.2323 51.8587V51.8922L16.2657 51.9258C16.2992 52.0264 16.3327 52.1271 16.3661 52.1941C16.4331 52.3619 16.5 52.5296 16.6004 52.6638C16.7008 52.865 16.7677 53.0327 16.8681 53.1669C16.935 53.2675 16.9685 53.3346 17.002 53.4017C17.0689 53.5024 17.1358 53.603 17.1693 53.6701C17.2362 53.7372 17.2697 53.8042 17.3032 53.8713L17.3366 53.9049C17.3701 53.972 17.437 54.0055 17.4705 54.0726C17.504 54.1061 17.5374 54.1397 17.5374 54.1732C17.6044 54.2403 17.6378 54.3074 17.6713 54.3074L17.7048 54.3409V54.2403C17.7382 53.972 17.7717 53.6701 17.8052 53.4017V53.3011C17.8386 52.9656 17.9056 52.6638 17.9725 52.3619C17.9725 52.3283 17.9725 52.2948 18.006 52.2277V52.1941C18.006 52.1606 18.006 52.1271 18.0394 52.0935C18.0394 52.0264 18.0729 51.9929 18.0729 51.9258C18.1064 51.691 18.1733 51.4562 18.2068 51.2214C18.2402 51.0201 18.2737 50.8188 18.3072 50.6511V50.584C18.3072 50.5505 18.3072 50.517 18.3406 50.517V50.4499C18.3406 50.4163 18.3741 50.3492 18.3741 50.3157C18.3741 50.2821 18.3741 50.2486 18.4076 50.2151C18.4076 50.148 18.441 50.0809 18.441 50.0473C18.441 50.0138 18.4745 49.9467 18.4745 49.9132C18.4745 49.8461 18.508 49.779 18.508 49.7454C18.508 49.7119 18.508 49.6784 18.5414 49.6448C18.5414 49.6113 18.5414 49.5777 18.5749 49.5777C18.5749 49.5106 18.6084 49.4771 18.6084 49.4435V49.3429L18.7757 49.4435ZM59.3367 63.4649C59.8052 63.2971 60.2068 63.163 60.5415 63.0288C61.1773 62.7604 61.512 62.5592 61.512 62.4921C61.4785 62.425 61.1104 62.4586 60.4411 62.6263C60.1064 62.6934 59.7048 62.7604 59.2028 62.8946C58.9686 62.9617 58.7008 62.9953 58.4331 63.0288C58.1654 63.0623 57.8642 63.1294 57.563 63.163C56.9606 63.2636 56.2913 63.3307 55.555 63.3978L54.4506 63.4984C54.0825 63.532 53.6809 63.532 53.2793 63.5655C51.6729 63.599 49.8992 63.532 48.092 63.1965C47.155 63.0288 45.8498 62.5927 44.9462 62.0896L44.9128 62.056C45.4482 60.144 47.4562 59.8757 47.4562 59.8757L47.3893 59.8421H47.2889C46.9877 59.8086 46.7534 59.775 46.5191 59.7415C46.3518 59.708 46.2179 59.708 46.1175 59.6744C46.0172 59.6744 45.9168 59.6409 45.8833 59.6409C44.6785 59.5738 44.0092 60.5801 43.8084 61.0162L43.708 61.2174C43.5407 61.62 43.4068 62.056 43.3733 62.5592C43.3064 63.4649 43.5406 64.4376 44.2434 65.2762C44.712 65.8465 45.5152 66.3496 46.5526 66.7522C45.649 66.1819 44.8458 65.075 44.8124 63.3642C45.8498 63.8003 47.0211 64.0687 47.9247 64.2364C49.8323 64.6054 51.7064 64.6389 53.3462 64.5383C53.7478 64.5047 54.1829 64.4712 54.551 64.4376C54.9526 64.3706 55.3207 64.337 55.6889 64.3035C56.4251 64.1693 57.061 64.0687 57.6968 63.9345C57.998 63.8674 58.2992 63.8003 58.567 63.6997C58.8682 63.6326 59.1024 63.5655 59.3367 63.4649Z" fill="#F2D2AC"/>
<path d="M57.7639 41.0576C58.7678 41.0911 59.4372 41.393 59.9057 41.8626C60.0061 41.4265 60.073 40.8898 60.0396 40.2861C60.0061 39.6487 59.8722 39.0785 59.6714 38.6424C59.6045 38.3741 59.2029 37.6696 58.7009 37.7032C58.0651 37.7367 57.5965 38.9778 57.6969 40.4538C57.6969 40.655 57.7304 40.8563 57.7639 41.0576ZM59.4372 44.848C59.4372 45.1164 59.5376 45.3512 59.6714 45.4518C59.9057 45.586 60.2069 45.3176 60.3408 44.8816C60.3408 44.848 60.3742 44.8145 60.3742 44.7809C60.4746 44.3784 60.3742 43.9759 60.14 43.8752C59.9057 43.7411 59.6045 44.0094 59.4706 44.4455C59.4706 44.5797 59.4372 44.7138 59.4372 44.848ZM54.8858 45.586C54.9862 45.7537 55.1535 45.9214 55.3543 46.0556C55.7894 46.3239 56.2579 46.3575 56.5256 46.1227L56.626 46.022C56.7264 45.8208 56.6929 45.5524 56.5256 45.2841C56.4252 45.1164 56.2579 44.9486 56.0571 44.848C55.622 44.5797 55.1535 44.5461 54.9192 44.7474C54.8858 44.7809 54.8523 44.8145 54.8188 44.8816C54.7184 45.0493 54.7519 45.3176 54.8858 45.586ZM71.5185 51.7245C71.485 51.7245 71.485 51.7245 71.5185 51.7245V51.7245ZM70.983 61.0161C70.3471 61.6199 69.6443 62.1902 68.8412 62.7269C65.3941 65.0749 60.575 66.9198 57.1615 67.3559C54.5846 67.7584 52.0746 67.8255 49.8993 67.5572C48.6276 67.3894 47.5232 67.1211 46.5527 66.7521C45.5152 66.3496 44.7121 65.8464 44.2435 65.2762C43.5407 64.4376 43.3399 63.4313 43.3734 62.5591C43.4069 62.0895 43.5073 61.6199 43.7081 61.2174L43.8085 61.0161C44.0427 60.5801 44.6786 59.5402 45.8834 59.6408C45.9168 59.6408 46.0172 59.6408 46.1176 59.6744C46.218 59.6744 46.3854 59.7079 46.5192 59.7415C46.7535 59.775 46.9878 59.8085 47.2889 59.8421H47.3893C50.7025 60.2446 53.8818 60.2111 56.8937 59.7415C61.2778 59.0706 65.3272 57.494 68.9416 55.0453C69.1424 54.9112 69.3097 54.777 69.5105 54.6428L71.485 51.691C65.4945 57.1586 58.9017 58.7351 53.8818 59.037C51.1376 59.2048 48.8619 59.0035 47.4228 58.8022C47.3559 58.8022 47.3224 58.8022 47.2889 58.7687C46.8539 58.7016 46.5192 58.6681 46.2515 58.6345C46.1176 58.6345 46.0172 58.601 45.9503 58.601C45.5822 58.5674 45.214 58.6345 44.8794 58.7352C44.2101 58.9364 43.6077 59.406 43.1726 60.0098C42.6372 60.7478 42.3025 61.7541 42.3025 62.7604C42.3025 63.599 42.5033 64.4711 42.9383 65.2762C42.9718 65.3097 42.9718 65.3433 43.0053 65.3768C43.0722 65.4775 43.1057 65.5445 43.1726 65.6452C43.2395 65.7458 43.3399 65.88 43.4403 65.9806C44.4778 67.2888 46.7535 68.228 49.7654 68.6306C51.8069 68.8989 54.183 68.8654 56.7599 68.4964C64.3902 67.1211 68.0045 64.6389 69.6778 62.9281C69.8117 62.794 69.9121 62.6933 70.0125 62.5591C70.6149 61.8547 70.8826 61.318 70.983 61.1168V61.0832C71.0165 61.0161 71.0165 60.9826 71.0165 60.9826L70.983 61.0161Z" fill="#664F44"/>
<path d="M46.7199 34.5165C46.4856 34.3824 46.2179 34.2817 45.9501 34.2147C45.7828 34.1811 45.6155 34.1476 45.4147 34.114C45.3478 34.114 45.2808 34.114 45.2139 34.0805C44.3103 34.0134 43.5406 34.1476 43.5406 34.1476C43.3733 34.1811 43.2059 34.2147 43.0721 34.2817C41.8673 34.6507 41.0306 35.2881 40.4282 36.026C39.9597 36.6298 39.625 37.2671 39.4577 37.9045C39.4242 37.9716 39.4242 38.0051 39.4242 38.0722C39.3908 38.2399 39.3238 38.4076 39.2904 38.5418C39.19 39.0785 39.123 39.5481 39.123 39.9506C39.123 40.4873 39.1565 40.8228 39.1565 40.8228C39.3573 40.3532 39.5916 39.9506 39.8258 39.5481C40.3948 38.5754 40.9972 37.7703 41.633 37.133C42.8378 35.8918 44.076 35.221 45.0131 34.8855C46.0171 34.5501 46.7199 34.5165 46.7199 34.5165ZM61.2107 32.8058L61.1773 32.7387C61.0434 32.571 60.8761 32.4033 60.6753 32.2691C60.2067 31.9672 59.5709 31.7995 58.7008 31.9672C58.7008 31.9672 57.6633 32.202 57.0609 32.9064C57.0609 32.9064 58.8681 32.1349 60.8091 33.5102C60.9765 33.6444 61.1773 33.7786 61.3446 33.9463C61.5119 34.114 61.7127 34.2817 61.88 34.5165C61.88 34.5165 61.8131 33.6779 61.3111 32.94C61.2777 32.8729 61.2442 32.8394 61.2107 32.8058Z" fill="#E9B784"/>
<path d="M46.9542 46.1563C47.6569 45.955 48.3932 45.7538 49.2299 45.5525C49.3637 44.9152 49.3972 44.1437 49.2968 43.3051C49.0625 41.3595 48.1924 39.85 47.3223 39.9507C46.4522 40.0513 45.9502 41.7285 46.1844 43.674C46.3183 44.6804 46.586 45.5525 46.9542 46.1563Z" fill="#664F44"/>
<path d="M42.9717 2.31458L41.1645 2.7171L41.5326 6.00439L36.747 3.5557L34.7725 4.15948L34.8059 4.19303L40.629 10.8347L40.696 10.8012L40.7629 10.7676C40.9302 10.667 41.131 10.5328 41.2984 10.4322C41.3653 10.3986 41.4322 10.3651 41.4992 10.298C41.7669 10.1303 42.0346 9.96256 42.3023 9.82839L39.8258 6.97716L43.8083 8.92271C43.9422 8.85562 44.0426 8.78853 44.1764 8.72144L43.8083 5.87022L45.6155 7.98348H45.649C45.8163 7.91639 45.9502 7.81576 46.1175 7.74867L46.1844 7.71513L46.2513 7.68158C46.2848 7.68158 46.3183 7.64804 46.3183 7.64804L46.5191 7.54741C46.5191 7.54741 46.5525 7.54741 46.5525 7.51387C46.7533 7.41323 46.9876 7.3126 47.1884 7.21197L42.9717 2.31458Z" fill="#FFD250"/>
<path d="M41.1979 2.81767V2.71704V2.81767ZM41.1979 2.71704L41.4656 2.64996C41.0306 2.44869 40.4951 2.31452 39.8927 2.21389C38.6879 2.04617 37.1485 2.21389 35.4083 2.64996C33.668 3.08603 31.6935 3.85753 29.6186 4.89739C25.4353 6.97711 20.817 10.1638 16.3325 14.2561C14.7596 15.665 13.3206 17.1409 11.9819 18.5833L17.4035 25.292C18.876 23.6819 20.4489 22.0718 22.1891 20.4953C24.4983 18.382 26.8409 16.5035 29.1501 14.8934C31.3923 13.3169 33.6345 11.9751 35.7429 10.9017L34.8059 6.60813L34.8393 4.19297L34.8059 4.15943L36.7804 3.55564L40.629 5.53472L40.5286 4.19297L41.1979 2.71704Z" fill="#4D9ED7"/>
<path d="M41.198 2.71704L40.5287 4.19297L40.6291 5.56826L41.5662 6.03788L41.198 2.71704ZM39.8259 6.9771L43.8419 8.95619L42.3024 9.82832L39.8259 6.9771ZM43.8419 5.87016L44.21 8.72138L45.649 7.98342L43.8419 5.87016Z" fill="#132134"/>
<path d="M58.9685 4.8303H59.7048C60.3741 4.8303 61.0099 4.93094 61.6123 5.06511C61.6458 5.06511 61.6793 5.06511 61.7127 5.09866H61.7462L61.8131 5.1322H61.8801C61.8131 5.09866 61.7462 5.03157 61.6793 4.99802C61.0099 4.72967 60.3072 4.56195 59.5709 4.46132C55.9566 3.99171 51.8068 5.33346 49.4641 6.27269C49.3303 6.33978 49.1964 6.37332 49.0625 6.44041C48.8617 6.54104 48.6609 6.60813 48.4601 6.70876C48.1255 6.84293 47.7908 7.01065 47.4227 7.17837C47.3557 7.21191 47.3223 7.21191 47.2554 7.24546C47.0546 7.34609 46.8203 7.44672 46.6195 7.54735C46.6195 7.54735 46.586 7.54735 46.586 7.5809L46.3852 7.68153C46.3518 7.68153 46.3183 7.71507 46.3183 7.71507H46.1844L46.151 7.74862C45.9836 7.8157 45.8498 7.88279 45.6824 7.98342H45.649C45.6155 8.01697 45.582 8.01697 45.5486 8.05051H45.5151C45.4816 8.05051 45.4482 8.08405 45.4482 8.08405C45.2139 8.21823 44.9797 8.31886 44.7454 8.45304C44.5781 8.55367 44.4107 8.62075 44.2434 8.72139H44.2099C44.0761 8.78847 43.9757 8.85556 43.8418 8.92265C43.4402 9.12391 43.0721 9.35872 42.6705 9.59352C42.637 9.62707 42.6036 9.62707 42.5366 9.66061C42.5032 9.69416 42.4697 9.69416 42.4362 9.7277C42.4028 9.76124 42.3693 9.76124 42.3358 9.79479L42.3024 9.82833C42.0346 9.99605 41.7669 10.1302 41.4992 10.2979C41.4322 10.3315 41.3653 10.365 41.2984 10.4321C41.131 10.5328 40.9302 10.6669 40.7629 10.7676L40.696 10.8011L40.6291 10.8346L39.1231 11.841C38.2864 12.4112 37.4832 12.9814 36.68 13.5852C36.5796 13.6523 36.4792 13.753 36.3788 13.82C34.2705 15.3966 32.2625 17.1073 30.3215 18.8516C28.28 20.7301 26.3055 22.6421 24.4649 24.5876C23.4609 25.5939 22.5908 26.4996 21.9215 27.2376C20.5159 28.747 19.7462 29.6863 19.7796 29.7198C19.7796 29.7198 19.9135 29.6192 20.1478 29.3844C19.9804 29.5856 19.7796 29.8204 19.6123 30.0217C22.6912 26.7344 26.0713 23.38 29.7191 20.2269C31.9279 18.3149 34.237 16.47 36.6131 14.7593C37.6506 14.0213 38.7215 13.2833 39.7924 12.5789C40.1271 12.3441 40.4952 12.1429 40.8298 11.908C40.9972 11.8074 41.1645 11.7068 41.3653 11.6062C41.4657 11.5391 41.5661 11.472 41.6665 11.4384C41.8673 11.3378 42.0346 11.2036 42.2354 11.103C42.4028 11.0024 42.6036 10.9017 42.7709 10.7676C42.8713 10.7005 42.9717 10.6669 43.0721 10.5998L43.7749 10.1973C43.9087 10.1302 44.0426 10.0296 44.1765 9.96251C44.6115 9.7277 45.0466 9.49289 45.5151 9.25809C45.5486 9.22454 45.582 9.22454 45.6155 9.191L45.8163 9.09037C45.9167 9.05682 45.9836 8.98974 46.084 8.95619C46.1175 8.92265 46.151 8.92265 46.1844 8.8891L46.3852 8.78847C46.3852 8.78847 46.4187 8.78847 46.4187 8.75493H46.4522C46.653 8.6543 46.8538 8.55367 47.0211 8.48658C47.0546 8.48658 47.088 8.45304 47.1215 8.41949L47.3223 8.31886C47.5565 8.21823 47.7573 8.1176 47.9916 8.01697C48.0585 7.98342 48.1255 7.94988 48.1589 7.91633C48.1924 7.91633 48.2259 7.88279 48.2593 7.88279C48.3263 7.84925 48.3932 7.8157 48.4601 7.8157C48.7279 7.71507 48.9621 7.5809 49.2299 7.48026C49.4641 7.37963 49.6649 7.279 49.8992 7.17837C51.1709 6.64167 52.3422 6.2056 53.4466 5.83662C55.5215 5.26637 57.3621 4.89739 58.9685 4.8303Z" fill="white"/>
</g>
<defs>
<clipPath id="clip0">
<rect width="75" height="85" fill="white"/>
</clipPath>
</defs>
</svg>
