<svg width="26" height="25" viewBox="0 0 26 25" fill="none" xmlns="http://www.w3.org/2000/svg">
<g clip-path="url(#clip0)">
<path d="M12.8751 0C5.97083 0 0.375122 5.5957 0.375122 12.5C0.375122 17.7979 3.67102 22.3193 8.31946 24.1406C8.21204 23.1494 8.1095 21.6357 8.3634 20.5566C8.5929 19.5801 9.82825 14.3457 9.82825 14.3457C9.82825 14.3457 9.45227 13.5986 9.45227 12.4902C9.45227 10.752 10.4581 9.45313 11.713 9.45313C12.7775 9.45313 13.295 10.2539 13.295 11.2158C13.295 12.29 12.6114 13.8916 12.2599 15.376C11.9669 16.6211 12.8849 17.6367 14.1105 17.6367C16.3322 17.6367 18.0411 15.293 18.0411 11.9141C18.0411 8.9209 15.8927 6.82617 12.8214 6.82617C9.26672 6.82617 7.17688 9.49219 7.17688 12.251C7.17688 13.3252 7.59192 14.4775 8.1095 15.1025C8.21204 15.2246 8.22668 15.3369 8.19739 15.459C8.10461 15.8545 7.88977 16.7041 7.85071 16.875C7.797 17.1045 7.67004 17.1533 7.43079 17.041C5.86829 16.3135 4.89172 14.0332 4.89172 12.1973C4.89172 8.25195 7.75793 4.63379 13.1486 4.63379C17.4845 4.63379 20.8536 7.72461 20.8536 11.8555C20.8536 16.1621 18.1388 19.6289 14.3693 19.6289C13.1046 19.6289 11.9132 18.9697 11.5031 18.1934C11.5031 18.1934 10.8781 20.5811 10.7267 21.167C10.4435 22.251 9.68176 23.6133 9.17395 24.4434C10.3458 24.8047 11.5861 25 12.8751 25C19.7794 25 25.3751 19.4043 25.3751 12.5C25.3751 5.5957 19.7794 0 12.8751 0Z" fill="#17283F"/>
</g>
<defs>
<clipPath id="clip0">
<rect width="25" height="25" fill="white" transform="translate(0.375122)"/>
</clipPath>
</defs>
</svg>
