<svg width="105" height="19" viewBox="0 0 105 19" fill="none" xmlns="http://www.w3.org/2000/svg">
<path d="M52.0601 0L54.1929 6.56434H61.0951L55.5111 10.6213L57.644 17.1857L52.0601 13.1287L46.4761 17.1857L48.609 10.6213L43.025 6.56434H49.9272L52.0601 0Z" fill="#FF8200"/>
<path d="M30.78 0L32.9129 6.56434H39.8151L34.2311 10.6213L36.364 17.1857L30.78 13.1287L25.1961 17.1857L27.329 10.6213L21.745 6.56434H28.6471L30.78 0Z" fill="#FF8200"/>
<path d="M9.5 0L11.6329 6.56434H18.535L12.9511 10.6213L15.084 17.1857L9.5 13.1287L3.91604 17.1857L6.04892 10.6213L0.464963 6.56434H7.36712L9.5 0Z" fill="#FF8200"/>
<path d="M73.3401 0L75.473 6.56434H82.3751L76.7912 10.6213L78.924 17.1857L73.3401 13.1287L67.7561 17.1857L69.889 10.6213L64.3051 6.56434H71.2072L73.3401 0Z" fill="#FF8200"/>
<path fill-rule="evenodd" clip-rule="evenodd" d="M95.035 0L92.9022 6.56434H86L91.584 10.6213L89.4511 17.1857L95.035 13.1287V0Z" fill="#FF8200"/>
<path fill-rule="evenodd" clip-rule="evenodd" d="M95.0001 0L97.133 6.56434H104.035L98.4512 10.6213L100.584 17.1857L95.0001 13.1287V0Z" fill="#C4C4C4"/>
</svg>
