<svg width="24" height="24" viewBox="0 0 45 44" fill="none" xmlns="http://www.w3.org/2000/svg">
<path d="M39.0629 27.5023V34.7283C39.0629 35.6865 38.6822 36.6055 38.0047 37.2831C37.3271 37.9606 36.4081 38.3413 35.4499 38.3413H10.159C9.20078 38.3413 8.28181 37.9606 7.60424 37.2831C6.92667 36.6055 6.54602 35.6865 6.54602 34.7283V27.5023" stroke="#FF4655" stroke-width="2.34356" stroke-linecap="round" stroke-linejoin="round"/>
<path d="M23.0487 20.5849C25.0441 20.5849 26.6616 18.9673 26.6616 16.9719C26.6616 14.9765 25.0441 13.3589 23.0487 13.3589C21.0533 13.3589 19.4357 14.9765 19.4357 16.9719C19.4357 18.9673 21.0533 20.5849 23.0487 20.5849Z" stroke="#FF4655" stroke-width="2.34356" stroke-linecap="round" stroke-linejoin="round"/>
<path d="M31.2138 20.4205C31.0608 20.7672 31.0151 21.1519 31.0827 21.5248C31.1504 21.8977 31.3281 22.2418 31.5932 22.5127L31.6621 22.5817C31.8759 22.7953 32.0455 23.0488 32.1612 23.3279C32.2769 23.6071 32.3364 23.9062 32.3364 24.2084C32.3364 24.5105 32.2769 24.8097 32.1612 25.0888C32.0455 25.3679 31.8759 25.6215 31.6621 25.8351C31.4486 26.0488 31.195 26.2184 30.9159 26.3341C30.6368 26.4498 30.3376 26.5094 30.0355 26.5094C29.7333 26.5094 29.4341 26.4498 29.155 26.3341C28.8759 26.2184 28.6223 26.0488 28.4088 25.8351L28.3398 25.7661C28.0689 25.5011 27.7248 25.3233 27.3519 25.2557C26.9789 25.188 26.5943 25.2337 26.2476 25.3867C25.9076 25.5324 25.6176 25.7744 25.4133 26.0828C25.2091 26.3913 25.0995 26.7527 25.098 27.1226V27.318C25.098 27.9278 24.8558 28.5126 24.4246 28.9438C23.9934 29.375 23.4086 29.6172 22.7988 29.6172C22.189 29.6172 21.6042 29.375 21.1731 28.9438C20.7419 28.5126 20.4996 27.9278 20.4996 27.318V27.2146C20.4907 26.834 20.3676 26.465 20.1462 26.1554C19.9247 25.8459 19.6153 25.6101 19.2581 25.4787C18.9114 25.3257 18.5267 25.28 18.1538 25.3476C17.7809 25.4152 17.4368 25.593 17.1658 25.858L17.0969 25.927C16.8833 26.1408 16.6298 26.3104 16.3507 26.4261C16.0715 26.5418 15.7724 26.6013 15.4702 26.6013C15.1681 26.6013 14.8689 26.5418 14.5898 26.4261C14.3106 26.3104 14.0571 26.1408 13.8435 25.927C13.6298 25.7135 13.4602 25.4599 13.3445 25.1808C13.2288 24.9017 13.1692 24.6025 13.1692 24.3004C13.1692 23.9982 13.2288 23.699 13.3445 23.4199C13.4602 23.1408 13.6298 22.8872 13.8435 22.6737L13.9125 22.6047C14.1775 22.3338 14.3553 21.9897 14.4229 21.6167C14.4906 21.2438 14.4449 20.8592 14.2919 20.5125C14.1462 20.1725 13.9042 19.8825 13.5958 19.6782C13.2873 19.474 12.9259 19.3644 12.556 19.3629H12.3606C11.7508 19.3629 11.166 19.1206 10.7348 18.6895C10.3036 18.2583 10.0614 17.6735 10.0614 17.0637C10.0614 16.4539 10.3036 15.8691 10.7348 15.4379C11.166 15.0068 11.7508 14.7645 12.3606 14.7645H12.464C12.8445 14.7556 13.2136 14.6325 13.5232 14.4111C13.8327 14.1896 14.0685 13.8802 14.1999 13.523C14.3529 13.1762 14.3986 12.7916 14.331 12.4187C14.2634 12.0458 14.0856 11.7017 13.8205 11.4307L13.7516 11.3618C13.5378 11.1482 13.3682 10.8947 13.2525 10.6155C13.1368 10.3364 13.0773 10.0372 13.0773 9.7351C13.0773 9.43295 13.1368 9.13377 13.2525 8.85465C13.3682 8.57554 13.5378 8.32196 13.7516 8.10843C13.9651 7.89466 14.2187 7.72508 14.4978 7.60937C14.7769 7.49367 15.0761 7.43412 15.3782 7.43412C15.6804 7.43412 15.9796 7.49367 16.2587 7.60937C16.5378 7.72508 16.7914 7.89466 17.0049 8.10843L17.0739 8.17741C17.3448 8.44243 17.6889 8.62021 18.0618 8.68783C18.4348 8.75545 18.8194 8.7098 19.1661 8.55677H19.2581C19.5981 8.41105 19.8881 8.16908 20.0923 7.86066C20.2966 7.55223 20.4062 7.19082 20.4077 6.8209V6.62547C20.4077 6.01569 20.6499 5.43088 21.0811 4.99971C21.5123 4.56853 22.0971 4.32629 22.7069 4.32629C23.3166 4.32629 23.9014 4.56853 24.3326 4.99971C24.7638 5.43088 25.006 6.01569 25.006 6.62547V6.72893C25.0075 7.09885 25.1171 7.46027 25.3214 7.76869C25.5256 8.07711 25.8156 8.31908 26.1556 8.4648C26.5023 8.61783 26.887 8.66348 27.2599 8.59586C27.6328 8.52824 27.9769 8.35046 28.2479 8.08544L28.3168 8.01647C28.5304 7.8027 28.7839 7.63311 29.0631 7.51741C29.3422 7.4017 29.6414 7.34215 29.9435 7.34215C30.2456 7.34215 30.5448 7.4017 30.8239 7.51741C31.1031 7.63311 31.3566 7.8027 31.5702 8.01647C31.7839 8.23 31.9535 8.48357 32.0692 8.76268C32.1849 9.0418 32.2445 9.34098 32.2445 9.64313C32.2445 9.94528 32.1849 10.2445 32.0692 10.5236C31.9535 10.8027 31.7839 11.0563 31.5702 11.2698L31.5012 11.3388C31.2362 11.6097 31.0584 11.9538 30.9908 12.3267C30.9232 12.6997 30.9688 13.0843 31.1218 13.431V13.523C31.2676 13.863 31.5095 14.153 31.8179 14.3572C32.1264 14.5615 32.4878 14.6711 32.8577 14.6726H33.0531C33.6629 14.6726 34.2477 14.9148 34.6789 15.346C35.1101 15.7772 35.3523 16.362 35.3523 16.9717C35.3523 17.5815 35.1101 18.1663 34.6789 18.5975C34.2477 19.0287 33.6629 19.2709 33.0531 19.2709H32.9497C32.5797 19.2724 32.2183 19.382 31.9099 19.5863C31.6015 19.7905 31.3595 20.0805 31.2138 20.4205V20.4205Z" stroke="#FF4655" stroke-width="2.34356" stroke-linecap="round" stroke-linejoin="round"/>
</svg>
