<svg width="263" height="220" viewBox="0 0 263 220" fill="none" xmlns="http://www.w3.org/2000/svg">
<g opacity="0.41">
<g opacity="0.41">
<path opacity="0.41" d="M262.865 140.22C263.112 135.926 263.03 131.631 262.534 127.337C260.222 107.269 249.982 88.3572 234.786 74.9786C229.418 70.1888 223.224 65.977 219.673 59.618C213.727 49.0473 214.223 36.8249 206.873 26.4193C199.523 15.9311 188.787 7.7553 176.647 3.6261C140.558 -8.84408 90.0164 11.4716 94.5586 54.9933C94.5586 55.1585 94.5586 55.4062 94.6411 55.654C95.2192 64.6556 88.1996 72.2534 79.1154 72.5011C45.834 73.327 17.1774 98.928 11.0662 131.466C7.10213 152.36 13.5437 175.318 28.9043 190.101C40.3009 201.167 55.6615 207.196 70.9395 211.407C101.661 219.748 134.034 221.483 165.663 218.344C195.311 215.371 226.61 206.865 245.77 183.989C256.093 171.767 261.956 156.159 262.865 140.22Z" fill="#C5D9FF"/>
</g>
</g>
<g opacity="0.88">
<g opacity="0.88">
<path d="M235.447 142.285C235.612 138.899 235.529 135.513 235.199 132.21C233.382 116.519 225.372 101.654 213.479 91.1654C209.268 87.4491 204.395 84.0632 201.67 79.1907C197.045 70.9324 197.376 61.3526 191.595 53.1768C185.814 45.001 177.39 38.5594 167.976 35.2561C139.732 25.4286 100.174 41.4499 103.725 75.4745C103.725 75.5571 103.725 75.8048 103.808 75.97C104.303 83.0722 98.7703 89.0182 91.6681 89.1834C65.5716 89.7615 43.1087 109.912 38.3189 135.348C35.2632 151.699 40.3009 169.703 52.2755 181.265C61.1946 189.936 73.2519 194.643 85.2265 197.946C109.258 204.471 134.612 205.875 159.47 203.397C182.676 201.085 207.203 194.395 222.233 176.475C230.161 166.978 234.704 154.755 235.447 142.285Z" fill="#E3EDFF"/>
</g>
</g>
<path d="M255.536 34.2845C256.578 29.891 253.861 25.485 249.467 24.4433C245.074 23.4016 240.668 26.1188 239.626 30.5122C238.584 34.9057 241.301 39.3117 245.695 40.3534C250.088 41.3951 254.494 38.6779 255.536 34.2845Z" fill="#E3EDFF"/>
<path d="M75.3531 29.6336C79.0297 25.957 79.0297 19.9961 75.3531 16.3195C71.6765 12.643 65.7156 12.643 62.039 16.3195C58.3624 19.9961 58.3624 25.957 62.039 29.6336C65.7156 33.3102 71.6765 33.3102 75.3531 29.6336Z" fill="#E3EDFF"/>
<path opacity="0.31" d="M12.2224 216.527C18.9727 216.527 24.4449 211.055 24.4449 204.305C24.4449 197.555 18.9727 192.083 12.2224 192.083C5.47217 192.083 0 197.555 0 204.305C0 211.055 5.47217 216.527 12.2224 216.527Z" fill="#A5C4FF"/>
<path d="M108.433 108.095C132.287 108.095 151.624 88.7573 151.624 64.9033C151.624 41.0494 132.287 21.7119 108.433 21.7119C84.5788 21.7119 65.2413 41.0494 65.2413 64.9033C65.2413 88.7573 84.5788 108.095 108.433 108.095Z" fill="#0678EE"/>
<path d="M138.411 96.0374C138.328 96.0374 138.163 96.0374 138.08 95.9548C137.915 95.7896 137.915 95.5419 138.08 95.3767C146.174 87.2835 150.633 76.5476 150.633 65.151C150.633 53.7544 146.174 42.9359 138.08 34.9252C129.987 26.832 119.251 22.3725 107.855 22.3725C96.458 22.3725 85.6395 26.832 77.6288 34.9252C77.4637 35.0904 77.2159 35.0904 77.0508 34.9252C76.8856 34.7601 76.8856 34.5123 77.0508 34.3471C85.3092 26.0887 96.2102 21.5466 107.937 21.5466C119.581 21.5466 130.565 26.0887 138.824 34.3471C147.082 42.6055 151.624 53.5066 151.624 65.2336C151.624 76.9605 147.082 87.8616 138.824 96.12C138.658 95.9548 138.493 96.0374 138.411 96.0374Z" fill="#243762"/>
<path d="M108.433 97.772C126.586 97.772 141.301 83.0563 141.301 64.9036C141.301 46.7508 126.586 32.0352 108.433 32.0352C90.2801 32.0352 75.5645 46.7508 75.5645 64.9036C75.5645 83.0563 90.2801 97.772 108.433 97.772Z" fill="white"/>
<path d="M108.433 98.185C90.0991 98.185 75.1514 83.2373 75.1514 64.9036C75.1514 46.57 90.0991 31.6223 108.433 31.6223C108.68 31.6223 108.846 31.7875 108.846 32.0352C108.846 32.283 108.68 32.4482 108.433 32.4482C90.512 32.4482 75.9772 46.9829 75.9772 64.9036C75.9772 82.8244 90.512 97.3591 108.433 97.3591C108.68 97.3591 108.846 97.5243 108.846 97.7721C108.846 98.0198 108.598 98.185 108.433 98.185Z" fill="#243762"/>
<path d="M116.939 71.1795H108.02C106.203 71.1795 104.716 69.693 104.716 67.8762V55.4886C104.716 53.9195 106.038 52.5981 107.607 52.5981C109.176 52.5981 110.497 53.9195 110.497 55.4886V65.3987H117.021C118.591 65.3987 119.912 66.72 119.912 68.2891C119.912 69.8582 118.508 71.1795 116.939 71.1795Z" fill="#13233C"/>
<path d="M41.2919 79.9331L87.8692 126.51C96.9535 135.595 111.736 135.595 120.82 126.51L126.353 120.977C128.418 118.913 128.418 115.444 126.353 113.38L107.359 94.3853C105.294 92.3207 101.826 92.3207 99.7613 94.3853L90.2642 103.882C89.5209 104.626 88.2821 104.626 87.5389 103.882L64.5805 80.7589C63.8373 80.0156 63.8373 78.8595 64.5805 78.1162L73.9125 68.7842C75.9771 66.7196 75.9771 63.2511 73.9125 61.1865L54.4227 41.6141C52.3581 39.5495 48.9722 39.5495 46.9076 41.5315L41.6222 46.6517C32.2076 55.736 32.1251 70.6837 41.2919 79.9331Z" fill="#13233C"/>
<path d="M42.7784 47.5601L68.9575 73.7393L69.8659 72.8308L73.9951 68.7016C76.0597 66.637 76.0597 63.1685 73.9951 61.1039L54.4227 41.6141C52.3581 39.5495 48.9722 39.5495 46.9076 41.5315L41.6222 46.6517L42.7784 47.5601Z" fill="#ECF1F7"/>
<path d="M68.9577 74.3179L42.5308 47.8911L41.0443 46.6523L46.66 41.2018C48.8898 39.0546 52.5235 39.0546 54.7533 41.2844L74.2431 60.7742C76.4728 63.0039 76.4728 66.7202 74.2431 68.95L68.9577 74.3179ZM42.2005 46.6523L43.0263 47.313L68.8751 73.1618L73.5824 68.4545C74.4908 67.5461 75.0689 66.3073 75.0689 64.9034C75.0689 63.582 74.5734 62.3433 73.5824 61.3523L54.1752 41.945C52.2757 40.0456 49.1375 40.0456 47.2381 41.8624L42.2005 46.6523Z" fill="#243762"/>
<path d="M95.9625 99.9188L122.142 126.098L123.05 125.189L127.179 121.06C129.244 118.996 129.244 115.527 127.179 113.463L107.689 93.9728C105.625 91.9082 102.239 91.9081 100.174 93.8902L94.8889 99.0104L95.9625 99.9188Z" fill="#ECF1F7"/>
<path d="M122.142 126.676L95.7148 100.249L94.2283 99.0102L99.844 93.5597C102.074 91.4125 105.707 91.4125 107.937 93.6423L127.427 113.132C128.501 114.206 129.161 115.692 129.161 117.261C129.161 118.83 128.583 120.234 127.427 121.39L122.142 126.676ZM95.467 98.9276L96.2929 99.5883L122.142 125.437L126.849 120.73C127.757 119.821 128.335 118.583 128.335 117.179C128.335 115.857 127.84 114.619 126.849 113.628L107.359 94.2204C105.46 92.3209 102.321 92.3209 100.422 94.1378L95.467 98.9276Z" fill="#243762"/>
<path d="M60.6991 60.8563C60.6165 60.8563 60.4513 60.8563 60.3688 60.7737L44.5125 44.835C44.3474 44.6699 44.3474 44.4221 44.5125 44.2569C44.6777 44.0918 44.9255 44.0918 45.0906 44.2569L61.0294 60.1956C61.1946 60.3608 61.1946 60.6086 61.0294 60.7737C60.9469 60.8563 60.7817 60.8563 60.6991 60.8563Z" fill="#243762"/>
<path d="M124.124 124.281C124.041 124.281 123.876 124.281 123.793 124.198L107.855 108.177C107.689 108.012 107.689 107.764 107.855 107.599C108.02 107.434 108.268 107.434 108.433 107.599L124.371 123.538C124.537 123.703 124.537 123.951 124.371 124.116C124.289 124.198 124.206 124.281 124.124 124.281Z" fill="#243762"/>
<path d="M194.072 205.709L133.043 196.707C126.106 195.716 121.398 189.275 122.389 182.338L144.274 34.3472C145.265 27.4102 151.707 22.7029 158.644 23.6939L219.673 32.7781C226.61 33.7691 231.318 40.2107 230.327 47.1477L208.442 195.138C207.368 201.993 200.927 206.783 194.072 205.709Z" fill="#13233C"/>
<path d="M149.015 37.6091L128.354 177.302L204.083 188.503L224.743 48.8091L149.015 37.6091Z" fill="#ECF1F7"/>
<path d="M149.067 37.5883L147.521 48.0449L223.25 59.245L224.796 48.7884L149.067 37.5883Z" fill="#0678EE"/>
<path d="M175.904 36.2467C175.821 36.2467 175.739 36.2467 175.656 36.2467C175.243 36.1641 174.83 35.9989 174.582 35.586C174.335 35.2556 174.252 34.8427 174.252 34.4298C174.252 34.0169 174.5 33.604 174.913 33.3562C175.243 33.1085 175.656 33.0259 176.069 33.0259C176.482 33.1085 176.895 33.2736 177.143 33.6866C177.39 34.0169 177.473 34.4298 177.473 34.8427C177.39 35.6686 176.73 36.2467 175.904 36.2467ZM175.904 33.8517C175.739 33.8517 175.573 33.9343 175.491 34.0169C175.326 34.0995 175.243 34.3472 175.161 34.5124C175.161 34.6776 175.161 34.9253 175.326 35.0905C175.408 35.2556 175.656 35.3382 175.821 35.4208C175.986 35.4208 176.234 35.4208 176.399 35.2556C176.564 35.1731 176.647 34.9253 176.73 34.7601C176.73 34.595 176.73 34.3472 176.564 34.1821C176.482 34.0169 176.234 33.9343 176.069 33.8517C175.986 33.8517 175.986 33.8517 175.904 33.8517Z" fill="#ECF1F7"/>
<path d="M200.514 39.8803C200.431 39.8803 200.349 39.8803 200.266 39.8803L180.941 36.9898C180.528 36.9072 180.116 36.7421 179.868 36.3291C179.62 35.9988 179.537 35.5859 179.537 35.173C179.62 34.76 179.785 34.3471 180.198 34.0994C180.528 33.8516 180.941 33.769 181.354 33.769L200.679 36.6595C201.092 36.7421 201.505 36.9072 201.753 37.3202C202 37.6505 202.083 38.0634 202.083 38.4763C202 38.8892 201.835 39.3022 201.422 39.5499C201.174 39.7977 200.844 39.8803 200.514 39.8803ZM181.189 34.6775C180.776 34.6775 180.528 34.9252 180.446 35.3381C180.446 35.5033 180.446 35.7511 180.611 35.9162C180.694 36.0814 180.941 36.164 181.107 36.2466L200.431 39.137C200.844 39.2196 201.257 38.8892 201.34 38.4763C201.34 38.3112 201.34 38.0634 201.174 37.8982C201.092 37.7331 200.844 37.6505 200.679 37.5679L181.272 34.6775C181.272 34.6775 181.272 34.6775 181.189 34.6775Z" fill="#ECF1F7"/>
<path d="M204.478 145.753L151.624 137.908C150.798 137.742 149.972 138.403 149.807 139.229L147.743 152.938C147.577 153.764 148.238 154.59 149.064 154.755L194.237 161.444L198.862 167.886L199.688 162.27L201.835 162.6C202.661 162.765 203.487 162.105 203.652 161.279L205.717 147.57C205.882 146.661 205.304 145.918 204.478 145.753Z" fill="#C5D9FF"/>
<path d="M194.32 161.857C194.237 161.857 194.237 161.857 194.32 161.857L149.064 155.168C148.569 155.085 148.073 154.837 147.743 154.424C147.412 154.011 147.33 153.433 147.412 152.938L149.477 139.229C149.642 138.155 150.633 137.412 151.707 137.577L163.929 139.394C164.177 139.394 164.342 139.642 164.259 139.89C164.259 140.137 164.012 140.302 163.764 140.22L151.542 138.403C150.881 138.32 150.303 138.733 150.22 139.394L148.156 153.103C148.073 153.433 148.156 153.681 148.403 153.929C148.569 154.177 148.899 154.342 149.147 154.424L194.32 161.114C194.568 161.114 194.733 161.361 194.65 161.609C194.65 161.692 194.485 161.857 194.32 161.857Z" fill="#243762"/>
<path d="M212.819 88.9347L159.965 81.0892C159.139 80.924 158.313 81.5847 158.148 82.4105L156.084 96.1195C155.919 96.9453 156.579 97.7712 157.405 97.9363L202.578 104.626L207.203 111.067L208.029 105.451L210.176 105.782C211.002 105.947 211.828 105.286 211.993 104.46L214.058 90.7515C214.305 89.8431 213.727 89.0998 212.819 88.9347Z" fill="#C5D9FF"/>
<path d="M207.616 112.141L202.496 105.039L157.488 98.3493C156.414 98.1841 155.671 97.1931 155.836 96.1195C155.836 95.8717 156.084 95.7066 156.331 95.7892C156.579 95.7892 156.744 96.0369 156.662 96.2847C156.579 96.615 156.662 96.8627 156.909 97.1105C157.075 97.3582 157.405 97.5234 157.653 97.606L202.991 104.295L207.12 110.076L207.864 105.039L210.424 105.451C210.754 105.534 211.002 105.451 211.25 105.204C211.497 105.039 211.663 104.708 211.745 104.46L213.067 95.3762C213.067 95.1285 213.314 94.9633 213.562 95.0459C213.81 95.0459 213.975 95.2936 213.892 95.5414L212.571 104.626C212.488 105.121 212.241 105.617 211.828 105.947C211.415 106.277 210.837 106.36 210.341 106.277L208.607 106.03L207.616 112.141Z" fill="#243762"/>
<path d="M145.926 106.608L198.78 114.454C199.605 114.619 200.266 115.362 200.101 116.271L198.036 129.979C197.871 130.805 197.128 131.466 196.219 131.301L151.046 124.612L144.77 129.401L145.595 123.786L143.448 123.455C142.622 123.29 141.962 122.547 142.127 121.639L144.192 107.93C144.274 107.104 145.1 106.443 145.926 106.608Z" fill="#0678EE"/>
<path d="M196.55 131.713C196.467 131.713 196.385 131.713 196.22 131.713L167.976 127.502C167.728 127.502 167.563 127.254 167.646 127.006C167.646 126.758 167.893 126.593 168.141 126.676L196.385 130.888C196.715 130.97 196.963 130.888 197.211 130.64C197.458 130.475 197.623 130.144 197.706 129.897L199.771 116.188C199.853 115.527 199.44 114.949 198.78 114.866C198.532 114.866 198.367 114.619 198.449 114.371C198.449 114.123 198.697 113.958 198.945 114.041C200.018 114.206 200.762 115.197 200.597 116.27L198.532 129.979C198.449 130.475 198.202 130.97 197.789 131.301C197.376 131.548 196.963 131.713 196.55 131.713Z" fill="#243762"/>
<path d="M130.233 164.469L128.336 177.295L204.064 188.495L205.961 175.669L130.233 164.469Z" fill="white"/>
<path d="M141.466 172.51C141.053 174.987 138.741 176.804 136.264 176.391C133.786 175.979 131.969 173.666 132.382 171.189C132.795 168.711 135.107 166.894 137.585 167.307C140.062 167.72 141.797 170.032 141.466 172.51Z" fill="#C5D9FF"/>
<path opacity="0.33" d="M197.293 185.063C197.128 185.063 196.88 185.063 196.715 184.981L147.577 177.713C146.504 177.548 145.513 176.97 144.852 176.061C144.191 175.153 143.944 174.079 144.109 173.006C144.439 170.776 146.504 169.207 148.816 169.537L197.954 176.805C200.183 177.135 201.752 179.2 201.422 181.429C201.092 183.577 199.358 185.063 197.293 185.063ZM196.88 184.155C198.697 184.402 200.349 183.164 200.596 181.347C200.761 180.438 200.514 179.613 200.018 178.869C199.523 178.126 198.697 177.713 197.871 177.548L148.734 170.281C146.917 170.033 145.265 171.272 145.017 173.088C144.852 173.997 145.1 174.823 145.595 175.566C146.091 176.309 146.917 176.722 147.743 176.887L196.88 184.155Z" fill="#AF9CDA"/>
<path d="M153.771 45.0831C153.689 45.0831 153.606 45.0831 153.523 45.0831C152.615 44.9179 152.037 44.0921 152.12 43.2662C152.202 42.8533 152.45 42.4404 152.78 42.1926C153.111 41.9449 153.523 41.8623 154.019 41.8623C154.927 42.0275 155.505 42.8533 155.423 43.6792C155.258 44.505 154.514 45.0831 153.771 45.0831ZM153.771 42.6881C153.606 42.6881 153.441 42.7707 153.276 42.8533C153.111 43.0185 153.028 43.1836 152.945 43.3488C152.945 43.5966 152.945 43.7617 153.111 43.9269C153.276 44.0921 153.441 44.1747 153.606 44.2572C154.019 44.3398 154.432 44.0095 154.514 43.5966C154.514 43.3488 154.514 43.1836 154.349 43.0185C154.184 42.8533 154.019 42.7707 153.854 42.6881C153.854 42.6881 153.771 42.6881 153.771 42.6881Z" fill="white"/>
<path d="M158.231 45.7437C158.148 45.7437 158.066 45.7437 157.983 45.7437C157.075 45.5786 156.497 44.7527 156.579 43.9269C156.744 43.0185 157.57 42.4404 158.396 42.523C158.809 42.6055 159.222 42.7707 159.47 43.1836C159.717 43.514 159.8 43.9269 159.8 44.4224C159.717 44.8353 159.47 45.2482 159.139 45.496C158.891 45.6612 158.561 45.7437 158.231 45.7437ZM158.231 43.3488C157.818 43.3488 157.488 43.5966 157.488 44.0095C157.488 44.2572 157.488 44.4224 157.653 44.5876C157.818 44.7527 157.983 44.8353 158.148 44.9179C158.396 44.9179 158.561 44.9179 158.726 44.7527C158.891 44.5876 158.974 44.4224 159.057 44.2572C159.057 44.0095 159.057 43.8443 158.891 43.6791C158.726 43.514 158.561 43.4314 158.396 43.3488C158.313 43.3488 158.231 43.3488 158.231 43.3488Z" fill="white"/>
<path d="M162.608 46.4046C162.525 46.4046 162.443 46.4046 162.36 46.4046C161.452 46.2395 160.874 45.4136 161.039 44.5878C161.204 43.6794 162.03 43.1013 162.856 43.1839C163.764 43.349 164.342 44.1749 164.26 45.0007C164.094 45.8265 163.351 46.4046 162.608 46.4046ZM162.608 44.0097C162.443 44.0097 162.278 44.0923 162.112 44.1749C161.947 44.34 161.865 44.5052 161.782 44.6704C161.782 44.9181 161.782 45.0833 161.947 45.2484C162.112 45.4136 162.277 45.4962 162.443 45.5788C162.856 45.6614 163.269 45.331 163.351 44.9181C163.434 44.5052 163.103 44.0923 162.69 44.0097C162.69 44.0097 162.608 44.0097 162.608 44.0097Z" fill="white"/>
<path d="M224.298 59.7832C224.298 59.7832 224.215 59.7832 224.298 59.7832L154.102 49.3776C153.854 49.3776 153.689 49.1298 153.771 48.8821C153.771 48.6343 154.019 48.4692 154.267 48.5518L224.381 58.9573C224.628 58.9573 224.794 59.2051 224.711 59.4528C224.628 59.7006 224.463 59.7832 224.298 59.7832Z" fill="#243762"/>
<path d="M195.063 148.891C194.981 148.891 194.981 148.891 195.063 148.891L157.57 143.358C157.322 143.358 157.157 143.11 157.24 142.862C157.24 142.615 157.488 142.449 157.735 142.532L195.146 148.065C195.394 148.065 195.559 148.313 195.476 148.561C195.394 148.726 195.228 148.891 195.063 148.891Z" fill="white"/>
<path d="M172.848 150.213L156.909 147.818C156.662 147.818 156.496 147.57 156.579 147.323C156.579 147.075 156.827 146.91 157.074 146.992L173.013 149.387C173.261 149.387 173.426 149.635 173.344 149.883C173.261 150.048 173.096 150.213 172.848 150.213Z" fill="white"/>
<path d="M167.48 153.681L156.249 152.029C156.001 152.029 155.836 151.781 155.918 151.533C155.918 151.286 156.166 151.121 156.414 151.203L167.563 152.855C167.811 152.855 167.976 153.103 167.893 153.35C167.893 153.515 167.728 153.681 167.48 153.681Z" fill="white"/>
<path d="M194.403 153.35C194.403 153.35 194.32 153.35 194.403 153.35L177.886 150.873C177.638 150.873 177.473 150.625 177.555 150.377C177.555 150.13 177.803 149.965 178.051 150.047L194.485 152.442C194.733 152.442 194.898 152.69 194.815 152.938C194.733 153.268 194.568 153.35 194.403 153.35Z" fill="white"/>
<path d="M190.439 117.84L152.945 112.307C152.698 112.307 152.533 112.059 152.615 111.811C152.615 111.564 152.863 111.398 153.111 111.481L190.521 117.014C190.769 117.014 190.934 117.262 190.851 117.51C190.851 117.675 190.686 117.84 190.439 117.84Z" fill="white"/>
<path d="M168.306 119.161L152.285 116.766C152.037 116.766 151.872 116.519 151.955 116.271C151.955 116.023 152.202 115.858 152.45 115.94L168.389 118.335C168.637 118.335 168.802 118.583 168.719 118.831C168.719 118.996 168.554 119.161 168.306 119.161Z" fill="white"/>
<path d="M184.906 125.851C184.823 125.851 184.823 125.851 184.906 125.851L152.533 120.813C152.285 120.813 152.12 120.565 152.202 120.317C152.202 120.07 152.45 119.904 152.698 119.987L184.988 125.025C185.236 125.025 185.401 125.272 185.318 125.52C185.236 125.685 185.071 125.851 184.906 125.851Z" fill="white"/>
<path d="M189.778 122.299L173.261 119.822C173.013 119.822 172.848 119.574 172.931 119.326C172.931 119.079 173.179 118.914 173.426 118.996L189.861 121.391C190.108 121.391 190.274 121.639 190.191 121.887C190.191 122.134 190.026 122.299 189.778 122.299Z" fill="white"/>
<path d="M152.698 55.0757L205.551 62.9212C206.377 63.0864 207.038 63.8296 206.873 64.7381L204.808 78.447C204.643 79.2728 203.9 79.9335 202.991 79.7683L157.818 73.079L151.541 77.8689L152.367 72.2532L150.22 71.9229C149.394 71.7577 148.734 71.0144 148.899 70.106L150.963 56.3971C151.046 55.4887 151.872 54.9106 152.698 55.0757Z" fill="#0678EE"/>
<path d="M204.891 78.7775C204.643 78.7775 204.478 78.5298 204.478 78.282L206.542 64.5731C206.625 64.2428 206.542 63.995 206.295 63.7473C206.129 63.4995 205.799 63.3343 205.551 63.2518L172.766 58.3793C172.518 58.3793 172.353 58.1316 172.435 57.8838C172.435 57.6361 172.683 57.4709 172.931 57.5535L205.717 62.4259C206.212 62.5085 206.708 62.7563 207.038 63.1692C207.368 63.5821 207.451 64.1602 207.368 64.6557L205.304 78.4472C205.304 78.6124 205.056 78.7775 204.891 78.7775Z" fill="#243762"/>
<path d="M197.293 66.3072C197.21 66.3072 197.21 66.3072 197.293 66.3072L159.8 60.7741C159.552 60.7741 159.387 60.5263 159.47 60.2786C159.47 60.0308 159.717 59.8657 159.965 59.9482L197.376 65.4814C197.623 65.4814 197.789 65.7291 197.706 65.9769C197.623 66.142 197.458 66.3072 197.293 66.3072Z" fill="white"/>
<path d="M175.078 67.6282L159.139 65.2333C158.891 65.2333 158.726 64.9856 158.809 64.7378C158.809 64.4901 159.057 64.3249 159.304 64.4075L175.243 66.8024C175.491 66.8024 175.656 67.0502 175.573 67.2979C175.491 67.4631 175.326 67.6282 175.078 67.6282Z" fill="white"/>
<path d="M191.677 74.3173C191.595 74.3173 191.595 74.3173 191.677 74.3173L159.304 69.2797C159.057 69.2797 158.892 69.0319 158.974 68.7842C158.974 68.5364 159.222 68.3713 159.47 68.4539L191.76 73.4915C192.008 73.4915 192.173 73.7392 192.09 73.987C192.008 74.1521 191.843 74.3173 191.677 74.3173Z" fill="white"/>
<path d="M196.632 70.7662C196.55 70.7662 196.55 70.7662 196.632 70.7662L180.116 68.2887C179.868 68.2887 179.703 68.041 179.785 67.7932C179.785 67.5455 180.033 67.3803 180.281 67.4629L196.715 69.8578C196.963 69.8578 197.128 70.1056 197.045 70.3533C196.963 70.6011 196.798 70.7662 196.632 70.7662Z" fill="white"/>
<path d="M203.487 92.6519C203.487 92.6519 203.404 92.6519 203.487 92.6519L165.994 87.1188C165.746 87.1188 165.581 86.8711 165.663 86.6233C165.663 86.3756 165.911 86.2104 166.159 86.293L203.569 91.8261C203.817 91.8261 203.982 92.0738 203.9 92.3216C203.817 92.4868 203.652 92.6519 203.487 92.6519Z" fill="white"/>
<path d="M181.354 93.8904C181.272 93.8904 181.272 93.8904 181.354 93.8904L165.333 91.4955C165.085 91.4955 164.92 91.2478 165.003 91C165.003 90.7523 165.251 90.5871 165.498 90.6697L181.437 93.0646C181.685 93.0646 181.85 93.3124 181.767 93.5601C181.685 93.7253 181.52 93.8904 181.354 93.8904Z" fill="white"/>
<path d="M175.986 97.3586C175.904 97.3586 175.904 97.3586 175.986 97.3586L164.755 95.7069C164.507 95.7069 164.342 95.4592 164.425 95.2114C164.425 94.9637 164.672 94.7985 164.92 94.8811L176.069 96.5328C176.317 96.5328 176.482 96.7805 176.399 97.0283C176.317 97.1935 176.152 97.3586 175.986 97.3586Z" fill="white"/>
<path d="M202.826 97.1107C202.826 97.1107 202.744 97.1107 202.826 97.1107L186.309 94.6332C186.062 94.6332 185.897 94.3855 185.979 94.1377C185.979 93.89 186.227 93.7248 186.475 93.8074L202.909 96.2023C203.157 96.2023 203.322 96.4501 203.239 96.6978C203.157 96.9456 202.991 97.1107 202.826 97.1107Z" fill="white"/>
<path d="M127.344 193.074L42.6131 202.571C40.9614 202.736 39.4749 201.58 39.3097 199.929L33.1985 145.588C33.1985 145.506 33.2811 145.423 33.3637 145.423L123.711 135.265C123.793 135.265 123.876 135.348 123.876 135.431L129.987 189.771C130.152 191.422 128.996 192.826 127.344 193.074Z" fill="#F7A9B4"/>
<path d="M42.2829 203.067C40.5487 203.067 39.1447 201.828 38.897 200.094L32.7858 145.754C32.7858 145.423 32.9509 145.175 33.2813 145.093L123.628 134.935C123.958 134.935 124.206 135.1 124.289 135.431L130.4 189.771C130.483 190.679 130.235 191.505 129.657 192.248C129.079 192.909 128.335 193.405 127.427 193.487L42.6133 202.984C42.5307 202.984 42.3655 203.067 42.2829 203.067ZM33.6116 145.919L39.7228 200.011C39.888 201.415 41.1267 202.406 42.5307 202.241L127.344 192.661L127.427 193.074L127.344 192.661C128.005 192.579 128.583 192.248 129.079 191.753C129.492 191.257 129.657 190.597 129.574 189.853L123.463 135.761L33.6116 145.919Z" fill="#243762"/>
<path opacity="0.29" d="M123.38 193.074L46.7423 202.654C45.0906 202.819 70.5264 170.281 70.2787 168.629L33.1985 145.671C33.1985 145.588 33.2811 145.505 33.3637 145.505L123.711 135.348C123.793 135.348 123.876 135.43 123.876 135.513L92.9893 166.069C93.1544 167.638 125.032 192.826 123.38 193.074Z" fill="#243762"/>
<path d="M33.3637 145.506L70.6916 108.591C72.9214 106.361 76.3899 105.948 79.0326 107.6L123.463 135.183C123.545 135.266 123.545 135.348 123.463 135.348L33.1985 145.506" fill="#F7A9B4"/>
<path d="M33.1987 145.918L33.1162 145.34L33.0336 145.258L33.1162 145.175L70.3615 108.343C72.7565 106.03 76.3902 105.535 79.198 107.352L123.628 134.935C123.793 135.017 123.876 135.265 123.876 135.513C123.793 135.761 123.628 135.843 123.463 135.926L33.1987 145.918ZM75.4817 107.021C73.8301 107.021 72.261 107.682 71.0222 108.838L34.5201 144.927L122.472 135.017L78.8677 107.93C77.7941 107.269 76.6379 107.021 75.4817 107.021Z" fill="#243762"/>
<path opacity="0.29" d="M33.3637 145.506L70.6916 108.591C72.9214 106.361 76.3899 105.948 79.0326 107.6L123.463 135.183C123.545 135.266 123.545 135.348 123.463 135.348L33.1985 145.506" fill="#243762"/>
<path d="M74.821 162.931L46.7424 201.993L123.38 193.322L87.2912 161.444C83.5749 158.141 77.794 158.802 74.821 162.931Z" fill="#F7A9B4"/>
<path d="M45.9166 202.488L74.4907 162.683L74.821 162.931L74.4907 162.683C75.9772 160.618 78.207 159.297 80.6845 159.049C83.162 158.802 85.7221 159.545 87.5389 161.196L124.289 193.652L45.9166 202.488ZM81.7581 159.793C81.4277 159.793 81.18 159.793 80.8496 159.875C78.6199 160.123 76.5553 161.362 75.2339 163.179L47.6509 201.497L122.472 193.074L87.126 161.857C85.5569 160.536 83.6575 159.793 81.7581 159.793Z" fill="#243762"/>
<path d="M37.9058 118.748L96.9533 112.059C100.835 111.646 104.303 113.958 104.634 117.344L108.432 151.038L91.9983 166.151L70.2787 168.629L48.8068 155.25L45.0906 122.629L37.9058 118.748Z" fill="white"/>
<path d="M70.1962 169.042L48.4766 155.416L44.8429 122.795L39.2272 118.17L96.9534 111.646C98.9354 111.398 100.835 111.894 102.404 112.968C103.973 114.041 104.881 115.61 105.129 117.345L108.928 151.204L92.2461 166.565L70.1962 169.042ZM49.3024 154.92L70.4439 168.134L91.8332 165.739L108.02 150.874L104.221 117.427C104.056 115.941 103.23 114.619 101.826 113.628C100.422 112.72 98.6876 112.307 96.9534 112.472L39.2272 118.996L45.5036 122.3L49.3024 154.92Z" fill="#243762"/>
<path opacity="0.29" d="M74.821 159.545L46.7424 201.993L123.38 193.322L87.2912 158.141C83.5749 154.838 77.794 155.416 74.821 159.545Z" fill="#243762"/>
<path d="M74.821 162.931L46.7424 201.993L123.38 193.322L87.2912 161.444C83.5749 158.141 77.794 158.802 74.821 162.931Z" fill="#F7A9B4"/>
<path d="M45.9166 202.488L74.4907 162.683L74.821 162.931L74.4907 162.683C75.9772 160.618 78.207 159.297 80.6845 159.049C83.162 158.802 85.7221 159.545 87.5389 161.196L124.289 193.652L45.9166 202.488ZM81.7581 159.793C81.4277 159.793 81.18 159.793 80.8496 159.875C78.6199 160.123 76.5553 161.362 75.2339 163.179L47.6509 201.497L122.472 193.074L87.126 161.857C85.5569 160.536 83.6575 159.793 81.7581 159.793Z" fill="#243762"/>
<path opacity="0.35" d="M77.5461 171.519L56.9001 200.176L113.222 193.817L86.713 170.528C83.9877 168.051 79.6933 168.546 77.5461 171.519Z" fill="#ECF1F7"/>
<path d="M33.6286 145.235L33.1918 145.936L70.1286 168.955L70.5654 168.254L33.6286 145.235Z" fill="#243762"/>
<path d="M123.555 135.092L92.6719 165.762L93.2538 166.348L124.137 135.678L123.555 135.092Z" fill="#243762"/>
<path d="M46.8248 137.577L36.5845 138.733L34.9328 124.033C34.6025 121.308 36.5845 118.831 39.3097 118.583L39.8053 118.5C42.5305 118.17 45.008 120.152 45.2557 122.877L46.8248 137.577Z" fill="#ECF1F7"/>
<path d="M36.1716 139.229L34.4374 124.116C34.2722 122.712 34.6851 121.308 35.5935 120.152C36.502 118.996 37.7407 118.335 39.1447 118.17L39.6402 118.087C41.0441 117.922 42.448 118.335 43.6042 119.243C44.7604 120.152 45.421 121.391 45.5862 122.794L47.3205 137.907L36.1716 139.229ZM40.3008 118.913C40.1357 118.913 39.9705 118.913 39.8053 118.913L39.3098 118.996C38.0711 119.161 36.9975 119.739 36.2542 120.647C35.511 121.556 35.1806 122.794 35.2632 123.951L36.8323 138.238L46.3295 137.164L44.6778 122.877C44.5126 121.638 43.9345 120.565 43.0261 119.821C42.2828 119.243 41.2918 118.913 40.3008 118.913Z" fill="#243762"/>
<path d="M53.8447 129.979C53.5969 129.979 53.4318 129.814 53.4318 129.649C53.4318 129.401 53.5969 129.236 53.7621 129.154L96.5406 124.364C96.7883 124.364 96.9535 124.529 97.0361 124.694C97.0361 124.942 96.8709 125.107 96.7058 125.19L53.8447 129.979Z" fill="#243762"/>
<path d="M55.4963 144.514C55.2485 144.514 55.0834 144.349 55.0834 144.184C55.0834 143.936 55.2485 143.771 55.4137 143.688L98.1922 138.898C98.44 138.898 98.6051 139.064 98.6877 139.229C98.6877 139.477 98.5225 139.642 98.3574 139.724L55.4963 144.514Z" fill="#243762"/>
<path d="M54.6704 137.165C54.4226 137.165 54.2574 137 54.2574 136.835C54.2574 136.587 54.4226 136.422 54.5878 136.339L73.0866 134.275C73.3343 134.275 73.4995 134.44 73.5821 134.605C73.5821 134.853 73.4169 135.018 73.2518 135.1L54.6704 137.165Z" fill="#243762"/>
<path d="M77.9591 134.522C77.7113 134.522 77.5461 134.357 77.5461 134.191C77.5461 133.944 77.7113 133.778 77.8765 133.696L97.3663 131.466C97.614 131.466 97.7792 131.631 97.8618 131.796C97.8618 132.044 97.6966 132.209 97.5315 132.292L77.9591 134.522C78.0416 134.522 78.0416 134.522 77.9591 134.522Z" fill="#243762"/>
<path d="M56.4047 152.773C56.157 152.773 55.9918 152.608 55.9918 152.442C55.9918 152.195 56.157 152.03 56.3222 151.947L74.821 149.882C75.0687 149.882 75.2339 150.047 75.3165 150.213C75.3165 150.46 75.1513 150.626 74.9861 150.708L56.4047 152.773C56.4047 152.773 56.4873 152.773 56.4047 152.773Z" fill="#243762"/>
</svg>
