<svg xmlns="http://www.w3.org/2000/svg" width="26" height="25" fill="none"><defs/><g clip-path="url(#clip0)"><path fill="#17283F" d="M8.7 22.7A14.5 14.5 0 0023.2 7.4c1-.7 1.9-1.6 2.6-2.7-1 .5-2 .7-3 .9 1.1-.7 2-1.7 2.3-2.9-1 .6-2.1 1-3.3 1.3a5.1 5.1 0 00-8.7 4.6A14.6 14.6 0 012.5 3.3 5.1 5.1 0 004.1 10c-.8 0-1.6-.2-2.3-.6a5.1 5.1 0 004.1 5c-.7.3-1.5.3-2.3.2a5.1 5.1 0 004.8 3.5 10.3 10.3 0 01-7.6 2.2c2.3 1.5 5 2.3 7.9 2.3z"/></g><defs><clipPath id="clip0"><path fill="#fff" d="M0 0h25v25H0z" transform="translate(.8)"/></clipPath></defs></svg>