<svg width="1185" height="193" viewBox="0 0 1185 193" fill="none" xmlns="http://www.w3.org/2000/svg">
<rect y="34.2516" width="45.261" height="45.261" fill="#FE5E7A"/>
<rect x="95.415" y="150.462" width="41.5912" height="41.5912" fill="#F4F7FC"/>
<rect x="137.006" y="79.5126" width="66.0566" height="66.0566" fill="#F4F7FC"/>
<rect x="780.814" y="128.443" width="50.1541" height="50.1541" fill="#F4F7FC"/>
<rect x="924.305" y="79.5126" width="33.0283" height="33.0283" fill="#F4F7FC"/>
<rect x="1157.58" y="101.531" width="26.9119" height="26.9119" fill="#F4F7FC"/>
<rect x="706.195" y="56.2704" width="72.173" height="72.173" fill="#F4F7FC"/>
<path d="M957.333 39.7563C957.333 17.7995 975.133 0 997.09 0C1019.05 0 1036.85 17.7995 1036.85 39.7563C1036.85 61.7131 1019.05 79.5126 997.09 79.5126H957.333V39.7563Z" fill="#45EC9C"/>
<path d="M362.456 35.4748C362.456 15.8826 346.573 0 326.981 0C307.389 0 291.506 15.8826 291.506 35.4748C291.506 55.0671 307.389 70.9497 326.981 70.9497H362.456V35.4748Z" fill="#F4F7FC"/>
</svg>
