<svg width="215" height="46" viewBox="0 0 215 46" fill="none" xmlns="http://www.w3.org/2000/svg">
<g clip-path="url(#clip0)">
<path d="M70.1362 30.609C70.0925 30.8252 70.005 30.9981 69.9176 31.1278C69.8301 31.2575 69.6552 31.344 69.4803 31.4305C69.3054 31.5169 69.0431 31.5602 68.737 31.5602C68.4309 31.6034 68.0374 31.6034 67.6001 31.6034C67.0754 31.6034 66.6382 31.6034 66.3321 31.5602C66.026 31.5169 65.7636 31.4737 65.5887 31.4305C65.4138 31.344 65.2827 31.2575 65.1952 31.1278C65.1078 30.9981 65.064 30.8252 65.0203 30.609L62.1344 19.4549H62.0907L59.3797 30.609C59.3359 30.8252 59.2485 30.9981 59.2048 31.1278C59.161 31.2575 58.9861 31.344 58.8112 31.4305C58.6363 31.5169 58.374 31.5602 58.0679 31.5602C57.7618 31.6034 57.3683 31.6034 56.8436 31.6034C56.3189 31.6034 55.8816 31.6034 55.5755 31.5602C55.2694 31.5169 55.0071 31.4737 54.8322 31.4305C54.6573 31.344 54.5261 31.2575 54.4386 31.1278C54.3512 30.9981 54.3075 30.8252 54.22 30.609L50.1535 15.2613C50.0661 14.9154 50.0223 14.6993 50.0223 14.4831C50.0223 14.3102 50.0661 14.1372 50.1972 14.0508C50.3284 13.9643 50.5033 13.8778 50.7657 13.8778C51.028 13.8346 51.3778 13.8346 51.8588 13.8346C52.2961 13.8346 52.6459 13.8346 52.8645 13.8346C53.1269 13.8346 53.3018 13.8778 53.433 13.9211C53.5641 13.9643 53.6516 14.0508 53.6953 14.1372C53.739 14.2237 53.7828 14.3534 53.8265 14.5263L56.931 28.0151L60.1667 14.6128C60.2105 14.4399 60.2542 14.3102 60.2979 14.1805C60.3416 14.0508 60.4728 14.0075 60.604 13.9211C60.7352 13.8778 60.9538 13.8346 61.1724 13.7914C61.4348 13.7481 61.7409 13.7481 62.1781 13.7481C62.6154 13.7481 62.9652 13.7481 63.2275 13.7914C63.4899 13.7914 63.7085 13.8346 63.8397 13.9211C63.9709 13.9643 64.1021 14.0508 64.1458 14.1805C64.1895 14.3102 64.277 14.4399 64.277 14.6128L67.6439 28.0151H67.6876L70.7921 14.5696C70.8358 14.4399 70.8358 14.3102 70.9233 14.1805C70.967 14.094 71.0545 14.0075 71.1857 13.9211C71.3168 13.8778 71.4917 13.8346 71.7541 13.7914C71.9727 13.7481 72.3225 13.7481 72.7598 13.7481C73.1533 13.7481 73.4594 13.7481 73.7218 13.7914C73.9404 13.8346 74.1153 13.8778 74.2027 13.9643C74.2902 14.0508 74.3339 14.2237 74.3339 14.3966C74.3339 14.6128 74.2902 14.8722 74.2027 15.1748L70.1362 30.609Z" fill="#0073AA"/>
<path d="M88.2825 19.282C88.2825 20.2763 88.1076 21.141 87.8015 21.9192C87.4954 22.6974 87.0144 23.3026 86.446 23.8647C85.8338 24.3835 85.1342 24.7726 84.2597 25.0752C83.3852 25.3346 82.3795 25.4643 81.1989 25.4643H79.7122V31.0846C79.7122 31.1711 79.6685 31.2575 79.6248 31.344C79.581 31.4305 79.4499 31.4737 79.3187 31.5169C79.1875 31.5602 79.0126 31.6034 78.7503 31.6466C78.5316 31.6899 78.2255 31.6899 77.8757 31.6899C77.5259 31.6899 77.2198 31.6899 77.0012 31.6466C76.7826 31.6034 76.564 31.6034 76.4328 31.5169C76.3016 31.4737 76.2142 31.4305 76.1267 31.344C76.083 31.2575 76.0392 31.1711 76.0392 31.0846V15.2181C76.0392 14.7857 76.1704 14.4831 76.3891 14.2669C76.6077 14.0508 76.9138 13.9643 77.2636 13.9643H81.4613C81.8985 13.9643 82.2921 13.9643 82.6856 14.0075C83.0791 14.0508 83.5164 14.094 84.0411 14.2237C84.5658 14.3102 85.0905 14.5263 85.6589 14.7857C86.1837 15.0884 86.6646 15.4342 87.0582 15.8666C87.4517 16.2989 87.7578 16.8177 87.9327 17.3797C88.195 17.8985 88.2825 18.547 88.2825 19.282ZM84.5221 19.5414C84.5221 18.9361 84.3909 18.4173 84.1723 18.0282C83.9536 17.6391 83.6913 17.3365 83.3415 17.1635C83.0354 16.9906 82.6856 16.8609 82.3358 16.8177C81.986 16.7744 81.6362 16.7312 81.2426 16.7312H79.7122V22.6974H81.3301C81.8985 22.6974 82.3795 22.6109 82.773 22.4812C83.1666 22.3083 83.4726 22.0921 83.735 21.8327C83.9974 21.5733 84.1723 21.2275 84.3034 20.8384C84.4346 20.406 84.5221 19.9737 84.5221 19.5414Z" fill="#0073AA"/>
<path d="M92.9612 14.8289C92.9612 15.3477 92.8737 15.6936 92.6551 15.9098C92.4364 16.0827 92.0866 16.2124 91.5619 16.2124C91.0372 16.2124 90.6437 16.1259 90.4688 15.953C90.2502 15.7801 90.1627 15.4342 90.1627 14.9154C90.1627 14.3966 90.2502 14.0507 90.4688 13.8346C90.6874 13.6617 91.0372 13.532 91.5619 13.532C92.0866 13.532 92.4364 13.6184 92.6551 13.7914C92.8737 13.9643 92.9612 14.3101 92.9612 14.8289ZM92.6988 31.1711C92.6988 31.2575 92.6988 31.3008 92.6551 31.344C92.6113 31.3872 92.5676 31.4305 92.4802 31.4737C92.3927 31.5169 92.2615 31.5169 92.1304 31.5602C91.9992 31.5602 91.7806 31.6034 91.5619 31.6034C91.3433 31.6034 91.1684 31.6034 90.9935 31.5602C90.8623 31.5602 90.7312 31.5169 90.6437 31.4737C90.5563 31.4305 90.5125 31.3872 90.4688 31.344C90.4251 31.3008 90.4251 31.2143 90.4251 31.1711V18.9361C90.4251 18.8929 90.4251 18.8064 90.4688 18.7632C90.5125 18.7199 90.5563 18.6767 90.6437 18.6335C90.7312 18.5902 90.8623 18.5902 90.9935 18.547C91.1247 18.547 91.3433 18.5038 91.5619 18.5038C91.7806 18.5038 91.9992 18.5038 92.1304 18.547C92.2615 18.547 92.3927 18.5902 92.4802 18.6335C92.5676 18.6767 92.6113 18.7199 92.6551 18.7632C92.6988 18.8064 92.6988 18.8929 92.6988 18.9361V31.1711Z" fill="#0073AA"/>
<path d="M106.691 31.171C106.691 31.2575 106.691 31.3007 106.647 31.344C106.604 31.3872 106.56 31.4304 106.472 31.4737C106.385 31.5169 106.254 31.5169 106.123 31.5601C105.991 31.5601 105.773 31.6034 105.554 31.6034C105.336 31.6034 105.117 31.6034 104.986 31.5601C104.855 31.5601 104.723 31.5169 104.636 31.4737C104.549 31.4304 104.505 31.3872 104.461 31.344C104.417 31.3007 104.417 31.2143 104.417 31.171V24.0376C104.417 23.3458 104.374 22.7838 104.242 22.3515C104.111 21.9192 103.98 21.5733 103.761 21.2707C103.543 20.968 103.28 20.7086 102.931 20.5789C102.581 20.406 102.187 20.3195 101.75 20.3195C101.182 20.3195 100.613 20.5357 100.045 20.9248C99.4763 21.3139 98.8642 21.9192 98.252 22.6974V31.2575C98.252 31.344 98.252 31.3872 98.2083 31.4304C98.1646 31.4737 98.1208 31.5169 98.0334 31.5601C97.9459 31.6034 97.8148 31.6034 97.6836 31.6466C97.5524 31.6466 97.3338 31.6898 97.1151 31.6898C96.8965 31.6898 96.7216 31.6898 96.5467 31.6466C96.4155 31.6466 96.2844 31.6034 96.1969 31.5601C96.1094 31.5169 96.0657 31.4737 96.022 31.4304C95.9783 31.3872 95.9783 31.3007 95.9783 31.2575V18.9361C95.9783 18.8496 95.9783 18.8064 96.022 18.7631C96.0657 18.7199 96.1094 18.6767 96.1969 18.6334C96.2844 18.5902 96.3718 18.547 96.503 18.547C96.6342 18.547 96.8091 18.547 97.0277 18.547C97.2463 18.547 97.3775 18.547 97.5087 18.547C97.6399 18.547 97.7273 18.5902 97.8148 18.6334C97.9022 18.6767 97.9459 18.7199 97.9897 18.7631C98.0334 18.8064 98.0334 18.8928 98.0334 18.9361V20.5357C98.733 19.7575 99.4326 19.1955 100.132 18.8496C100.832 18.5037 101.531 18.3308 102.231 18.3308C103.062 18.3308 103.761 18.4605 104.33 18.7631C104.898 19.0225 105.336 19.4116 105.685 19.8872C106.035 20.3628 106.298 20.8816 106.429 21.5301C106.56 22.1353 106.647 22.9135 106.647 23.7782V31.171H106.691Z" fill="#0073AA"/>
<path d="M116.18 30.3064C116.18 30.5658 116.18 30.782 116.136 30.9117C116.092 31.0846 116.048 31.1711 115.961 31.2575C115.873 31.344 115.786 31.3872 115.611 31.4737C115.48 31.5169 115.305 31.6034 115.13 31.6466C114.955 31.6899 114.737 31.7331 114.518 31.7331C114.299 31.7763 114.081 31.7763 113.906 31.7763C113.25 31.7763 112.725 31.6899 112.244 31.5169C111.807 31.344 111.413 31.0846 111.107 30.7387C110.801 30.3929 110.583 29.9605 110.451 29.4417C110.32 28.9229 110.233 28.3177 110.233 27.5827V20.4493H108.484C108.353 20.4493 108.221 20.3628 108.134 20.2331C108.047 20.1034 108.003 19.844 108.003 19.5414C108.003 19.3684 108.003 19.2387 108.047 19.109C108.09 18.9793 108.09 18.8929 108.134 18.8064C108.178 18.7199 108.221 18.6767 108.265 18.6335C108.309 18.5902 108.396 18.5902 108.484 18.5902H110.189V15.6936C110.189 15.6504 110.189 15.5639 110.233 15.5207C110.277 15.4775 110.32 15.4342 110.408 15.391C110.495 15.3478 110.626 15.3045 110.758 15.3045C110.889 15.3045 111.107 15.2613 111.326 15.2613C111.545 15.2613 111.763 15.2613 111.894 15.3045C112.026 15.3045 112.157 15.3478 112.244 15.391C112.332 15.4342 112.375 15.4775 112.419 15.5207C112.463 15.5639 112.463 15.6504 112.463 15.6936V18.5902H115.655C115.742 18.5902 115.786 18.5902 115.83 18.6335C115.873 18.6767 115.917 18.7199 115.961 18.8064C116.005 18.8929 116.048 18.9793 116.048 19.109C116.048 19.2387 116.092 19.3684 116.092 19.5414C116.092 19.8872 116.048 20.1034 115.961 20.2331C115.873 20.3628 115.786 20.4493 115.611 20.4493H112.419V27.2801C112.419 28.1448 112.55 28.75 112.813 29.1823C113.075 29.6147 113.512 29.8308 114.168 29.8308C114.387 29.8308 114.562 29.8308 114.737 29.7876C114.911 29.7444 115.043 29.7011 115.174 29.6579C115.305 29.6147 115.392 29.5714 115.524 29.5282C115.611 29.485 115.699 29.485 115.786 29.485C115.83 29.485 115.873 29.485 115.917 29.5282C115.961 29.5714 116.005 29.6147 116.005 29.6579C116.048 29.7011 116.048 29.7876 116.048 29.9173C116.18 30.0038 116.18 30.1335 116.18 30.3064Z" fill="#0073AA"/>
<path d="M128.598 24.5564C128.598 24.9023 128.51 25.1617 128.335 25.2914C128.16 25.4211 127.942 25.5075 127.723 25.5075H119.59C119.59 26.1993 119.678 26.8045 119.809 27.3233C119.94 27.8854 120.159 28.3177 120.508 28.7068C120.815 29.0959 121.252 29.3985 121.776 29.6147C122.301 29.8309 122.913 29.9173 123.657 29.9173C124.225 29.9173 124.75 29.8741 125.231 29.7876C125.712 29.7012 126.105 29.5715 126.411 29.485C126.761 29.3553 127.024 29.2688 127.242 29.1824C127.461 29.0959 127.636 29.0527 127.723 29.0527C127.767 29.0527 127.854 29.0527 127.898 29.0959C127.942 29.1391 127.986 29.1824 128.029 29.2256C128.073 29.2688 128.073 29.3985 128.073 29.485C128.073 29.6147 128.073 29.7444 128.073 29.9173C128.073 30.047 128.073 30.1335 128.073 30.22C128.073 30.3064 128.073 30.3929 128.029 30.4361C128.029 30.5226 127.986 30.5658 127.942 30.609C127.898 30.6523 127.854 30.6955 127.811 30.782C127.767 30.8252 127.592 30.9117 127.373 31.0414C127.111 31.1711 126.805 31.2575 126.411 31.3872C126.018 31.5169 125.581 31.6034 125.056 31.6899C124.531 31.7763 124.007 31.8196 123.394 31.8196C122.389 31.8196 121.47 31.6899 120.727 31.3872C119.984 31.0846 119.328 30.6955 118.803 30.1335C118.278 29.5715 117.885 28.8797 117.623 28.0583C117.36 27.2369 117.229 26.2425 117.229 25.1617C117.229 24.1241 117.36 23.173 117.623 22.3083C117.885 21.4869 118.278 20.7519 118.803 20.1899C119.328 19.5846 119.94 19.1523 120.683 18.8496C121.427 18.547 122.257 18.3741 123.132 18.3741C124.094 18.3741 124.925 18.547 125.624 18.8496C126.324 19.1523 126.849 19.5846 127.33 20.1034C127.767 20.6222 128.073 21.2275 128.292 21.9192C128.51 22.6109 128.598 23.3891 128.598 24.1673V24.5564ZM126.324 23.8647C126.368 22.6974 126.105 21.7463 125.537 21.0978C124.968 20.406 124.138 20.1034 123.045 20.1034C122.476 20.1034 121.995 20.1899 121.558 20.406C121.121 20.6222 120.771 20.8816 120.508 21.2275C120.202 21.5733 119.984 21.9624 119.853 22.438C119.678 22.9136 119.59 23.3891 119.59 23.8647H126.324Z" fill="#0073AA"/>
<path d="M141.541 19.4981C141.541 19.8008 141.497 20.0602 141.409 20.1899C141.322 20.3196 141.191 20.406 141.06 20.406H139.267C139.573 20.7519 139.792 21.0978 139.923 21.4869C140.054 21.876 140.098 22.3083 140.098 22.6974C140.098 23.3891 139.966 24.0376 139.748 24.5564C139.529 25.1184 139.179 25.5508 138.786 25.9399C138.349 26.329 137.868 26.5884 137.255 26.8045C136.687 27.0207 136.031 27.1072 135.288 27.1072C134.763 27.1072 134.326 27.0207 133.845 26.891C133.408 26.7613 133.058 26.5884 132.795 26.4154C132.621 26.5884 132.489 26.7613 132.402 26.9775C132.314 27.1936 132.227 27.4098 132.227 27.7124C132.227 28.0151 132.358 28.2745 132.664 28.4906C132.97 28.7068 133.364 28.7932 133.845 28.8365L137.081 28.9662C137.693 28.9662 138.261 29.0526 138.786 29.2256C139.311 29.3553 139.748 29.5714 140.141 29.8741C140.535 30.1335 140.797 30.4793 141.016 30.9117C141.234 31.3008 141.322 31.7763 141.322 32.3384C141.322 32.9004 141.191 33.4192 140.972 33.938C140.753 34.4568 140.36 34.8891 139.879 35.2782C139.398 35.6673 138.742 35.9699 137.999 36.1861C137.255 36.4023 136.337 36.532 135.288 36.532C134.282 36.532 133.451 36.4455 132.752 36.2726C132.052 36.0996 131.484 35.8835 131.046 35.5808C130.609 35.2782 130.259 34.9323 130.084 34.5432C129.866 34.1542 129.778 33.7218 129.778 33.2463C129.778 32.9436 129.822 32.641 129.91 32.3816C129.997 32.079 130.084 31.8196 130.259 31.5602C130.39 31.3008 130.609 31.0846 130.828 30.8252C131.046 30.609 131.309 30.3496 131.615 30.1335C131.178 29.9173 130.828 29.6147 130.609 29.2688C130.39 28.9229 130.303 28.5338 130.303 28.1448C130.303 27.5827 130.434 27.1072 130.653 26.6748C130.871 26.2425 131.178 25.8534 131.527 25.5075C131.221 25.1617 131.003 24.7726 130.871 24.3835C130.697 23.9511 130.609 23.4323 130.609 22.8703C130.609 22.1786 130.74 21.5301 130.959 21.0113C131.178 20.4493 131.527 19.9737 131.965 19.6278C132.402 19.2387 132.883 18.9361 133.495 18.7632C134.107 18.547 134.719 18.4605 135.419 18.4605C135.812 18.4605 136.162 18.4605 136.468 18.5038C136.774 18.547 137.081 18.5902 137.387 18.6767H141.147C141.322 18.6767 141.409 18.7632 141.497 18.8929C141.497 18.9793 141.541 19.1955 141.541 19.4981ZM139.136 32.4248C139.136 31.906 138.917 31.4737 138.48 31.2143C138.043 30.9117 137.474 30.782 136.731 30.7387L133.539 30.609C133.233 30.8252 133.014 31.0414 132.795 31.2575C132.621 31.4737 132.446 31.6466 132.358 31.8628C132.227 32.0357 132.183 32.2519 132.14 32.4248C132.096 32.5978 132.096 32.8139 132.096 32.9869C132.096 33.5921 132.402 34.0245 133.014 34.3271C133.626 34.6297 134.457 34.8026 135.55 34.8026C136.25 34.8026 136.818 34.7162 137.255 34.5865C137.736 34.4568 138.086 34.2839 138.392 34.0677C138.698 33.8515 138.873 33.5921 139.004 33.3327C139.092 33.0301 139.136 32.7275 139.136 32.4248ZM137.999 22.7406C137.999 21.9192 137.78 21.2707 137.299 20.7951C136.818 20.3196 136.162 20.1034 135.332 20.1034C134.894 20.1034 134.501 20.1899 134.195 20.3196C133.889 20.4493 133.582 20.6654 133.364 20.9248C133.145 21.1842 132.97 21.4869 132.883 21.7895C132.795 22.1354 132.708 22.4812 132.708 22.8271C132.708 23.6485 132.927 24.2538 133.408 24.7293C133.889 25.2049 134.501 25.4211 135.375 25.4211C135.812 25.4211 136.206 25.3346 136.556 25.2049C136.906 25.0752 137.168 24.859 137.387 24.5996C137.605 24.3402 137.78 24.0808 137.868 23.735C137.955 23.4323 137.999 23.0865 137.999 22.7406Z" fill="#0073AA"/>
<path d="M150.854 19.7575C150.854 19.9737 150.854 20.1034 150.854 20.2763C150.854 20.406 150.811 20.5357 150.811 20.5789C150.767 20.6654 150.767 20.7086 150.723 20.7519C150.679 20.7951 150.636 20.7951 150.548 20.7951C150.461 20.7951 150.373 20.7951 150.286 20.7519C150.198 20.7086 150.067 20.6654 149.936 20.6222C149.805 20.5789 149.674 20.5357 149.499 20.4925C149.324 20.4492 149.149 20.4492 148.974 20.4492C148.755 20.4492 148.537 20.4925 148.318 20.5789C148.1 20.6654 147.881 20.8383 147.619 21.0113C147.356 21.2274 147.138 21.4868 146.875 21.8327C146.613 22.1786 146.307 22.6109 146.001 23.0865V31.1278C146.001 31.2143 146.001 31.2575 145.957 31.3007C145.913 31.344 145.869 31.3872 145.782 31.4304C145.695 31.4737 145.563 31.4737 145.432 31.5169C145.301 31.5169 145.082 31.5601 144.864 31.5601C144.645 31.5601 144.47 31.5601 144.295 31.5169C144.164 31.5169 144.033 31.4737 143.946 31.4304C143.858 31.3872 143.814 31.344 143.771 31.3007C143.727 31.2575 143.727 31.171 143.727 31.1278V18.9361C143.727 18.8496 143.727 18.8064 143.771 18.7631C143.814 18.7199 143.858 18.6767 143.946 18.6334C144.033 18.5902 144.12 18.547 144.252 18.547C144.383 18.547 144.558 18.547 144.776 18.547C144.995 18.547 145.126 18.547 145.257 18.547C145.389 18.547 145.476 18.5902 145.563 18.6334C145.651 18.6767 145.695 18.7199 145.738 18.7631C145.782 18.8064 145.782 18.8928 145.782 18.9361V20.7519C146.132 20.2763 146.438 19.844 146.744 19.5413C147.05 19.2387 147.312 18.9793 147.575 18.8064C147.837 18.6334 148.099 18.5037 148.362 18.4173C148.624 18.3308 148.887 18.3308 149.149 18.3308C149.28 18.3308 149.411 18.3308 149.542 18.3308C149.674 18.3308 149.849 18.374 150.023 18.4173C150.198 18.4605 150.33 18.5037 150.461 18.547C150.592 18.5902 150.679 18.6334 150.723 18.6767C150.767 18.7199 150.811 18.7631 150.854 18.8064C150.854 18.8496 150.898 18.8928 150.898 18.9793C150.898 19.0225 150.942 19.1522 150.942 19.2387C150.854 19.3684 150.854 19.5413 150.854 19.7575Z" fill="#0073AA"/>
<path d="M161.348 31.2143C161.348 31.344 161.305 31.3872 161.217 31.4737C161.13 31.5169 161.042 31.5602 160.911 31.6034C160.78 31.6466 160.605 31.6466 160.343 31.6466C160.124 31.6466 159.905 31.6466 159.774 31.6034C159.643 31.5602 159.512 31.5169 159.468 31.4737C159.424 31.4305 159.381 31.344 159.381 31.2143V30.0038C158.856 30.5658 158.244 30.9981 157.588 31.344C156.932 31.6466 156.232 31.8196 155.489 31.8196C154.833 31.8196 154.265 31.7331 153.74 31.5602C153.215 31.3872 152.778 31.1711 152.385 30.8252C152.035 30.5226 151.729 30.1335 151.51 29.6579C151.291 29.1824 151.204 28.6636 151.204 28.1015C151.204 27.4098 151.335 26.8045 151.641 26.2857C151.904 25.7669 152.341 25.3346 152.866 25.032C153.39 24.6861 154.046 24.4267 154.833 24.297C155.62 24.1241 156.451 24.0376 157.413 24.0376H159.118V23.0865C159.118 22.6109 159.075 22.1786 158.987 21.8327C158.9 21.4869 158.725 21.1842 158.506 20.9248C158.288 20.6654 157.981 20.4925 157.632 20.3628C157.282 20.2331 156.845 20.1899 156.32 20.1899C155.751 20.1899 155.27 20.2763 154.833 20.406C154.396 20.5357 154.002 20.6654 153.653 20.8384C153.303 21.0113 153.04 21.141 152.822 21.2707C152.603 21.4004 152.428 21.4869 152.341 21.4869C152.253 21.4869 152.21 21.4869 152.166 21.4436C152.122 21.4004 152.079 21.3572 152.035 21.2707C151.991 21.1842 151.947 21.0978 151.947 21.0113C151.947 20.8816 151.904 20.7519 151.904 20.6222C151.904 20.406 151.904 20.2331 151.947 20.1034C151.991 19.9737 152.079 19.844 152.166 19.7143C152.297 19.5846 152.516 19.4549 152.822 19.282C153.128 19.109 153.478 18.9793 153.871 18.8496C154.265 18.7199 154.702 18.5902 155.183 18.5038C155.664 18.4173 156.145 18.3741 156.582 18.3741C157.457 18.3741 158.244 18.4606 158.856 18.6767C159.468 18.8929 159.993 19.1523 160.386 19.5414C160.78 19.9305 161.042 20.406 161.217 20.9681C161.392 21.5301 161.48 22.2218 161.48 22.9568V31.2143H161.348ZM159.075 25.594H157.151C156.539 25.594 155.97 25.6372 155.533 25.7669C155.096 25.8534 154.702 26.0263 154.396 26.2425C154.09 26.4587 153.871 26.6748 153.74 26.9775C153.609 27.2801 153.521 27.5827 153.521 27.9718C153.521 28.6203 153.74 29.0959 154.134 29.485C154.527 29.8741 155.096 30.047 155.839 30.047C156.451 30.047 156.976 29.9173 157.501 29.6147C158.025 29.3121 158.55 28.8365 159.118 28.2312V25.594H159.075Z" fill="#0073AA"/>
<path d="M175.166 18.5902C175.428 18.5902 175.647 18.6335 175.734 18.7632C175.822 18.8929 175.865 19.0658 175.865 19.282V31.1711C175.865 31.2575 175.865 31.3008 175.822 31.344C175.778 31.3872 175.734 31.4305 175.647 31.4737C175.559 31.5169 175.428 31.5169 175.297 31.5602C175.166 31.5602 174.991 31.6034 174.772 31.6034C174.554 31.6034 174.335 31.6034 174.204 31.5602C174.073 31.5602 173.941 31.5169 173.854 31.4737C173.766 31.4305 173.723 31.3872 173.679 31.344C173.635 31.3008 173.635 31.2143 173.635 31.1711V20.4492H167.251V27.2801C167.251 28.1447 167.382 28.75 167.645 29.1823C167.907 29.6147 168.344 29.8308 169 29.8308C169.219 29.8308 169.394 29.8308 169.569 29.7876C169.744 29.7444 169.875 29.7011 170.006 29.6579C170.137 29.6147 170.225 29.5714 170.356 29.5282C170.443 29.485 170.531 29.485 170.618 29.485C170.662 29.485 170.706 29.485 170.749 29.5282C170.793 29.5714 170.837 29.6147 170.837 29.6579C170.881 29.7011 170.881 29.7876 170.881 29.9173C170.881 30.047 170.924 30.1767 170.924 30.3064C170.924 30.5658 170.924 30.782 170.881 30.9117C170.837 31.0414 170.793 31.1711 170.706 31.2575C170.618 31.344 170.531 31.3872 170.356 31.4737C170.225 31.5169 170.05 31.6034 169.875 31.6466C169.7 31.6898 169.481 31.7331 169.263 31.7331C169.044 31.7763 168.825 31.7763 168.651 31.7763C167.995 31.7763 167.47 31.6898 166.989 31.5169C166.552 31.344 166.158 31.0846 165.852 30.7387C165.546 30.3929 165.327 29.9605 165.196 29.4417C165.065 28.9229 164.978 28.3177 164.978 27.5827V20.4492H163.229C163.097 20.4492 162.966 20.3628 162.879 20.2331C162.791 20.1034 162.748 19.844 162.748 19.5414C162.748 19.3684 162.748 19.2387 162.791 19.109C162.835 18.9793 162.835 18.8929 162.879 18.8064C162.922 18.7199 162.966 18.6767 163.01 18.6335C163.054 18.5902 163.141 18.5902 163.229 18.5902H164.934V15.6936C164.934 15.6504 164.934 15.5639 164.978 15.5207C165.021 15.4774 165.065 15.4342 165.152 15.391C165.24 15.3477 165.371 15.3045 165.502 15.3045C165.633 15.3045 165.852 15.2613 166.071 15.2613C166.289 15.2613 166.508 15.2613 166.639 15.3045C166.77 15.3045 166.902 15.3477 166.989 15.391C167.076 15.4342 167.12 15.4774 167.164 15.5207C167.208 15.5639 167.208 15.6504 167.208 15.6936V18.5902H175.166ZM176.171 14.8289C176.171 15.3477 176.084 15.6936 175.865 15.9098C175.647 16.0827 175.297 16.2124 174.772 16.2124C174.247 16.2124 173.854 16.1259 173.679 15.953C173.46 15.7801 173.373 15.4342 173.373 14.9154C173.373 14.3966 173.46 14.0507 173.679 13.8346C173.898 13.6617 174.247 13.532 174.772 13.532C175.297 13.532 175.647 13.6184 175.865 13.7914C176.04 13.9643 176.171 14.3101 176.171 14.8289Z" fill="#0073AA"/>
<path d="M190.776 24.9455C190.776 25.9399 190.645 26.8478 190.382 27.7124C190.12 28.5339 189.726 29.2688 189.202 29.8741C188.677 30.4793 188.021 30.9549 187.234 31.3008C186.447 31.6466 185.529 31.8196 184.479 31.8196C183.474 31.8196 182.555 31.6899 181.812 31.3872C181.069 31.0846 180.413 30.6523 179.932 30.0903C179.407 29.5282 179.057 28.8365 178.795 28.0151C178.533 27.1936 178.445 26.2857 178.445 25.2481C178.445 24.2538 178.576 23.3459 178.839 22.4812C179.101 21.6598 179.495 20.9248 180.019 20.3196C180.544 19.7143 181.2 19.2387 181.987 18.8929C182.774 18.547 183.692 18.3741 184.742 18.3741C185.747 18.3741 186.666 18.5038 187.409 18.8064C188.152 19.109 188.808 19.5414 189.289 20.1034C189.814 20.6654 190.164 21.3572 190.426 22.1786C190.645 23 190.776 23.9079 190.776 24.9455ZM188.415 25.0752C188.415 24.4267 188.371 23.7782 188.24 23.2162C188.109 22.6109 187.89 22.0921 187.628 21.6598C187.322 21.2275 186.972 20.8816 186.447 20.6222C185.966 20.3628 185.354 20.2331 184.611 20.2331C183.955 20.2331 183.342 20.3628 182.861 20.579C182.381 20.7951 181.987 21.141 181.681 21.5733C181.375 22.0057 181.112 22.5245 180.981 23.0865C180.85 23.6918 180.763 24.3403 180.763 25.032C180.763 25.7237 180.806 26.329 180.938 26.9342C181.069 27.5395 181.287 28.0583 181.55 28.4906C181.856 28.923 182.249 29.2688 182.73 29.5282C183.211 29.7876 183.823 29.9173 184.567 29.9173C185.223 29.9173 185.791 29.7876 186.316 29.5715C186.797 29.3553 187.19 29.0094 187.54 28.5771C187.846 28.1448 188.065 27.626 188.24 27.0639C188.371 26.4587 188.415 25.8102 188.415 25.0752Z" fill="#0073AA"/>
<path d="M203.937 31.171C203.937 31.2575 203.937 31.3007 203.894 31.344C203.85 31.3872 203.806 31.4304 203.719 31.4737C203.631 31.5169 203.5 31.5169 203.369 31.5601C203.238 31.5601 203.019 31.6034 202.8 31.6034C202.582 31.6034 202.363 31.6034 202.232 31.5601C202.101 31.5601 201.97 31.5169 201.882 31.4737C201.795 31.4304 201.751 31.3872 201.707 31.344C201.664 31.3007 201.664 31.2143 201.664 31.171V24.0376C201.664 23.3458 201.62 22.7838 201.489 22.3515C201.357 21.9192 201.226 21.5733 201.008 21.2707C200.789 20.968 200.527 20.7086 200.177 20.5789C199.827 20.406 199.434 20.3195 198.996 20.3195C198.428 20.3195 197.859 20.5357 197.291 20.9248C196.723 21.3139 196.11 21.9192 195.498 22.6974V31.2575C195.498 31.344 195.498 31.3872 195.455 31.4304C195.411 31.4737 195.367 31.5169 195.28 31.5601C195.192 31.6034 195.061 31.6034 194.93 31.6466C194.799 31.6466 194.58 31.6898 194.361 31.6898C194.143 31.6898 193.968 31.6898 193.793 31.6466C193.662 31.6466 193.531 31.6034 193.443 31.5601C193.356 31.5169 193.312 31.4737 193.268 31.4304C193.224 31.3872 193.224 31.3007 193.224 31.2575V18.9361C193.224 18.8496 193.224 18.8064 193.268 18.7631C193.312 18.7199 193.356 18.6767 193.443 18.6334C193.531 18.5902 193.618 18.547 193.749 18.547C193.88 18.547 194.055 18.547 194.274 18.547C194.493 18.547 194.624 18.547 194.755 18.547C194.886 18.547 194.974 18.5902 195.061 18.6334C195.148 18.6767 195.192 18.7199 195.236 18.7631C195.28 18.8064 195.28 18.8928 195.28 18.9361V20.5357C195.979 19.7575 196.679 19.1955 197.378 18.8496C198.078 18.5037 198.778 18.3308 199.477 18.3308C200.308 18.3308 201.008 18.4605 201.576 18.7631C202.145 19.0225 202.582 19.4116 202.932 19.8872C203.281 20.3628 203.544 20.8816 203.675 21.5301C203.806 22.1353 203.894 22.9135 203.894 23.7782V31.171H203.937Z" fill="#0073AA"/>
<path d="M215 27.8421C215 28.4474 214.869 29.0094 214.65 29.5282C214.432 30.0038 214.082 30.4361 213.645 30.782C213.207 31.1278 212.683 31.3872 212.114 31.5602C211.502 31.7331 210.846 31.8196 210.147 31.8196C209.709 31.8196 209.272 31.7763 208.878 31.7331C208.485 31.6466 208.135 31.5602 207.785 31.4737C207.479 31.3872 207.217 31.2575 206.998 31.1278C206.78 30.9981 206.605 30.9117 206.517 30.8252C206.43 30.7387 206.342 30.609 206.299 30.4361C206.255 30.2632 206.211 30.047 206.211 29.7876C206.211 29.6147 206.211 29.485 206.255 29.3553C206.255 29.2256 206.299 29.1391 206.342 29.0527C206.386 28.9662 206.43 28.923 206.474 28.8797C206.517 28.8365 206.561 28.8365 206.648 28.8365C206.736 28.8365 206.911 28.8797 207.086 29.0094C207.304 29.1391 207.523 29.2688 207.829 29.3985C208.135 29.5282 208.441 29.6579 208.835 29.7876C209.228 29.9173 209.666 29.9606 210.19 29.9606C210.584 29.9606 210.934 29.9173 211.24 29.8309C211.546 29.7444 211.808 29.6147 212.07 29.485C212.333 29.3553 212.464 29.1391 212.595 28.8797C212.726 28.6203 212.77 28.3609 212.77 28.0151C212.77 27.6692 212.683 27.3666 212.508 27.1504C212.333 26.9342 212.114 26.7181 211.808 26.5451C211.502 26.3722 211.196 26.1993 210.802 26.0696C210.453 25.9399 210.059 25.7669 209.666 25.6372C209.272 25.4643 208.878 25.2914 208.529 25.1184C208.179 24.9023 207.829 24.6861 207.523 24.3835C207.217 24.1241 206.998 23.7782 206.823 23.3891C206.648 23 206.561 22.5245 206.561 22.0057C206.561 21.5301 206.648 21.0545 206.823 20.6222C206.998 20.1899 207.304 19.8008 207.654 19.4549C208.048 19.109 208.485 18.8496 209.053 18.6767C209.622 18.4606 210.278 18.3741 211.021 18.3741C211.371 18.3741 211.677 18.4173 212.027 18.4606C212.377 18.5038 212.639 18.5903 212.901 18.6767C213.164 18.7632 213.382 18.8496 213.601 18.9361C213.776 19.0226 213.951 19.109 214.038 19.1955C214.126 19.282 214.213 19.3252 214.213 19.3684C214.257 19.4117 214.257 19.4981 214.3 19.5414C214.3 19.6278 214.344 19.7143 214.344 19.8008C214.344 19.8872 214.344 20.0169 214.344 20.1466C214.344 20.3196 214.344 20.4493 214.344 20.5357C214.344 20.6654 214.3 20.7519 214.257 20.7951C214.213 20.8384 214.169 20.9248 214.126 20.9681C214.082 21.0113 214.038 21.0113 213.994 21.0113C213.907 21.0113 213.776 20.9681 213.645 20.8816C213.47 20.7951 213.295 20.6654 213.032 20.579C212.77 20.4493 212.508 20.3628 212.158 20.2763C211.808 20.1899 211.458 20.1466 211.021 20.1466C210.627 20.1466 210.278 20.1899 210.015 20.2763C209.709 20.3628 209.491 20.4925 209.272 20.6654C209.097 20.8384 208.922 21.0113 208.835 21.2275C208.747 21.4436 208.704 21.6598 208.704 21.9192C208.704 22.2651 208.791 22.5677 208.966 22.8271C209.141 23.0865 209.403 23.2594 209.666 23.4756C209.972 23.6485 210.278 23.8215 210.671 23.9512C211.065 24.0809 211.415 24.2538 211.808 24.3835C212.202 24.5564 212.595 24.7293 212.945 24.9023C213.338 25.0752 213.645 25.3346 213.951 25.594C214.257 25.8534 214.475 26.1993 214.65 26.5884C214.913 26.891 215 27.3233 215 27.8421Z" fill="#0073AA"/>
<path d="M23.4808 3.02633C12.287 2.93986 3.192 11.7594 3.06082 22.8271C2.97337 33.8515 11.8934 42.8872 23.0873 42.9737C34.2811 43.0602 43.376 34.2406 43.5072 23.1729C43.6384 12.1053 34.6309 3.15603 23.4808 3.02633ZM24.6177 30.5658L24.3116 30.8252L24.0055 31.0846C23.7869 31.2575 23.5682 31.3872 23.3496 31.5602C23.2622 31.6466 23.131 31.6899 22.9998 31.7763C22.8686 31.8628 22.7812 31.906 22.65 31.9925C22.4314 32.1222 22.169 32.2519 21.9504 32.3816C21.8192 32.4248 21.688 32.5113 21.6006 32.5545L21.0321 32.8572L20.8572 32.9436L20.4637 33.0733C19.939 33.2463 19.4143 33.4192 18.8896 33.5056C18.3649 33.6353 17.7964 33.6786 17.228 33.7218H16.7907C16.7033 33.7218 16.6596 33.7218 16.5721 33.7218H16.3535C16.2223 33.7218 16.0911 33.7218 15.9162 33.6786L15.479 33.6354L15.2603 33.5921L15.0417 33.5489L14.6044 33.4624C14.4733 33.4192 14.3421 33.3759 14.2109 33.3327L13.9923 33.2895C13.9048 33.2463 13.8611 33.2463 13.7737 33.203L13.3801 33.0301L12.9866 32.8572C12.9429 32.8139 12.8554 32.8139 12.8117 32.7707L12.6805 32.641C12.5493 32.5545 12.4181 32.5113 12.3307 32.4248C11.3687 31.8196 10.5379 31.0846 9.88205 30.2199C9.18244 29.3985 8.614 28.4474 8.17674 27.4963C8.13302 27.3666 8.08929 27.2369 8.00184 27.1504C7.95811 27.0207 7.91439 26.891 7.82694 26.8045C7.73948 26.5451 7.65203 26.329 7.56458 26.0696C7.38968 25.5508 7.2585 25.0752 7.12732 24.5564C6.90869 23.5188 6.77751 22.438 6.86497 21.3572C6.90869 20.8384 6.95242 20.2763 7.0836 19.7575C7.21477 19.2387 7.38968 18.7199 7.56458 18.2011C8.00184 17.2068 8.614 16.2989 9.35734 15.5207C10.1444 14.7425 11.0626 14.1372 12.1121 13.8346C12.6368 13.6617 13.1615 13.5752 13.6862 13.532C14.2109 13.4887 14.7356 13.532 15.2603 13.6617C16.3097 13.8778 17.2717 14.3534 17.9713 15.0884C17.5341 14.829 17.0968 14.6128 16.6158 14.4399C16.1348 14.3102 15.6539 14.2237 15.1729 14.1805C14.2109 14.1372 13.2489 14.3102 12.4181 14.6993C12.3307 14.7425 12.1995 14.7857 12.1121 14.829L11.806 15.0019C11.7185 15.0451 11.6311 15.1316 11.4999 15.1748C11.4562 15.2181 11.4125 15.2613 11.3687 15.2613L11.2376 15.3478C10.8877 15.6504 10.5379 15.953 10.2319 16.2989C10.1444 16.3853 10.1007 16.4718 10.0132 16.5583L9.88205 16.8609L9.70715 17.1635C9.66342 17.25 9.57597 17.3797 9.53224 17.4662C9.31361 17.8553 9.09499 18.2876 8.96381 18.7199C8.7889 19.1523 8.70145 19.5846 8.614 20.0169C8.52655 20.4493 8.48282 20.9248 8.48282 21.3572C8.48282 22.265 8.614 23.1729 8.83263 24.0808C8.96381 24.5132 9.09499 24.9887 9.26989 25.4211C9.35734 25.6372 9.44479 25.8534 9.53224 26.0696C9.57597 26.1993 9.6197 26.2857 9.66342 26.3722C9.70715 26.4587 9.75087 26.5884 9.83832 26.6748C10.2756 27.4963 10.7566 28.2744 11.3687 28.9662C11.6748 29.312 11.9809 29.6147 12.3307 29.9173L12.5931 30.1335C12.6805 30.2199 12.768 30.2632 12.8554 30.3496C13.0303 30.4793 13.2052 30.609 13.4238 30.7387C13.5113 30.782 13.5987 30.8684 13.7299 30.9117L13.8611 30.9981C13.9048 31.0414 13.9486 31.0414 13.9923 31.0846L14.2984 31.2143L14.6044 31.344C14.6482 31.344 14.6919 31.3872 14.7793 31.3872L14.9542 31.4305C15.0417 31.4737 15.1729 31.5169 15.2603 31.5169L15.5664 31.6034L15.7413 31.6466L15.9162 31.6899L16.2223 31.7331L16.5721 31.7763H16.747C16.7907 31.7763 16.8782 31.7763 16.9219 31.7763H17.2717C17.709 31.7331 18.1462 31.6899 18.5835 31.6034C19.0208 31.5169 19.458 31.3872 19.8953 31.2143L20.2013 31.0846L20.3763 31.0414L20.5512 30.9549L20.8572 30.8252L21.1633 30.6523C21.3819 30.5658 21.5569 30.4361 21.7755 30.3064C21.8629 30.2632 21.9504 30.1767 22.0816 30.1335C22.169 30.0902 22.2565 30.0038 22.3876 29.9173C22.5625 29.7876 22.7812 29.6579 22.9561 29.485L23.2184 29.2688L23.4808 29.0526C24.1804 28.4474 24.7926 27.7124 25.4047 26.9775C26.5416 25.5075 27.5473 23.8647 28.553 22.1786L27.11 21.4869L28.7279 20.579L28.8153 20.5357L29.0777 20.406L29.8648 19.9737L29.9522 19.9305L31.6138 19.0226L31.5701 21.5733V22.3083L31.5263 24.1241L31.4826 24.0376L30.2583 23.3459C29.9959 23.735 29.7773 24.1241 29.515 24.5132C29.2526 24.9455 28.9465 25.3778 28.6842 25.8102C28.1157 26.6748 27.5036 27.4963 26.8477 28.3177C26.1481 29.0959 25.4485 29.8741 24.6177 30.5658ZM39.2658 27.0207C39.0909 27.5395 38.916 28.0583 38.6537 28.5338C38.1289 29.485 37.4731 30.3496 36.6423 31.0846C35.8115 31.7763 34.8058 32.3384 33.7564 32.5545C33.2316 32.6842 32.6632 32.7275 32.1385 32.7275C31.6138 32.7275 31.0891 32.641 30.5644 32.5113C29.5587 32.2087 28.5967 31.6899 27.9846 30.9117C28.3781 31.2143 28.8153 31.4737 29.2963 31.6466C29.7336 31.8196 30.2146 31.9493 30.6956 31.9925C31.6575 32.1222 32.6195 31.9925 33.494 31.6899C33.5815 31.6466 33.7126 31.6034 33.8001 31.5602L34.1062 31.4305C34.1936 31.3872 34.3248 31.3008 34.4122 31.2575C34.456 31.2143 34.4997 31.2143 34.5434 31.1711L34.6746 31.0846C35.0681 30.8252 35.4179 30.5226 35.724 30.2199C35.8115 30.1335 35.8989 30.047 35.9427 29.9605L36.1613 29.7011L36.3799 29.4417C36.4674 29.3553 36.5111 29.2688 36.5985 29.1391C36.8609 28.75 37.0795 28.3609 37.2544 27.9286C37.4293 27.4963 37.6042 27.0639 37.6917 26.6316C37.8229 26.1993 37.8666 25.7237 37.9103 25.2914C37.9978 24.3835 37.954 23.4323 37.7791 22.5244C37.6917 22.0489 37.6042 21.6166 37.4731 21.1842C37.3856 20.9681 37.3419 20.7519 37.2544 20.5357C37.2107 20.406 37.167 20.3196 37.1233 20.1899C37.0795 20.1034 37.0358 19.9737 36.9921 19.8872C36.6423 19.0226 36.205 18.2011 35.6366 17.4662C35.3742 17.0771 35.0681 16.7744 34.7621 16.4286L34.5434 16.1692C34.456 16.0827 34.3685 16.0395 34.2811 15.953C34.1062 15.7801 33.9313 15.6936 33.7564 15.5207C33.6689 15.4775 33.5815 15.391 33.494 15.3478L33.3628 15.2613C33.3191 15.2181 33.2754 15.2181 33.2317 15.1748L32.9256 15.0019L32.6195 14.8722C32.5758 14.829 32.532 14.829 32.4883 14.7857L32.3571 14.7425C32.2697 14.6993 32.1385 14.656 32.0511 14.6128L31.745 14.5263L31.5701 14.4831L31.4826 14.4399L31.1765 14.3534L30.8705 14.3102L30.6518 14.2669C30.6081 14.2669 30.5206 14.2669 30.4769 14.2669H30.1708C29.7336 14.2669 29.2963 14.2669 28.8153 14.3534C28.3781 14.3966 27.9408 14.5263 27.5036 14.6128L27.1975 14.6993L27.0226 14.7425L26.8477 14.7857L26.5416 14.9154L26.2355 15.0451C26.0169 15.1316 25.842 15.2613 25.6234 15.3478C25.5359 15.391 25.4047 15.4775 25.3173 15.5207C25.2298 15.5639 25.0986 15.6504 25.0112 15.6936C24.8363 15.8233 24.6177 15.953 24.4428 16.0827L24.1804 16.2989L23.918 16.515C23.1747 17.0771 22.4751 17.7256 21.8192 18.4173C20.5512 19.8008 19.4143 21.3572 18.3211 22.9568L19.458 23.7782L17.7527 24.5564L17.6653 24.5996L17.4029 24.7293L16.5284 25.0752L16.4409 25.1184L14.6919 25.8966L14.9105 23.3459L14.998 22.6109L15.1729 20.7951L15.2603 20.8384L16.3972 21.6598C16.6596 21.2707 16.9656 20.9248 17.228 20.5357C17.5341 20.1466 17.8402 19.7143 18.1462 19.3252C18.8021 18.5038 19.458 17.7256 20.2013 16.9906C20.9447 16.2556 21.688 15.5207 22.5625 14.8722L22.8686 14.656L23.2184 14.4399C23.4371 14.2669 23.6557 14.1372 23.918 14.0075C24.0492 13.9211 24.1367 13.8778 24.2679 13.7914C24.399 13.7481 24.4865 13.6617 24.6177 13.6184C24.88 13.4887 25.0986 13.359 25.361 13.2726C25.4922 13.2293 25.6234 13.1861 25.7545 13.0996L26.1481 12.9699L26.323 12.8835L26.4979 12.8402L26.8914 12.7105C27.4161 12.5808 27.9408 12.4511 28.5093 12.3647C29.0777 12.2782 29.6024 12.2782 30.1708 12.2782L30.6081 12.3214C30.6956 12.3214 30.7393 12.3214 30.8267 12.3214L31.0454 12.3647C31.1765 12.4079 31.3077 12.4079 31.4826 12.4511L31.9199 12.5376L32.1385 12.5808L32.3571 12.6241L32.7507 12.7538C32.8818 12.797 33.013 12.8402 33.1442 12.9267L33.3628 13.0132C33.4066 13.0564 33.494 13.0564 33.5377 13.0996L33.9313 13.2726L34.2811 13.4887C34.3248 13.532 34.4123 13.5752 34.456 13.6184L34.6309 13.7481C34.7621 13.8346 34.8495 13.9211 34.9807 14.0075C35.8552 14.6993 36.6423 15.4775 37.2544 16.3853C37.8666 17.25 38.3913 18.2444 38.7848 19.2387C38.8286 19.3684 38.8723 19.4981 38.916 19.6278C38.9597 19.7575 39.0035 19.8872 39.0472 20.0169C39.1346 20.2763 39.2221 20.5357 39.2658 20.7951C39.397 21.3139 39.4844 21.8327 39.5719 22.3515C39.7031 23.3891 39.7468 24.4699 39.5719 25.5508C39.5719 25.9831 39.4407 26.5019 39.2658 27.0207Z" fill="#0073AA"/>
<path d="M23.0432 45.9997C10.2316 45.87 -0.131472 35.4509 -0.000294118 22.7836C0.130883 10.1163 10.6688 -0.129977 23.4805 -0.000277482C36.2922 0.129422 46.6552 10.5486 46.524 23.2159C46.3928 35.8832 35.8549 46.1294 23.0432 45.9997ZM23.4805 1.08055C11.2372 0.95085 1.1803 10.7215 1.09285 22.8268C0.961675 34.9321 10.8437 44.8757 23.087 44.9621C35.3302 45.0486 45.3871 35.3212 45.4746 23.2159C45.562 11.1106 35.7237 1.16702 23.4805 1.08055Z" fill="#0073AA"/>
</g>
<defs>
<clipPath id="clip0">
<rect width="215" height="46" fill="white"/>
</clipPath>
</defs>
</svg>
