<svg width="26" height="25" viewBox="0 0 26 25" fill="none" xmlns="http://www.w3.org/2000/svg">
<g clip-path="url(#clip0)">
<path d="M25.3345 7.5C25.3345 7.5 25.0903 5.77637 24.3384 5.01953C23.3862 4.02344 22.3218 4.01855 21.8335 3.95996C18.3374 3.70605 13.0884 3.70605 13.0884 3.70605H13.0786C13.0786 3.70605 7.82959 3.70605 4.3335 3.95996C3.84521 4.01855 2.78076 4.02344 1.82861 5.01953C1.07666 5.77637 0.837402 7.5 0.837402 7.5C0.837402 7.5 0.583496 9.52637 0.583496 11.5479V13.4424C0.583496 15.4639 0.83252 17.4902 0.83252 17.4902C0.83252 17.4902 1.07666 19.2139 1.82373 19.9707C2.77588 20.9668 4.02588 20.9326 4.58252 21.04C6.58447 21.2305 13.0835 21.2891 13.0835 21.2891C13.0835 21.2891 18.3374 21.2793 21.8335 21.0303C22.3218 20.9717 23.3862 20.9668 24.3384 19.9707C25.0903 19.2139 25.3345 17.4902 25.3345 17.4902C25.3345 17.4902 25.5835 15.4688 25.5835 13.4424V11.5479C25.5835 9.52637 25.3345 7.5 25.3345 7.5ZM10.5005 15.7422V8.71582L17.2534 12.2412L10.5005 15.7422Z" fill="#17283F"/>
</g>
<defs>
<clipPath id="clip0">
<rect width="25" height="25" fill="white" transform="translate(0.583496)"/>
</clipPath>
</defs>
</svg>
