<svg width="143" height="86" viewBox="0 0 143 86" fill="none" xmlns="http://www.w3.org/2000/svg">
<rect width="143" height="86" rx="15" fill="#0F1923"/>
<g clip-path="url(#clip0)">
<path d="M55.765 67H55.9595C55.9206 67 55.8428 67 55.765 67ZM51.4471 26.9737V21.5658C51.4471 20.4605 50.5914 19.5921 49.5022 19.5921H24.3729C23.3615 19.5921 22.5835 20.3816 22.5835 21.3684V26.3026C22.5835 27.2895 23.4004 28.1184 24.3729 28.1184H41.0609L22.2723 58.1974C22.0778 58.4737 22 58.8289 22 59.1842V65.1842C22 66.1711 22.8169 67 23.7894 67H50.1246C49.5022 66.7632 48.8798 66.4868 48.2963 66.1711C45.8067 64.7895 43.0837 62.8158 41.7611 60.1711C41.6055 59.8553 41.4499 59.5395 41.2943 59.1842C41.022 58.5132 40.3607 58.0789 39.6605 58.0789H32.3862L38.9992 47.5L51.136 28.0395C51.3694 27.6842 51.4471 27.3289 51.4471 26.9737Z" fill="white"/>
<path d="M92.1364 19.9869H96.2209C97.0767 19.9869 97.8547 20.579 98.0881 21.4079L106.529 51.3685L112.17 21.6053C112.364 20.6579 113.142 19.9869 114.076 19.9869H119.016C120.261 19.9869 121.195 21.1711 120.922 22.3948L111.158 65.5C110.964 66.4079 110.186 67.0395 109.252 67.0395H104.079C103.184 67.0395 102.406 66.4079 102.211 65.5395L94.3537 34.1185L86.1458 65.5C85.9124 66.3685 85.1344 66.9606 84.2786 66.9606H79.105C78.2103 66.9606 77.4323 66.329 77.1989 65.4211L67.3961 22.3948C67.1238 21.1711 68.0574 19.9869 69.3022 19.9869H74.2425C75.1761 19.9869 75.993 20.6579 76.1486 21.6053L81.7891 51.3685L90.2303 21.4079C90.5026 20.5395 91.2806 19.9869 92.1364 19.9869Z" fill="white"/>
<path d="M73.27 52.8289C73.3478 53.1447 73.3478 53.5 73.2311 53.8158C72.6476 55.9474 71.8307 57.8816 70.7804 59.5395C69.3022 61.9868 67.3961 63.8026 65.101 65.1053C62.8059 66.3684 60.2386 67 57.3211 67C55.6095 67 54.0146 66.8421 52.5364 66.5263C50.9804 66.1711 49.5411 65.6579 48.2574 64.9474C45.7678 63.5658 43.8228 61.5921 42.5002 58.9474C42.3446 58.6316 42.189 58.2763 42.0334 57.9605C41.0221 55.5526 40.5164 52.7105 40.5164 49.4737V46.75L52.5753 27.4474V19.4737H52.5364C54.0535 19.1579 55.6484 19 57.3211 19C60.2386 19 62.8448 19.6316 65.1399 20.8947C65.2177 20.9342 65.3344 21.0132 65.4122 21.0526C65.879 21.3289 66.2291 21.8026 66.3458 22.3158L68.7187 32.8158C68.991 34.0395 68.0574 35.2237 66.8126 35.2237H66.3458C65.49 35.2237 64.7509 34.6711 64.5175 33.8816C64.2063 32.8947 63.7784 32.0263 63.3116 31.2763C62.6114 30.1711 61.7556 29.3421 60.7442 28.75C59.7329 28.1579 58.6048 27.8816 57.36 27.8816C55.7262 27.8816 54.3258 28.2368 53.1977 28.9079C52.0307 29.5789 51.1749 30.5658 50.5525 31.8684C49.9301 33.1711 49.6578 34.75 49.6578 36.5658V49.4737C49.6578 51.2895 49.969 52.8684 50.5525 54.1711C51.1749 55.4737 52.0307 56.4605 53.1977 57.1316C54.3647 57.8026 55.7262 58.1579 57.36 58.1579C58.6437 58.1579 59.7718 57.8816 60.7831 57.2895C61.7945 56.7368 62.6503 55.8684 63.3505 54.8026C63.8562 54.0526 64.2452 53.1842 64.5175 52.1974C64.7509 51.3684 65.5289 50.8158 66.3847 50.8158H71.2472C72.1419 50.8158 72.9588 51.4474 73.1533 52.3553L73.27 52.8289Z" fill="white"/>
</g>
<defs>
<clipPath id="clip0">
<rect width="99" height="48" fill="white" transform="translate(22 19)"/>
</clipPath>
</defs>
</svg>
