<svg width="143" height="86" viewBox="0 0 143 86" fill="none" xmlns="http://www.w3.org/2000/svg">
<rect width="143" height="86" rx="15" fill="#0F1923"/>
<g clip-path="url(#clip0)">
<path d="M59.8326 62.0112V66.2591C59.8326 67.234 59.0864 68 58.1368 68H26.6958C25.7462 68 25 67.234 25 66.2591V62.4986C25 62.0808 25.1357 61.6978 25.407 61.3844L44.57 37.6727C45.4858 36.5237 44.7057 34.8176 43.2812 34.8176H27.1368C26.1871 34.8176 25.4409 34.0516 25.4409 33.0766V28.8287C25.4409 27.8538 26.1871 27.0878 27.1368 27.0878H57.2888C58.2385 27.0878 58.9847 27.8538 58.9847 28.8287V32.5892C58.9847 33.007 58.849 33.39 58.6116 33.7034L39.4825 57.4151C38.5667 58.5641 39.3468 60.2702 40.8053 60.2702H58.1707C59.0864 60.2702 59.8326 61.0711 59.8326 62.0112Z" fill="white"/>
<path d="M117.898 29.3858L105.96 66.8162C105.722 67.5474 105.078 68 104.332 68H96.9037C96.1576 68 95.5131 67.5126 95.2757 66.7814L86.9322 40.2841L78.2495 66.8162C78.012 67.5126 77.3676 68 76.6554 68H69.2615C68.5153 68 67.8709 67.5126 67.6335 66.8162L55.6608 29.3858C55.2878 28.2716 56.1018 27.0878 57.2889 27.0878H63.2582C64.0044 27.0878 64.6488 27.5752 64.8862 28.3064L73.5011 55.8482L82.4891 28.2716C82.7265 27.5752 83.3709 27.0878 84.0832 27.0878H90.1543C90.9005 27.0878 91.5449 27.5752 91.7823 28.3064L100.499 56.0919L109.385 28.3064C109.623 27.5752 110.267 27.1226 111.013 27.1226H116.27C117.457 27.0878 118.271 28.2368 117.898 29.3858Z" fill="white"/>
<path d="M63.0548 25.4861H57.6281C56.6784 25.4861 55.9323 24.7201 55.9323 23.7451V19.7409C55.9323 18.766 56.6784 18 57.6281 18H63.0887C64.0384 18 64.7845 18.766 64.7845 19.7409V23.7451C64.7506 24.6852 64.0045 25.4861 63.0548 25.4861Z" fill="white"/>
</g>
<defs>
<clipPath id="clip0">
<rect width="93" height="50" fill="white" transform="translate(25 18)"/>
</clipPath>
</defs>
</svg>
