<svg width="87" height="87" viewBox="0 0 87 87" fill="none" xmlns="http://www.w3.org/2000/svg">
<path d="M71.9691 33.0594L80.3776 24.6509L71.8289 16.1022" stroke="#0678EE" stroke-width="3" stroke-miterlimit="10" stroke-linecap="round" stroke-linejoin="round"/>
<path d="M4 62.6295H13.2494C19.696 62.6295 25.8622 60.1069 30.3468 55.4822L40.5772 45.2518" stroke="#0678EE" stroke-width="3" stroke-miterlimit="10"/>
<path d="M44.221 41.7483L54.3113 31.658C58.7958 27.1735 64.9621 24.5107 71.4087 24.5107H80.3778" stroke="#0678EE" stroke-width="3" stroke-miterlimit="10"/>
<path d="M71.9691 70.8979L80.3776 62.3492L71.8289 53.8005" stroke="#13233C" stroke-width="3" stroke-miterlimit="10" stroke-linecap="round" stroke-linejoin="round"/>
<path d="M4 24.6509H13.5297C19.9762 24.6509 26.1425 27.1734 30.6271 31.7981L54.171 55.3421C58.6556 59.8267 64.8219 62.4894 71.2684 62.4894H80.2375" stroke="black" stroke-width="3" stroke-miterlimit="10"/>
<path d="M4 24.6509H13.5297C19.9762 24.6509 26.1425 27.1734 30.6271 31.7981L54.171 55.3421C58.6556 59.8267 64.8219 62.4894 71.2684 62.4894H80.2375" stroke="#13233C" stroke-width="3" stroke-miterlimit="10"/>
</svg>
