<svg width="59" height="59" viewBox="0 0 59 59" fill="none" xmlns="http://www.w3.org/2000/svg">
<path d="M0.000102997 5.31068C0.034733 5.18372 0.0924496 5.06831 0.115536 4.94136C0.692702 2.1138 3.18606 0.0248675 6.06035 0.0133265C14.3138 0.00178541 22.5673 -0.00975566 30.8323 0.0133265C34.1453 0.0248675 36.8579 2.78318 36.8695 6.10701C36.881 9.90402 36.8695 13.7126 36.8695 17.5096C36.8695 17.6481 36.8695 17.775 36.8695 17.9135C38.2431 19.2984 39.6052 20.6718 41.0251 22.126C41.1636 22.126 41.4175 22.126 41.66 22.126C42.214 22.1145 42.6411 22.3337 42.872 22.83C43.1029 23.3378 43.0105 23.7995 42.6296 24.2034C42.595 24.2496 42.5603 24.2957 42.5603 24.2957C42.9297 25.2306 43.3568 26.1077 43.6454 27.0425C45.3077 32.386 43.3684 38.2027 38.8203 41.5842C36.4539 43.35 33.7759 44.2156 30.8208 44.2272C29.2855 44.2387 27.7503 44.2387 26.215 44.2272C25.6955 44.2272 25.1876 44.1925 24.622 44.1694C24.5989 44.2849 24.5643 44.4234 24.5297 44.5618C24.3681 45.1158 23.814 45.5082 23.2714 45.462C22.6597 45.4043 22.1864 44.9658 22.1402 44.3541C22.1056 43.9155 22.1287 43.477 22.1287 43.0153C22.0017 42.8884 21.8747 42.773 21.7477 42.6576C20.4202 41.4458 19.7046 39.957 19.6815 38.145C19.6699 37.4872 19.6815 36.8178 19.6815 36.0561C19.566 36.1946 19.5083 36.2407 19.4737 36.2984C19.1967 36.6908 18.8157 36.864 18.3424 36.864C14.1984 36.864 10.0428 36.887 5.89874 36.8524C3.13989 36.8293 0.681159 34.6942 0.12708 31.9359C0.103993 31.809 0.0462763 31.6936 0.0116463 31.5666C0.000102997 22.8185 0.000102997 14.0588 0.000102997 5.31068ZM19.6584 33.6325C19.3005 33.2862 18.8965 32.9284 18.5271 32.5476C16.4724 30.3894 17.4882 26.8925 20.3741 26.1654C20.478 26.1423 20.5934 26.1077 20.7319 26.0615C20.7435 24.8728 21.1013 23.8341 21.9786 23.0147C22.8559 22.1953 23.9294 21.9183 25.1068 21.9991C25.3954 20.8796 25.9726 20.0025 26.9653 19.4369C27.9696 18.8714 29.02 18.7676 30.1282 19.1023C30.9362 17.198 32.356 16.3439 34.353 16.4709C34.48 15.8477 34.4569 12.7431 34.3299 12.3392C23.7216 12.3392 13.1249 12.3392 2.45883 12.3392C2.45883 12.5815 2.45883 12.7893 2.45883 12.997C2.45883 15.0167 2.45883 17.0249 2.45883 19.0445C2.45883 22.8877 2.45883 26.7194 2.45883 30.5625C2.45883 31.5204 2.72433 32.3745 3.34767 33.1131C4.13261 34.0364 5.15997 34.4288 6.34893 34.4288C9.10779 34.4288 11.8782 34.4288 14.637 34.4288C15.826 34.4288 17.015 34.4403 18.2039 34.4172C18.7695 34.4057 19.2197 34.5673 19.5199 35.0635C19.543 35.0982 19.6007 35.1213 19.6468 35.1559C19.6584 34.6596 19.6584 34.1864 19.6584 33.6325ZM22.1287 36.1484C22.1287 36.9563 22.0825 37.6372 22.1402 38.295C22.1864 38.7798 22.3018 39.2876 22.5211 39.7261C23.2137 41.0995 24.3911 41.7689 25.9264 41.7804C27.5771 41.792 29.2278 41.792 30.8785 41.7804C31.3749 41.7804 31.8828 41.7458 32.3676 41.665C34.9417 41.2726 37.1581 40.1532 38.9011 38.2143C41.2675 35.5829 42.1794 32.5014 41.6253 29.0045C41.2675 26.7194 40.217 24.7574 38.601 23.1185C37.3889 21.8836 36.1653 20.6718 34.9417 19.4485C34.8494 19.3562 34.7455 19.2523 34.6416 19.183C34.076 18.7676 33.3488 18.8022 32.8524 19.2869C32.3676 19.7601 32.2983 20.5103 32.6908 21.0758C32.7947 21.2143 32.9217 21.3412 33.0025 21.4797C33.4411 22.2068 33.0717 23.0839 32.2522 23.3032C31.7789 23.4301 31.3864 23.2801 31.0516 22.9454C30.6245 22.5299 30.2205 22.0914 29.7819 21.699C29.3317 21.2951 28.7314 21.2604 28.2235 21.5374C27.6925 21.8375 27.404 22.3915 27.554 23.0031C27.6233 23.2801 27.808 23.5571 27.9927 23.7879C28.339 24.1919 28.7545 24.5381 29.1239 24.942C29.5856 25.4614 29.551 26.2 29.0777 26.6501C28.616 27.0887 27.9003 27.1002 27.404 26.6616C27.2885 26.5578 27.1846 26.4424 27.0807 26.3385C26.5728 25.8422 26.088 25.3229 25.5686 24.8382C25.1646 24.4573 24.6682 24.3419 24.1257 24.5266C23.6062 24.7112 23.3061 25.0921 23.2368 25.623C23.1676 26.1192 23.3638 26.5116 23.7101 26.8578C24.622 27.758 25.5339 28.6698 26.4343 29.5815C26.5613 29.7085 26.6883 29.8239 26.7806 29.9624C27.0692 30.3779 27.1038 30.8164 26.873 31.2665C26.6421 31.7166 26.2496 31.9244 25.7417 31.9128C25.3723 31.9128 25.0953 31.7282 24.8413 31.4743C24.0679 30.701 23.2945 29.9278 22.5211 29.1545C22.3711 29.0045 22.221 28.8545 22.0479 28.739C21.5977 28.4505 21.1013 28.4274 20.628 28.6813C20.1432 28.9352 19.9123 29.3507 19.9239 29.9047C19.9239 30.3433 20.1317 30.6664 20.4318 30.9665C21.6669 32.2014 22.9021 33.4363 24.1372 34.6711C24.9683 35.5021 25.7994 36.3215 26.619 37.1525C27.1615 37.7064 27.1731 38.4566 26.6652 38.9529C26.1688 39.4376 25.43 39.4145 24.8644 38.8721C24.5412 38.572 24.2411 38.2489 23.9294 37.9373C23.3522 37.3718 22.7866 36.8062 22.1287 36.1484ZM2.44729 9.78861C13.1249 9.78861 23.7447 9.78861 34.353 9.78861C34.3761 9.70782 34.4108 9.65012 34.4108 9.59241C34.4108 8.40368 34.4454 7.21495 34.3992 6.02622C34.3646 4.96444 33.9375 4.06424 33.1179 3.36024C32.3676 2.71394 31.4903 2.46003 30.5207 2.46003C22.4634 2.46003 14.4062 2.46003 6.34893 2.46003C5.94492 2.46003 5.5409 2.5062 5.15997 2.61007C3.55545 3.04863 2.49346 4.46818 2.45883 6.19934C2.43574 7.18033 2.45883 8.16132 2.45883 9.13077C2.44729 9.35005 2.44729 9.54625 2.44729 9.78861Z" fill="#13233C"/>
<path d="M52.7646 58.9885C52.6376 58.9077 52.4991 58.8385 52.3721 58.7577C51.9566 58.4692 51.7488 57.9498 51.8758 57.4997C52.0143 56.9919 52.326 56.6341 52.857 56.5649C53.5726 56.4726 54.2306 56.2879 54.877 55.9532C55.4658 55.6416 56.1468 55.884 56.47 56.4379C56.7817 56.9919 56.6316 57.6959 56.0776 58.0652C55.4427 58.4807 54.7501 58.7346 53.9998 58.8847C53.8959 58.9077 53.792 58.9539 53.6881 59.0001C53.3764 58.9885 53.0763 58.9885 52.7646 58.9885Z" fill="#0678EE"/>
<path d="M30.994 58.9884C30.8786 58.9192 30.7747 58.8499 30.6593 58.7692C30.1975 58.446 30.0128 57.9382 30.1744 57.4073C30.3245 56.8764 30.7285 56.5533 31.3172 56.5417C32.1253 56.5186 32.9218 56.5186 33.7298 56.5417C34.3762 56.5533 34.7918 56.888 34.9418 57.4766C35.0804 58.019 34.861 58.5152 34.3416 58.8384C34.2608 58.8846 34.18 58.9423 34.0992 58.9884C33.0603 58.9884 32.0329 58.9884 30.994 58.9884Z" fill="#0678EE"/>
<path d="M38.2547 58.9885C38.1624 58.9308 38.0585 58.8731 37.9661 58.8038C37.4813 58.4807 37.2851 57.996 37.4121 57.4766C37.5506 56.9111 37.9661 56.5649 38.5664 56.5533C39.3744 56.5418 40.1709 56.5418 40.9789 56.5533C41.6254 56.5649 42.0525 56.8996 42.191 57.4766C42.3295 58.0075 42.0986 58.5153 41.5907 58.8385C41.5099 58.8846 41.4291 58.9423 41.3483 58.9885C40.321 58.9885 39.2821 58.9885 38.2547 58.9885Z" fill="#0678EE"/>
<path d="M45.5038 58.9884C45.3883 58.9192 45.2844 58.8499 45.169 58.7691C44.7073 58.446 44.5341 57.9382 44.6842 57.4073C44.8342 56.911 45.2383 56.5648 45.7808 56.5417C46.6004 56.5186 47.4315 56.5186 48.2511 56.5302C48.8975 56.5417 49.313 56.8879 49.4631 57.465C49.6016 57.9959 49.3708 58.5037 48.8513 58.8268C48.7705 58.873 48.6897 58.9307 48.6089 58.9769C47.5816 58.9884 46.5427 58.9884 45.5038 58.9884Z" fill="#0678EE"/>
<path d="M54.1266 22.2418C54.4151 22.3457 54.9 22.4611 55.3502 22.6688C55.8581 22.9227 56.3544 23.2228 56.8046 23.5806C57.3587 24.0191 57.4049 24.7462 56.9893 25.2771C56.5853 25.7849 55.8465 25.9003 55.2924 25.4848C54.7614 25.0809 54.1958 24.8155 53.5494 24.6308C52.9261 24.4577 52.5682 23.8691 52.6606 23.269C52.7414 22.6804 53.307 22.2187 54.1266 22.2418Z" fill="#0678EE"/>
<path d="M26.4112 58.6538C26.3304 58.6307 26.1342 58.596 25.9611 58.5268C25.0838 58.1921 24.345 57.6612 23.7101 56.9688C23.2137 56.4263 23.2137 55.6877 23.687 55.2145C24.1949 54.7067 24.9222 54.7182 25.4762 55.2838C25.9149 55.7339 26.4112 56.057 26.9769 56.3109C27.6464 56.611 27.9003 57.2457 27.6579 57.869C27.4848 58.3768 27.0577 58.6653 26.4112 58.6538Z" fill="#0678EE"/>
<path d="M24.5643 50.3558C24.5643 50.7597 24.5758 51.1636 24.5643 51.5676C24.5296 52.2716 24.0217 52.7679 23.3522 52.7679C22.6827 52.7679 22.1517 52.2716 22.1286 51.5676C22.1055 50.7482 22.1055 49.9172 22.1286 49.0978C22.1517 48.3938 22.6712 47.9091 23.3522 47.9091C24.0448 47.9091 24.5296 48.3822 24.5643 49.0978C24.5758 49.5133 24.5643 49.9403 24.5643 50.3558Z" fill="#0678EE"/>
<path d="M47.8125 24.573C47.4085 24.573 47.0045 24.5845 46.6005 24.573C45.8963 24.5384 45.3884 24.0421 45.3884 23.3727C45.3884 22.7033 45.8733 22.1609 46.5774 22.1378C47.4201 22.1147 48.2627 22.1032 49.1054 22.1378C49.798 22.1609 50.2713 22.7149 50.2482 23.3958C50.2366 24.0536 49.7634 24.5268 49.0823 24.5614C48.6552 24.5845 48.2396 24.5614 47.8125 24.573C47.8125 24.5614 47.8125 24.5614 47.8125 24.573Z" fill="#0678EE"/>
<path d="M58.9864 30.0434C58.9864 30.4473 58.998 30.8513 58.9864 31.2552C58.9634 31.9823 58.4208 32.5016 57.7398 32.4901C57.2434 32.4901 56.5393 32.0631 56.5393 31.2667C56.5393 30.4473 56.5277 29.6164 56.5508 28.797C56.5739 28.116 57.0703 27.6429 57.7282 27.6313C58.4093 27.6198 58.9403 28.093 58.9864 28.7854C59.0095 29.2009 58.9864 29.6164 58.9864 30.0434Z" fill="#0678EE"/>
<path d="M58.9863 37.3605C58.9863 37.7414 58.9979 38.1222 58.9863 38.5146C58.9517 39.2302 58.4092 39.7611 57.7397 39.7495C57.0817 39.738 56.5622 39.2302 56.5507 38.5262C56.5276 37.7067 56.5276 36.8758 56.5507 36.0564C56.5738 35.3754 57.0701 34.9023 57.7281 34.8907C58.4092 34.8792 58.9402 35.3524 58.9863 36.0448C58.9979 36.4834 58.9863 36.9219 58.9863 37.3605Z" fill="#0678EE"/>
<path d="M58.9863 44.5853C58.9863 44.9661 58.9979 45.347 58.9863 45.7394C58.9632 46.478 58.4553 46.9973 57.7743 46.9973C57.0932 47.0089 56.5738 46.4895 56.5507 45.7509C56.5276 44.9661 56.5276 44.1813 56.5507 43.3965C56.5622 42.6348 57.0586 42.1501 57.7627 42.1385C58.49 42.1385 58.9748 42.6464 58.9979 43.4311C58.9979 43.8235 58.9863 44.2044 58.9863 44.5853Z" fill="#0678EE"/>
<path d="M58.9864 52.8947C58.1438 52.9409 57.3819 52.9871 56.597 53.0332C56.5739 52.837 56.5393 52.7101 56.5393 52.5831C56.5393 51.9368 56.5277 51.279 56.5508 50.6327C56.5739 49.871 57.0587 49.3862 57.7629 49.3978C58.467 49.3978 58.9749 49.8941 58.9864 50.6327C58.998 51.3598 58.9864 52.0753 58.9864 52.8947Z" fill="#0678EE"/>
<path d="M17.1881 6.14192C17.1881 6.84593 16.6455 7.38836 15.9529 7.38836C15.3065 7.38836 14.7524 6.83438 14.7409 6.17654C14.7293 5.48408 15.2834 4.94165 15.976 4.95319C16.6686 4.94165 17.1881 5.461 17.1881 6.14192Z" fill="#13233C"/>
<path d="M4.92915 6.17668C4.91761 5.48421 5.40243 4.96486 6.08349 4.94178C6.78763 4.9187 7.35325 5.43805 7.3648 6.13051C7.37634 6.81143 6.81072 7.38849 6.12966 7.38849C5.48323 7.37695 4.9407 6.84606 4.92915 6.17668Z" fill="#13233C"/>
<path d="M11.0701 4.94158C11.7281 4.94158 12.2822 5.49555 12.2937 6.14185C12.2937 6.82277 11.7281 7.38829 11.047 7.38829C10.3891 7.38829 9.83499 6.83431 9.82345 6.17647C9.8119 5.49555 10.3775 4.93004 11.0701 4.94158Z" fill="#13233C"/>
</svg>
