<svg width="87" height="87" viewBox="0 0 87 87" fill="none" xmlns="http://www.w3.org/2000/svg">
<path d="M61.6407 54.6099L56.6542 49.6234L55.7367 50.5409C54.9787 51.2988 53.9814 51.7376 52.9044 51.7376C51.8273 51.7376 50.7901 51.3387 50.072 50.5409L48.9551 49.5037C47.3993 47.9479 47.3993 45.355 48.9551 43.7992L49.8726 42.8817L44.1282 37.0974L43.2106 38.0149C42.4527 38.7728 41.4554 39.2116 40.3783 39.2116C39.3012 39.2116 38.2641 38.8127 37.546 38.0149L36.4689 36.9378C34.9131 35.382 34.9131 32.789 36.4689 31.2333L37.3864 30.3158L32.4 25.3692L33.3175 24.4517C39.5805 18.1886 49.2343 16.6329 57.1728 20.5821L62.5183 15.1968C63.2762 14.4388 64.2735 14 65.3506 14C66.4676 14 67.4649 14.3989 68.1829 15.1968L71.7732 18.787C72.5311 19.545 72.97 20.5821 72.97 21.6193C72.97 22.6565 72.571 23.7336 71.7732 24.4517L66.3878 29.837C70.3371 37.7356 68.7813 47.4692 62.4784 53.7322L61.6407 54.6099ZM56.6542 46.073L61.6407 51.0595C66.6272 45.3151 67.5846 36.9378 63.8347 30.1961L63.3959 29.3982L70.1376 22.6565C70.4568 22.3773 70.5764 21.9385 70.5764 21.5794C70.5764 21.1805 70.4169 20.7816 70.1376 20.4625L66.5474 16.8722C65.949 16.2738 64.9916 16.2738 64.3932 16.8722L57.6116 23.6538L56.8138 23.215C50.072 19.4652 41.6948 20.4226 35.9503 25.4091L40.9368 30.4354L38.304 33.0683C37.7056 33.6667 37.7056 34.6241 38.304 35.2224L39.3411 36.2596C39.9395 36.858 40.9368 36.858 41.4953 36.2596L44.2079 33.547L53.5027 42.8418L50.7901 45.5544C50.1917 46.1528 50.1917 47.1102 50.7901 47.7086L51.8273 48.7458C52.4257 49.3441 53.423 49.3441 53.9814 48.7458L56.6542 46.073Z" fill="#13233C"/>
<path d="M21.5894 73C20.5123 73 19.4751 72.601 18.7571 71.8032L15.1668 68.2129C13.611 66.6572 13.611 64.0642 15.1668 62.5084L20.5522 57.123C16.6827 49.2244 18.1986 39.4908 24.5015 33.2278L25.419 32.3103L54.6996 61.5909L53.7821 62.5084C47.4792 68.8113 37.8254 70.3272 29.8869 66.4178L24.5015 71.8032C23.7037 72.5213 22.7064 73 21.5894 73ZM21.8686 59.3968L16.9619 64.3035C16.3636 64.9019 16.3636 65.8593 16.9619 66.4577L20.5522 70.048C21.1506 70.6463 22.108 70.6463 22.7064 70.048L29.4481 63.3062L30.2459 63.745C36.9876 67.4949 45.3649 66.5375 51.1093 61.551L25.419 35.9006C20.4724 41.5652 19.515 49.8228 23.1053 56.5246C23.1851 56.6842 23.2649 56.8039 23.3845 56.9634L23.7436 57.482L23.0255 58.24L21.8686 59.3968Z" fill="#0678EE"/>
</svg>
