<svg width="87" height="87" viewBox="0 0 87 87" fill="none" xmlns="http://www.w3.org/2000/svg">
<path d="M78.0107 73H9.12947C5.25102 73 1.99313 69.7309 1.99313 65.839V21.1609C1.99313 17.2691 5.25102 14 9.12947 14H78.0107C81.8891 14 85.147 17.2691 85.147 21.1609V65.839C85.147 69.8865 81.8891 73 78.0107 73Z" stroke="#13233C" stroke-width="3" stroke-miterlimit="10"/>
<path d="M10.5257 27.2322H15.1798" stroke="#0678EE" stroke-width="3" stroke-miterlimit="10" stroke-linecap="round"/>
<path d="M21.3854 27.2322H40.0019" stroke="#0678EE" stroke-width="3" stroke-miterlimit="10" stroke-linecap="round"/>
<path d="M10.5257 33.459H35.3478" stroke="#0678EE" stroke-width="3" stroke-miterlimit="10" stroke-linecap="round"/>
<path d="M71.8594 63.037H14.3499C12.2907 63.037 10.5257 61.3232 10.5257 59.3237V51.183C10.5257 49.1836 12.2907 47.4697 14.3499 47.4697H71.8594C73.9186 47.4697 75.6836 49.1836 75.6836 51.183V59.3237C75.5365 61.3232 73.9186 63.037 71.8594 63.037Z" stroke="#13233C" stroke-width="3" stroke-miterlimit="10"/>
<path d="M54.74 36.5726C58.5956 36.5726 61.7212 33.4362 61.7212 29.5673C61.7212 25.6984 58.5956 22.562 54.74 22.562C50.8844 22.562 47.7588 25.6984 47.7588 29.5673C47.7588 33.4362 50.8844 36.5726 54.74 36.5726Z" stroke="#0678EE" stroke-width="3" stroke-miterlimit="10"/>
<path d="M68.7024 36.5726C72.558 36.5726 75.6836 33.4362 75.6836 29.5673C75.6836 25.6984 72.558 22.562 68.7024 22.562C64.8468 22.562 61.7212 25.6984 61.7212 29.5673C61.7212 33.4362 64.8468 36.5726 68.7024 36.5726Z" stroke="#0678EE" stroke-width="3" stroke-miterlimit="10"/>
</svg>
