<svg width="87" height="87" viewBox="0 0 87 87" fill="none" xmlns="http://www.w3.org/2000/svg">
<path d="M49.4949 60.2949C49.8068 62.5559 49.1831 64.739 49.9627 66.8441C49.7288 66.8441 49.4949 66.922 49.261 66.922C34.1356 66.922 19.0102 66.922 3.88475 66.922C2.48136 66.922 1.38983 66.2203 1.07797 65.2068C1 64.583 1.07797 63.9593 1 63.4915C1.38983 62.9458 1.85763 63.0237 2.24746 63.0237C4.11864 63.0237 5.91186 63.0237 7.78305 63.0237C8.09492 63.0237 8.40678 63.0237 8.87458 63.0237C8.87458 62.5559 8.87458 62.1661 8.87458 61.7763C8.87458 49.3017 8.87458 36.9051 8.87458 24.4305C8.87458 24.1186 8.87458 23.7288 8.87458 23.4169C8.95254 22.0915 9.9661 21.078 11.2915 21C11.6034 21 11.9153 21 12.2271 21C31.017 21 49.8068 21 68.5966 21C68.9085 21 69.2203 21 69.5322 21C70.8576 21.1559 71.8712 22.0915 71.8712 23.4169C71.9492 25.1322 71.8712 26.9254 71.8712 28.7186C71.0136 28.7186 70.9356 28.7186 70 28.7186C70 27.0034 69.922 24.5085 69.922 22.7932C50.5864 22.7932 30.0034 22.7932 10.7458 22.7932C10.7458 35.0339 10.8237 48.0542 10.8237 60.3729C23.5322 60.2949 36.8644 60.2949 49.4949 60.2949ZM46.2983 63.1017C46.1424 63.0237 46.0644 62.9458 45.9864 62.9458C42.4 62.9458 38.8136 62.9458 35.2271 62.9458C35.0712 62.9458 34.9153 62.9458 34.7593 63.0237C34.7593 63.0237 34.6814 63.0237 34.6814 63.1017C34.6814 63.1017 34.6814 63.1797 34.6034 63.2576C34.6814 63.7254 34.9932 64.0373 35.539 64.1932C35.9288 64.2712 36.2407 64.3492 36.6305 64.3492C39.2034 64.3492 41.7763 64.3492 44.3492 64.3492C44.739 64.3492 45.0508 64.2712 45.4407 64.1932C45.8305 64.0373 46.2203 63.7254 46.2983 63.1017Z" fill="#13233C" stroke="#13233C"/>
<path d="M78.4983 37.9186C77.7966 37.9186 77.1729 37.9186 76.5492 37.9186C76.5492 36.4372 76.5492 33.4745 76.5492 31.9152C68.5966 31.9152 60.8 31.9152 52.9254 31.9152C52.9254 41.7389 52.9254 55.0711 52.9254 64.9728C53.939 65.0508 55.0305 64.9728 56.122 64.9728C57.2136 64.9728 58.3051 64.9728 59.4746 64.9728C60.5661 64.9728 61.6576 64.9728 62.6712 64.9728C63.7627 64.9728 64.8542 64.9728 66.0237 64.9728C67.1153 64.9728 68.1288 64.9728 69.2203 64.9728C69.4542 64.9728 69.3763 65.5186 69.4543 66.7661C69.2983 66.7661 69.0644 66.844 68.7526 66.844C63.5288 66.844 58.3051 66.844 53.0814 66.844C52.8475 66.844 52.6915 66.844 52.4576 66.844C51.6 66.7661 50.9763 66.1423 50.8983 65.2847C50.8983 65.0508 50.8983 64.7389 50.8983 64.505C50.8983 59.1254 50.8983 53.7457 50.8983 48.3661C50.8983 43.0644 50.8983 37.8406 50.8983 32.5389C50.8983 32.305 50.8983 31.9932 50.8983 31.7593C50.9763 30.8237 51.6 30.2 52.5356 30.2C52.7695 30.2 53.0034 30.2 53.2373 30.2C60.878 30.2 68.5187 30.2 76.1593 30.2C76.3153 30.2 76.4712 30.2 76.6271 30.2C77.7187 30.2779 78.4204 30.8237 78.4204 31.9152C78.5763 33.8644 78.4983 35.8915 78.4983 37.9186Z" fill="#0678EE" stroke="#0678EE"/>
<path d="M85.0474 53.2C85.0474 57.0983 85.0474 60.9966 85.0474 64.8949C85.0474 65.1288 85.0474 65.4407 85.0474 65.6746C84.9694 66.3763 84.5796 66.8441 83.7999 66.922C83.644 66.922 83.4881 66.922 83.3322 66.922C79.6677 66.922 76.0813 66.922 72.4169 66.922C72.183 66.922 71.9491 66.922 71.7152 66.922C71.1694 66.8441 70.7796 66.4542 70.7016 65.8305C70.6237 65.5186 70.7016 65.2068 70.7016 64.8949C70.7016 59.3593 70.7016 53.9017 70.7016 48.3661C70.7016 45.8712 70.7016 43.2983 70.7016 40.8034C70.7016 39.7898 71.1694 39.322 72.183 39.322C76.0033 39.322 79.7457 39.322 83.5661 39.322C84.6576 39.322 85.1254 39.7898 85.1254 40.9593C85.0474 45.0135 85.0474 49.1458 85.0474 53.2ZM83.0983 65.0508C83.2542 63.4135 83.2542 41.8949 83.0203 41.1932C79.5118 41.1932 76.0813 41.1932 72.4949 41.1932C72.4949 47.9763 72.4949 58.3457 72.4949 65.0508C76.0813 65.0508 79.5898 65.0508 83.0983 65.0508Z" fill="#13233C" stroke="#13233C"/>
</svg>
