<svg width="87" height="87" viewBox="0 0 87 87" fill="none" xmlns="http://www.w3.org/2000/svg">
<path d="M58.4837 33.052C59.6139 31.9997 60.7022 30.9933 61.7905 29.9868C64.2183 27.7908 66.6462 25.5491 69.367 23.8106C69.8274 23.5361 70.3716 23.2158 70.9158 23.0786C72.1297 22.7126 73.1343 23.8106 72.7575 25.1373C72.5482 25.915 72.2552 26.647 71.8785 27.379C70.4553 29.9868 68.8228 32.4115 67.0647 34.7447C64.8462 37.7184 62.6277 40.6464 60.4511 43.5744C60.2836 43.7574 60.2418 44.0319 60.2418 44.2606C60.0325 52.0838 57.4372 58.7633 52.456 64.299C48.6469 68.5537 44.0424 71.2529 38.7682 72.4424C31.9452 73.9521 25.7083 72.3509 19.9318 68.1877C17.9644 66.7694 16.2901 65.031 15.1599 62.6977C12.9414 58.5345 13.4437 52.9073 17.2528 49.6591C18.2574 48.7898 19.262 47.9664 20.1829 47.0514C22.1921 45.0841 22.1921 41.8817 20.1829 39.9144C19.3039 39.0452 18.3411 38.2674 17.4202 37.4439C14.7413 35.1565 13.6111 32.137 13.8622 28.477C14.0297 26.1895 14.8669 24.2681 16.1226 22.5296C17.8388 20.1048 20.1411 18.4121 22.6107 16.9939C25.0385 15.6671 27.5919 14.7521 30.229 14.2946C32.1964 13.9287 34.1638 13.9287 36.1311 14.1574C38.6008 14.4319 41.0704 15.0724 43.3727 16.1246C46.4702 17.5429 49.3166 19.4644 51.7444 22.0263C54.5908 25.0001 56.7256 28.477 58.2325 32.503C58.3163 32.6402 58.4 32.8232 58.4837 33.052ZM57.7721 47.0514C57.7302 47.0056 57.6884 46.9599 57.6047 46.9599C57.5209 47.0971 57.4372 47.1886 57.3535 47.3259C54.9676 50.2081 52.5398 53.0446 50.1119 55.881C49.8189 56.247 49.6515 56.613 49.5259 57.0705C49.0655 58.9463 48.3957 60.7305 47.2237 62.286C45.1726 64.9852 42.5355 66.1289 39.438 66.2662C37.638 66.3577 35.8381 66.0832 34.1219 65.58C33.4103 65.3512 32.6987 65.1225 31.9871 64.8022C31.4429 64.5735 31.1918 64.116 31.2755 63.4755C31.3592 62.9265 31.6941 62.5605 32.2382 62.4232C32.4057 62.3775 32.4894 62.3775 32.6568 62.3317C33.494 62.1487 34.1219 61.6912 34.4149 60.822C34.7916 59.5868 35.0428 58.3058 35.3358 57.0248C35.7125 55.332 36.1311 53.6851 37.052 52.2668C38.3496 50.3453 40.1914 49.4303 42.3262 48.9728C42.6611 48.8813 43.0378 48.7898 43.2471 48.5611C47.5586 43.8946 51.9537 39.4112 56.4745 35.0192C56.6838 34.7905 56.7675 34.6075 56.6419 34.2872C55.428 30.6273 53.5862 27.379 51.0747 24.5426C48.605 21.8891 45.8424 19.8304 42.7029 18.4121C40.61 17.4514 38.3915 16.8566 36.1311 16.5821C34.2475 16.3534 32.3638 16.3534 30.4802 16.7194C27.5501 17.3141 24.7874 18.3664 22.1921 20.0134C20.0992 21.3401 18.2993 23.0328 17.0017 25.3203C15.411 28.2483 15.5785 32.6402 18.2574 35.1107C19.1365 35.9342 20.0573 36.712 20.9782 37.4897C22.1503 38.5419 23.1549 39.7772 23.5735 41.4699C24.2432 44.3064 23.6572 46.8226 21.648 48.7898C20.6852 49.7963 19.5969 50.6656 18.5923 51.4891C16.7086 53.1818 15.8715 55.332 15.9552 57.894C16.0808 60.456 17.1691 62.5147 18.8016 64.2075C22.6944 68.0962 27.2571 70.0634 32.3638 70.4752C36.8846 70.8412 41.1542 69.7432 45.1308 67.3184C50.698 63.933 54.5908 58.9463 56.6838 52.2668C57.1861 50.5741 57.5628 48.8813 57.7721 47.0514ZM45.1308 50.0251C46.3865 51.3976 47.5586 52.7243 48.8143 53.9596C48.8143 53.9596 48.898 53.8681 48.9399 53.8223C52.7072 49.2016 56.5163 44.6724 60.2836 40.0059C63.3812 36.0715 66.395 32.0455 69.074 27.745C69.367 27.2875 69.5763 26.83 69.8693 26.3725C69.8274 26.3268 69.7856 26.281 69.7437 26.2353C60.8697 33.3722 53.0002 41.6529 45.1308 50.0251ZM35.587 63.4755C37.1776 63.7957 38.6426 63.933 40.1914 63.7957C41.8658 63.6127 43.3727 63.018 44.6703 61.7827C46.0935 60.4102 46.8888 58.6718 47.3911 56.6588C47.4748 56.3385 47.4748 56.1098 47.2237 55.881C46.1772 54.783 45.1726 53.5936 44.168 52.4498C43.0797 51.2603 43.0797 51.2603 41.6565 51.7636C40.317 52.2211 39.1868 53.0446 38.5589 54.4628C38.1822 55.4235 37.8473 56.3843 37.638 57.3908C37.0939 59.4495 36.9683 61.6455 35.587 63.4755Z" fill="#13233C"/>
<path d="M32.8243 27.1966C32.7406 24.3601 34.9172 21.9354 37.5543 21.8896C40.024 21.8439 42.3262 23.9941 42.3681 27.1508C42.41 29.8958 40.5263 32.3663 37.6381 32.4578C35.1265 32.5035 32.8243 30.2618 32.8243 27.1966ZM35.0428 27.1966C35.0428 28.7521 36.2149 30.0331 37.6799 29.9873C39.0613 29.9416 40.2333 28.6606 40.1914 27.1508C40.1914 25.5496 39.0194 24.3144 37.5543 24.3144C36.1311 24.2686 35.001 25.5953 35.0428 27.1966Z" fill="#0678EE"/>
<path d="M53.1676 35.6603C53.1258 38.5425 50.9491 40.9215 48.3957 40.8757C45.6749 40.7842 43.6657 38.4968 43.6238 35.6603C43.582 32.5493 45.8005 30.1703 48.4794 30.2618C51.1165 30.3533 53.2095 32.7323 53.1676 35.6603ZM50.9491 35.5688C50.9491 34.0133 49.8189 32.7781 48.3957 32.7323C46.9725 32.6866 45.8005 34.0133 45.8005 35.5688C45.8005 37.0785 46.9725 38.3595 48.3957 38.4053C49.8189 38.451 50.9491 37.2158 50.9491 35.5688Z" fill="#0678EE"/>
<path d="M24.955 36.4837C22.4853 36.5752 20.2249 34.242 20.0993 31.5427C19.9738 28.5233 22.0248 26.0528 24.662 25.9155C27.3828 25.7783 29.5176 28.0658 29.6431 30.8107C29.8106 33.9675 27.7595 36.3922 24.955 36.4837ZM24.9131 28.386C23.4899 28.3403 22.3179 29.5755 22.3179 31.131C22.3179 32.7322 23.448 34.0132 24.8712 34.0132C26.2944 34.0132 27.4246 32.8237 27.4246 31.2225C27.4665 29.6213 26.3782 28.386 24.9131 28.386Z" fill="#0678EE"/>
<path d="M31.0245 57.3913C31.0663 60.2735 28.9315 62.6982 26.3781 62.744C23.6573 62.7897 21.4807 60.4107 21.4807 57.3455C21.4807 54.6005 23.6154 52.1301 26.1688 52.1301C28.8059 52.0843 30.9826 54.4175 31.0245 57.3913ZM28.8059 57.437C28.8059 55.8815 27.6757 54.6005 26.2944 54.5548C24.8712 54.509 23.6573 55.8358 23.6573 57.3913C23.6573 58.9467 24.8294 60.2735 26.2107 60.2277C27.6758 60.2277 28.8059 58.9925 28.8059 57.437Z" fill="#0678EE"/>
</svg>
