<svg width="87" height="87" viewBox="0 0 87 87" fill="none" xmlns="http://www.w3.org/2000/svg">
<path d="M20.9673 21.375V17.464H24.8648" stroke="#13233C" stroke-width="3" stroke-miterlimit="10" stroke-linecap="round"/>
<path d="M32.2146 17.464H58.2724" stroke="#13233C" stroke-width="3" stroke-miterlimit="10" stroke-linecap="round" stroke-dasharray="6.67 6.67"/>
<path d="M61.947 17.464H65.8445V21.375" stroke="#13233C" stroke-width="3" stroke-miterlimit="10" stroke-linecap="round"/>
<path d="M65.8445 30.2026V61.267" stroke="#13233C" stroke-width="3" stroke-miterlimit="10" stroke-linecap="round" stroke-dasharray="7.93 7.93"/>
<path d="M65.8445 65.625V69.536H61.947" stroke="#13233C" stroke-width="3" stroke-miterlimit="10" stroke-linecap="round"/>
<path d="M54.486 69.536H28.5394" stroke="#13233C" stroke-width="3" stroke-miterlimit="10" stroke-linecap="round" stroke-dasharray="6.67 6.67"/>
<path d="M24.8648 69.536H20.9673V65.625" stroke="#13233C" stroke-width="3" stroke-miterlimit="10" stroke-linecap="round"/>
<path d="M20.9673 56.7974V25.8447" stroke="#13233C" stroke-width="3" stroke-miterlimit="10" stroke-linecap="round" stroke-dasharray="7.93 7.93"/>
<path d="M23.0833 24.2803H15.0655C14.3973 24.2803 13.9519 23.8333 13.9519 23.1629V15.1174C13.9519 14.447 14.3973 14 15.0655 14H23.0833C23.7514 14 24.1969 14.447 24.1969 15.1174V23.1629C24.1969 23.8333 23.7514 24.2803 23.0833 24.2803Z" fill="white" stroke="#13233C" stroke-width="3" stroke-miterlimit="10"/>
<path d="M71.7466 24.2803H63.7288C63.0607 24.2803 62.6152 23.8333 62.6152 23.1629V15.1174C62.6152 14.447 63.0607 14 63.7288 14H71.7466C72.4148 14 72.8602 14.447 72.8602 15.1174V23.1629C72.8602 23.8333 72.3034 24.2803 71.7466 24.2803Z" fill="white" stroke="#13233C" stroke-width="3" stroke-miterlimit="10"/>
<path d="M23.0833 73H15.0655C14.3973 73 13.9519 72.5531 13.9519 71.8826V63.8372C13.9519 63.1667 14.3973 62.7197 15.0655 62.7197H23.0833C23.7514 62.7197 24.1969 63.1667 24.1969 63.8372V71.8826C24.1969 72.5531 23.7514 73 23.0833 73Z" fill="white" stroke="#13233C" stroke-width="3" stroke-miterlimit="10"/>
<path d="M71.7466 73H63.7288C63.0607 73 62.6152 72.5531 62.6152 71.8826V63.8372C62.6152 63.1667 63.0607 62.7197 63.7288 62.7197H71.7466C72.4148 62.7197 72.8602 63.1667 72.8602 63.8372V71.8826C72.8602 72.5531 72.3034 73 71.7466 73Z" fill="white" stroke="#13233C" stroke-width="3" stroke-miterlimit="10"/>
<path d="M35.4439 32.8845H36.3347H52.5931H53.2612" stroke="#0678EE" stroke-width="3" stroke-linecap="round"/>
<path d="M44.3525 54.1156V32.8845" stroke="#0678EE" stroke-width="3" stroke-linecap="round"/>
<path d="M35.3324 34.7841V32.8845" stroke="#0678EE" stroke-width="3" stroke-linecap="round"/>
<path d="M53.2612 34.7841V32.8845" stroke="#0678EE" stroke-width="3" stroke-linecap="round"/>
<path d="M47.5821 54.1156H41.1233" stroke="#0678EE" stroke-width="3" stroke-linecap="round"/>
</svg>
